<?xml version="1.0" encoding="UTF-8"?>
<svg version="1.1" xmlns="http://www.w3.org/2000/svg" width="100" height="48">
<path d="M0 0 C33 0 66 0 100 0 C100 15.84 100 31.68 100 48 C67 48 34 48 0 48 C0 32.16 0 16.32 0 0 Z " fill="#FEF9FA" transform="translate(0,0)"/>
<path d="M0 0 C0.66 1.32 1.32 2.64 2 4 C2.66 3.01 3.32 2.02 4 1 C4.99 1.99 5.98 2.98 7 4 C7.33 2.68 7.66 1.36 8 0 C11.03333605 -0.22893102 13.97366814 -0.35414522 17 0 C19.0625 1.875 19.0625 1.875 20 4 C20 4.66 20 5.32 20 6 C18.02 6 16.04 6 14 6 C14 6.66 14 7.32 14 8 C15.65 7.67 17.3 7.34 19 7 C18.67 7.99 18.34 8.98 18 10 C9.42 10 0.84 10 -8 10 C-8.33 9.01 -8.66 8.02 -9 7 C-7.68 7.33 -6.36 7.66 -5 8 C-5 7.34 -5 6.68 -5 6 C-6.32 5.67 -7.64 5.34 -9 5 C-9 3.68 -9 2.36 -9 1 C-5.94152152 0.45627049 -3.11227195 0 0 0 Z " fill="#FADCDF" transform="translate(52,38)"/>
<path d="M0 0 C4.21912747 0.4794463 6.79663178 1.16625119 10 4 C9.67 3.01 9.34 2.02 9 1 C12.875 2.75 12.875 2.75 14 5 C14.37677003 9.99220285 14.07396361 12.98020143 11 17 C8.26752652 18.36623674 6.01801098 18.128426 3 18 C2 17 2 17 1.75 13.6875 C2 10 2 10 5 6 C1.7 5.67 -1.6 5.34 -5 5 C-5 4.34 -5 3.68 -5 3 C0.02254631 2.7045561 2.89542386 3.01485372 7 6 C6.10664203 3.64214682 6.10664203 3.64214682 2.9375 2.875 C1.968125 2.58625 0.99875 2.2975 0 2 C0 1.34 0 0.68 0 0 Z " fill="#C42E3B" transform="translate(70,0)"/>
<path d="M0 0 C-0.32095347 3.74445711 -1.36851954 6.33023676 -4.11206055 8.96362305 C-8.47928716 11.36099495 -13.98328927 10.48835361 -18.8125 10.3125 C-19.98232422 10.28994141 -21.15214844 10.26738281 -22.35742188 10.24414062 C-25.23958769 10.18532091 -28.11913681 10.10317141 -31 10 C-30 8 -30 8 -27.56323242 7.03857422 C-26.50467041 6.7138916 -25.4461084 6.38920898 -24.35546875 6.0546875 C-23.20369141 5.70019531 -22.05191406 5.34570312 -20.86523438 4.98046875 C-19.65158203 4.61566406 -18.43792969 4.25085938 -17.1875 3.875 C-15.98544922 3.50246094 -14.78339844 3.12992188 -13.54492188 2.74609375 C-4.52707189 0 -4.52707189 0 0 0 Z " fill="#C82D3A" transform="translate(47,19)"/>
<path d="M0 0 C-0.04125 0.928125 -0.0825 1.85625 -0.125 2.8125 C-0.27136339 6.15809719 -0.27136339 6.15809719 2 9 C-5.75493514 9.09928082 -13.31068715 9.06059488 -21 8 C-21 7.34 -21 6.68 -21 6 C-18.25262623 4.99222971 -15.50250048 3.99358554 -12.75 3 C-11.97269531 2.71382812 -11.19539063 2.42765625 -10.39453125 2.1328125 C-9.64042969 1.86210937 -8.88632812 1.59140625 -8.109375 1.3125 C-7.41811523 1.06113281 -6.72685547 0.80976563 -6.01464844 0.55078125 C-4 0 -4 0 0 0 Z " fill="#C52F3C" transform="translate(70,11)"/>
<path d="M0 0 C1.32 0 2.64 0 4 0 C4 0.66 4 1.32 4 2 C4.66 2 5.32 2 6 2 C6 2.66 6 3.32 6 4 C9.465 3.505 9.465 3.505 13 3 C13 3.66 13 4.32 13 5 C11.68 4.67 10.36 4.34 9 4 C9 4.66 9 5.32 9 6 C11.475 6.99 11.475 6.99 14 8 C13.67 9.32 13.34 10.64 13 12 C9.37 12 5.74 12 2 12 C0.70756464 7.8803623 -0.26252625 4.33168317 0 0 Z " fill="#FBD8DD" transform="translate(84,36)"/>
<path d="M0 0 C0.66 0 1.32 0 2 0 C2.33 0.99 2.66 1.98 3 3 C3.804375 3.144375 4.60875 3.28875 5.4375 3.4375 C8 4 8 4 9 5 C9.14115161 7.67058851 9.04247107 10.32432238 9 13 C6.03 13 3.06 13 0 13 C0 8.71 0 4.42 0 0 Z " fill="#BF3B46" transform="translate(0,35)"/>
<path d="M0 0 C0.66 0 1.32 0 2 0 C2 4.29 2 8.58 2 13 C-4.39075249 13.36174071 -4.39075249 13.36174071 -7 11.8125 C-8 10 -8 10 -7.75 7.375 C-7 5 -7 5 -6 4 C-4.33382885 3.95936168 -2.66611905 3.957279 -1 4 C-0.67 2.68 -0.34 1.36 0 0 Z " fill="#B84952" transform="translate(39,35)"/>
<path d="M0 0 C2.05078125 0.03255208 4.1015625 0.06510417 6.15234375 0.09765625 C6.15234375 3.06765625 6.15234375 6.03765625 6.15234375 9.09765625 C-0 9.1953125 -0 9.1953125 -1.84765625 9.09765625 C-2.84765625 8.09765625 -2.84765625 8.09765625 -2.97265625 4.59765625 C-2.81376564 0.14871911 -2.81376564 0.14871911 0 0 Z " fill="#C1444F" transform="translate(23.84765625,38.90234375)"/>
<path d="M0 0 C1.670625 0.061875 1.670625 0.061875 3.375 0.125 C3.375 3.095 3.375 6.065 3.375 9.125 C0 9.25 0 9.25 -3.625 9.125 C-5.625 7.125 -5.625 7.125 -5.875 4.625 C-5.45054733 0.38047335 -4.12667778 0.14229923 0 0 Z " fill="#C64753" transform="translate(78.625,38.875)"/>
<path d="M0 0 C-0.33 0.33 -0.66 0.66 -1 1 C4.445 1.495 4.445 1.495 10 2 C9.67 2.66 9.34 3.32 9 4 C0.75 4 -7.5 4 -16 4 C-15 2 -15 2 -12.63671875 1.11328125 C-11.66347656 0.84902344 -10.69023437 0.58476562 -9.6875 0.3125 C-8.72199219 0.04050781 -7.75648437 -0.23148438 -6.76171875 -0.51171875 C-4.04794289 -0.99152353 -2.56334995 -0.90721887 0 0 Z " fill="#BF434E" transform="translate(32,25)"/>
<path d="M0 0 C1.2065625 0.0309375 1.2065625 0.0309375 2.4375 0.0625 C3.0975 1.7125 3.7575 3.3625 4.4375 5.0625 C2.4575 5.0625 0.4775 5.0625 -1.5625 5.0625 C-1.5625 5.7225 -1.5625 6.3825 -1.5625 7.0625 C0.0875 6.7325 1.7375 6.4025 3.4375 6.0625 C3.1075 7.0525 2.7775 8.0425 2.4375 9.0625 C0.0625 9.25 0.0625 9.25 -2.5625 9.0625 C-4.5625 6.0625 -4.5625 6.0625 -4.25 3.4375 C-3.27807854 0.07995314 -3.27807854 0.07995314 0 0 Z " fill="#C9535E" transform="translate(67.5625,38.9375)"/>
<path d="M0 0 C5.77807024 -0.2358396 10.51324804 0.13216954 16 2 C16 2.66 16 3.32 16 4 C10.06 4 4.12 4 -2 4 C-1.34 2.68 -0.68 1.36 0 0 Z " fill="#B8414C" transform="translate(49,7)"/>
<path d="M0 0 C-2.1217363 1.33878572 -4.24705188 2.67115476 -6.375 4 C-6.97828125 4.3815625 -7.5815625 4.763125 -8.203125 5.15625 C-12.7734375 8 -12.7734375 8 -15 8 C-14.25 3.25 -14.25 3.25 -12 1 C-10.1953125 0.33203125 -10.1953125 0.33203125 -8.125 -0.1875 C-7.44695313 -0.36667969 -6.76890625 -0.54585937 -6.0703125 -0.73046875 C-3.77181444 -1.02970718 -2.19449036 -0.69377386 0 0 Z " fill="#C3313D" transform="translate(70,23)"/>
<path d="M0 0 C2.5625 0.1875 2.5625 0.1875 4.5625 2.1875 C4.5625 3.1775 4.5625 4.1675 4.5625 5.1875 C2.5825 5.1875 0.6025 5.1875 -1.4375 5.1875 C-1.4375 5.8475 -1.4375 6.5075 -1.4375 7.1875 C0.2125 6.8575 1.8625 6.5275 3.5625 6.1875 C3.2325 7.1775 2.9025 8.1675 2.5625 9.1875 C-2.3125 8.3125 -2.3125 8.3125 -3.4375 7.1875 C-3.5625 4.1875 -3.5625 4.1875 -3.4375 1.1875 C-2.4375 0.1875 -2.4375 0.1875 0 0 Z " fill="#C04B55" transform="translate(14.4375,38.8125)"/>
<path d="M0 0 C3 1 3 1 4 3 C4.66 2.01 5.32 1.02 6 0 C6.99 0.99 7.98 1.98 9 3 C9.66 2.01 10.32 1.02 11 0 C11.66 0.33 12.32 0.66 13 1 C11.68 3.31 10.36 5.62 9 8 C8.01 7.67 7.02 7.34 6 7 C5.01 7 4.02 7 3 7 C2.01 4.69 1.02 2.38 0 0 Z " fill="#B63A44" transform="translate(50,39)"/>
<path d="M0 0 C0.99 0 1.98 0 3 0 C3 3.96 3 7.92 3 12 C2.01 11.67 1.02 11.34 0 11 C0 10.01 0 9.02 0 8 C-1.32 7.34 -2.64 6.68 -4 6 C-4 5.34 -4 4.68 -4 4 C-2.02 4.495 -2.02 4.495 0 5 C0 4.34 0 3.68 0 3 C-1.65 3 -3.3 3 -5 3 C-5 2.67 -5 2.34 -5 2 C-3.35 2 -1.7 2 0 2 C0 1.34 0 0.68 0 0 Z " fill="#FAD7DB" transform="translate(97,36)"/>
<path d="M0 0 C2.0625 0.4375 2.0625 0.4375 4 1 C4 3.31 4 5.62 4 8 C2.35 8 0.7 8 -1 8 C-1.04241723 5.66705225 -1.04092937 3.33297433 -1 1 C-0.67 0.67 -0.34 0.34 0 0 Z " fill="#F9DDDF" transform="translate(3,40)"/>
<path d="M0 0 C1.98 0 3.96 0 6 0 C6 0.66 6 1.32 6 2 C5.01 2.33 4.02 2.66 3 3 C3.99 3.66 4.98 4.32 6 5 C5.67 6.32 5.34 7.64 5 9 C3.35 8.67 1.7 8.34 0 8 C0 7.34 0 6.68 0 6 C1.32 6.33 2.64 6.66 4 7 C4 6.34 4 5.68 4 5 C2.68 4.67 1.36 4.34 0 4 C0 2.68 0 1.36 0 0 Z " fill="#B1464F" transform="translate(43,39)"/>
<path d="M0 0 C1.65 0 3.3 0 5 0 C5 0.66 5 1.32 5 2 C3.68 1.67 2.36 1.34 1 1 C1 1.66 1 2.32 1 3 C3.475 3.99 3.475 3.99 6 5 C5.67 6.32 5.34 7.64 5 9 C2.03 8.505 2.03 8.505 -1 8 C-1 7.34 -1 6.68 -1 6 C0.32 6 1.64 6 3 6 C1.68 5.01 0.36 4.02 -1 3 C-0.67 2.01 -0.34 1.02 0 0 Z " fill="#B4424C" transform="translate(92,39)"/>
<path d="M0 0 C0.33 0 0.66 0 1 0 C1.0825 0.78375 1.165 1.5675 1.25 2.375 C1.72806339 5.14749104 1.72806339 5.14749104 4.0625 6.3125 C4.701875 6.539375 5.34125 6.76625 6 7 C5.01 7 4.02 7 3 7 C3 7.66 3 8.32 3 9 C1.3125 10.125 1.3125 10.125 -1 11 C-3.75 10.125 -3.75 10.125 -6 9 C-6 8.67 -6 8.34 -6 8 C-4.02 7.67 -2.04 7.34 0 7 C-0.66 6.34 -1.32 5.68 -2 5 C-1.46428571 1.46428571 -1.46428571 1.46428571 0 0 Z " fill="#E9C3C6" transform="translate(71,12)"/>
<path d="M0 0 C0.99 0 1.98 0 3 0 C3.33 2.64 3.66 5.28 4 8 C2.35 8 0.7 8 -1 8 C-1 7.34 -1 6.68 -1 6 C-2.32 6 -3.64 6 -5 6 C-5 5.34 -5 4.68 -5 4 C-3.02 4 -1.04 4 1 4 C0.67 2.68 0.34 1.36 0 0 Z " fill="#F8D1D4" transform="translate(18,40)"/>
<path d="M0 0 C0.66 0 1.32 0 2 0 C2 0.66 2 1.32 2 2 C2.66 2 3.32 2 4 2 C4 2.66 4 3.32 4 4 C3.34 4 2.68 4 2 4 C2 5.65 2 7.3 2 9 C2.99 9.33 3.98 9.66 5 10 C3.68 10.33 2.36 10.66 1 11 C-1.42857143 3.57142857 -1.42857143 3.57142857 0 0 Z " fill="#B1424C" transform="translate(85,37)"/>
<path d="M0 0 C2 4 2 4 3 7 C3.99 7.33 4.98 7.66 6 8 C6 8.66 6 9.32 6 10 C4.68 9.67 3.36 9.34 2 9 C2.33 9.99 2.66 10.98 3 12 C2.01 12 1.02 12 0 12 C0 8.04 0 4.08 0 0 Z " fill="#FEE1E6" transform="translate(41,36)"/>
<path d="M0 0 C1.32 0.66 2.64 1.32 4 2 C3.67 3.32 3.34 4.64 3 6 C1.35 5.67 -0.3 5.34 -2 5 C-1.125 1.125 -1.125 1.125 0 0 Z " fill="#F9D8DB" transform="translate(35,40)"/>
<path d="M0 0 C1.32 0.66 2.64 1.32 4 2 C3.67 3.32 3.34 4.64 3 6 C1.35 5.67 -0.3 5.34 -2 5 C-1.125 1.125 -1.125 1.125 0 0 Z " fill="#F5DBDD" transform="translate(24,40)"/>
<path d="M0 0 C0.99 0.33 1.98 0.66 3 1 C2.979375 1.78375 2.95875 2.5675 2.9375 3.375 C2.81315937 5.98114961 2.81315937 5.98114961 4 8 C2.35 8 0.7 8 -1 8 C-0.67 7.01 -0.34 6.02 0 5 C-1.65 5.33 -3.3 5.66 -5 6 C-5 5.34 -5 4.68 -5 4 C-3.02 4 -1.04 4 1 4 C0.67 2.68 0.34 1.36 0 0 Z " fill="#FCE2E6" transform="translate(71,40)"/>
<path d="M0 0 C1.98 0.495 1.98 0.495 4 1 C4 2.65 4 4.3 4 6 C2.35 5.67 0.7 5.34 -1 5 C-0.67 3.35 -0.34 1.7 0 0 Z " fill="#F6DCE0" transform="translate(76,40)"/>
<path d="M0 0 C0.33 0.99 0.66 1.98 1 3 C1.66 3 2.32 3 3 3 C3 3.66 3 4.32 3 5 C4.65 4.67 6.3 4.34 8 4 C7.67 4.99 7.34 5.98 7 7 C4.625 7.1875 4.625 7.1875 2 7 C0 4 0 4 0 0 Z " fill="#BF4A54" transform="translate(63,41)"/>
<path d="M0 0 C3 1 3 1 4 3 C4.66 2.67 5.32 2.34 6 2 C6.33 3.32 6.66 4.64 7 6 C6.01 6.66 5.02 7.32 4 8 C2.68 5.36 1.36 2.72 0 0 Z " fill="#BA444D" transform="translate(50,39)"/>
<path d="M0 0 C0.66 0 1.32 0 2 0 C2 0.66 2 1.32 2 2 C2.66 2.33 3.32 2.66 4 3 C0.25 6 0.25 6 -2 6 C-1.125 1.125 -1.125 1.125 0 0 Z " fill="#BE3E48" transform="translate(57,25)"/>
<path d="M0 0 C0.66 0 1.32 0 2 0 C2.66 2.64 3.32 5.28 4 8 C2.68 8 1.36 8 0 8 C0 5.36 0 2.72 0 0 Z " fill="#FAC9CF" transform="translate(9,40)"/>
<path d="M0 0 C2.31 0 4.62 0 7 0 C7 1.98 7 3.96 7 6 C6.01 4.68 5.02 3.36 4 2 C2.35 2.33 0.7 2.66 -1 3 C-0.67 2.01 -0.34 1.02 0 0 Z " fill="#B02A37" transform="translate(75,39)"/>
</svg>
