<svg width="8" height="14" viewBox="0 0 8 14" fill="none" xmlns="http://www.w3.org/2000/svg">
<path fill-rule="evenodd" clip-rule="evenodd" d="M7.70734 6.293C7.89481 6.48053 8.00013 6.73483 8.00013 7C8.00013 7.26516 7.89481 7.51947 7.70734 7.707L2.05034 13.364C1.9581 13.4595 1.84775 13.5357 1.72575 13.5881C1.60374 13.6405 1.47252 13.6681 1.33974 13.6692C1.20696 13.6704 1.07529 13.6451 0.952389 13.5948C0.829493 13.5445 0.71784 13.4703 0.623948 13.3764C0.530055 13.2825 0.455802 13.1708 0.405521 13.048C0.35524 12.9251 0.329939 12.7934 0.331092 12.6606C0.332246 12.5278 0.359833 12.3966 0.412242 12.2746C0.464651 12.1526 0.540832 12.0422 0.636343 11.95L5.58634 7L0.636343 2.05C0.454185 1.8614 0.35339 1.60879 0.355669 1.3466C0.357947 1.0844 0.463116 0.833587 0.648524 0.648179C0.833932 0.462771 1.08474 0.357602 1.34694 0.355323C1.60914 0.353045 1.86174 0.453839 2.05034 0.635997L7.70734 6.293Z" fill="black"/>
</svg>
