<?xml version="1.0" encoding="UTF-8"?>
<svg version="1.1" xmlns="http://www.w3.org/2000/svg" width="384" height="384">
<path d="M0 0 C1.144092 -0.00644889 2.28818401 -0.01289778 3.46694547 -0.0195421 C4.7192644 -0.01644489 5.97158332 -0.01334769 7.26185131 -0.01015663 C8.60927736 -0.01389375 9.95670123 -0.01849552 11.30412167 -0.02388728 C15.00571953 -0.03612516 18.70722706 -0.03585589 22.40884054 -0.03349853 C26.40145886 -0.03309056 30.39404814 -0.0441276 34.38665295 -0.05361366 C42.20861548 -0.070229 50.03054788 -0.07572345 57.85252658 -0.07683842 C64.21056257 -0.07778865 70.5685886 -0.08189769 76.92662144 -0.08823967 C94.95193223 -0.1058536 112.9772192 -0.11507831 131.00253866 -0.11357872 C132.46026678 -0.11345885 132.46026678 -0.11345885 133.94744396 -0.11333656 C134.920449 -0.1132548 135.89345404 -0.11317304 136.89594408 -0.1130888 C152.66535402 -0.11227588 168.43466845 -0.13141476 184.20405076 -0.1596133 C200.39507217 -0.18833739 216.586047 -0.20215385 232.77709454 -0.20042574 C241.86748613 -0.19976167 250.9577776 -0.20526139 260.04814625 -0.22678185 C267.78790991 -0.24498741 275.52752806 -0.24934615 283.26730386 -0.235763 C287.21567611 -0.22923013 291.16376916 -0.22912742 295.11211491 -0.2464695 C298.72884822 -0.26219157 302.34508075 -0.25934594 305.96180179 -0.24190123 C307.88530901 -0.23737755 309.8088317 -0.25249555 311.73227865 -0.26838052 C321.90605251 -0.18714693 327.72538346 2.58419231 335.30022717 9.25726891 C335.96022717 9.58726891 336.62022717 9.91726891 337.30022717 10.25726891 C338.31294969 15.27484372 338.44296915 20.2413564 338.42721081 25.34100914 C338.4287708 26.12609321 338.43033079 26.91117727 338.43193805 27.72005177 C338.43590801 30.33534149 338.43277398 32.95057256 338.4296217 35.56586266 C338.43097751 37.44713945 338.43275846 39.32841598 338.43493176 41.209692 C338.43948461 46.30876506 338.43772535 51.40781785 338.43455267 56.50689125 C338.43201799 61.8474311 338.4343697 67.18796923 338.43593884 72.52850914 C338.43775729 81.49636712 338.43536271 90.46421686 338.43059826 99.43207359 C338.42515627 109.79479031 338.42691915 120.15748735 338.43242466 130.52020359 C338.43696501 139.42314224 338.43760182 148.32607497 338.434986 157.2290144 C338.43342831 162.5438456 338.43321556 167.85866755 338.43652248 173.17349815 C338.43941457 178.17050534 338.43740088 183.1674872 338.43162823 188.16449165 C338.43030781 189.99664709 338.43068254 191.82880466 338.43289089 193.66095924 C338.43563064 196.16517768 338.43218677 198.66931536 338.42721081 201.17352867 C338.42944153 201.89542602 338.43167225 202.61732336 338.43397057 203.36109638 C338.41712882 207.74265117 338.17323883 211.95827511 337.30022717 216.25726891 C335.11272717 217.88226891 335.11272717 217.88226891 332.30022717 219.25726891 C331.31022717 220.10289391 330.32022717 220.94851891 329.30022717 221.81976891 C324.81957309 225.46030034 321.33204482 226.50635744 315.60045433 226.51453781 C313.88431632 226.52421115 313.88431632 226.52421115 312.13350886 226.53407991 C310.88118993 226.53098271 309.62887101 226.5278855 308.33860302 226.52469444 C306.99117697 226.52843156 305.6437531 226.53303333 304.29633266 226.53842509 C300.5947348 226.55066297 296.89322727 226.5503937 293.19161379 226.54803634 C289.19899547 226.54762837 285.20640619 226.55866541 281.21380138 226.56815147 C273.39183885 226.58476681 265.56990645 226.59026126 257.74792775 226.59137623 C251.38989176 226.59232646 245.03186573 226.5964355 238.67383289 226.60277748 C220.6485221 226.62039141 202.62323513 226.62961612 184.59791567 226.62811653 C183.14018755 226.62799666 183.14018755 226.62799666 181.65301037 226.62787437 C180.68000533 226.62779261 179.70700029 226.62771085 178.70451025 226.62762661 C162.93510031 226.62681369 147.16578588 226.64595257 131.39640357 226.67415111 C115.20538216 226.7028752 99.01440733 226.71669166 82.82335979 226.71496356 C73.7329682 226.71429949 64.64267673 226.71979921 55.55230808 226.74131966 C47.81254442 226.75952522 40.07292627 226.76388396 32.33315047 226.75030081 C28.38477822 226.74376794 24.43668517 226.74366523 20.48833942 226.76100731 C16.87160611 226.77672938 13.25537358 226.77388375 9.63865254 226.75643905 C7.71514532 226.75191536 5.79162263 226.76703337 3.86817569 226.78291833 C-6.30559817 226.70168474 -12.12492913 223.9303455 -19.69977283 217.25726891 C-20.35977283 216.92726891 -21.01977283 216.59726891 -21.69977283 216.25726891 C-22.71249536 211.23969409 -22.84251482 206.27318141 -22.82675648 201.17352867 C-22.82831647 200.3884446 -22.82987646 199.60336054 -22.83148372 198.79448605 C-22.83545368 196.17919632 -22.83231965 193.56396525 -22.82916737 190.94867516 C-22.83052318 189.06739836 -22.83230413 187.18612184 -22.83447742 185.30484581 C-22.83903028 180.20577275 -22.83727102 175.10671996 -22.83409834 170.00764656 C-22.83156366 164.66710672 -22.83391537 159.32656859 -22.8354845 153.98602867 C-22.83730296 145.01817069 -22.83490838 136.05032095 -22.83014393 127.08246422 C-22.82470194 116.7197475 -22.82646482 106.35705046 -22.83197033 95.99433422 C-22.83651068 87.09139557 -22.83714749 78.18846285 -22.83453166 69.28552341 C-22.83297398 63.97069222 -22.83276123 58.65587026 -22.83606815 53.34103966 C-22.83896024 48.34403247 -22.83694655 43.34705061 -22.8311739 38.35004616 C-22.82985348 36.51789072 -22.83022821 34.68573315 -22.83243656 32.85357857 C-22.83517631 30.34936014 -22.83173244 27.84522245 -22.82675648 25.34100914 C-22.8289872 24.6191118 -22.83121792 23.89721445 -22.83351624 23.15344143 C-22.81667449 18.77188665 -22.5727845 14.55626271 -21.69977283 10.25726891 C-19.51227283 8.63226891 -19.51227283 8.63226891 -16.69977283 7.25726891 C-15.70977283 6.41164391 -14.71977283 5.56601891 -13.69977283 4.69476891 C-9.21911876 1.05423747 -5.73159049 0.00818037 0 0 Z " fill="#3CA2D8" transform="translate(32.69977283477783,75.74273109436035)"/>
<path d="M0 0 C6.6 0 13.2 0 20 0 C20.495 0.99 20.495 0.99 21 2 C21.33 1.34 21.66 0.68 22 0 C29.92 0 37.84 0 46 0 C47.32 2.97 48.64 5.94 50 9 C52.33411133 6.13540882 53.68753462 3.44094186 55 0 C65.08356368 -0.04635541 75.16710198 -0.08188554 85.25075054 -0.10362434 C89.93307448 -0.11405826 94.61532547 -0.12821035 99.29760742 -0.15087891 C103.81688465 -0.17262119 108.33609175 -0.18457158 112.85541725 -0.18975449 C114.57897864 -0.19344774 116.30253623 -0.20065974 118.02606773 -0.21146011 C120.44153492 -0.22599345 122.85671287 -0.22797717 125.2722168 -0.22705078 C125.98359802 -0.23424133 126.69497925 -0.24143188 127.42791748 -0.24884033 C131.39571246 -0.23239108 134.42571404 0.25307845 138 2 C138 1.34 138 0.68 138 0 C144.6 0 151.2 0 158 0 C158 0.66 158 1.32 158 2 C158.81694336 1.67620361 159.63388672 1.35240723 160.47558594 1.01879883 C164.50515075 -0.14602342 168.23549545 -0.30582916 172.390625 -0.30078125 C173.17644958 -0.30506638 173.96227417 -0.3093515 174.77191162 -0.31376648 C176.42247558 -0.3194815 178.07306471 -0.32003102 179.72363281 -0.31567383 C182.25628853 -0.3124921 184.78779911 -0.33608143 187.3203125 -0.36132812 C188.92708186 -0.36359916 190.53385436 -0.36430553 192.140625 -0.36328125 C192.89893616 -0.372491 193.65724731 -0.38170074 194.4385376 -0.39118958 C196.56347656 -0.37231445 196.56347656 -0.37231445 200 0 C200.99 1.485 200.99 1.485 202 3 C202.33 2.01 202.66 1.02 203 0 C206.62484999 -0.08681476 210.24943443 -0.14032721 213.875 -0.1875 C215.42380859 -0.22520508 215.42380859 -0.22520508 217.00390625 -0.26367188 C217.99003906 -0.27333984 218.97617187 -0.28300781 219.9921875 -0.29296875 C220.90339355 -0.3086792 221.81459961 -0.32438965 222.75341797 -0.34057617 C223.49479004 -0.22818604 224.23616211 -0.1157959 225 0 C225.99 1.485 225.99 1.485 227 3 C227 2.01 227 1.02 227 0 C234.26 0 241.52 0 249 0 C249 14.85 249 29.7 249 45 C241.74 45 234.48 45 227 45 C226.01 43.68 225.02 42.36 224 41 C223.67 42.32 223.34 43.64 223 45 C214.09 45 205.18 45 196 45 C194 41 194 41 194 38 C190.535 38.495 190.535 38.495 187 39 C186.01 41.97 186.01 41.97 185 45 C181.4375692 45.05827558 177.87526181 45.09368885 174.3125 45.125 C173.30509766 45.14175781 172.29769531 45.15851563 171.25976562 45.17578125 C169.79506836 45.18544922 169.79506836 45.18544922 168.30078125 45.1953125 C167.40528564 45.20578613 166.50979004 45.21625977 165.5871582 45.22705078 C162.73831743 44.97703456 160.59105457 44.18016512 158 43 C158 43.66 158 44.32 158 45 C147.11 45 136.22 45 125 45 C125 41.37 125 37.74 125 34 C124.34 34 123.68 34 123 34 C123 37.63 123 41.26 123 45 C87.36 45 51.72 45 15 45 C14.34 43.02 13.68 41.04 13 39 C9.535 38.505 9.535 38.505 6 38 C5.855625 38.78375 5.71125 39.5675 5.5625 40.375 C5 43 5 43 4 45 C-3.92 45 -11.84 45 -20 45 C-16.98881 36.76941399 -13.62749202 28.78759841 -10 20.8125 C-9.58508301 19.89903809 -9.17016602 18.98557617 -8.74267578 18.04443359 C-5.95601004 11.96194707 -3.02005937 5.97001022 0 0 Z " fill="#F7FBFD" transform="translate(62,142)"/>
<path d="M0 0 C6.8475 -0.103125 13.695 -0.20625 20.75 -0.3125 C22.9062793 -0.35802002 25.06255859 -0.40354004 27.28417969 -0.45043945 C28.99672896 -0.46504491 30.7092956 -0.47778545 32.421875 -0.48828125 C33.3082666 -0.51386108 34.1946582 -0.53944092 35.10791016 -0.5657959 C41.41438252 -0.57026731 41.41438252 -0.57026731 44.59863281 2.53051758 C45.06108398 3.34544678 45.52353516 4.16037598 46 5 C49.10659473 4.32958343 49.10659473 4.32958343 50.19946289 1.96191406 C52 0 52 0 55.48999023 -0.45410156 C56.92968009 -0.45346897 58.36946744 -0.43090831 59.80859375 -0.390625 C60.57172379 -0.38496521 61.33485382 -0.37930542 62.12110901 -0.37347412 C64.56054536 -0.35109669 66.99850954 -0.30095752 69.4375 -0.25 C71.07615038 -0.22993159 72.71482411 -0.21168141 74.35351562 -0.1953125 C77.36285187 -0.16264598 80.37162823 -0.11971808 83.38061523 -0.06347656 C88.26605682 0.02220403 93.14570919 -0.02065247 98.03125 -0.0703125 C100.12971351 -0.08510412 102.22817835 -0.09795362 104.32666016 -0.10986328 C105.77558275 -0.11995463 107.22448482 -0.13362676 108.67333984 -0.15087891 C110.77186016 -0.17517506 112.87011461 -0.18648705 114.96875 -0.1953125 C116.22107422 -0.20578613 117.47339844 -0.21625977 118.76367188 -0.22705078 C121.80347552 -0.01378755 123.4601421 0.39232399 126 2 C126 1.34 126 0.68 126 0 C158 0 190 0 222 0 C222.02505615 0.65597168 222.0501123 1.31194336 222.07592773 1.98779297 C222.1917326 4.95040183 222.31452886 7.91268031 222.4375 10.875 C222.47681641 11.90753906 222.51613281 12.94007813 222.55664062 14.00390625 C222.61948242 15.48310547 222.61948242 15.48310547 222.68359375 16.9921875 C222.72025146 17.90339355 222.75690918 18.81459961 222.79467773 19.75341797 C222.86577065 22.03483481 222.86577065 22.03483481 224 24 C224.82570586 30.52442992 223.71851622 35.56917734 220 41 C216.53979899 44.46020101 212.92089148 44.92381966 208.13745117 45.11352539 C206.60568237 45.10567017 206.60568237 45.10567017 205.04296875 45.09765625 C203.93115234 45.09443359 202.81933594 45.09121094 201.67382812 45.08789062 C200.52333984 45.07951172 199.37285156 45.07113281 198.1875 45.0625 C197.01767578 45.05798828 195.84785156 45.05347656 194.64257812 45.04882812 C191.76166642 45.0370693 188.88085956 45.02063426 186 45 C185.67 44.34 185.34 43.68 185 43 C184.47811096 43.32531708 183.95622192 43.65063416 183.41851807 43.98580933 C180.26037554 45.31015697 177.72781005 45.23973263 174.30371094 45.22705078 C173.30797058 45.22748886 173.30797058 45.22748886 172.29211426 45.22793579 C170.10606649 45.22654658 167.92036296 45.21100503 165.734375 45.1953125 C164.21551703 45.19158091 162.69665665 45.18873463 161.17779541 45.18673706 C157.18617063 45.1791121 153.19469211 45.15947344 149.203125 45.1373291 C145.12762429 45.11684614 141.05209988 45.10773011 136.9765625 45.09765625 C128.98430799 45.07622641 120.99217221 45.04210426 113 45 C113 41.04 113 37.08 113 33 C112.34 33 111.68 33 111 33 C111 36.96 111 40.92 111 45 C104.07 45 97.14 45 90 45 C89.67 41.37 89.34 37.74 89 34 C85.04 34 81.08 34 77 34 C77 37.63 77 41.26 77 45 C72.93590353 45.16196399 68.87825304 45.28091646 64.8125 45.375 C63.66201172 45.42527344 62.51152344 45.47554687 61.32617188 45.52734375 C52.94688237 45.67307052 52.94688237 45.67307052 50.08349609 43.63769531 C48.69921875 41.9765625 48.69921875 41.9765625 47 39 C46.195625 39.804375 45.39125 40.60875 44.5625 41.4375 C41 45 41 45 37.12280273 45.11352539 C35.39305834 45.11327423 33.66330895 45.10771043 31.93359375 45.09765625 C31.1286145 45.09664917 30.32363525 45.09564209 29.4942627 45.09460449 C26.47532739 45.08935614 23.45641233 45.075395 20.4375 45.0625 C10.3209375 45.0315625 10.3209375 45.0315625 0 45 C0 30.15 0 15.3 0 0 Z " fill="#F6FAFD" transform="translate(106,197)"/>
<path d="M0 0 C4.764375 -0.20625 9.52875 -0.4125 14.4375 -0.625 C16.66391235 -0.76156006 16.66391235 -0.76156006 18.93530273 -0.90087891 C28.55346444 -1.10178384 28.55346444 -1.10178384 32.98095703 2.27050781 C35.2112487 4.74860966 37.17184086 7.21522041 39 10 C39.51771973 9.56856689 40.03543945 9.13713379 40.56884766 8.69262695 C41.80371094 7.66357422 43.03857422 6.63452148 44.2734375 5.60546875 C46.2221048 3.91774261 46.2221048 3.91774261 48 1 C51.10107422 0.62768555 51.10107422 0.62768555 55.0546875 0.63671875 C55.75264435 0.63622025 56.4506012 0.63572174 57.16970825 0.63520813 C58.6475102 0.63754998 60.12531603 0.6472852 61.60302734 0.66381836 C63.85941502 0.68733755 66.11461526 0.68438993 68.37109375 0.67773438 C80.75527902 0.7258449 80.75527902 0.7258449 84 3 C86.82544031 7.23816047 86.65366373 11.02398485 86 16 C83.47625748 19.8826808 80.4511772 21.04617631 76 22 C71.99376193 22.153692 68.00680906 22.11670318 64 22 C64 25.63 64 29.26 64 33 C51.06636771 34.53363229 51.06636771 34.53363229 46 30.7734375 C43.8031212 28.27378374 41.83015308 25.77746809 40 23 C38.87105124 23.93274109 37.74699124 24.87140122 36.625 25.8125 C35.99851563 26.33457031 35.37203125 26.85664063 34.7265625 27.39453125 C32.7778952 29.08225739 32.7778952 29.08225739 31 32 C27.92724609 32.34057617 27.92724609 32.34057617 24.0234375 32.29296875 C22.76966309 32.28547607 21.51588867 32.2779834 20.22412109 32.27026367 C18.62391113 32.24295166 17.02370117 32.21563965 15.375 32.1875 C10.30125 32.125625 5.2275 32.06375 0 32 C0 21.44 0 10.88 0 0 Z " fill="#188DC5" transform="translate(113,203)"/>
<path d="M0 0 C1.26328125 0.02707031 2.5265625 0.05414063 3.828125 0.08203125 C4.79234375 0.11683594 5.7565625 0.15164062 6.75 0.1875 C6.75 2.1675 6.75 4.1475 6.75 6.1875 C6.06292969 6.23648438 5.37585938 6.28546875 4.66796875 6.3359375 C3.76691406 6.41070312 2.86585938 6.48546875 1.9375 6.5625 C1.04417969 6.63210937 0.15085938 6.70171875 -0.76953125 6.7734375 C-3.49398499 7.05395036 -3.49398499 7.05395036 -6.25 9.1875 C-7.45896463 14.06653584 -7.70225428 19.34665241 -6.25 24.1875 C-3.28 24.1875 -0.31 24.1875 2.75 24.1875 C3.04769287 23.49599854 3.34538574 22.80449707 3.65209961 22.09204102 C4.99477486 18.97696102 6.34108667 15.86346602 7.6875 12.75 C8.15607422 11.66138672 8.62464844 10.57277344 9.10742188 9.45117188 C9.7793457 7.89946289 9.7793457 7.89946289 10.46484375 6.31640625 C11.08540649 4.87890015 11.08540649 4.87890015 11.71850586 3.41235352 C12.75 1.1875 12.75 1.1875 13.75 0.1875 C15.60287502 0.11523498 17.45833878 0.1036878 19.3125 0.125 C20.32441406 0.13402344 21.33632812 0.14304688 22.37890625 0.15234375 C23.16136719 0.16394531 23.94382812 0.17554688 24.75 0.1875 C29.41030743 8.92826094 33.03707965 18.01440265 36.75 27.1875 C37.08 18.2775 37.41 9.3675 37.75 0.1875 C41.71 0.1875 45.67 0.1875 49.75 0.1875 C52.80190042 3.70409308 54.5006364 6.14507087 56.5 10.1875 C57.01820313 11.14140625 57.53640625 12.0953125 58.0703125 13.078125 C59.33820071 15.42606614 60.54984994 17.80422328 61.75 20.1875 C62.08 13.5875 62.41 6.9875 62.75 0.1875 C65.06 0.1875 67.37 0.1875 69.75 0.1875 C69.75 10.7475 69.75 21.3075 69.75 32.1875 C59.75 32.1875 59.75 32.1875 57.32958984 30.07617188 C56.79543457 29.11259766 56.2612793 28.14902344 55.7109375 27.15625 C55.11152344 26.11855469 54.51210938 25.08085937 53.89453125 24.01171875 C53.31058594 22.91472656 52.72664063 21.81773437 52.125 20.6875 C51.19107422 19.04201172 51.19107422 19.04201172 50.23828125 17.36328125 C48.70851798 14.65677701 47.2246954 11.92439867 45.75 9.1875 C45.42 16.7775 45.09 24.3675 44.75 32.1875 C39.8 32.1875 34.85 32.1875 29.75 32.1875 C28.76 29.8775 27.77 27.5675 26.75 25.1875 C21.47 24.8575 16.19 24.5275 10.75 24.1875 C10.09 26.4975 9.43 28.8075 8.75 31.1875 C6.90526785 33.03223215 4.03789953 32.40393526 1.5625 32.4375 C-5.10393405 32.36456308 -8.77822288 31.59423036 -13.625 26.875 C-16.719137 21.71377147 -15.93050649 14.92416968 -15.25 9.1875 C-12.61866588 1.84392978 -7.30709952 -0.20297499 0 0 Z " fill="#24A4D9" transform="translate(233.25,148.8125)"/>
<path d="M0 0 C3.96 0 7.92 0 12 0 C15.96 9.24 19.92 18.48 24 28 C24.33 18.76 24.66 9.52 25 0 C28.96 0 32.92 0 37 0 C40.33333333 6.66666667 43.66666667 13.33333333 47 20 C47.23710693 19.42967041 47.47421387 18.85934082 47.71850586 18.27172852 C48.78895634 15.70091618 49.86317581 13.1316958 50.9375 10.5625 C51.31068359 9.66466797 51.68386719 8.76683594 52.06835938 7.84179688 C52.60493164 6.56079102 52.60493164 6.56079102 53.15234375 5.25390625 C53.48226318 4.46314697 53.81218262 3.6723877 54.15209961 2.85766602 C55 1 55 1 56 0 C60.29 0 64.58 0 69 0 C69 10.56 69 21.12 69 32 C66.36 32 63.72 32 61 32 C60.67 24.41 60.34 16.82 60 9 C56.7 16.59 53.4 24.18 50 32 C47.69 32 45.38 32 43 32 C39.7 24.41 36.4 16.82 33 9 C32.67 16.59 32.34 24.18 32 32 C27.05 32 22.1 32 17 32 C14 26 14 26 14 24 C8.72 24.33 3.44 24.66 -2 25 C-2.99 27.31 -3.98 29.62 -5 32 C-7.64 32 -10.28 32 -13 32 C-10.72578162 24.75423446 -7.88273904 17.87948128 -4.8125 10.9375 C-4.34908203 9.88111328 -3.88566406 8.82472656 -3.40820312 7.73632812 C-2.27566158 5.15600152 -1.13832409 2.57778082 0 0 Z " fill="#24A7DC" transform="translate(66,149)"/>
<path d="M0 0 C2.82544031 4.23816047 2.65366373 8.02398485 2 13 C-0.52374252 16.8826808 -3.5488228 18.04617631 -8 19 C-12.00623807 19.153692 -15.99319094 19.11670318 -20 19 C-20 22.63 -20 26.26 -20 30 C-24.95 30 -29.9 30 -35 30 C-35 29.67 -35 29.34 -35 29 C-30.38 29 -25.76 29 -21 29 C-22.11126659 27.66098208 -22.11126659 27.66098208 -24.94140625 27.90234375 C-26.13636719 27.91394531 -27.33132812 27.92554688 -28.5625 27.9375 C-29.76003906 27.94652344 -30.95757812 27.95554688 -32.19140625 27.96484375 C-33.58166016 27.98224609 -33.58166016 27.98224609 -35 28 C-35 27.67 -35 27.34 -35 27 C-33.02 27 -31.04 27 -29 27 C-29.62648437 26.24074219 -30.25296875 25.48148438 -30.8984375 24.69921875 C-31.71570313 23.70535156 -32.53296875 22.71148437 -33.375 21.6875 C-34.18710938 20.70136719 -34.99921875 19.71523437 -35.8359375 18.69921875 C-38 16 -38 16 -40 13 C-39.54109375 12.55269531 -39.0821875 12.10539063 -38.609375 11.64453125 C-35.15686626 8.2427947 -32.01724627 4.7994953 -29 1 C-28.34 0.67 -27.68 0.34 -27 0 C-27 -0.33 -27 -0.66 -27 -1 C-23.43842366 -1.22677207 -19.87584575 -1.42815479 -16.3125 -1.625 C-15.30509766 -1.68945312 -14.29769531 -1.75390625 -13.25976562 -1.8203125 C-12.28330078 -1.871875 -11.30683594 -1.9234375 -10.30078125 -1.9765625 C-9.40528564 -2.02893066 -8.50979004 -2.08129883 -7.5871582 -2.13525391 C-4.62451012 -1.98036978 -2.63003891 -1.36330915 0 0 Z " fill="#2297CF" transform="translate(197,206)"/>
<path d="M0 0 C6.31125 -0.12375 6.31125 -0.12375 12.75 -0.25 C14.0709668 -0.28641602 15.39193359 -0.32283203 16.75292969 -0.36035156 C17.79868164 -0.3703418 18.84443359 -0.38033203 19.921875 -0.390625 C20.99018555 -0.41157227 22.05849609 -0.43251953 23.15917969 -0.45410156 C26.72097179 0.11524644 27.87160876 1.12976285 30 4 C30.6041049 9.43694413 30.36944106 12.50741192 27 17 C27.49113281 17.37769531 27.98226562 17.75539062 28.48828125 18.14453125 C30.57897883 20.71063292 30.30262202 22.42570933 30.1875 25.6875 C30.16042969 26.68136719 30.13335937 27.67523438 30.10546875 28.69921875 C30.07066406 29.45847656 30.03585938 30.21773437 30 31 C27.69 31 25.38 31 23 31 C22.34 27.7 21.68 24.4 21 21 C16.71 20.67 12.42 20.34 8 20 C8 23.96 8 27.92 8 32 C5.36 32 2.72 32 0 32 C0 21.44 0 10.88 0 0 Z " fill="#1D91C9" transform="translate(203,204)"/>
<path d="M0 0 C4.021875 -0.0825 8.04375 -0.165 12.1875 -0.25 C13.44715576 -0.28641602 14.70681152 -0.32283203 16.00463867 -0.36035156 C17.50861206 -0.37533691 17.50861206 -0.37533691 19.04296875 -0.390625 C20.06414795 -0.41157227 21.08532715 -0.43251953 22.13745117 -0.45410156 C25.7936509 0.12590112 27.43398235 1.36881089 30 4 C30.68258632 8.70226135 30.63194735 11.51906171 28 15.5 C27.01 16.7375 27.01 16.7375 26 18 C26.99 18.33 27.98 18.66 29 19 C30.32229189 21.64458379 30.09677194 23.67761301 30.0625 26.625 C30.05347656 27.62789062 30.04445312 28.63078125 30.03515625 29.6640625 C30.02355469 30.43492187 30.01195312 31.20578125 30 32 C27.69 32 25.38 32 23 32 C22.67 28.37 22.34 24.74 22 21 C17.05 20.67 12.1 20.34 7 20 C7 23.96 7 27.92 7 32 C4.69 32 2.38 32 0 32 C0 21.44 0 10.88 0 0 Z " fill="#23A2D7" transform="translate(171,149)"/>
<path d="M0 0 C41.62382247 -0.02286786 83.24764422 -0.04049899 124.87147173 -0.05106533 C129.78085095 -0.0523161 134.69023017 -0.05361042 139.59960938 -0.05493164 C141.06571899 -0.05532511 141.06571899 -0.05532511 142.56144698 -0.05572652 C158.40632085 -0.06008282 174.2511911 -0.06797015 190.09606282 -0.0771528 C206.34339055 -0.08649044 222.59071637 -0.09205585 238.83804667 -0.09408849 C248.87082764 -0.09546349 258.9035984 -0.09981283 268.93637623 -0.10791647 C275.80775829 -0.11318529 282.67913504 -0.11480398 289.55051897 -0.11350138 C293.52029611 -0.11285821 297.49005535 -0.11387311 301.45982933 -0.11920547 C305.08923966 -0.1240453 308.71861993 -0.12433477 312.3480316 -0.12089889 C314.29309916 -0.12027136 316.23816633 -0.12460788 318.18322885 -0.12908131 C319.3262813 -0.12709026 320.46933375 -0.12509921 321.64702415 -0.12304783 C322.6396131 -0.12342755 323.63220204 -0.12380727 324.65486944 -0.1241985 C327 0 327 0 329 1 C329 1.99 329 2.98 329 4 C329.598125 4.268125 330.19625 4.53625 330.8125 4.8125 C333.04593283 6.02493496 334.49938199 6.94652273 336 9 C335.6875 11.1875 335.6875 11.1875 335 13 C334.896875 12.360625 334.79375 11.72125 334.6875 11.0625 C334.460625 10.381875 334.23375 9.70125 334 9 C333.01 8.67 332.02 8.34 331 8 C331 7.34 331 6.68 331 6 C330.360625 5.87625 329.72125 5.7525 329.0625 5.625 C327.42911198 5.29165551 325.79651896 4.94509191 324.18703157 4.51078176 C317.46590295 2.77910046 310.97323635 2.71580816 304.06193542 2.73498535 C302.13740625 2.72841345 302.13740625 2.72841345 300.1739977 2.72170877 C296.63333578 2.70984804 293.09276681 2.71021913 289.55208981 2.71264386 C285.72594443 2.71306484 281.89983046 2.70195135 278.07369995 2.69218445 C271.45058725 2.6767583 264.82749578 2.66832624 258.20436668 2.66447449 C248.62417192 2.65871841 239.04403422 2.6401189 229.46386472 2.61803395 C213.91350052 2.58234846 198.36313309 2.55401841 182.81274414 2.53173828 C181.88282047 2.53040329 180.9528968 2.5290683 179.99479363 2.52769285 C172.44691675 2.51691278 164.89903938 2.50649039 157.35116196 2.4960928 C150.74590786 2.48698051 144.14065399 2.47772873 137.53540039 2.46826172 C136.6050969 2.46693098 135.67479341 2.46560023 134.7162989 2.46422917 C119.216728 2.44181662 103.71718163 2.41163343 88.21763593 2.37586927 C78.65795612 2.35418942 69.09831449 2.33957954 59.53861145 2.33403051 C52.9948028 2.32979028 46.45103056 2.31857098 39.90724208 2.30180657 C36.12954336 2.29238349 32.35191277 2.2862941 28.57420158 2.28886986 C24.48377858 2.29159917 20.39354603 2.27906803 16.30314636 2.26501465 C15.10306999 2.26831362 13.90299362 2.2716126 12.66655129 2.27501154 C11.57383457 2.26877944 10.48111785 2.26254735 9.35528851 2.2561264 C7.93865525 2.25433514 7.93865525 2.25433514 6.49340314 2.25250769 C3.88423304 1.98827624 2.24204739 1.32478487 0 0 Z " fill="#C9E8F8" transform="translate(30,77)"/>
<path d="M0 0 C3.96 0 7.92 0 12 0 C15.96 9.24 19.92 18.48 24 28 C24.33 18.76 24.66 9.52 25 0 C25.33 0 25.66 0 26 0 C26 9.9 26 19.8 26 30 C27.98 30 29.96 30 32 30 C32 30.66 32 31.32 32 32 C27.05 32 22.1 32 17 32 C14 26 14 26 14 24 C8.72 24.33 3.44 24.66 -2 25 C-2.99 27.31 -3.98 29.62 -5 32 C-7.64 32 -10.28 32 -13 32 C-10.72578162 24.75423446 -7.88273904 17.87948128 -4.8125 10.9375 C-4.34908203 9.88111328 -3.88566406 8.82472656 -3.40820312 7.73632812 C-2.27566158 5.15600152 -1.13832409 2.57778082 0 0 Z " fill="#22A6DA" transform="translate(66,149)"/>
<path d="M0 0 C-1.485 0.495 -1.485 0.495 -3 1 C-3 1.66 -3 2.32 -3 3 C-110.91 3 -218.82 3 -330 3 C-326.57358224 -0.42641776 -326.15506404 -0.37617514 -321.57920837 -0.38755417 C-320.44646516 -0.39762741 -319.31372194 -0.40770065 -318.14665318 -0.41807914 C-316.89677081 -0.41391368 -315.64688845 -0.40974823 -314.35913086 -0.40545654 C-313.02223798 -0.41160871 -311.6853506 -0.41907159 -310.34847164 -0.42773652 C-306.66688289 -0.44776856 -302.98548579 -0.44907479 -299.3038516 -0.4473989 C-295.33649097 -0.44882926 -291.36920723 -0.46746387 -287.40188599 -0.48399353 C-279.62678513 -0.51366256 -271.8517328 -0.52739891 -264.07658315 -0.53589597 C-255.0284438 -0.54641315 -245.98037302 -0.57293443 -236.93227136 -0.60024002 C-220.79177786 -0.64843264 -204.65128544 -0.6825203 -188.51074219 -0.70849609 C-172.8368806 -0.73373741 -157.16307565 -0.76807903 -141.48925781 -0.81298828 C-140.04130453 -0.81713462 -140.04130453 -0.81713462 -138.56409967 -0.82136473 C-136.61957425 -0.82693907 -134.67504883 -0.83251385 -132.73052341 -0.83808906 C-131.77137741 -0.84083711 -130.81223141 -0.84358515 -129.82402039 -0.84641647 C-128.38901114 -0.85053223 -128.38901114 -0.85053223 -126.92501181 -0.85473113 C-112.00498613 -0.89718936 -97.08494125 -0.93193195 -82.16489357 -0.96563159 C-76.75106539 -0.97792937 -71.33724082 -0.9912477 -65.92341685 -1.00527182 C-57.33659994 -1.02744631 -48.74978994 -1.04627133 -40.16295218 -1.05821076 C-36.23758234 -1.06372163 -32.31223272 -1.07080742 -28.38687515 -1.08220482 C-24.79701405 -1.09256212 -21.20717732 -1.09827659 -17.61730206 -1.10019293 C-15.69597687 -1.10241431 -13.77465938 -1.10958139 -11.85334682 -1.11689448 C-10.72060361 -1.11653673 -9.58786039 -1.11617898 -8.42079163 -1.11581039 C-7.43932191 -1.11760166 -6.45785219 -1.11939292 -5.44664097 -1.12123847 C-3 -1 -3 -1 0 0 Z " fill="#1B4369" transform="translate(357,299)"/>
<path d="M0 0 C3.96 0 7.92 0 12 0 C15.05190042 3.51659308 16.7506364 5.95757087 18.75 10 C19.26820313 10.95390625 19.78640625 11.9078125 20.3203125 12.890625 C21.58820071 15.23856614 22.79984994 17.61672328 24 20 C24.33 13.4 24.66 6.8 25 0 C27.31 0 29.62 0 32 0 C32 10.56 32 21.12 32 32 C22 32 22 32 19.61132812 29.90454102 C18.82918945 28.46872681 18.82918945 28.46872681 18.03125 27.00390625 C17.44085938 25.97072266 16.85046875 24.93753906 16.2421875 23.87304688 C15.66726563 22.78056641 15.09234375 21.68808594 14.5 20.5625 C13.30543692 18.4160989 12.10768631 16.27146767 10.90625 14.12890625 C10.39384766 13.17056885 9.88144531 12.21223145 9.35351562 11.22485352 C8.19451946 8.8757191 8.19451946 8.8757191 6 8 C6 15.26 6 22.52 6 30 C3.69 30 1.38 30 -1 30 C-0.67 20.1 -0.34 10.2 0 0 Z " fill="#24A7DC" transform="translate(271,149)"/>
<path d="M0 0 C8.25 0 16.5 0 25 0 C25 1.98 25 3.96 25 6 C19.39 6 13.78 6 8 6 C8 7.98 8 9.96 8 12 C13.61 12 19.22 12 25 12 C25 14.31 25 16.62 25 19 C19.39 19 13.78 19 8 19 C8 20.98 8 22.96 8 25 C13.94 25 19.88 25 26 25 C26 27.31 26 29.62 26 32 C17.42 32 8.84 32 0 32 C0 21.44 0 10.88 0 0 Z " fill="#2AA6D9" transform="translate(140,149)"/>
<path d="M0 0 C8.25 0 16.5 0 25 0 C25 2.31 25 4.62 25 7 C19.06 7 13.12 7 7 7 C7 8.98 7 10.96 7 13 C12.61 13 18.22 13 24 13 C24 14.98 24 16.96 24 19 C18.39 19 12.78 19 7 19 C7 21.31 7 23.62 7 26 C12.94 26 18.88 26 25 26 C25 27.98 25 29.96 25 32 C16.75 32 8.5 32 0 32 C0 21.44 0 10.88 0 0 Z " fill="#1A8DC5" transform="translate(238,203)"/>
<path d="M0 0 C1.13598633 0.00483398 1.13598633 0.00483398 2.29492188 0.00976562 C3.47344727 0.02233398 3.47344727 0.02233398 4.67578125 0.03515625 C5.47306641 0.03966797 6.27035156 0.04417969 7.09179688 0.04882812 C9.05732382 0.06059775 11.0228121 0.07853277 12.98828125 0.09765625 C12.98828125 2.40765625 12.98828125 4.71765625 12.98828125 7.09765625 C5.06828125 7.59265625 5.06828125 7.59265625 -3.01171875 8.09765625 C-3.01171875 9.41765625 -3.01171875 10.73765625 -3.01171875 12.09765625 C-2.27566406 12.14664063 -1.53960937 12.195625 -0.78125 12.24609375 C0.68248047 12.35824219 0.68248047 12.35824219 2.17578125 12.47265625 C3.62017578 12.57707031 3.62017578 12.57707031 5.09375 12.68359375 C8.73048576 13.20382855 11.97622096 13.79643587 14.30078125 16.78515625 C15.28109413 20.08257229 15.34876211 22.67308812 14.98828125 26.09765625 C13.1926572 28.85094646 11.93573203 30.62393086 8.98828125 32.09765625 C7.46679799 32.18138284 5.94172347 32.20495652 4.41796875 32.1953125 C3.52207031 32.19208984 2.62617188 32.18886719 1.703125 32.18554688 C0.29740234 32.17297852 0.29740234 32.17297852 -1.13671875 32.16015625 C-2.08160156 32.15564453 -3.02648437 32.15113281 -4 32.14648438 C-6.33730262 32.13467982 -8.67447936 32.11821384 -11.01171875 32.09765625 C-11.01171875 30.11765625 -11.01171875 28.13765625 -11.01171875 26.09765625 C-2.59671875 25.60265625 -2.59671875 25.60265625 5.98828125 25.09765625 C5.98828125 23.77765625 5.98828125 22.45765625 5.98828125 21.09765625 C5.10785156 21.01128906 4.22742188 20.92492187 3.3203125 20.8359375 C-6.07355244 19.69949879 -6.07355244 19.69949879 -10.32421875 16.97265625 C-12.52560009 13.22215471 -13.10032946 10.34066648 -12.01171875 6.09765625 C-8.4977353 1.63394755 -5.62045297 -0.04225904 0 0 Z " fill="#1A8DC4" transform="translate(309.01171875,202.90234375)"/>
<path d="M0 0 C1.40668945 0.00966797 1.40668945 0.00966797 2.84179688 0.01953125 C4.30649414 0.04466797 4.30649414 0.04466797 5.80078125 0.0703125 C6.78884766 0.07933594 7.77691406 0.08835938 8.79492188 0.09765625 C11.2346189 0.1212282 13.67382822 0.15413228 16.11328125 0.1953125 C16.11328125 2.1753125 16.11328125 4.1553125 16.11328125 6.1953125 C7.69828125 6.6903125 7.69828125 6.6903125 -0.88671875 7.1953125 C-0.88671875 8.5153125 -0.88671875 9.8353125 -0.88671875 11.1953125 C0.32564453 11.25138672 0.32564453 11.25138672 1.5625 11.30859375 C3.16544922 11.40720703 3.16544922 11.40720703 4.80078125 11.5078125 C5.85652344 11.56582031 6.91226562 11.62382812 8 11.68359375 C11.37835356 12.23888147 13.36247171 13.187965 16.11328125 15.1953125 C17.24952244 17.46779488 17.37774968 18.97834014 17.48828125 21.5078125 C17.53726562 22.26707031 17.58625 23.02632812 17.63671875 23.80859375 C16.79330899 27.65429048 15.31612361 28.93308184 12.11328125 31.1953125 C8.48684786 31.79612189 4.96368463 31.6677109 1.30078125 31.5078125 C-0.1677832 31.47397461 -0.1677832 31.47397461 -1.66601562 31.43945312 C-4.0744933 31.38070977 -6.47980953 31.29863379 -8.88671875 31.1953125 C-8.88671875 29.2153125 -8.88671875 27.2353125 -8.88671875 25.1953125 C-0.47171875 24.7003125 -0.47171875 24.7003125 8.11328125 24.1953125 C8.44328125 22.8753125 8.77328125 21.5553125 9.11328125 20.1953125 C8.38882812 20.15792969 7.664375 20.12054688 6.91796875 20.08203125 C-3.27360884 19.38900397 -3.27360884 19.38900397 -7.88671875 16.1953125 C-10.2802884 13.04015251 -10.20909643 10.06384471 -9.88671875 6.1953125 C-8.06644918 1.15456599 -5.15236825 -0.06245295 0 0 Z " fill="#188BC4" transform="translate(276.88671875,203.8046875)"/>
<path d="M0 0 C0.66 0.33 1.32 0.66 2 1 C0.78192862 2.15762119 -0.45001235 3.3006583 -1.6875 4.4375 C-2.37199219 5.07558594 -3.05648438 5.71367187 -3.76171875 6.37109375 C-6.22289422 8.16221098 -8.00816574 8.62798558 -11 9 C-10.34 8.34 -9.68 7.68 -9 7 C-10.04081354 7.00170874 -10.04081354 7.00170874 -11.10265362 7.003452 C-52.2122816 7.07056215 -93.32190323 7.1220475 -134.43157495 7.15319599 C-139.36584172 7.15694818 -144.30010839 7.16083114 -149.234375 7.16479492 C-150.2167134 7.16558185 -151.19905179 7.16636878 -152.21115802 7.16717956 C-168.12447674 7.18023936 -184.037763 7.20389637 -199.95106246 7.23145839 C-216.27524854 7.25949661 -232.5994176 7.27617291 -248.92362678 7.28226548 C-258.99942493 7.28638521 -269.07513133 7.29940479 -279.15090124 7.3237494 C-286.05689541 7.33958704 -292.96284203 7.34440483 -299.86885305 7.34050413 C-303.85538387 7.33857951 -307.8417542 7.3415641 -311.82825661 7.35761642 C-315.47768997 7.37220435 -319.12685474 7.3729597 -322.77630042 7.36269668 C-324.72240238 7.36082692 -326.66850113 7.37377564 -328.61455739 7.38724393 C-339.09476424 7.3331846 -339.09476424 7.3331846 -344 4 C-343.34 3.67 -342.68 3.34 -342 3 C-341.25072121 3.30418405 -340.50144242 3.60836811 -339.72945821 3.92176986 C-336.7124305 5.11359987 -334.5611978 5.25061297 -331.32866859 5.25168228 C-330.19092668 5.25689778 -329.05318477 5.26211327 -327.88096583 5.26748681 C-326.63574668 5.26302537 -325.39052753 5.25856392 -324.10757446 5.25396729 C-322.76768619 5.256272 -321.42779919 5.25944861 -320.08791482 5.26342177 C-316.40718 5.27177711 -312.72654878 5.26764114 -309.04581356 5.26144934 C-305.07571648 5.25692879 -301.10563735 5.2639067 -297.13554382 5.26940918 C-289.35802552 5.27830955 -281.5805458 5.27637816 -273.80302598 5.2705839 C-267.48169117 5.2660693 -261.16036718 5.26545363 -254.83903122 5.26763153 C-253.49009038 5.26809123 -253.49009038 5.26809123 -252.11389821 5.26856022 C-250.287041 5.26919966 -248.46018378 5.26984809 -246.63332658 5.2705054 C-229.49593398 5.27621075 -212.35856277 5.26964793 -195.22117369 5.25890467 C-180.51690455 5.24997201 -165.812667 5.25151844 -151.10839844 5.26074219 C-134.03591974 5.27144645 -116.9634598 5.2756582 -99.89097822 5.26951766 C-98.07018558 5.26888056 -96.24939295 5.26825182 -94.42860031 5.26763153 C-93.5327244 5.26732298 -92.63684848 5.26701443 -91.71382482 5.26669653 C-85.4011983 5.26496983 -79.08858369 5.26788422 -72.77595901 5.27259064 C-65.08121135 5.27820133 -57.3865045 5.27667917 -49.69176151 5.26602915 C-45.76587015 5.26077452 -41.84004681 5.25871212 -37.91415596 5.26532745 C-34.31918666 5.2712935 -30.72434833 5.26800099 -27.12939088 5.25737235 C-25.21510077 5.25408527 -23.30080154 5.26060355 -21.38652098 5.26748681 C-15.50784386 5.24066148 -10.55356982 4.94960222 -5 3 C-4.34 3 -3.68 3 -3 3 C-1.37485532 1.54166642 -1.37485532 1.54166642 0 0 Z " fill="#2773B6" transform="translate(365,292)"/>
<path d="M0 0 C1.98259958 -0.0215324 3.96510533 -0.05557852 5.94726562 -0.10253906 C8.80821119 -0.16972323 11.66718411 -0.19703374 14.52880859 -0.21606445 C15.40824127 -0.24389511 16.28767395 -0.27172577 17.1937561 -0.30039978 C22.97237647 -0.28124732 25.9605401 0.9474853 30.17929077 4.91905212 C31.36474609 6.4050293 31.36474609 6.4050293 31.36474609 8.4050293 C27.57978472 6.89104475 27.35752629 6.3905897 25.36474609 2.4050293 C11.50474609 2.4050293 -2.35525391 2.4050293 -16.63525391 2.4050293 C-16.63525391 17.2550293 -16.63525391 32.1050293 -16.63525391 47.4050293 C-9.97337891 47.3637793 -3.31150391 47.3225293 3.55224609 47.2800293 C5.64721436 47.28244629 7.74218262 47.28486328 9.90063477 47.28735352 C11.56969618 47.26382003 13.23872867 47.23808864 14.90771484 47.2097168 C16.1972406 47.2233728 16.1972406 47.2233728 17.51281738 47.23730469 C22.1368848 47.18760872 22.1368848 47.18760872 26.06167603 45.01593018 C27.63587588 43.20962723 27.63587588 43.20962723 29.36474609 40.4050293 C31.36474609 42.4050293 33.36474609 44.4050293 35.36474609 46.4050293 C37.28953422 46.5630946 39.2197382 46.6561643 41.14990234 46.72143555 C42.90463867 46.78427734 42.90463867 46.78427734 44.69482422 46.84838867 C45.92652344 46.88770508 47.15822266 46.92702148 48.42724609 46.9675293 C49.6628125 47.01071289 50.89837891 47.05389648 52.17138672 47.09838867 C55.23571945 47.20487128 58.30013683 47.30688354 61.36474609 47.4050293 C60.86974609 48.3950293 60.86974609 48.3950293 60.36474609 49.4050293 C56.28165189 49.52117858 52.19898232 49.59226387 48.11474609 49.6550293 C46.95587891 49.68854492 45.79701172 49.72206055 44.60302734 49.7565918 C43.48798828 49.76948242 42.37294922 49.78237305 41.22412109 49.7956543 C40.19770508 49.81660156 39.17128906 49.83754883 38.11376953 49.85913086 C34.66060804 49.2887152 33.48566383 48.13192353 31.36474609 45.4050293 C31.36474609 44.7450293 31.36474609 44.0850293 31.36474609 43.4050293 C30.89700775 43.83054077 30.42926941 44.25605225 29.94735718 44.69445801 C24.56890672 49.20387959 20.83099555 50.26802324 13.90380859 50.0612793 C13.03202972 50.05753296 12.16025085 50.05378662 11.26205444 50.04992676 C9.43496201 50.03656863 7.60792272 50.008905 5.78125 49.9675293 C2.97651423 49.90473304 0.17402425 49.8855316 -2.63134766 49.8737793 C-4.41132318 49.85545564 -6.19127578 49.83470932 -7.97119141 49.8112793 C-8.81072357 49.80277954 -9.65025574 49.79427979 -10.51522827 49.78552246 C-16.40071023 49.63957297 -16.40071023 49.63957297 -18.63525391 47.4050293 C-18.88249207 45.4249115 -18.88249207 45.4249115 -18.87817383 42.97119141 C-18.88125046 42.05361557 -18.88432709 41.13603973 -18.88749695 40.19065857 C-18.88031143 39.19792435 -18.87312592 38.20519012 -18.86572266 37.18237305 C-18.86526443 36.16655655 -18.86480621 35.15074005 -18.86433411 34.10414124 C-18.86130987 31.95466953 -18.85341847 29.80520005 -18.84106445 27.65576172 C-18.82281014 24.35270488 -18.8205547 21.04992818 -18.82080078 17.74682617 C-18.81588569 15.66283936 -18.81005742 13.57885445 -18.80322266 11.49487305 C-18.80155342 10.00273537 -18.80155342 10.00273537 -18.79985046 8.48045349 C-18.79347061 7.56602982 -18.78709076 6.65160614 -18.78051758 5.70947266 C-18.77670578 4.90054062 -18.77289398 4.09160858 -18.76896667 3.25816345 C-18.38524193 -2.05990335 -4.34678718 0.03550008 0 0 Z " fill="#1D86BD" transform="translate(122.63525390625,194.594970703125)"/>
<path d="M0 0 C17.70421973 -1.47956693 17.70421973 -1.47956693 23.109375 2.00390625 C25.03712595 4.25177643 26.61132886 6.3884692 28 9 C27.06409496 10.1055189 26.12620142 11.20935453 25.1875 12.3125 C24.66542969 12.92738281 24.14335937 13.54226562 23.60546875 14.17578125 C23.07566406 14.77777344 22.54585937 15.37976563 22 16 C21.56365234 16.52658203 21.12730469 17.05316406 20.67773438 17.59570312 C18.50908412 19.41090631 17.34865069 19.34930169 14.55078125 19.29296875 C13.70322266 19.28330078 12.85566406 19.27363281 11.98242188 19.26367188 C10.66081055 19.2259668 10.66081055 19.2259668 9.3125 19.1875 C8.41982422 19.17396484 7.52714844 19.16042969 6.60742188 19.14648438 C4.40433834 19.11114079 2.20247418 19.06180493 0 19 C0 16.69 0 14.38 0 12 C5.61 12 11.22 12 17 12 C17 10.02 17 8.04 17 6 C11.39 6 5.78 6 0 6 C0 4.02 0 2.04 0 0 Z " fill="#F9FBFD" transform="translate(120,210)"/>
<path d="M0 0 C107.91 0 215.82 0 327 0 C327 0.33 327 0.66 327 1 C219.09 1 111.18 1 0 1 C0 0.67 0 0.34 0 0 Z " fill="#000000" transform="translate(27,303)"/>
<path d="M0 0 C107.91 0 215.82 0 327 0 C327 0.33 327 0.66 327 1 C219.09 1 111.18 1 0 1 C0 0.67 0 0.34 0 0 Z " fill="#000000" transform="translate(27,74)"/>
<path d="M0 0 C0.66 0 1.32 0 2 0 C2 3.63 2 7.26 2 11 C12.89 11 23.78 11 35 11 C35 10.34 35 9.68 35 9 C35.71567139 9.15847412 36.43134277 9.31694824 37.16870117 9.48022461 C39.91594802 9.98456957 42.5123923 10.20226167 45.30078125 10.31640625 C46.27724609 10.35830078 47.25371094 10.40019531 48.25976562 10.44335938 C49.77086914 10.50233398 49.77086914 10.50233398 51.3125 10.5625 C52.85260742 10.62727539 52.85260742 10.62727539 54.42382812 10.69335938 C56.94909569 10.79906825 59.47445562 10.90116468 62 11 C62.33 10.34 62.66 9.68 63 9 C62.67 10.32 62.34 11.64 62 13 C58.77085248 13.02917228 55.54173917 13.04685663 52.3125 13.0625 C50.94448242 13.07506836 50.94448242 13.07506836 49.54882812 13.08789062 C48.66259766 13.09111328 47.77636719 13.09433594 46.86328125 13.09765625 C46.05157471 13.10289307 45.23986816 13.10812988 44.40356445 13.11352539 C42 13 42 13 39.25854492 12.43139648 C38.5132251 12.28903564 37.76790527 12.1466748 37 12 C36.67 12.33 36.34 12.66 36 13 C34.49448826 13.09575309 32.9844897 13.12188187 31.47593689 13.12025452 C30.00981209 13.12231651 30.00981209 13.12231651 28.5140686 13.12442017 C27.43297821 13.12082489 26.35188782 13.11722961 25.23803711 13.11352539 C23.54069679 13.11374443 23.54069679 13.11374443 21.80906677 13.1139679 C18.04847329 13.11326819 14.28792863 13.10547311 10.52734375 13.09765625 C7.92802457 13.09579227 5.32870503 13.09436828 2.72938538 13.09336853 C-3.42588577 13.08993341 -9.5811366 13.08204256 -15.73640007 13.07201904 C-22.74233346 13.06085694 -29.74826767 13.05534721 -36.75420773 13.05032361 C-51.16948133 13.03985992 -65.58474004 13.02226108 -80 13 C-80.33 11.68 -80.66 10.36 -81 9 C-80.67 9.66 -80.34 10.32 -80 11 C-75.05 11 -70.1 11 -65 11 C-64.67 10.01 -64.34 9.02 -64 8 C-64 8.99 -64 9.98 -64 11 C-42.88 11 -21.76 11 0 11 C0 7.37 0 3.74 0 0 Z " fill="#1299CD" transform="translate(185,176)"/>
<path d="M0 0 C2.64 0 5.28 0 8 0 C8 10.56 8 21.12 8 32 C5.36 32 2.72 32 0 32 C0 21.44 0 10.88 0 0 Z " fill="#25ADE3" transform="translate(206,149)"/>
<path d="M0 0 C0.33 0 0.66 0 1 0 C1 63.36 1 126.72 1 192 C0.67 192 0.34 192 0 192 C0 128.64 0 65.28 0 0 Z " fill="#000000" transform="translate(372,93)"/>
<path d="M0 0 C0.33 0 0.66 0 1 0 C1 63.36 1 126.72 1 192 C0.67 192 0.34 192 0 192 C0 128.64 0 65.28 0 0 Z " fill="#000000" transform="translate(8,93)"/>
<path d="M0 0 C1.05813582 3.33424159 0.94813476 5.99175589 0.57533264 9.45343018 C-0.03172871 15.89611618 -0.17197511 22.27699494 -0.20532227 28.74511719 C-0.21522186 29.95631226 -0.22512146 31.16750732 -0.23532104 32.41540527 C-0.26125731 35.69556978 -0.28322057 38.97573025 -0.30332303 42.25593472 C-0.32539591 45.69923275 -0.35267898 49.14248969 -0.37937927 52.58575439 C-0.42902142 59.08770372 -0.47406419 65.5896762 -0.51740164 72.09167027 C-0.56701961 79.50175009 -0.62184555 86.91178862 -0.67708123 94.32182837 C-0.79046329 109.54784699 -0.89739526 124.77390464 -1 140 C-1.33 140 -1.66 140 -2 140 C-2.04668826 122.18924098 -2.08197325 104.37849781 -2.10362434 86.56769085 C-2.11394382 78.29811751 -2.12801695 70.02858216 -2.15087891 61.7590332 C-2.17079227 54.55261533 -2.18371155 47.34622496 -2.18817699 40.13978034 C-2.19078786 36.32282947 -2.19693841 32.50595729 -2.21146011 28.6890316 C-2.22501162 25.09809861 -2.2292276 21.50727693 -2.22621536 17.9163208 C-2.22702992 15.96668582 -2.23780427 14.01706302 -2.24884033 12.06745911 C-2.246091 10.91059601 -2.24334167 9.75373291 -2.24050903 8.56181335 C-2.24235262 7.55429362 -2.24419621 6.54677389 -2.24609566 5.50872326 C-2 3 -2 3 0 0 Z " fill="#3CB6EE" transform="translate(13,90)"/>
<path d="M0 0 C0.33 0 0.66 0 1 0 C1 8.25 1 16.5 1 25 C-5.75 19.375 -5.75 19.375 -8.375 15.6875 C-8.87773437 14.99011719 -9.38046875 14.29273438 -9.8984375 13.57421875 C-10.26195312 13.05472656 -10.62546875 12.53523437 -11 12 C-10.54109375 11.55269531 -10.0821875 11.10539063 -9.609375 10.64453125 C-6.15804348 7.24395461 -3.00261814 3.81101534 0 0 Z " fill="#FBFDFE" transform="translate(168,207)"/>
<path d="M0 0 C2.12493141 -0.02693575 4.24995912 -0.04636628 6.375 -0.0625 C7.55835938 -0.07410156 8.74171875 -0.08570313 9.9609375 -0.09765625 C13 0 13 0 15 1 C15.125 3.375 15.125 3.375 15 6 C13 8 13 8 9.9609375 8.1953125 C8.77757812 8.17210937 7.59421875 8.14890625 6.375 8.125 C5.18648437 8.10695312 3.99796875 8.08890625 2.7734375 8.0703125 C1.85820312 8.04710937 0.94296875 8.02390625 0 8 C0 5.36 0 2.72 0 0 Z " fill="#EDF7FC" transform="translate(178,155)"/>
<path d="M0 0 C2.14576637 -0.02685938 4.29162645 -0.04633088 6.4375 -0.0625 C7.63246094 -0.07410156 8.82742187 -0.08570313 10.05859375 -0.09765625 C13 0 13 0 14 1 C14.125 4 14.125 4 14 7 C13 8 13 8 10.05859375 8.09765625 C8.26615234 8.08025391 8.26615234 8.08025391 6.4375 8.0625 C4.64119141 8.04896484 4.64119141 8.04896484 2.80859375 8.03515625 C1.88175781 8.02355469 0.95492187 8.01195312 0 8 C0 5.36 0 2.72 0 0 Z " fill="#FBFDFE" transform="translate(177,210)"/>
<path d="M0 0 C2.31 0 4.62 0 7 0 C7 10.56 7 21.12 7 32 C4.36 32 1.72 32 -1 32 C-0.67 23.09 -0.34 14.18 0 5 C0.33 5 0.66 5 1 5 C1 13.25 1 21.5 1 30 C2.32 30 3.64 30 5 30 C5 20.43 5 10.86 5 1 C3.35 1 1.7 1 0 1 C0 0.67 0 0.34 0 0 Z " fill="#35A5D3" transform="translate(207,149)"/>
<path d="M0 0 C2.14576637 -0.02685938 4.29162645 -0.04633088 6.4375 -0.0625 C7.63246094 -0.07410156 8.82742187 -0.08570313 10.05859375 -0.09765625 C13 0 13 0 14 1 C14.125 3.5 14.125 3.5 14 6 C13 7 13 7 10.05859375 7.09765625 C8.26615234 7.08025391 8.26615234 7.08025391 6.4375 7.0625 C4.64119141 7.04896484 4.64119141 7.04896484 2.80859375 7.03515625 C1.88175781 7.02355469 0.95492187 7.01195312 0 7 C0 4.69 0 2.38 0 0 Z " fill="#FDFEFE" transform="translate(211,210)"/>
<path d="M0 0 C2.31 0 4.62 0 7 0 C7.66 2.31 8.32 4.62 9 7 C17.91 7 26.82 7 36 7 C36 5.02 36 3.04 36 1 C39 4.625 39 4.625 39 8 C34.40870986 10.29564507 28.10313477 9.32023755 23.0625 9.375 C21.76119141 9.41238281 20.45988281 9.44976562 19.11914062 9.48828125 C17.25225586 9.50568359 17.25225586 9.50568359 15.34765625 9.5234375 C14.20304932 9.54325684 13.05844238 9.56307617 11.87915039 9.58349609 C9 9 9 9 7.10327148 6.59228516 C6 4 6 4 6 2 C4.02 2.66 2.04 3.32 0 4 C0 2.68 0 1.36 0 0 Z " fill="#149BCF" transform="translate(249,180)"/>
<path d="M0 0 C2.31 0 4.62 0 7 0 C8.0625 1.8125 8.0625 1.8125 9 4 C8.67 4.99 8.34 5.98 8 7 C7.34 5.68 6.68 4.36 6 3 C3.59122743 3.11341534 3.59122743 3.11341534 1 4 C0.56389404 4.83168701 0.12778809 5.66337402 -0.3215332 6.52026367 C-2 9 -2 9 -4.54370117 9.56762695 C-5.53345947 9.54144287 -6.52321777 9.51525879 -7.54296875 9.48828125 C-8.61611328 9.47216797 -9.68925781 9.45605469 -10.79492188 9.43945312 C-11.91447266 9.39755859 -13.03402344 9.35566406 -14.1875 9.3125 C-15.31865234 9.28994141 -16.44980469 9.26738281 -17.61523438 9.24414062 C-20.41147976 9.18514811 -23.20508097 9.1028824 -26 9 C-26.58984375 6.61328125 -26.58984375 6.61328125 -27 4 C-25.5625 2.1875 -25.5625 2.1875 -24 1 C-24.33 2.65 -24.66 4.3 -25 6 C-17.41 6.33 -9.82 6.66 -2 7 C-1.34 4.69 -0.68 2.38 0 0 Z " fill="#1496C9" transform="translate(68,180)"/>
<path d="M0 0 C4.29 0 8.58 0 13 0 C13 10.56 13 21.12 13 32 C10.36 32 7.72 32 5 32 C5 31.34 5 30.68 5 30 C6.98 30 8.96 30 11 30 C11 20.43 11 10.86 11 1 C7.37 1.33 3.74 1.66 0 2 C0 1.34 0 0.68 0 0 Z " fill="#39A5D3" transform="translate(122,149)"/>
<path d="M0 0 C0.97966305 3.16443462 0.97342744 5.58135804 0.59765625 8.859375 C-0.32750934 18.63078682 -0.36519464 28.44271567 -0.5625 38.25 C-0.60578255 40.26693435 -0.64939961 42.28386155 -0.69335938 44.30078125 C-0.79943021 49.20044692 -0.90097207 54.10018714 -1 59 C-1.33 59 -1.66 59 -2 59 C-2.04633306 51.75034756 -2.08187408 44.50072703 -2.10362434 37.25095654 C-2.1140632 33.88461771 -2.12822409 30.51838015 -2.15087891 27.15209961 C-2.17507811 23.28236185 -2.18647192 19.41276824 -2.1953125 15.54296875 C-2.21079636 13.72879707 -2.21079636 13.72879707 -2.22659302 11.87797546 C-2.22674408 10.75703995 -2.22689514 9.63610443 -2.22705078 8.48120117 C-2.231492 7.49302902 -2.23593323 6.50485687 -2.24050903 5.48674011 C-2 3 -2 3 0 0 Z " fill="#8CD1F4" transform="translate(13,90)"/>
<path d="M0 0 C2.05123248 2.05123248 2.64147118 3.27005063 3.625 5.9375 C3.88539063 6.62714844 4.14578125 7.31679687 4.4140625 8.02734375 C5 10 5 10 5 13 C1.7 13 -1.6 13 -5 13 C-3.78184562 8.31479085 -2.30440013 4.29456388 0 0 Z " fill="#F4F9FC" transform="translate(252,154)"/>
<path d="M0 0 C2.80561393 1.40280696 3.00680507 3.0509005 4.125 5.9375 C4.47820312 6.83339844 4.83140625 7.72929687 5.1953125 8.65234375 C6 11 6 11 6 13 C2.7 13 -0.6 13 -4 13 C-3.27991594 8.39146203 -1.68704061 4.32762591 0 0 Z " fill="#F4F9FC" transform="translate(71,154)"/>
<path d="M0 0 C0.33 0 0.66 0 1 0 C1 9.9 1 19.8 1 30 C2.98 30 4.96 30 7 30 C7 30.66 7 31.32 7 32 C2.05 32 -2.9 32 -8 32 C-8.33 30.68 -8.66 29.36 -9 28 C-8.67 28.66 -8.34 29.32 -8 30 C-5.36 30 -2.72 30 0 30 C0 20.1 0 10.2 0 0 Z " fill="#1A86B9" transform="translate(91,149)"/>
<path d="M0 0 C0.33 0 0.66 0 1 0 C1 7.92 1 15.84 1 24 C-3.95 24 -8.9 24 -14 24 C-14.33 22.35 -14.66 20.7 -15 19 C-14.34 19.66 -13.68 20.32 -13 21 C-11.68 21 -10.36 21 -9 21 C-8.67 20.01 -8.34 19.02 -8 18 C-7.67 19.32 -7.34 20.64 -7 22 C-4.69 22 -2.38 22 0 22 C0 14.74 0 7.48 0 0 Z " fill="#1A86B9" transform="translate(277,157)"/>
<path d="M0 0 C0 0.99 0 1.98 0 3 C0.598125 3.268125 1.19625 3.53625 1.8125 3.8125 C4.04593283 5.02493496 5.49938199 5.94652273 7 8 C6.6875 10.1875 6.6875 10.1875 6 12 C5.896875 11.360625 5.79375 10.72125 5.6875 10.0625 C5.460625 9.381875 5.23375 8.70125 5 8 C4.01 7.67 3.02 7.34 2 7 C2 6.34 2 5.68 2 5 C1.360625 4.87625 0.72125 4.7525 0.0625 4.625 C-3.97011276 3.8020178 -7.98423907 2.90114025 -12 2 C-12 1.34 -12 0.68 -12 0 C-8.04395608 -1.21724428 -3.79359325 -1.89679663 0 0 Z " fill="#93C5E3" transform="translate(359,78)"/>
<path d="M0 0 C-0.66 0 -1.32 0 -2 0 C-2 0.66 -2 1.32 -2 2 C-3.40682757 2.97138094 -4.81976519 3.93538756 -6.265625 4.84765625 C-9.03030717 6.68455093 -11.48152029 8.84130311 -14 11 C-13.49614177 6.59124045 -12.0886933 4.17449034 -9 1 C-5.63069948 -0.85311529 -3.63422304 -1.34600853 0 0 Z " fill="#A4D7F3" transform="translate(29,79)"/>
<path d="M0 0 C18.81 0.495 18.81 0.495 38 1 C38 1.33 38 1.66 38 2 C25.79 2 13.58 2 1 2 C1 2.66 1 3.32 1 4 C0.34 3.67 -0.32 3.34 -1 3 C-0.67 2.01 -0.34 1.02 0 0 Z " fill="#368FCB" transform="translate(231,195)"/>
<path d="M0 0 C3.44164469 1.52961986 6.09151758 3.62729066 9 6 C9.66 6.33 10.32 6.66 11 7 C11 9.31 11 11.62 11 14 C10.34 13.34 9.68 12.68 9 12 C8.01 12.495 8.01 12.495 7 13 C6.773125 11.9275 6.54625 10.855 6.3125 9.75 C4.85547133 5.58706094 3.50569049 4.49088535 0 2 C0 1.34 0 0.68 0 0 Z " fill="#557E9C" transform="translate(359,79)"/>
<path d="M0 0 C0 0.99 0 1.98 0 3 C-0.7115625 3.6496875 -0.7115625 3.6496875 -1.4375 4.3125 C-3.62100982 6.6706906 -3.65266951 8.87402561 -4 12 C-4.66 11.67 -5.32 11.34 -6 11 C-6.66 11.66 -7.32 12.32 -8 13 C-8.3125 9.6875 -8.3125 9.6875 -8 6 C-5.6875 4.25 -5.6875 4.25 -3 3 C-1.24850835 1.41754725 -1.24850835 1.41754725 0 0 Z " fill="#547E9C" transform="translate(19,80)"/>
<path d="M0 0 C2.31 0 4.62 0 7 0 C7.99 2.64 8.98 5.28 10 8 C9.01 7.67 8.02 7.34 7 7 C6.67 5.35 6.34 3.7 6 2 C4.02 2.66 2.04 3.32 0 4 C0 2.68 0 1.36 0 0 Z " fill="#108FBF" transform="translate(249,180)"/>
<path d="M0 0 C0.66 0.33 1.32 0.66 2 1 C0.78192862 2.15762119 -0.45001235 3.3006583 -1.6875 4.4375 C-2.71423828 5.39462891 -2.71423828 5.39462891 -3.76171875 6.37109375 C-6.22289422 8.16221098 -8.00816574 8.62798558 -11 9 C-8.7459927 5.44104111 -6.88230354 4.45586383 -3 3 C-1.22722741 1.47992158 -1.22722741 1.47992158 0 0 Z " fill="#27568C" transform="translate(365,292)"/>
<path d="M0 0 C0.33 0.99 0.66 1.98 1 3 C0.67 3.66 0.34 4.32 0 5 C-2.64 5 -5.28 5 -8 5 C-7.67 4.01 -7.34 3.02 -7 2 C-5.02 2 -3.04 2 -1 2 C-0.67 1.34 -0.34 0.68 0 0 Z " fill="#2284B9" transform="translate(61,176)"/>
<path d="M0 0 C0.99 0.99 1.98 1.98 3 3 C2.236875 3.45375 1.47375 3.9075 0.6875 4.375 C-1.23632814 5.53824492 -3.12941224 6.7529415 -5 8 C-3.8141763 4.62496331 -2.72426311 2.35277269 0 0 Z " fill="#2686BA" transform="translate(152,235)"/>
<path d="M0 0 C2.84383123 1.2748209 5.13754018 2.45137078 7 5 C6.6875 7.1875 6.6875 7.1875 6 9 C5.896875 8.360625 5.79375 7.72125 5.6875 7.0625 C5.3471875 6.0415625 5.3471875 6.0415625 5 5 C4.01 4.67 3.02 4.34 2 4 C0.8125 1.9375 0.8125 1.9375 0 0 Z " fill="#ACDBF4" transform="translate(359,81)"/>
<path d="M0 0 C0.66 0.66 1.32 1.32 2 2 C1.34 2 0.68 2 0 2 C0 1.34 0 0.68 0 0 Z " fill="#000000" transform="translate(13,293)"/>
<path d="M0 0 C0.33 0.66 0.66 1.32 1 2 C0.34 1.67 -0.32 1.34 -1 1 C-0.67 0.67 -0.34 0.34 0 0 Z " fill="#000000" transform="translate(367,293)"/>
<path d="M0 0 C0.66 0 1.32 0 2 0 C1.67 0.66 1.34 1.32 1 2 C0.67 1.34 0.34 0.68 0 0 Z " fill="#000000" transform="translate(366,83)"/>
<path d="M0 0 C0.99 0.495 0.99 0.495 2 1 C1.01 1.495 1.01 1.495 0 2 C0 1.34 0 0.68 0 0 Z " fill="#000000" transform="translate(13,83)"/>
<path d="M0 0 C2 1 2 1 2 1 Z " fill="#000000" transform="translate(354,302)"/>
<path d="M0 0 C2 1 2 1 2 1 Z " fill="#000000" transform="translate(25,302)"/>
<path d="M0 0 C2 1 2 1 2 1 Z " fill="#000000" transform="translate(357,301)"/>
<path d="M0 0 C2 1 2 1 2 1 Z " fill="#000000" transform="translate(22,301)"/>
<path d="M0 0 C2 1 2 1 2 1 Z " fill="#000000" transform="translate(359,300)"/>
<path d="M0 0 C2 1 2 1 2 1 Z " fill="#000000" transform="translate(20,300)"/>
<path d="" fill="#000000" transform="translate(0,0)"/>
<path d="" fill="#000000" transform="translate(0,0)"/>
<path d="" fill="#000000" transform="translate(0,0)"/>
<path d="" fill="#000000" transform="translate(0,0)"/>
<path d="" fill="#000000" transform="translate(0,0)"/>
<path d="" fill="#000000" transform="translate(0,0)"/>
<path d="" fill="#000000" transform="translate(0,0)"/>
<path d="" fill="#000000" transform="translate(0,0)"/>
<path d="M0 0 C2 1 2 1 2 1 Z " fill="#000000" transform="translate(359,77)"/>
<path d="M0 0 C2 1 2 1 2 1 Z " fill="#000000" transform="translate(20,77)"/>
<path d="M0 0 C2 1 2 1 2 1 Z " fill="#000000" transform="translate(357,76)"/>
<path d="M0 0 C2 1 2 1 2 1 Z " fill="#000000" transform="translate(22,76)"/>
<path d="M0 0 C2 1 2 1 2 1 Z " fill="#000000" transform="translate(354,75)"/>
<path d="M0 0 C2 1 2 1 2 1 Z " fill="#000000" transform="translate(25,75)"/>
<path d="" fill="#000000" transform="translate(0,0)"/>
<path d="" fill="#000000" transform="translate(0,0)"/>
<path d="" fill="#000000" transform="translate(0,0)"/>
<path d="" fill="#000000" transform="translate(0,0)"/>
<path d="" fill="#000000" transform="translate(0,0)"/>
<path d="" fill="#000000" transform="translate(0,0)"/>
<path d="" fill="#000000" transform="translate(0,0)"/>
<path d="" fill="#000000" transform="translate(0,0)"/>
<path d="" fill="#000000" transform="translate(0,0)"/>
<path d="" fill="#000000" transform="translate(0,0)"/>
<path d="" fill="#000000" transform="translate(0,0)"/>
<path d="" fill="#000000" transform="translate(0,0)"/>
<path d="" fill="#000000" transform="translate(0,0)"/>
<path d="" fill="#000000" transform="translate(0,0)"/>
<path d="" fill="#000000" transform="translate(0,0)"/>
<path d="" fill="#000000" transform="translate(0,0)"/>
<path d="" fill="#000000" transform="translate(0,0)"/>
<path d="" fill="#000000" transform="translate(0,0)"/>
<path d="" fill="#000000" transform="translate(0,0)"/>
<path d="" fill="#000000" transform="translate(0,0)"/>
</svg>
