<?xml version="1.0" encoding="UTF-8"?>
<svg version="1.1" xmlns="http://www.w3.org/2000/svg" width="512" height="512">
<path d="M0 0 C1.87294235 -0.0098568 1.87294235 -0.0098568 3.78372192 -0.01991272 C7.90008802 -0.03955491 12.01641523 -0.05131032 16.1328125 -0.0612793 C17.56396502 -0.06533493 18.99511736 -0.06945207 20.42626953 -0.07362938 C27.16509263 -0.09265771 33.90390504 -0.10688524 40.64274979 -0.11524135 C48.34786951 -0.12495987 56.05269783 -0.15114676 63.75771523 -0.19174224 C69.75823985 -0.22223901 75.75868266 -0.23674202 81.75928307 -0.24002236 C85.32091658 -0.24233794 88.88223832 -0.25082531 92.44378662 -0.27648354 C128.96898541 -0.5256803 163.06294971 6.20132076 195.49462891 23.25268555 C197.03695237 24.06122012 198.58992792 24.84936874 200.14453125 25.6340332 C241.91068994 47.29749668 274.92759838 87.28189116 289.50830078 131.80200195 C290.75129851 135.74072569 291.92054449 139.69243307 293.0078125 143.67700195 C293.19448486 144.35053711 293.38115723 145.02407227 293.57348633 145.71801758 C297.25514486 160.04127288 298.76377775 174.47224315 298.64892578 189.22924805 C298.63281092 191.67724251 298.64891669 194.12358717 298.66796875 196.5715332 C298.68859677 211.47072282 296.89552726 226.23788763 292.6328125 240.55200195 C292.25322388 241.84243408 292.25322388 241.84243408 291.8659668 243.15893555 C283.2807078 271.21956553 268.12268628 296.5929017 247.73242188 317.65112305 C246.71146461 318.70757717 245.69758105 319.77089612 244.68945312 320.83959961 C212.5446553 354.89503506 163.93800547 380.53154838 116.49024963 382.27892399 C113.19766413 382.3278649 109.90622462 382.34642198 106.61328125 382.35400391 C104.7381485 382.3638607 104.7381485 382.3638607 102.82513428 382.37391663 C98.69852448 382.3935801 94.5719535 382.4053173 90.4453125 382.4152832 C89.01197289 382.4193379 87.57863345 382.42345502 86.14529419 382.42763329 C79.39632494 382.4466682 72.6473664 382.46089399 65.89837551 382.46924525 C58.17625589 382.47896428 50.45442699 382.50514968 42.73240948 382.54574615 C36.72257888 382.57622582 30.71282997 382.59074439 24.70292377 382.59402627 C21.13404181 382.59634389 17.5654707 382.60485961 13.99667358 382.63048744 C-42.27741814 383.01328001 -91.5248488 364.02333533 -131.7421875 324.55200195 C-163.02824541 293.13176509 -184.54293324 248.08967244 -184.98046875 203.3059082 C-184.99030792 202.47477509 -185.00014709 201.64364197 -185.01028442 200.787323 C-185.3307715 166.66279598 -181.09667928 135.09213378 -165.7421875 104.17700195 C-165.38898438 103.45432129 -165.03578125 102.73164063 -164.671875 101.98706055 C-143.36894839 58.73943751 -104.25638637 25.73288225 -58.7421875 10.17700195 C-39.4295798 3.93629719 -20.34776252 0.04705846 0 0 Z " fill="#FEFEFE" transform="translate(198.7421875,77.822998046875)"/>
<path d="M0 0 C1.87294235 -0.0098568 1.87294235 -0.0098568 3.78372192 -0.01991272 C7.90008802 -0.03955491 12.01641523 -0.05131032 16.1328125 -0.0612793 C17.56396502 -0.06533493 18.99511736 -0.06945207 20.42626953 -0.07362938 C27.16509263 -0.09265771 33.90390504 -0.10688524 40.64274979 -0.11524135 C48.34786951 -0.12495987 56.05269783 -0.15114676 63.75771523 -0.19174224 C69.75823985 -0.22223901 75.75868266 -0.23674202 81.75928307 -0.24002236 C85.32091658 -0.24233794 88.88223832 -0.25082531 92.44378662 -0.27648354 C128.96898541 -0.5256803 163.06294971 6.20132076 195.49462891 23.25268555 C197.03695237 24.06122012 198.58992792 24.84936874 200.14453125 25.6340332 C241.91068994 47.29749668 274.92759838 87.28189116 289.50830078 131.80200195 C290.75129851 135.74072569 291.92054449 139.69243307 293.0078125 143.67700195 C293.19448486 144.35053711 293.38115723 145.02407227 293.57348633 145.71801758 C297.25514486 160.04127288 298.76377775 174.47224315 298.64892578 189.22924805 C298.63281092 191.67724251 298.64891669 194.12358717 298.66796875 196.5715332 C298.68859677 211.47072282 296.89552726 226.23788763 292.6328125 240.55200195 C292.25322388 241.84243408 292.25322388 241.84243408 291.8659668 243.15893555 C283.2807078 271.21956553 268.12268628 296.5929017 247.73242188 317.65112305 C246.71146461 318.70757717 245.69758105 319.77089612 244.68945312 320.83959961 C212.5446553 354.89503506 163.93800547 380.53154838 116.49024963 382.27892399 C113.19766413 382.3278649 109.90622462 382.34642198 106.61328125 382.35400391 C104.7381485 382.3638607 104.7381485 382.3638607 102.82513428 382.37391663 C98.69852448 382.3935801 94.5719535 382.4053173 90.4453125 382.4152832 C89.01197289 382.4193379 87.57863345 382.42345502 86.14529419 382.42763329 C79.39632494 382.4466682 72.6473664 382.46089399 65.89837551 382.46924525 C58.17625589 382.47896428 50.45442699 382.50514968 42.73240948 382.54574615 C36.72257888 382.57622582 30.71282997 382.59074439 24.70292377 382.59402627 C21.13404181 382.59634389 17.5654707 382.60485961 13.99667358 382.63048744 C-42.27741814 383.01328001 -91.5248488 364.02333533 -131.7421875 324.55200195 C-163.02824541 293.13176509 -184.54293324 248.08967244 -184.98046875 203.3059082 C-184.99030792 202.47477509 -185.00014709 201.64364197 -185.01028442 200.787323 C-185.3307715 166.66279598 -181.09667928 135.09213378 -165.7421875 104.17700195 C-165.38898438 103.45432129 -165.03578125 102.73164063 -164.671875 101.98706055 C-143.36894839 58.73943751 -104.25638637 25.73288225 -58.7421875 10.17700195 C-39.4295798 3.93629719 -20.34776252 0.04705846 0 0 Z M-104.7421875 57.17700195 C-105.71285156 58.0277832 -106.68351562 58.87856445 -107.68359375 59.75512695 C-140.87764618 89.21072715 -162.30482515 130.33684996 -166.4921875 174.67700195 C-166.60018943 176.84257912 -166.68075331 179.00960381 -166.7421875 181.17700195 C-166.77328613 181.88630859 -166.80438477 182.59561523 -166.83642578 183.32641602 C-168.70505275 228.68052775 -153.01031814 273.66005167 -122.3671875 307.23950195 C-120.50796549 309.2339754 -118.6272762 311.20700527 -116.7421875 313.17700195 C-115.8553125 314.11672852 -114.9684375 315.05645508 -114.0546875 316.0246582 C-86.95220631 344.03318164 -45.98368289 363.7507457 -6.76074219 365.33813477 C-5.31191369 365.35771818 -3.86299735 365.37144873 -2.4140625 365.38012695 C-1.63169724 365.38718658 -0.84933197 365.39424622 -0.04325867 365.40151978 C23.29056446 365.75280982 23.29056446 365.75280982 46.2578125 362.17700195 C47.07878418 361.9783252 47.89975586 361.77964844 48.74560547 361.57495117 C80.86623545 353.62371049 108.48330944 338.07744241 132.2578125 315.17700195 C133.010625 314.48735352 133.7634375 313.79770508 134.5390625 313.0871582 C162.77066252 286.44102847 182.23229141 243.88536525 183.43481445 205.03198242 C183.46080051 203.6194761 183.48103244 202.2068545 183.49609375 200.79418945 C183.50597824 200.02572693 183.51586273 199.2572644 183.52604675 198.46551514 C184.05280544 146.86851086 167.74141858 102.80128637 131.65283203 65.59643555 C101.15867021 34.56859921 57.01253209 16.18741197 13.59790039 15.74560547 C12.08871054 15.74085318 10.57950971 15.73887816 9.0703125 15.73950195 C8.28945282 15.73876678 7.50859314 15.73803162 6.70407104 15.73727417 C-33.89356883 15.83684015 -74.26834507 29.94305957 -104.7421875 57.17700195 Z " fill="#006AA5" transform="translate(198.7421875,77.822998046875)"/>
<path d="M0 0 C0 68.31 0 136.62 0 207 C-26.51661899 198.161127 -47.60324798 177.74406925 -60.25 153.1875 C-64.08924522 145.42652577 -66.8952533 137.39960233 -69 129 C-69.18618896 128.2793335 -69.37237793 127.55866699 -69.56420898 126.81616211 C-71.29261984 119.34072751 -71.34597979 111.95832693 -71.3125 104.3125 C-71.31034485 103.64603455 -71.3081897 102.97956909 -71.30596924 102.29290771 C-71.14694702 71.695379 -59.10230153 45.76377304 -38.1875 23.75 C-27.79638941 13.76798825 -15.9718509 7.05880353 -3 1 C-1 0 -1 0 0 0 Z " fill="#0068A3" transform="translate(168,165)"/>
<path d="M0 0 C29.34077921 12.22532467 51.48040587 32.97118103 63.9375 62.5 C72.48688065 84.24006743 74.63555175 109.40688654 68 132 C67.67128906 133.19753906 67.34257812 134.39507812 67.00390625 135.62890625 C59.17077549 161.62189032 41.51453911 185.15087519 18 199 C2.99109312 207 2.99109312 207 0 207 C0 138.69 0 70.38 0 0 Z " fill="#0068A2" transform="translate(247,165)"/>
<path d="M0 0 C0 68.31 0 136.62 0 207 C-1.98 206.34 -3.96 205.68 -6 205 C-4.68 204.67 -3.36 204.34 -2 204 C-2 137.67 -2 71.34 -2 3 C-2.99 2.67 -3.98 2.34 -5 2 C-1.125 0 -1.125 0 0 0 Z " fill="#33779F" transform="translate(168,165)"/>
<path d="M0 0 C3.465 1.485 3.465 1.485 7 3 C7 3.33 7 3.66 7 4 C5.35 4.33 3.7 4.66 2 5 C1.67 71 1.34 137 1 205 C1.66 205.33 2.32 205.66 3 206 C2.01 206.33 1.02 206.66 0 207 C0 138.69 0 70.38 0 0 Z " fill="#145274" transform="translate(247,165)"/>
</svg>
