<?xml version="1.0" encoding="UTF-8"?>
<svg version="1.1" xmlns="http://www.w3.org/2000/svg" width="512" height="512">
<path d="M0 0 C4.0246071 0.00228696 8.04921006 -0.00124173 12.0738163 -0.00397992 C19.93411468 -0.00840168 27.79440345 -0.00747723 35.65470219 -0.00456728 C42.04904636 -0.00229905 48.44338786 -0.00200685 54.83773232 -0.0030911 C55.75151642 -0.00324433 56.66530052 -0.00339756 57.60677505 -0.00355544 C59.46372827 -0.0038752 61.32068149 -0.00419941 63.17763472 -0.00452803 C80.54670492 -0.00737229 97.91576982 -0.00411236 115.28483915 0.00127234 C130.15375053 0.00573941 145.02265409 0.00496318 159.89156532 0.00035357 C177.20302522 -0.00501083 194.51448048 -0.0070977 211.82594109 -0.00403416 C213.675656 -0.00371565 215.52537092 -0.00340128 217.37508583 -0.0030911 C218.28492784 -0.00293682 219.19476985 -0.00278255 220.13218284 -0.0026236 C226.51092182 -0.00176404 232.88965785 -0.00320918 239.26839638 -0.00557065 C247.05326549 -0.00838962 254.83812454 -0.00758644 262.62299252 -0.00228991 C266.58677473 0.00031897 270.55054023 0.0014005 274.51432228 -0.00193906 C334.08384028 -0.04768504 334.08384028 -0.04768504 350.26265907 15.10338092 C361.47707655 27.43448827 364.27373184 42.59841222 364.24012184 58.71158099 C364.2423874 59.52610337 364.24465295 60.34062574 364.24698716 61.17983061 C364.25326882 63.88312196 364.25250158 66.58636242 364.25167274 69.28966022 C364.25466791 71.23869142 364.25807126 73.18772204 364.26185036 75.13675189 C364.27065888 80.41385335 364.27302717 85.69093857 364.27366614 90.96804667 C364.27437852 94.27066011 364.2765164 97.57326948 364.27916336 100.87588191 C364.28840689 112.41387577 364.29249955 123.95185809 364.29171181 135.48985553 C364.29111152 146.21830498 364.30165628 156.94670408 364.31745547 167.6751408 C364.33056376 176.90773883 364.33589431 186.14032047 364.3352564 195.37292773 C364.33500235 200.87743874 364.337802 206.38190498 364.34843445 211.88640666 C364.35817074 217.06815535 364.35815695 222.24981697 364.35091782 227.43156886 C364.34987877 229.32367718 364.35219402 231.21579107 364.35827827 233.10788989 C364.41768454 252.87682448 363.57264795 271.043733 349.10640907 286.13072467 C329.07189335 304.81044732 297.43102111 300.28269612 272.21281815 300.26144934 C268.18821105 300.25916238 264.16360809 300.26269107 260.13900185 300.26542926 C252.27870347 300.26985102 244.4184147 300.26892657 236.55811596 300.26601662 C230.16377179 300.26374838 223.76943029 300.26345619 217.37508583 300.26454043 C216.00440968 300.26477028 216.00440968 300.26477028 214.6060431 300.26500478 C212.74908988 300.26532454 210.89213665 300.26564875 209.03518343 300.26597737 C191.66611323 300.26882163 174.29704832 300.2655617 156.92797899 300.260177 C142.05906762 300.25570992 127.19016406 300.25648615 112.32125282 300.26109576 C95.00979293 300.26646017 77.69833767 300.26854704 60.38687706 300.2654835 C58.53716215 300.26516499 56.68744723 300.26485061 54.83773232 300.26454043 C53.9278903 300.26438616 53.01804829 300.26423188 52.08063531 300.26407293 C45.70189632 300.26321337 39.3231603 300.26465852 32.94442177 300.26701999 C25.15955265 300.26983896 17.37469361 300.26903578 9.58982563 300.26373924 C5.62604341 300.26113036 1.66227792 300.26004884 -2.30150414 300.2633884 C-61.87102214 300.30913437 -61.87102214 300.30913437 -78.04984093 285.15806842 C-89.26425841 272.82696106 -92.0609137 257.66303712 -92.0273037 241.54986835 C-92.02956925 240.73534597 -92.03183481 239.9208236 -92.03416902 239.08161873 C-92.04045067 236.37832738 -92.03968343 233.67508692 -92.0388546 230.97178912 C-92.04184977 229.02275791 -92.04525312 227.07372729 -92.04903221 225.12469745 C-92.05784074 219.84759599 -92.06020902 214.57051077 -92.060848 209.29340267 C-92.06156037 205.99078922 -92.06369826 202.68817986 -92.06634521 199.38556743 C-92.07558875 187.84757357 -92.07968141 176.30959124 -92.07889366 164.77159381 C-92.07829338 154.04314435 -92.08883813 143.31474526 -92.10463732 132.58630854 C-92.11774562 123.35371051 -92.12307617 114.12112887 -92.12243825 104.88852161 C-92.1221842 99.3840106 -92.12498386 93.87954436 -92.1356163 88.37504268 C-92.14535259 83.19329399 -92.14533881 78.01163237 -92.13809967 72.82988048 C-92.13706062 70.93777216 -92.13937588 69.04565826 -92.14546013 67.15355945 C-92.20486639 47.38462486 -91.35982981 29.21771634 -76.89359093 14.13072467 C-56.85907521 -4.54899798 -25.21820297 -0.02124679 0 0 Z " fill="#F3F2F2" transform="translate(119.89359092712402,113.86927533149719)"/>
<path d="M0 0 C4.0246071 0.00228696 8.04921006 -0.00124173 12.0738163 -0.00397992 C19.93411468 -0.00840168 27.79440345 -0.00747723 35.65470219 -0.00456728 C42.04904636 -0.00229905 48.44338786 -0.00200685 54.83773232 -0.0030911 C55.75151642 -0.00324433 56.66530052 -0.00339756 57.60677505 -0.00355544 C59.46372827 -0.0038752 61.32068149 -0.00419941 63.17763472 -0.00452803 C80.54670492 -0.00737229 97.91576982 -0.00411236 115.28483915 0.00127234 C130.15375053 0.00573941 145.02265409 0.00496318 159.89156532 0.00035357 C177.20302522 -0.00501083 194.51448048 -0.0070977 211.82594109 -0.00403416 C213.675656 -0.00371565 215.52537092 -0.00340128 217.37508583 -0.0030911 C218.28492784 -0.00293682 219.19476985 -0.00278255 220.13218284 -0.0026236 C226.51092182 -0.00176404 232.88965785 -0.00320918 239.26839638 -0.00557065 C247.05326549 -0.00838962 254.83812454 -0.00758644 262.62299252 -0.00228991 C266.58677473 0.00031897 270.55054023 0.0014005 274.51432228 -0.00193906 C334.08384028 -0.04768504 334.08384028 -0.04768504 350.26265907 15.10338092 C361.47707655 27.43448827 364.27373184 42.59841222 364.24012184 58.71158099 C364.2423874 59.52610337 364.24465295 60.34062574 364.24698716 61.17983061 C364.25326882 63.88312196 364.25250158 66.58636242 364.25167274 69.28966022 C364.25466791 71.23869142 364.25807126 73.18772204 364.26185036 75.13675189 C364.27065888 80.41385335 364.27302717 85.69093857 364.27366614 90.96804667 C364.27437852 94.27066011 364.2765164 97.57326948 364.27916336 100.87588191 C364.28840689 112.41387577 364.29249955 123.95185809 364.29171181 135.48985553 C364.29111152 146.21830498 364.30165628 156.94670408 364.31745547 167.6751408 C364.33056376 176.90773883 364.33589431 186.14032047 364.3352564 195.37292773 C364.33500235 200.87743874 364.337802 206.38190498 364.34843445 211.88640666 C364.35817074 217.06815535 364.35815695 222.24981697 364.35091782 227.43156886 C364.34987877 229.32367718 364.35219402 231.21579107 364.35827827 233.10788989 C364.41768454 252.87682448 363.57264795 271.043733 349.10640907 286.13072467 C329.07189335 304.81044732 297.43102111 300.28269612 272.21281815 300.26144934 C268.18821105 300.25916238 264.16360809 300.26269107 260.13900185 300.26542926 C252.27870347 300.26985102 244.4184147 300.26892657 236.55811596 300.26601662 C230.16377179 300.26374838 223.76943029 300.26345619 217.37508583 300.26454043 C216.00440968 300.26477028 216.00440968 300.26477028 214.6060431 300.26500478 C212.74908988 300.26532454 210.89213665 300.26564875 209.03518343 300.26597737 C191.66611323 300.26882163 174.29704832 300.2655617 156.92797899 300.260177 C142.05906762 300.25570992 127.19016406 300.25648615 112.32125282 300.26109576 C95.00979293 300.26646017 77.69833767 300.26854704 60.38687706 300.2654835 C58.53716215 300.26516499 56.68744723 300.26485061 54.83773232 300.26454043 C53.9278903 300.26438616 53.01804829 300.26423188 52.08063531 300.26407293 C45.70189632 300.26321337 39.3231603 300.26465852 32.94442177 300.26701999 C25.15955265 300.26983896 17.37469361 300.26903578 9.58982563 300.26373924 C5.62604341 300.26113036 1.66227792 300.26004884 -2.30150414 300.2633884 C-61.87102214 300.30913437 -61.87102214 300.30913437 -78.04984093 285.15806842 C-89.26425841 272.82696106 -92.0609137 257.66303712 -92.0273037 241.54986835 C-92.02956925 240.73534597 -92.03183481 239.9208236 -92.03416902 239.08161873 C-92.04045067 236.37832738 -92.03968343 233.67508692 -92.0388546 230.97178912 C-92.04184977 229.02275791 -92.04525312 227.07372729 -92.04903221 225.12469745 C-92.05784074 219.84759599 -92.06020902 214.57051077 -92.060848 209.29340267 C-92.06156037 205.99078922 -92.06369826 202.68817986 -92.06634521 199.38556743 C-92.07558875 187.84757357 -92.07968141 176.30959124 -92.07889366 164.77159381 C-92.07829338 154.04314435 -92.08883813 143.31474526 -92.10463732 132.58630854 C-92.11774562 123.35371051 -92.12307617 114.12112887 -92.12243825 104.88852161 C-92.1221842 99.3840106 -92.12498386 93.87954436 -92.1356163 88.37504268 C-92.14535259 83.19329399 -92.14533881 78.01163237 -92.13809967 72.82988048 C-92.13706062 70.93777216 -92.13937588 69.04565826 -92.14546013 67.15355945 C-92.20486639 47.38462486 -91.35982981 29.21771634 -76.89359093 14.13072467 C-56.85907521 -4.54899798 -25.21820297 -0.02124679 0 0 Z M-65.74124718 25.36900592 C-70.93570879 32.75866998 -73.35218114 39.76959748 -73.28127098 48.72540545 C-73.28665652 49.55344076 -73.29204206 50.38147606 -73.29759079 51.23460335 C-73.31181722 53.98960085 -73.30477984 56.74411424 -73.29764366 59.49913287 C-73.30335008 61.48244366 -73.3103154 63.46575117 -73.31844139 65.44905353 C-73.33635975 70.82316143 -73.33520663 76.19710592 -73.32949901 81.5712347 C-73.32640463 86.06408466 -73.33250253 90.55690334 -73.33853775 95.04974884 C-73.35257762 105.65350886 -73.35102671 116.25718832 -73.33963585 126.86094928 C-73.32816059 137.78434599 -73.34222167 148.70749701 -73.36903232 159.63086134 C-73.39121805 169.02306644 -73.39782006 178.41519458 -73.39195591 187.80742401 C-73.38859137 193.41082378 -73.39096784 199.01406616 -73.40820694 204.6174438 C-73.42371925 209.88955284 -73.41967289 215.16129925 -73.40090179 220.43339419 C-73.3972275 222.36223605 -73.40029036 224.29110503 -73.41078758 226.21992183 C-73.4806033 240.11512915 -72.49240154 250.90860758 -63.10843468 261.90025592 C-56.30864309 268.74801781 -48.97127725 272.30526538 -39.31346703 272.44621539 C-38.47357735 272.44845111 -37.63368767 272.45068683 -36.76834679 272.45299029 C-35.86795677 272.4629201 -34.96756676 272.47284991 -34.0398922 272.48308063 C-31.06270795 272.51225428 -28.08573843 272.5259319 -25.10843468 272.53697467 C-24.07997492 272.54262942 -23.05151516 272.54828418 -21.99188995 272.55411029 C-16.52494984 272.58410175 -11.05811492 272.60254345 -5.59110069 272.61119342 C-1.12526679 272.6198909 3.33977863 272.64738639 7.80538368 272.69322467 C42.75164296 273.08525554 42.75164296 273.08525554 77.02300453 266.97142291 C80.12464713 266.12575202 83.23672271 265.35913586 86.36348915 264.61216998 C92.42368426 263.15338762 98.45406585 261.59416592 104.48140907 260.00572467 C105.54258949 259.7279317 106.60376991 259.45013873 107.69710732 259.16392779 C128.35831602 253.74378842 148.80449407 247.76847739 169.10640907 241.13072467 C170.29466286 240.74270679 170.29466286 240.74270679 171.50692177 240.34685016 C194.69746289 232.75502145 217.55434303 224.45211248 240.10640907 215.13072467 C240.73317543 214.87202594 241.35994179 214.61332721 242.00570107 214.34678912 C267.60617199 203.75498344 292.81443379 191.97437815 317.16890907 178.75572467 C317.9326786 178.34121051 318.69644814 177.92669635 319.4833622 177.49962115 C321.01015624 176.65214598 322.51750313 175.7686884 324.00338173 174.85136676 C326.51320333 173.45965982 328.84385678 172.42699856 331.49740028 171.38275409 C336.74270069 169.09165067 341.44047449 166.62837366 345.10640907 162.13072467 C348.4150452 153.59440795 347.31804901 143.76501785 347.04000282 134.79088092 C347.00954359 132.10009855 347.00481018 129.40941097 346.99875832 126.71847796 C346.97211943 121.08894883 346.87889318 115.46385093 346.73897743 109.83604693 C346.56047973 102.64593188 346.48745976 95.45891728 346.4496851 88.26684165 C346.41663072 82.04330872 346.33999112 75.82042089 346.25387883 69.59742308 C346.22768799 67.61737974 346.2064434 65.63727302 346.18523407 63.65717006 C346.13635503 59.94292843 346.05344081 56.23103641 345.95968056 52.51768756 C345.94422691 50.89713962 345.94422691 50.89713962 345.92846107 49.24385333 C345.57587244 38.23154536 341.90398758 28.98123477 334.20015907 21.03306842 C323.85542744 11.63403054 311.88801241 10.67987077 298.38718605 10.74304461 C296.92193649 10.73886453 295.45669017 10.73338333 293.99144977 10.7267248 C289.99184591 10.71234005 285.99244933 10.71649293 281.99283445 10.72389162 C277.66894843 10.72863831 273.34510629 10.71610025 269.02123451 10.7058742 C260.56105439 10.68871061 252.10094861 10.68784107 243.6407556 10.69308711 C236.76229916 10.69713434 229.88386464 10.69567868 223.00540924 10.69033885 C222.02511106 10.68959043 221.04481289 10.68884201 220.03480871 10.6880709 C218.04311935 10.68653937 216.05143 10.68500103 214.05974066 10.68345594 C195.398014 10.66973989 176.7363293 10.67516244 158.07460361 10.68664115 C141.01497141 10.69657409 123.95544766 10.6836302 106.89583219 10.65970696 C89.36214231 10.63530487 71.82850292 10.62571073 54.29479641 10.63235968 C44.45766701 10.63584924 34.62062101 10.63363715 24.78350449 10.61610866 C16.41012287 10.60137288 8.03688341 10.60076931 -0.33649545 10.61817957 C-4.60538427 10.62668031 -8.87401929 10.62886182 -13.14289474 10.61352801 C-17.056894 10.59964336 -20.97042294 10.60449205 -24.88439525 10.62376725 C-26.29409431 10.62751602 -27.7038314 10.62463788 -29.11349647 10.6141556 C-43.81858403 10.51265411 -56.08879465 13.67586576 -65.74124718 25.36900592 Z " fill="#000000" transform="translate(119.89359092712402,113.86927533149719)"/>
<path d="M0 0 C0.11640678 10.33644717 0.2049736 20.67273561 0.25906086 31.00970745 C0.2850344 35.81082684 0.32020554 40.61149419 0.37719727 45.41235352 C0.43195789 50.05489793 0.46151233 54.69701055 0.47438622 59.33985329 C0.48354775 61.10151773 0.50143585 62.86316146 0.52865028 64.62463951 C0.71550928 77.23316087 -0.07430737 88.10857512 -8.25 98.4375 C-16.35723468 106.71945956 -25.7494711 110.92883094 -37.37163448 111.37473011 C-39.27788458 111.38969222 -41.18430728 111.38872735 -43.09056091 111.3742218 C-44.68076029 111.38018341 -44.68076029 111.38018341 -46.30308491 111.38626546 C-49.82516208 111.39582458 -53.34683113 111.38410915 -56.86889648 111.37231445 C-59.40587005 111.37474441 -61.94284265 111.37846572 -64.47981262 111.38337708 C-70.63526923 111.39178593 -76.79057644 111.38630089 -82.9460225 111.37411413 C-90.11766891 111.36044725 -97.28928771 111.36213593 -104.46094383 111.36424746 C-117.25385322 111.36743124 -130.04670677 111.35580168 -142.83959961 111.33618164 C-155.25074969 111.31715213 -167.66183442 111.31010212 -180.07299805 111.31567383 C-193.60218147 111.32172951 -207.13133623 111.32156057 -220.66051728 111.310188 C-222.10229719 111.30898073 -223.5440771 111.30777474 -224.98585701 111.30657005 C-226.04985611 111.30566475 -226.04985611 111.30566475 -227.13535015 111.30474115 C-232.13448658 111.30086151 -237.13361234 111.30125568 -242.13274956 111.3031559 C-248.85427802 111.30549741 -255.57571022 111.29696158 -262.29722404 111.2810955 C-264.76760002 111.27684308 -267.23798451 111.2760085 -269.70836258 111.27878571 C-273.07177645 111.28199409 -276.43493679 111.2729597 -279.79832458 111.26069641 C-280.78303456 111.26447573 -281.76774454 111.26825506 -282.78229421 111.27214891 C-283.68219078 111.26631671 -284.58208734 111.26048452 -285.5092535 111.25447559 C-286.28551458 111.25360882 -287.06177566 111.25274204 -287.86155981 111.251849 C-290.27129528 110.96804893 -291.90664372 110.19817837 -294 109 C-293.38334473 108.8863208 -292.76668945 108.7726416 -292.13134766 108.65551758 C-252.79691653 101.25866543 -214.02164426 90.43125451 -176 78 C-174.81174622 77.61198212 -174.81174622 77.61198212 -173.5994873 77.21612549 C-150.40894618 69.62429678 -127.55206604 61.32138781 -105 52 C-104.37323364 51.74130127 -103.74646729 51.48260254 -103.10070801 51.21606445 C-70.08468267 37.55618585 -36.74005643 22.45527434 -6.74145508 2.94360352 C-2.19457902 0 -2.19457902 0 0 0 Z " fill="#EA6207" transform="translate(465,276)"/>
<path d="M0 0 C1.47645801 -0.00302313 2.95291445 -0.00691342 4.42936814 -0.01159257 C8.47377777 -0.02186053 12.51809863 -0.01969381 16.5625155 -0.01541197 C20.92935148 -0.01294257 25.29616621 -0.02196157 29.66299438 -0.02944946 C38.21313994 -0.04219249 46.76325408 -0.04399065 55.31340753 -0.0416492 C62.26393585 -0.03986545 69.21445465 -0.0416169 76.16498184 -0.04587364 C77.15459002 -0.04646883 78.14419819 -0.04706402 79.1637945 -0.04767724 C81.17425091 -0.04888901 83.18470733 -0.05010314 85.19516374 -0.05131962 C104.0451806 -0.06219362 122.89517956 -0.06003332 141.74519743 -0.05393478 C158.9841818 -0.04876567 176.22310966 -0.06002116 193.46208285 -0.07903299 C211.16968407 -0.09841171 228.87725856 -0.10666734 246.58487046 -0.10290974 C256.52368983 -0.10099776 266.4624611 -0.10348499 276.40127182 -0.11762428 C284.86222934 -0.12953946 293.32310915 -0.13094141 301.78406774 -0.11883412 C306.09923051 -0.11294643 310.41425115 -0.11184295 314.72940445 -0.12383652 C318.68343645 -0.1346985 322.63720772 -0.1315883 326.59122755 -0.11757483 C328.0178055 -0.11492877 329.4444039 -0.1172916 330.87096177 -0.1253107 C344.28453992 -0.195449 355.52088443 2.0793197 365.74465942 11.26460266 C372.35194116 18.19419082 377.64464084 27.41989129 377.63444519 37.17712402 C377.63650719 38.69785774 377.63650719 38.69785774 377.63861084 40.24931335 C377.63501556 41.36061615 377.63142029 42.47191895 377.62771606 43.61689758 C377.62786209 44.78776413 377.62800812 45.95863068 377.62815857 47.16497803 C377.62758093 50.37545918 377.62256265 53.58589684 377.61558461 56.79636931 C377.60933699 60.15160798 377.60874616 63.50684748 377.6075592 66.86209106 C377.60445005 73.21562394 377.59624226 79.56913963 377.58620971 85.92266494 C377.57503568 93.15596814 377.56953487 100.38927216 377.56451428 107.62258184 C377.55405931 122.50196294 377.5364679 137.38132796 377.51419067 152.26069641 C376.52419067 152.59069641 375.53419067 152.92069641 374.51419067 153.26069641 C374.5145677 152.6654611 374.51494473 152.07022579 374.51533318 151.45695305 C374.52247761 136.91454878 374.49630648 122.37246157 374.43391228 107.83019829 C374.40452517 100.7973499 374.38605314 93.76480128 374.39407349 86.73188782 C374.40179135 79.93647552 374.37803782 73.14173644 374.33563614 66.34645462 C374.32454967 63.76233882 374.32376411 61.17815632 374.33376694 58.5940361 C374.47770757 34.75850012 374.47770757 34.75850012 362.35012817 14.87007141 C351.95973583 5.7618977 340.16742428 4.81044319 326.79496765 4.87301636 C325.32971809 4.86883627 323.86447177 4.86335507 322.39923137 4.85669655 C318.39962751 4.84231179 314.40023093 4.84646467 310.40061605 4.85386336 C306.07673003 4.85861005 301.75288789 4.846072 297.42901611 4.83584595 C288.96883599 4.81868235 280.50873021 4.81781281 272.0485372 4.82305885 C265.17008076 4.82710609 258.29164624 4.82565042 251.41319084 4.82031059 C250.43289267 4.81956217 249.45259449 4.81881375 248.44259031 4.81804265 C246.45090095 4.81651112 244.4592116 4.81497277 242.46752226 4.81342768 C223.8057956 4.79971163 205.1441109 4.80513419 186.48238521 4.81661289 C169.42275301 4.82654583 152.36322926 4.81360194 135.30361379 4.7896787 C117.76992391 4.76527661 100.23628452 4.75568247 82.70257801 4.76233143 C72.86544861 4.76582098 63.02840262 4.76360889 53.19128609 4.7460804 C44.81790447 4.73134462 36.44466501 4.73074105 28.07128615 4.74815131 C23.80239733 4.75665206 19.53376231 4.75883357 15.26488686 4.74349976 C11.3508876 4.7296151 7.43735866 4.73446379 3.52338635 4.75373899 C2.11368729 4.75748776 0.7039502 4.75460962 -0.70571487 4.74412734 C-13.1752819 4.65805647 -23.67362659 6.69223991 -33.29049683 14.97944641 C-40.60416977 22.57941972 -43.79553338 31.16887232 -43.75323486 41.61486816 C-43.75776598 42.44119462 -43.76229709 43.26752107 -43.76696551 44.11888772 C-43.77959715 46.8800004 -43.77798992 49.64091551 -43.77633667 52.40205383 C-43.78232278 54.38506829 -43.78912852 56.36808041 -43.79669189 58.35108948 C-43.81435297 63.73354498 -43.81904739 69.11593689 -43.82032347 74.49841857 C-43.82174583 77.8638136 -43.82601711 81.22919249 -43.8313179 84.59458351 C-43.8498202 96.34308014 -43.85798847 108.0915314 -43.85641479 119.84004211 C-43.85521411 130.77815588 -43.87630171 141.71607209 -43.90790212 152.65413588 C-43.93408957 162.05478503 -43.94478102 171.45536976 -43.94350398 180.85605508 C-43.94299497 186.46620237 -43.9486441 192.07617417 -43.96986008 197.68628502 C-43.98928334 202.96655966 -43.98933887 208.24649217 -43.97482681 213.52677917 C-43.97274253 215.45885025 -43.97741678 217.39094295 -43.98954773 219.32297707 C-44.06764864 232.62943774 -43.38605473 243.58615363 -34.47799683 254.25288391 C-27.7562286 261.02737189 -20.35403371 264.43864838 -10.83738708 264.57299805 C-9.98934006 264.57515823 -9.14129303 264.57731842 -8.26754761 264.57954407 C-7.35958939 264.58958969 -6.45163116 264.59963531 -5.51615906 264.60998535 C-2.52948613 264.64075693 0.45709739 264.65783579 3.44387817 264.67475891 C5.52039353 264.69347539 7.59690133 264.71304917 9.67340088 264.73344421 C15.12803685 264.78472057 20.58269747 264.82437044 26.03744507 264.86158752 C31.6078804 264.9016553 37.1782136 264.95273501 42.74856567 265.00288391 C53.67036888 265.09959 64.59222982 265.18401187 75.51419067 265.26069641 C75.51419067 265.59069641 75.51419067 265.92069641 75.51419067 266.26069641 C58.30228069 270.34310526 41.52161631 270.89090167 23.94314575 270.78218079 C20.1780996 270.75920568 16.41418327 270.77269332 12.6491766 270.79647064 C9.6950809 270.81104376 6.74124609 270.80627379 3.7871418 270.79595947 C2.39955057 270.79333358 1.01193391 270.79641198 -0.37562752 270.80587769 C-14.77006548 270.88272505 -26.62653385 268.03047221 -37.48580933 258.26069641 C-45.35685529 249.94690411 -48.63250902 240.32944368 -48.63970947 229.07783508 C-48.64409173 228.24575594 -48.64847398 227.4136768 -48.65298903 226.55638313 C-48.66636014 223.76380817 -48.67255217 220.97126475 -48.67868042 218.17866516 C-48.68658287 216.17786517 -48.69485191 214.1770666 -48.70346069 212.17626953 C-48.72966965 205.60025898 -48.74498969 199.02424211 -48.75924683 192.44819641 C-48.76460744 190.18251034 -48.76998495 187.9168243 -48.77537918 185.65113831 C-48.79700845 176.2233892 -48.81574339 166.79564179 -48.82700157 157.36787415 C-48.84322857 143.8688242 -48.87637576 130.37006264 -48.93340242 116.87112141 C-48.97215221 107.37369188 -48.99164039 97.87633931 -48.99692214 88.37883282 C-49.00056935 82.70987747 -49.01252364 77.04122979 -49.04502487 71.37236023 C-49.07519305 66.03380206 -49.08138601 60.69573631 -49.06964111 55.35711098 C-49.0694211 53.40448479 -49.07766629 51.45183518 -49.09529495 49.49928856 C-49.21788693 35.13145614 -47.60061283 23.31756495 -37.48580933 12.26069641 C-26.75000908 1.37297446 -14.71876274 -0.04272326 0 0 Z " fill="#676767" transform="translate(91.48580932617188,120.73930358886719)"/>
<path d="M0 0 C7.00131513 5.87777571 11.58317706 11.6956412 12.625 20.921875 C13.12174589 31.07208948 11.41932638 39.29943917 5.06640625 47.39453125 C-0.35864474 53.1828146 -7.82521908 56.73512967 -15.7265625 57.28515625 C-26.39055189 57.43804499 -34.55017785 55.87381088 -42.58984375 48.43359375 C-48.83649623 41.94872147 -51.91436949 34.52310472 -52.30859375 25.51953125 C-52.07202902 19.80119074 -50.42518977 15.13327456 -47.80859375 10.08203125 C-47.48117188 9.44394531 -47.15375 8.80585938 -46.81640625 8.1484375 C-42.7084476 1.41678264 -35.37865409 -2.47741809 -28.24609375 -5.35546875 C-18.07607976 -7.01965286 -8.69630359 -5.93864404 0 0 Z " fill="#F8C49F" transform="translate(285.80859375,192.91796875)"/>
<path d="M0 0 C31.43993506 0 31.43993506 0 42.08984375 8.9296875 C48.30560777 15.66660965 50.37441375 23.81081474 50.27734375 32.73046875 C49.56964201 41.07337523 46.31316834 48.44150925 40 54 C27.66585552 63.42017145 16.36104579 61 0 61 C0 40.87 0 20.74 0 0 Z " fill="#090909" transform="translate(66,188)"/>
<path d="M0 0 C28.625 0 28.625 0 34.8125 5.5 C38.84671069 10.11052651 38.33603386 14.95911435 38.27734375 20.828125 C37.91626319 24.95766601 36.88945013 27.03451171 34 30 C28.84210526 34 28.84210526 34 25 34 C25.43344727 34.57443848 25.86689453 35.14887695 26.31347656 35.74072266 C28.29403295 38.36752687 30.27203487 40.99624412 32.25 43.625 C33.27287109 44.98044922 33.27287109 44.98044922 34.31640625 46.36328125 C37.67631167 50.83228166 40.97060812 55.29975796 44 60 C38.80955247 61.45774271 33.98135483 62.35806417 29 60 C22.7456442 53.90515126 17.93408695 45.76022897 14 38 C14 37.34 14 36.68 14 36 C13.34 36 12.68 36 12 36 C12 43.92 12 51.84 12 60 C8.04 60 4.08 60 0 60 C0 40.2 0 20.4 0 0 Z " fill="#5A5A5A" transform="translate(401,189)"/>
<path d="M0 0 C0.33 0 0.66 0 1 0 C1 38.94 1 77.88 1 118 C2.485 117.505 2.485 117.505 4 117 C4.09299032 127.89257196 4.16391177 138.78504831 4.20724869 149.67793751 C4.22805622 154.7368511 4.25624807 159.79549159 4.30175781 164.85424805 C4.3454605 169.7431523 4.36918841 174.63179511 4.37950897 179.52087975 C4.38685673 181.37906696 4.40120442 183.23724109 4.42292023 185.09531593 C4.56537473 197.79810445 4.06846792 208.4865418 -4 219 C-4.680625 219.969375 -5.36125 220.93875 -6.0625 221.9375 C-13.04914791 230.05654038 -23.42318813 234.28685813 -33.91062582 235.27395284 C-37.04234503 235.37479116 -40.16111228 235.38582659 -43.2943573 235.36076355 C-45.07867526 235.36460846 -45.07867526 235.36460846 -46.89904004 235.36853105 C-50.16937778 235.37259071 -53.43935112 235.36332027 -56.70964587 235.34819686 C-60.24799881 235.33516055 -63.78633681 235.33963129 -67.32470703 235.34190369 C-73.44472903 235.34347165 -79.56465458 235.33411255 -85.68465233 235.31719017 C-94.53296873 235.29273975 -103.38123881 235.28498874 -112.22958533 235.2812262 C-126.58773497 235.27467116 -140.94583328 235.2547358 -155.30395508 235.22631836 C-169.24600977 235.1987532 -183.18805049 235.17753166 -197.13012695 235.16479492 C-198.4206546 235.16361267 -198.4206546 235.16361267 -199.73725351 235.16240653 C-204.05367304 235.15849122 -208.37009266 235.15470015 -212.68651235 235.15097082 C-248.45771148 235.11990445 -284.22885099 235.06709456 -320 235 C-320 234.67 -320 234.34 -320 234 C-303.61057519 230.3558387 -288.04307409 229.4620385 -271.29077148 229.609375 C-268.68796754 229.61707201 -266.08515758 229.62291759 -263.48234558 229.6270752 C-257.92451389 229.63850628 -252.36690097 229.66406675 -246.80917168 229.69934082 C-238.75995416 229.75004722 -230.71081486 229.77397473 -222.66146363 229.79107428 C-209.57657325 229.81920464 -196.49178352 229.86230644 -183.40698242 229.91796875 C-182.23750373 229.92293562 -182.23750373 229.92293562 -181.04439921 229.92800283 C-175.50876442 229.95161091 -169.97313203 229.97575685 -164.4375 230 C-158.09822758 230.02774184 -151.75895408 230.05520173 -145.41967773 230.08203125 C-144.63826707 230.08534376 -143.8568564 230.08865626 -143.05176663 230.09206915 C-129.99826306 230.14691043 -116.94475761 230.18588713 -103.89116913 230.21367264 C-95.86521688 230.23152131 -87.83956307 230.26352106 -79.81374998 230.3142519 C-73.66607851 230.35209984 -67.51850593 230.36936285 -61.37072945 230.3792572 C-58.85893816 230.38672013 -56.34715599 230.40107366 -53.83544922 230.42298889 C-30.83579504 230.8765539 -30.83579504 230.8765539 -11.08984375 220.13671875 C-3.5624862 212.44052327 -0.53323521 202.89579378 -0.60127258 192.28697205 C-0.59462576 191.4584882 -0.58797893 190.63000435 -0.58113068 189.77641493 C-0.56261859 187.02651488 -0.56509796 184.27705447 -0.56762695 181.52709961 C-0.55860259 179.54549552 -0.54827371 177.563897 -0.53674316 175.58230591 C-0.50922641 170.22142472 -0.49989585 164.86064962 -0.49388909 159.49970698 C-0.48449159 153.89027013 -0.45828706 148.28091208 -0.43388367 142.67152405 C-0.39025289 132.05767404 -0.36168487 121.44383936 -0.33856028 110.82992703 C-0.3114903 98.74284116 -0.26757987 86.6558347 -0.22227156 74.56880558 C-0.12947426 49.71258013 -0.05777098 24.85632979 0 0 Z " fill="#592401" transform="translate(465,156)"/>
<path d="M0 0 C11.22 0 22.44 0 34 0 C34 3.3 34 6.6 34 10 C26.74 10 19.48 10 12 10 C12 14.29 12 18.58 12 23 C18.93 23 25.86 23 33 23 C33 26.3 33 29.6 33 33 C26.07 33 19.14 33 12 33 C12 38.61 12 44.22 12 50 C19.26 50 26.52 50 34 50 C34 53.3 34 56.6 34 60 C22.78 60 11.56 60 0 60 C0 40.2 0 20.4 0 0 Z " fill="#5A5A5A" transform="translate(359,189)"/>
<path d="M0 0 C2.36579682 1.19812886 4.62789634 2.44566901 6.85546875 3.8828125 C5.54300337 7.32375436 4.18958008 10.01822132 1.85546875 12.8828125 C-2.14453125 10.8828125 -2.14453125 10.8828125 -3.95703125 9.6953125 C-7.27430802 8.46318113 -9.75345361 9.08128506 -13.14453125 9.8828125 C-15.16931588 10.98930919 -15.16931588 10.98930919 -16.14453125 12.8828125 C-16.18693269 14.54893971 -16.1908097 16.21678847 -16.14453125 17.8828125 C-15.53867188 18.18574219 -14.9328125 18.48867187 -14.30859375 18.80078125 C-12.54400765 19.6830743 -10.78110445 20.56873795 -9.01953125 21.45703125 C-7.15686663 22.38077118 -5.28222565 23.28089392 -3.39453125 24.15234375 C2.27795382 26.81132113 5.96823206 29.10833913 8.85546875 34.8828125 C9.51200979 42.57833453 9.73608763 48.68310744 4.85546875 54.8828125 C-1.31622891 60.73801284 -7.27716379 61.4402268 -15.55078125 61.3359375 C-21.84592915 60.54220146 -26.93972984 57.62786327 -30.9140625 52.6796875 C-31.32011719 52.08671875 -31.72617188 51.49375 -32.14453125 50.8828125 C-30.70199468 47.51689384 -28.81188398 45.37234171 -26.14453125 42.8828125 C-22.78309707 44.00329056 -21.56924291 45.37988433 -19.14453125 47.8828125 C-15.68506554 49.61254536 -11.92723331 49.35984953 -8.14453125 48.8828125 C-5.45314582 47.44266324 -5.45314582 47.44266324 -4.14453125 44.8828125 C-3.56107649 41.84027742 -3.56107649 41.84027742 -4.14453125 38.8828125 C-7.45665365 34.85979554 -12.44924286 33.51907351 -17.1640625 31.6640625 C-21.75605762 29.7656958 -24.887963 27.78326497 -28.14453125 23.8828125 C-30.08248284 18.06895774 -30.16508817 11.96172474 -27.45703125 6.4453125 C-20.11033973 -1.69561594 -10.51821215 -3.73690519 0 0 Z " fill="#535353" transform="translate(170.14453125,189.1171875)"/>
<path d="M0 0 C4.29 0 8.58 0 13 0 C14.65580689 3.982835 16.30978584 7.96642288 17.9621582 11.95068359 C18.52319366 13.3027742 19.08470687 14.65466668 19.64672852 16.00634766 C28 36.09875 28 36.09875 28 40 C28.66 40 29.32 40 30 40 C30.09982178 39.33846924 30.19964355 38.67693848 30.30249023 37.99536133 C31.19077848 34.18072763 32.6503764 30.67427266 34.16015625 27.07421875 C34.46948593 26.32662796 34.77881561 25.57903717 35.09751892 24.80879211 C36.0815918 22.43323655 37.07194502 20.06035895 38.0625 17.6875 C38.73283872 16.07243857 39.4027652 14.45720598 40.07226562 12.84179688 C41.71007582 8.89253283 43.35352163 4.94565763 45 1 C49.29 1 53.58 1 58 1 C52.4537271 14.96769135 46.77257104 28.87444039 41 42.75 C40.21732843 44.63406495 39.43477588 46.51817935 38.65234375 48.40234375 C36.76959205 52.93546343 34.88526159 57.46792361 33 62 C30.36 62 27.72 62 25 62 C24.77529022 61.45479706 24.55058044 60.90959412 24.31906128 60.34786987 C21.95118054 54.6033385 19.58192323 48.85937622 17.21191406 43.11572266 C16.33103672 40.98044766 15.45049463 38.84503432 14.5703125 36.70947266 C13.29518266 33.61583379 12.01898891 30.52263683 10.7421875 27.4296875 C10.32990906 26.43040222 9.91763062 25.43111694 9.49285889 24.40155029 C6.72439208 17.7071417 3.88832676 11.04679816 0.96533203 4.41845703 C0 2 0 2 0 0 Z " fill="#575757" transform="translate(296,188)"/>
<path d="M0 0 C0 4.29 0 8.58 0 13 C-4 11 -4 11 -6.625 9.375 C-12.3479367 7.0434332 -17.73742406 7.05383188 -23.4375 9.4375 C-24.283125 9.953125 -25.12875 10.46875 -26 11 C-26.99 11.33 -27.98 11.66 -29 12 C-30.10168984 13.69769234 -30.10168984 13.69769234 -31 16 C-31.53625 17.051875 -32.0725 18.10375 -32.625 19.1875 C-35.08566856 25.10572336 -34.74785852 30.74316303 -32.5 36.6875 C-30.0387244 41.541919 -27.07634261 44.87818487 -22 47 C-16.03319486 47.95026897 -10.1846155 48.10819728 -4.8125 45.0625 C-3.4203125 44.0415625 -3.4203125 44.0415625 -2 43 C-1.34 42.67 -0.68 42.34 0 42 C0 46.62 0 51.24 0 56 C-5.04741064 58.47126469 -9.20911122 59.52415316 -14.875 59.4375 C-15.57753906 59.42920166 -16.28007812 59.42090332 -17.00390625 59.41235352 C-28.32215828 59.04492874 -34.62681174 53.37318826 -42.3125 45.6875 C-47.14662477 37.9887087 -48.07700274 29.29707008 -46.56640625 20.46484375 C-44.37809459 11.67082113 -39.61626928 5.33860198 -31.9375 0.5625 C-20.97712288 -5.36957817 -11.10824026 -5.9243948 0 0 Z " fill="#555555" transform="translate(230,191)"/>
<path d="M0 0 C45.18206618 -0.06867308 90.36412684 -0.12153233 135.54623493 -0.15319599 C140.88092103 -0.15694809 146.21560702 -0.16083106 151.55029297 -0.16479492 C152.61232872 -0.16558185 153.67436448 -0.16636878 154.76858313 -0.16717956 C171.96280384 -0.18023193 189.15699444 -0.20388486 206.35119729 -0.23145839 C223.99525732 -0.25951725 241.63930159 -0.27617728 259.28338301 -0.28226548 C270.16989653 -0.28638092 281.05632495 -0.29937727 291.94281228 -0.3237494 C299.40902827 -0.33961251 306.87520029 -0.34439904 314.3414319 -0.34050413 C318.64844583 -0.33858349 322.95531111 -0.3415189 327.26229858 -0.35761642 C331.20923594 -0.37226023 335.15592524 -0.37292344 339.10287423 -0.36269668 C340.52700467 -0.3614335 341.95115085 -0.36520106 343.3752505 -0.37464955 C356.78372546 -0.45840236 368.01142452 1.82287352 378.23046875 11.00390625 C384.83775048 17.93349441 390.13045016 27.15919488 390.12025452 36.91642761 C390.12231651 38.43716133 390.12231651 38.43716133 390.12442017 39.98861694 C390.12082489 41.09991974 390.11722961 42.21122253 390.11352539 43.35620117 C390.11367142 44.52706772 390.11381744 45.69793427 390.1139679 46.90428162 C390.11339025 50.11476276 390.10837198 53.32520043 390.10139394 56.5356729 C390.09514631 59.89091157 390.09455548 63.24615107 390.09336853 66.60139465 C390.09025938 72.95492753 390.08205158 79.30844322 390.07201904 85.66196853 C390.06084501 92.89527173 390.0553442 100.12857575 390.05032361 107.36188543 C390.03986864 122.24126653 390.02227722 137.12063155 390 152 C389.01 152.33 388.02 152.66 387 153 C387.00037703 152.40476469 387.00075405 151.80952938 387.0011425 151.19625664 C387.00828694 136.65385237 386.98211581 122.11176516 386.9197216 107.56950188 C386.8903345 100.53665349 386.87186246 93.50410486 386.87988281 86.47119141 C386.88760068 79.67577911 386.86384714 72.88104003 386.82144547 66.08575821 C386.810359 63.50164241 386.80957344 60.91745991 386.81957626 58.33333969 C386.9635169 34.49780371 386.9635169 34.49780371 374.8359375 14.609375 C368.52819011 9.08003048 362.13357641 6.83902555 354 5 C354 4.34 354 3.68 354 3 C333.43753113 2.84969196 312.87502717 2.70458583 292.3125 2.5625 C291.11654984 2.55422865 291.11654984 2.55422865 289.89643908 2.5457902 C224.3272005 2.09268745 158.75754271 1.75061714 93.1875 1.4375 C91.44539836 1.42917578 91.44539836 1.42917578 89.66810274 1.42068338 C59.77874697 1.27791457 29.88937995 1.13761363 0 1 C0 0.67 0 0.34 0 0 Z " fill="#727272" transform="translate(79,121)"/>
<path d="M0 0 C14.8 0 14.8 0 19.6875 4.58203125 C24.2694942 9.63764505 26.46164153 13.87218683 26.25 20.8828125 C25.49193954 27.30263704 23.04712646 31.89187381 18 36 C11.82129172 40.37030585 8.66310751 39 0 39 C0 26.13 0 13.26 0 0 Z " fill="#F0F0F0" transform="translate(78,199)"/>
<path d="M0 0 C7.00131513 5.87777571 11.58317706 11.6956412 12.625 20.921875 C13.12174589 31.07208948 11.41932638 39.29943917 5.06640625 47.39453125 C-0.35864474 53.1828146 -7.82521908 56.73512967 -15.7265625 57.28515625 C-26.39055189 57.43804499 -34.55017785 55.87381088 -42.58984375 48.43359375 C-48.83649623 41.94872147 -51.91436949 34.52310472 -52.30859375 25.51953125 C-52.07202902 19.80119074 -50.42518977 15.13327456 -47.80859375 10.08203125 C-47.48117188 9.44394531 -47.15375 8.80585938 -46.81640625 8.1484375 C-42.7084476 1.41678264 -35.37865409 -2.47741809 -28.24609375 -5.35546875 C-18.07607976 -7.01965286 -8.69630359 -5.93864404 0 0 Z M-29.546875 4.64453125 C-31.57697794 6.83241421 -33.6469823 8.73386172 -35.93359375 10.64453125 C-37.22739649 11.78795211 -38.51908654 12.93376823 -39.80859375 14.08203125 C-40.47503906 14.63761719 -41.14148438 15.19320312 -41.828125 15.765625 C-46.20947469 19.9149684 -47.43309886 23.4581986 -48.12109375 29.45703125 C-48.2858169 36.63323108 -46.76703463 41.80709414 -41.80859375 47.08203125 C-40.1681073 48.12442368 -38.50382217 49.13125347 -36.80859375 50.08203125 C-36.35484375 50.59765625 -35.90109375 51.11328125 -35.43359375 51.64453125 C-30.63386943 55.89044123 -22.95067325 55.746285 -16.890625 55.65625 C-12.46424918 54.83156401 -10.9599173 52.87994056 -8.4296875 49.30859375 C-6.69127457 46.92089407 -4.83634363 45.26451036 -2.55859375 43.39453125 C0.43589711 40.85497266 2.34692476 38.58654607 4.19140625 35.08203125 C4.87203125 34.23640625 5.55265625 33.39078125 6.25390625 32.51953125 C10.39070298 27.31517407 10.52664423 23.73873452 9.87109375 17.19921875 C8.80968921 12.33139795 6.39066532 8.83041688 3.19140625 5.08203125 C2.71445312 4.50582031 2.2375 3.92960938 1.74609375 3.3359375 C0.0053734 1.66350413 0.0053734 1.66350413 -3.80859375 2.08203125 C-3.80859375 1.42203125 -3.80859375 0.76203125 -3.80859375 0.08203125 C-6.28359375 -0.90796875 -6.28359375 -0.90796875 -8.80859375 -1.91796875 C-8.80859375 -0.59796875 -8.80859375 0.72203125 -8.80859375 2.08203125 C-9.22109375 1.60765625 -9.63359375 1.13328125 -10.05859375 0.64453125 C-12.10712602 -1.18451542 -13.10186451 -1.54203413 -15.80859375 -1.91796875 C-16.86046875 -2.12421875 -17.91234375 -2.33046875 -18.99609375 -2.54296875 C-24.19324205 -1.69097723 -26.06045444 0.85623047 -29.546875 4.64453125 Z " fill="#F7A269" transform="translate(285.80859375,192.91796875)"/>
<path d="M0 0 C3.96 0 7.92 0 12 0 C12 19.8 12 39.6 12 60 C8.04 60 4.08 60 0 60 C0 40.2 0 20.4 0 0 Z " fill="#585858" transform="translate(121,189)"/>
<path d="M0 0 C31.4765625 0 31.4765625 0 42.08984375 8.9375 C46.58000662 13.78577402 48.89862532 19.55236906 50 26 C37.07957342 23.55947498 37.07957342 23.55947498 32.5625 18 C28.08106799 12.75344545 23.6565434 11.9388918 17.0625 11.3125 C15.37575694 11.19672087 13.68839195 11.08854135 12 11 C12 12.32 12 13.64 12 15 C10.54119891 14.85892253 9.08296449 14.71197585 7.625 14.5625 C6.40683594 14.44068359 6.40683594 14.44068359 5.1640625 14.31640625 C3 14 3 14 1 13 C1 28.84 1 44.68 1 61 C0.67 61 0.34 61 0 61 C0 40.87 0 20.74 0 0 Z " fill="#555555" transform="translate(66,188)"/>
<path d="M0 0 C0 25.41 0 50.82 0 77 C-0.33 77 -0.66 77 -1 77 C-1 61.82 -1 46.64 -1 31 C-5.95 30.01 -5.95 30.01 -11 29 C-13.37170844 28.44340325 -15.73945929 27.86948223 -18.1015625 27.2734375 C-19.94814453 26.809375 -19.94814453 26.809375 -21.83203125 26.3359375 C-23.08371094 26.01882813 -24.33539063 25.70171875 -25.625 25.375 C-26.92832953 25.0466531 -28.23171462 24.71852663 -29.53515625 24.390625 C-32.69065501 23.59590679 -35.8455791 22.79898371 -39 22 C-36.56840566 20.1122095 -34.20014572 18.47724692 -31.453125 17.08984375 C-30.78031494 16.74429443 -30.10750488 16.39874512 -29.41430664 16.04272461 C-28.70008545 15.67800049 -27.98586426 15.31327637 -27.25 14.9375 C-20.27132527 11.32480414 -13.5919282 7.38033973 -7.00292969 3.09936523 C-2.19524806 0 -2.19524806 0 0 0 Z " fill="#F79757" transform="translate(465,276)"/>
<path d="M0 0 C0.99 0.495 0.99 0.495 2 1 C2 1.99 2 2.98 2 4 C2.62003906 4.08894531 3.24007812 4.17789062 3.87890625 4.26953125 C6 5 6 5 7.08984375 6.63671875 C7.36957031 7.31347656 7.64929687 7.99023438 7.9375 8.6875 C11.83216236 17.09098302 18.0050612 22.52719531 26.57254028 26.06112671 C30.86609981 27.23724801 34.78787553 27.30756236 39.21826172 27.31884766 C40.12621994 27.32889328 41.03417816 27.3389389 41.96965027 27.34928894 C44.95632319 27.38006052 47.94290672 27.39713938 50.9296875 27.4140625 C53.00620286 27.43277898 55.08271065 27.45235276 57.15921021 27.4727478 C62.61384618 27.52402416 68.06850679 27.56367403 73.52325439 27.60089111 C79.09368972 27.64095889 84.66402292 27.6920386 90.234375 27.7421875 C101.15617821 27.83889359 112.07803915 27.92331546 123 28 C123 28.33 123 28.66 123 29 C105.78809002 33.08240885 89.00742563 33.63020526 71.42895508 33.52148438 C67.66390893 33.49850927 63.89999259 33.51199691 60.13498592 33.53577423 C57.18089022 33.55034735 54.22705542 33.54557738 51.27295113 33.53526306 C49.8853599 33.53263717 48.49774323 33.53571557 47.11018181 33.54518127 C32.71574384 33.62202864 20.85927548 30.7697758 10 21 C4.60042204 15.29669578 0 7.98494713 0 0 Z " fill="#6B6B6A" transform="translate(44,358)"/>
<path d="M0 0 C0.33 0 0.66 0 1 0 C1 38.94 1 77.88 1 118 C2.485 117.505 2.485 117.505 4 117 C4.09299032 127.89257196 4.16391177 138.78504831 4.20724869 149.67793751 C4.22805622 154.7368511 4.25624807 159.79549159 4.30175781 164.85424805 C4.3454605 169.7431523 4.36918841 174.63179511 4.37950897 179.52087975 C4.38685673 181.37906696 4.40120442 183.23724109 4.42292023 185.09531593 C4.56341452 197.62331127 4.14021857 208.75907987 -4 219 C-5.485 219.99 -5.485 219.99 -7 221 C-6.36290323 217.30483871 -6.36290323 217.30483871 -4.4375 215.6875 C-2.19083144 213.05010647 -2.94278088 210.37592827 -3 207 C-2.67703257 206.10621077 -2.35406513 205.21242153 -2.02131081 204.29154778 C-0.80148652 200.36021767 -0.71122304 196.71988082 -0.7215271 192.6477356 C-0.7157347 191.82181502 -0.7099423 190.99589445 -0.70397437 190.14494598 C-0.68701011 187.385816 -0.68410094 184.62685365 -0.68115234 181.86767578 C-0.67185171 179.88651623 -0.66168283 177.90536059 -0.65071106 175.92420959 C-0.62341235 170.55077763 -0.60826198 165.17737187 -0.59528303 159.8038888 C-0.57965199 154.18643849 -0.55286166 148.56904172 -0.5272522 142.95162964 C-0.480464 132.31643461 -0.44372005 121.68122951 -0.41057932 111.04598415 C-0.37235827 98.9372152 -0.32294804 86.82850002 -0.27259517 74.71977639 C-0.16927468 49.81322411 -0.08001462 24.90663729 0 0 Z " fill="#542C11" transform="translate(465,156)"/>
<path d="M0 0 C1.6256807 0.30893932 3.25052748 0.6222695 4.875 0.9375 C5.77992188 1.11152344 6.68484375 1.28554687 7.6171875 1.46484375 C10 2 10 2 12 3 C11.97229016 9.1100192 11.07826667 13.14000484 6.7109375 17.55859375 C0.89627659 22.45724644 -5.07025151 22.63830247 -12.4765625 22.48828125 C-18.72731456 21.62204621 -23.81494563 18.72046505 -27.76953125 13.796875 C-28.17558594 13.20390625 -28.58164063 12.6109375 -29 12 C-27.55746343 8.63408134 -25.66735273 6.48952921 -23 4 C-19.63856582 5.12047806 -18.42471166 6.49707183 -16 9 C-12.54095734 10.72952133 -8.78231975 10.47783755 -5 10 C-1.69584296 7.85229792 -1.13586494 6.58874809 -0.25 2.75 C-0.1675 1.8425 -0.085 0.935 0 0 Z " fill="#0B0B0B" transform="translate(167,228)"/>
<path d="M0 0 C1.23890887 3.7167266 1.13144511 7.15047556 1.11352539 11.02032471 C1.11374868 12.26020287 1.11374868 12.26020287 1.11397648 13.52512908 C1.11328002 16.30486429 1.1054287 19.08453404 1.09765625 21.86425781 C1.09573777 23.85331688 1.09427364 25.84237644 1.0932312 27.83143616 C1.09006562 32.12030171 1.08378999 36.40914767 1.07516479 40.69800568 C1.06166553 47.47996373 1.05575288 54.26191522 1.05102539 61.04388428 C1.03896724 76.67016791 1.01693502 92.29643458 0.99479675 107.9227066 C0.97462006 122.23170313 0.95654512 136.54069389 0.94658184 150.84970164 C0.9415991 157.59076856 0.93173816 164.33180542 0.91815186 171.07286024 C0.91068811 175.26978407 0.90737568 179.46670377 0.9051857 183.66363335 C0.90331478 185.60866734 0.899716 187.55370057 0.89425278 189.4987278 C0.88702368 192.15641796 0.88599957 194.81404237 0.88647461 197.47174072 C0.88287965 198.23916698 0.87928469 199.00659323 0.87558079 199.79727483 C0.88418376 204.29933164 1.26191393 208.55717448 2 213 C1.67 212.34 1.34 211.68 1 211 C0.34 211 -0.32 211 -1 211 C-1.33 210.01 -1.66 209.02 -2 208 C-2.66 207.34 -3.32 206.68 -4 206 C-4.21600342 203.19924927 -4.21600342 203.19924927 -4.16699219 199.53564453 C-4.16069794 198.86098333 -4.15440369 198.18632214 -4.1479187 197.49121666 C-4.12398874 195.20485512 -4.08537789 192.91897192 -4.046875 190.6328125 C-4.02629913 188.97913599 -4.00656743 187.32544879 -3.98760986 185.67175293 C-3.93254641 181.11464367 -3.86433299 176.55781247 -3.7935791 172.00092316 C-3.73538813 168.16071661 -3.68425097 164.32042961 -3.63312531 160.48012352 C-3.46040404 147.53406872 -3.26005917 134.58848831 -3.05679321 121.6428833 C-2.97785189 116.57935522 -2.90098564 111.51579624 -2.82400131 106.45223808 C-2.58105486 90.48939641 -2.32654633 74.52676947 -2.06428528 58.56423187 C-1.99983084 54.61463426 -1.93674179 50.66501666 -1.87390137 46.71539307 C-1.77405986 40.469889 -1.66906218 34.22449178 -1.56005096 27.97914124 C-1.52024943 25.65764607 -1.48208802 23.33612215 -1.44562531 21.01457214 C-1.39535199 17.83595199 -1.33910933 14.6574937 -1.28125 11.47900391 C-1.26771358 10.53957506 -1.25417717 9.60014622 -1.24023056 8.63224983 C-1.22347401 7.78081839 -1.20671745 6.92938694 -1.18945312 6.05215454 C-1.17066101 4.94322814 -1.17066101 4.94322814 -1.15148926 3.81189919 C-1 2 -1 2 0 0 Z " fill="#4B4B4B" transform="translate(47,151)"/>
<path d="M0 0 C3.12594352 0.64132203 6.25057522 1.28882273 9.375 1.9375 C10.26445312 2.11990234 11.15390625 2.30230469 12.0703125 2.49023438 C13.34648437 2.75610352 13.34648437 2.75610352 14.6484375 3.02734375 C15.43395996 3.18968506 16.21948242 3.35202637 17.02880859 3.51928711 C19 4 19 4 21 5 C28.79191526 5.6647648 34.60507303 5.68961311 41 1 C41.66 0.67 42.32 0.34 43 0 C43 4.62 43 9.24 43 14 C37.95258936 16.47126469 33.79088878 17.52415316 28.125 17.4375 C27.42246094 17.42920166 26.71992188 17.42090332 25.99609375 17.41235352 C16.11835564 17.09169219 9.75668015 12.97069265 3 6 C0 2.36199095 0 2.36199095 0 0 Z " fill="#0B0B0B" transform="translate(187,233)"/>
<path d="M0 0 C118.14 0.33 236.28 0.66 358 1 C358 1.33 358 1.66 358 2 C180.295 2.495 180.295 2.495 -1 3 C-0.67 2.01 -0.34 1.02 0 0 Z " fill="#4A4A4A" transform="translate(75,123)"/>
<path d="M0 0 C2.97672584 1.77280561 5.42804007 3.85608015 7 7 C7.5811138 14.08958838 7.5811138 14.08958838 5.125 17.9375 C1.6160425 21.34325286 -1.01818439 21.33097275 -5.73828125 21.29296875 C-9.0542278 20.86344199 -10.74987627 19.39075646 -13 17 C-14.73631636 13.52736727 -14.60190402 9.78806987 -14 6 C-9.78502349 0.67581915 -6.7408423 -0.67408423 0 0 Z " fill="#EEEEEE" transform="translate(290,265)"/>
<path d="M0 0 C3.63 0.66 7.26 1.32 11 2 C11 12.23 11 22.46 11 33 C7.37 33 3.74 33 0 33 C0 22.11 0 11.22 0 0 Z " fill="#070707" transform="translate(122,216)"/>
<path d="M0 0 C0.845625 -0.01417969 1.69125 -0.02835938 2.5625 -0.04296875 C5.18124566 0.20463701 6.74198058 0.87843271 9 2.1875 C9.66 2.5175 10.32 2.8475 11 3.1875 C11.40729228 5.50906597 11.74438677 7.8443787 12 10.1875 C11.79503906 9.55457031 11.59007812 8.92164063 11.37890625 8.26953125 C10.12939989 5.92188843 10.12939989 5.92188843 7.27734375 5.26171875 C0.52515285 4.39959443 0.52515285 4.39959443 -5.578125 6.89453125 C-7.85482256 9.23093242 -9.91769495 11.67764943 -12 14.1875 C-13.36949525 15.42560456 -14.76438689 16.63641785 -16.1875 17.8125 C-23.73457333 24.09955728 -23.73457333 24.09955728 -26.75 33.0625 C-26.76546875 33.82304687 -26.7809375 34.58359375 -26.796875 35.3671875 C-26.86390625 35.96789062 -26.9309375 36.56859375 -27 37.1875 C-27.99 37.6825 -27.99 37.6825 -29 38.1875 C-30.1270332 30.96779229 -31.06829813 24.77404461 -26.9296875 18.44921875 C-23.56178556 14.50181952 -19.75536689 11.0631337 -15.83984375 7.66796875 C-13.04067176 5.30592745 -13.04067176 5.30592745 -10.87890625 2.92578125 C-7.6187176 -0.09040159 -4.29611812 0.0327448 0 0 Z " fill="#F9A56D" transform="translate(266,186.8125)"/>
<path d="M0 0 C8.15384615 0 8.15384615 0 13 3 C14.59616743 6.19233485 14.51466114 9.53461497 14 13 C12.12984906 15.43119623 10.71861655 16.64069173 8 18 C5.36 18 2.72 18 0 18 C0 12.06 0 6.12 0 0 Z " fill="#FCFCFC" transform="translate(413,198)"/>
<path d="M0 0 C0.82177734 0.3403125 0.82177734 0.3403125 1.66015625 0.6875 C0.81453125 1.203125 -0.03109375 1.71875 -0.90234375 2.25 C-4.22581028 4.46041877 -6.90899312 7.09437131 -9.671875 9.9609375 C-11.09794173 11.43710025 -12.58822438 12.85076377 -14.08984375 14.25 C-17.4848622 17.92793665 -19.29354563 20.49702019 -19.40234375 25.64453125 C-18.83593525 35.78088341 -16.90919049 43.83632951 -10.33984375 51.6875 C-8.20608638 53.13800496 -8.20608638 53.13800496 -6.33984375 53.6875 C-6.33984375 54.3475 -6.33984375 55.0075 -6.33984375 55.6875 C0.33642616 57.41259924 6.34463196 57.94370222 13.22265625 57.8125 C14.59260742 57.79896484 14.59260742 57.79896484 15.99023438 57.78515625 C18.21382944 57.76187253 20.43684302 57.7291771 22.66015625 57.6875 C19.16550518 61.18215107 15.25399922 60.86895028 10.47265625 60.9375 C1.10015189 60.85344166 -6.14586506 58.49420835 -13.12109375 52.0390625 C-19.36774623 45.55419022 -22.44561949 38.12857347 -22.83984375 29.125 C-22.60327902 23.40665949 -20.95643977 18.73874331 -18.33984375 13.6875 C-18.01242188 13.04941406 -17.685 12.41132813 -17.34765625 11.75390625 C-14.14066454 6.49865341 -6.4626534 -0.86312566 0 0 Z " fill="#F89858" transform="translate(256.33984375,189.3125)"/>
<path d="M0 0 C1.06954926 -0.00021904 1.06954926 -0.00021904 2.16070557 -0.0004425 C4.49266719 0.00024827 6.82454665 0.00800109 9.15649414 0.01586914 C10.78316708 0.01773629 12.40984058 0.01915879 14.03651428 0.02015686 C18.29930193 0.02395862 22.56205502 0.03376871 26.8248291 0.04486084 C31.18212415 0.05512549 35.53942484 0.05966527 39.89672852 0.06469727 C48.43255159 0.07539326 56.96834668 0.0924413 65.50415039 0.11352539 C60.3820886 3.52823325 54.62027514 3.23912409 48.60668945 3.25878906 C47.95699692 3.26214767 47.30730438 3.26550629 46.63792419 3.26896667 C44.51518791 3.27837743 42.39253116 3.280414 40.26977539 3.28149414 C38.78481006 3.28471093 37.29984505 3.28807532 35.81488037 3.2915802 C32.71503971 3.29754475 29.61522684 3.29942259 26.51538086 3.29882812 C22.54184929 3.29872604 18.56849454 3.31243784 14.59500504 3.32960033 C11.53413063 3.34070427 8.47329941 3.34274792 5.41240692 3.3422184 C3.94676854 3.34339864 2.48112904 3.34782293 1.01551056 3.35555077 C-1.02829186 3.36532827 -3.07214655 3.36121417 -5.1159668 3.35644531 C-6.27843933 3.35787033 -7.44091187 3.35929535 -8.63861084 3.36076355 C-11.49584961 3.11352539 -11.49584961 3.11352539 -14.49584961 1.11352539 C-9.60833866 0.31884636 -4.96755021 -0.00860927 0 0 Z " fill="#5F5E5E" transform="translate(89.495849609375,387.886474609375)"/>
<path d="M0 0 C2.07213214 2.59451839 3.55140478 4.94274645 4.6875 8.0625 C4.93886719 8.73410156 5.19023437 9.40570313 5.44921875 10.09765625 C6 12 6 12 6 15 C6.66 15 7.32 15 8 15 C8.12117188 14.40832031 8.24234375 13.81664062 8.3671875 13.20703125 C9.26744643 8.96196415 10.20456621 4.97560339 12 1 C12.99 1 13.98 1 15 1 C13.0827282 8.50931455 10.75950985 15.75803759 8 23 C7.34 23 6.68 23 6 23 C4.35 18.38 2.7 13.76 1 9 C-2.25637322 15.89769916 -2.25637322 15.89769916 -5 23 C-5.66 23 -6.32 23 -7 23 C-8.17171756 19.71010914 -9.33651088 16.41780898 -10.5 13.125 C-10.83386719 12.18785156 -11.16773438 11.25070312 -11.51171875 10.28515625 C-11.82753906 9.38925781 -12.14335937 8.49335938 -12.46875 7.5703125 C-12.76201172 6.74289551 -13.05527344 5.91547852 -13.35742188 5.06298828 C-14 3 -14 3 -14 1 C-13.01 1 -12.02 1 -11 1 C-10.32471777 2.57967807 -9.66010306 4.16391903 -9 5.75 C-8.62875 6.63171875 -8.2575 7.5134375 -7.875 8.421875 C-7 11 -7 11 -7 15 C-6.34 15 -5.68 15 -5 15 C-4.87753906 14.28457031 -4.75507813 13.56914062 -4.62890625 12.83203125 C-3.98864625 9.94887287 -3.06448444 7.41407527 -1.9375 4.6875 C-1.39416016 3.36298828 -1.39416016 3.36298828 -0.83984375 2.01171875 C-0.56269531 1.34785156 -0.28554687 0.68398438 0 0 Z " fill="#111111" transform="translate(253,264)"/>
<path d="M0 0 C7 0 7 0 9.4375 1.125 C11 3 11 3 11.4375 5.9375 C10.96903694 9.21674143 10.21663014 10.59865068 8 13 C9.65 15.64 11.3 18.28 13 21 C10.75 20.9375 10.75 20.9375 8 20 C6.32150176 17.7691525 5.24000737 15.52594094 4 13 C3.67 15.64 3.34 18.28 3 21 C2.01 21 1.02 21 0 21 C0 14.07 0 7.14 0 0 Z " fill="#1A1A1A" transform="translate(306,265)"/>
<path d="M0 0 C2.97672584 1.77280561 5.42804007 3.85608015 7 7 C7.5811138 14.08958838 7.5811138 14.08958838 5.125 17.9375 C1.6160425 21.34325286 -1.01818439 21.33097275 -5.73828125 21.29296875 C-9.0542278 20.86344199 -10.74987627 19.39075646 -13 17 C-14.73631636 13.52736727 -14.60190402 9.78806987 -14 6 C-9.78502349 0.67581915 -6.7408423 -0.67408423 0 0 Z M-9.4375 4.5 C-11.33148168 7.53037069 -11.64334247 9.55830934 -11.4453125 13.08984375 C-11.08049476 15.27926437 -11.08049476 15.27926437 -8.9375 17.5625 C-5.08838451 19.44610971 -3.07579849 19.207644 1 18 C3.81972931 15.63506574 3.97850831 14.1719335 4.4375 10.5 C4.25740198 7.01609285 4.25740198 7.01609285 2.4375 4.5625 C-1.66669444 1.93160613 -5.29146145 1.94859166 -9.4375 4.5 Z " fill="#111111" transform="translate(290,265)"/>
<path d="M0 0 C5.41111837 4.63810146 9.49675334 8.6696264 14 14 C14.33 9.38 14.66 4.76 15 0 C15.99 0 16.98 0 18 0 C18 7.26 18 14.52 18 22 C11.26464208 16.38720174 11.26464208 16.38720174 8.25 12.8125 C6.54233442 10.80099302 4.86676587 8.86676587 3 7 C2.67 11.62 2.34 16.24 2 21 C1.34 21 0.68 21 0 21 C0 14.07 0 7.14 0 0 Z " fill="#0E0E0E" transform="translate(172,265)"/>
<path d="M0 0 C3.96 0 7.92 0 12 0 C12 0.99 12 1.98 12 3 C9.03 3 6.06 3 3 3 C3 4.65 3 6.3 3 8 C5.64 8 8.28 8 11 8 C11 8.99 11 9.98 11 11 C8.36 11 5.72 11 3 11 C3 13.31 3 15.62 3 18 C5.97 18 8.94 18 12 18 C12 18.99 12 19.98 12 21 C8.04 21 4.08 21 0 21 C0 14.07 0 7.14 0 0 Z " fill="#212121" transform="translate(200,265)"/>
<path d="M0 0 C7.36877991 0.3070325 11.57880754 3.63274526 16.734375 8.70703125 C23.53304956 16.1620135 24.66452936 23.1511422 24.34375 33.05078125 C23.54189884 42.2629576 19.65746057 48.69780995 13 55 C12.01 55.66 11.02 56.32 10 57 C9.01 56.67 8.02 56.34 7 56 C7.804375 55.7525 8.60875 55.505 9.4375 55.25 C10.283125 54.8375 11.12875 54.425 12 54 C12.3721042 52.67696283 12.70630173 51.34262065 13 50 C15.0625 48.75 15.0625 48.75 17 48 C17 47.01 17 46.02 17 45 C17.97850195 43.97895449 18.97980427 42.9793879 20 42 C22.55330237 34.34009288 21.89883483 23.51061752 19 16 C16.58122595 11.91512177 14.3806967 8.72036349 10.125 6.5 C9.073125 6.2525 9.073125 6.2525 8 6 C8 5.34 8 4.68 8 4 C7.236875 3.71125 6.47375 3.4225 5.6875 3.125 C3 2 3 2 0 0 Z " fill="#F89352" transform="translate(274,189)"/>
<path d="M0 0 C1.79158489 -0.02696365 3.58328473 -0.04637917 5.375 -0.0625 C6.37273437 -0.07410156 7.37046875 -0.08570313 8.3984375 -0.09765625 C11 0 11 0 13 1 C13 1.66 13 2.32 13 3 C12.38253906 2.89558594 11.76507813 2.79117188 11.12890625 2.68359375 C6.85579911 2.27384375 4.09749474 2.17156849 0.578125 4.828125 C-0.94525292 6.41453925 -2.43873564 8.03015585 -3.90234375 9.671875 C-7.83689902 14.03871847 -12.38935511 17.12978504 -18 19 C-15.15503203 10.69615948 -8.48897285 5.97374069 -1 2 C-0.67 1.34 -0.34 0.68 0 0 Z " fill="#FAAB75" transform="translate(260,189)"/>
<path d="M0 0 C0.66 0 1.32 0 2 0 C2 2.64 2 5.28 2 8 C3.14926266 7.04578192 4.29430541 6.08647955 5.4375 5.125 C6.07558594 4.59132813 6.71367187 4.05765625 7.37109375 3.5078125 C9.10805004 2.0777243 9.10805004 2.0777243 10 0 C11.32 0.33 12.64 0.66 14 1 C11.36 3.64 8.72 6.28 6 9 C7.5994614 12.19892281 8.82812919 14.15353735 11.125 16.75 C11.66382813 17.36359375 12.20265625 17.9771875 12.7578125 18.609375 C13.16773438 19.06828125 13.57765625 19.5271875 14 20 C12.68 20.33 11.36 20.66 10 21 C8.99406757 19.8803014 7.9954151 18.7540588 7 17.625 C6.1646875 16.68527344 6.1646875 16.68527344 5.3125 15.7265625 C4 14 4 14 4 12 C3.34 12 2.68 12 2 12 C2 14.97 2 17.94 2 21 C1.34 21 0.68 21 0 21 C0 14.07 0 7.14 0 0 Z " fill="#050505" transform="translate(328,265)"/>
<path d="M0 0 C7.26 0 14.52 0 22 0 C22 3.3 22 6.6 22 10 C11.44 10 0.88 10 -10 10 C-10 9.34 -10 8.68 -10 8 C-0.1 8 9.8 8 20 8 C20 5.69 20 3.38 20 1 C13.4 1 6.8 1 0 1 C0 0.67 0 0.34 0 0 Z " fill="#4A4A4A" transform="translate(371,239)"/>
<path d="M0 0 C0.66 0 1.32 0 2 0 C2.54527344 1.22976562 2.54527344 1.22976562 3.1015625 2.484375 C6.94009926 10.74147042 6.94009926 10.74147042 14 16 C14 16.66 14 17.32 14 18 C20.67626991 19.72509924 26.68447571 20.25620222 33.5625 20.125 C34.47580078 20.11597656 35.38910156 20.10695312 36.33007812 20.09765625 C38.55367319 20.07437253 40.77668677 20.0416771 43 20 C39.50534893 23.49465107 35.59384297 23.18145028 30.8125 23.25 C22.3679573 23.17426419 15.65811386 21.35543941 9 16 C0 6.79113924 0 6.79113924 0 0 Z " fill="#F5904D" transform="translate(236,227)"/>
<path d="M0 0 C0.33 0 0.66 0 1 0 C1 3.96 1 7.92 1 12 C-4.94 10.35 -10.88 8.7 -17 7 C-17 6.67 -17 6.34 -17 6 C-15.78763672 5.85304687 -15.78763672 5.85304687 -14.55078125 5.703125 C-6.48442468 4.66482151 -6.48442468 4.66482151 0 0 Z " fill="#515151" transform="translate(229,233)"/>
<path d="M0 0 C4.0204152 4.0204152 4.12909431 9.88482611 4.13525391 15.31445312 C4.09347335 17.30364999 4.04003974 19.29262726 3.9765625 21.28125 C3.93902359 22.86238586 3.93902359 22.86238586 3.90072632 24.47546387 C3.81904882 27.81732882 3.72225817 31.15855586 3.625 34.5 C3.56670704 36.77601624 3.50940498 39.05205809 3.453125 41.328125 C3.3135484 46.88576435 3.16158648 52.44295934 3 58 C2.67 58 2.34 58 2 58 C1.9845388 57.17100945 1.9845388 57.17100945 1.96876526 56.32527161 C1.86047301 50.56626091 1.74589397 44.8073995 1.62768555 39.04858398 C1.58440948 36.9001783 1.54272927 34.75173985 1.50268555 32.60327148 C1.4448054 29.51275768 1.38116208 26.4224077 1.31640625 23.33203125 C1.29969376 22.37351761 1.28298126 21.41500397 1.26576233 20.42744446 C1.24581711 19.52688828 1.22587189 18.62633209 1.20532227 17.69848633 C1.18977798 16.91016922 1.1742337 16.12185211 1.15821838 15.30964661 C0.98674053 12.8064404 0.51573018 10.45306461 0 8 C-0.11678799 5.32321927 -0.0454506 2.68158543 0 0 Z " fill="#696969" transform="translate(465,145)"/>
<path d="M0 0 C3.96 0 7.92 0 12 0 C12 0.99 12 1.98 12 3 C10.35 3 8.7 3 7 3 C7 8.94 7 14.88 7 21 C6.34 21 5.68 21 5 21 C5 15.06 5 9.12 5 3 C3.35 3 1.7 3 0 3 C0 2.01 0 1.02 0 0 Z " fill="#060606" transform="translate(220,265)"/>
<path d="M0 0 C0.33 0 0.66 0 1 0 C1.40268368 4.95444745 0.69116576 7.15105909 -2.5 10.9375 C-6.25855298 15.35814683 -10.24743213 19.6308087 -15 23 C-15.66 23 -16.32 23 -17 23 C-15.90880392 19.72641177 -15.24360354 19.16905761 -12.625 17.125 C-9.63988071 14.66273256 -7.8482363 12.43243884 -6 9 C-5.319375 8.154375 -4.63875 7.30875 -3.9375 6.4375 C-2.26154537 4.32904095 -1.08728664 2.44639495 0 0 Z " fill="#F8AB77" transform="translate(295,219)"/>
<path d="M0 0 C6.75 0.75 6.75 0.75 9 3 C9.375 5.875 9.375 5.875 9 9 C7 11.375 7 11.375 5 13 C4.67 12.01 4.34 11.02 4 10 C3.01 10 2.02 10 1 10 C1 7.69 1 5.38 1 3 C2.65 2.67 4.3 2.34 6 2 C3.03 1.505 3.03 1.505 0 1 C0 0.67 0 0.34 0 0 Z " fill="#282828" transform="translate(308,265)"/>
<path d="M0 0 C4.85603263 4.55253059 9.02119396 9.66859736 13 15 C13 15.33 13 15.66 13 16 C8.05 16 3.1 16 -2 16 C-1.67 15.34 -1.34 14.68 -1 14 C2.3 14 5.6 14 9 14 C8.3503125 13.15695313 7.700625 12.31390625 7.03125 11.4453125 C6.18724883 10.33873319 5.34351251 9.23195185 4.5 8.125 C4.07074219 7.56941406 3.64148438 7.01382813 3.19921875 6.44140625 C0 2.2265625 0 2.2265625 0 0 Z " fill="#4D4D4D" transform="translate(432,233)"/>
<path d="M0 0 C0.66 0.33 1.32 0.66 2 1 C2.625 3.5625 2.625 3.5625 3 6 C2.34 6 1.68 6 1 6 C0.34 12.93 -0.32 19.86 -1 27 C-1.33 27 -1.66 27 -2 27 C-2.2509727 24.0004227 -2.47621839 21.00242289 -2.6875 18 C-2.76033203 17.16082031 -2.83316406 16.32164062 -2.90820312 15.45703125 C-3.30151309 9.4879742 -2.45848134 5.46048298 0 0 Z " fill="#666666" transform="translate(46,145)"/>
<path d="M0 0 C2.97 0.495 2.97 0.495 6 1 C6.33 1.99 6.66 2.98 7 4 C7.33 2.68 7.66 1.36 8 0 C8.6875 2.3125 8.6875 2.3125 9 5 C7.875 6.875 7.875 6.875 6 8 C2.65807308 7.75546876 1.39456443 7.39456443 -1 5 C-0.625 2.375 -0.625 2.375 0 0 Z " fill="#656565" transform="translate(442,191)"/>
<path d="M0 0 C-0.99 0.66 -1.98 1.32 -3 2 C-3.99 3.485 -3.99 3.485 -5 5 C-8.625 5.1875 -8.625 5.1875 -12 5 C-12.33 5.66 -12.66 6.32 -13 7 C-16.0625 7.625 -16.0625 7.625 -19 8 C-14.53475604 2.31696223 -7.08103602 -0.35468517 0 0 Z " fill="#6F6F6F" transform="translate(78,122)"/>
<path d="M0 0 C0.66 0.33 1.32 0.66 2 1 C-3.94 6.445 -3.94 6.445 -10 12 C-10.66 11.34 -11.32 10.68 -12 10 C-10.56458334 8.70601853 -9.12658648 7.41489889 -7.6875 6.125 C-6.88699219 5.40570313 -6.08648437 4.68640625 -5.26171875 3.9453125 C-3 2 -3 2 0 0 Z " fill="#F9B586" transform="translate(258,194)"/>
<path d="M0 0 C2.31 0 4.62 0 7 0 C5.04509642 1.95490358 3.64605577 2.76698301 1.1875 3.9375 C-1.9802089 5.47807974 -5.00984753 7.13115471 -8 9 C-7.67 7.35 -7.34 5.7 -7 4 C-5.02 3.67 -3.04 3.34 -1 3 C-0.67 2.01 -0.34 1.02 0 0 Z " fill="#595959" transform="translate(66,126)"/>
<path d="M0 0 C-0.33 0.99 -0.66 1.98 -1 3 C-2.01320312 3.09087891 -2.01320312 3.09087891 -3.046875 3.18359375 C-3.93890625 3.26738281 -4.8309375 3.35117187 -5.75 3.4375 C-6.63171875 3.51871094 -7.5134375 3.59992188 -8.421875 3.68359375 C-10.94811037 3.91319997 -10.94811037 3.91319997 -13.078125 4.66015625 C-15.62566015 5.11063503 -16.83574132 4.3140142 -19 3 C-16.77228658 2.49356447 -14.54275924 1.9951038 -12.3125 1.5 C-10.45044922 1.08234375 -10.45044922 1.08234375 -8.55078125 0.65625 C-5.57601782 0.10645874 -3.00631398 -0.13795705 0 0 Z " fill="#D15E15" transform="translate(190,382)"/>
<path d="M0 0 C6.75 5.625 6.75 5.625 9 9 C8.01 9 7.02 9 6 9 C5.34 7.68 4.68 6.36 4 5 C3.34 5 2.68 5 2 5 C1.67 8.3 1.34 11.6 1 15 C0.67 15 0.34 15 0 15 C0 10.05 0 5.1 0 0 Z " fill="#D1D1D1" transform="translate(174,271)"/>
<path d="M0 0 C3 3 3 3 4.375 5.625 C5.80514057 8.24739674 5.80514057 8.24739674 8.6875 8.8125 C9.450625 8.874375 10.21375 8.93625 11 9 C10.67 9.66 10.34 10.32 10 11 C6.31245243 10.50168276 4.39509338 9.89932357 2 7 C1.34 7.66 0.68 8.32 0 9 C0 6.03 0 3.06 0 0 Z " fill="#E9E9E9" transform="translate(309,277)"/>
<path d="M0 0 C1 3 1 3 0.5 5.3125 C-1.60585576 9.08549157 -4.62278571 11.37227444 -8 14 C-8.66 13.67 -9.32 13.34 -10 13 C-9.52949219 12.48050781 -9.05898438 11.96101563 -8.57421875 11.42578125 C-5.32559823 7.78705723 -2.30339528 4.33580287 0 0 Z " fill="#512202" transform="translate(462,365)"/>
<path d="M0 0 C0.66 0 1.32 0 2 0 C3.7265625 1.96875 3.7265625 1.96875 5.625 4.5 C6.25664062 5.3353125 6.88828125 6.170625 7.5390625 7.03125 C8.02117187 7.6809375 8.50328125 8.330625 9 9 C5.09161134 9 3.88405893 7.49432124 1 5 C0.67 6.32 0.34 7.64 0 9 C0 6.03 0 3.06 0 0 Z " fill="#D1D1D1" transform="translate(330,277)"/>
<path d="M0 0 C2.475 0.495 2.475 0.495 5 1 C5 2.65 5 4.3 5 6 C3.35 6.33 1.7 6.66 0 7 C0 4.69 0 2.38 0 0 Z " fill="#EBEBEB" transform="translate(309,268)"/>
<path d="M0 0 C0.6496875 0.680625 0.6496875 0.680625 1.3125 1.375 C-3.92630078 0.82354729 -8.66100697 -0.05422093 -13.6875 -1.625 C-13.6875 -1.955 -13.6875 -2.285 -13.6875 -2.625 C-12.25215159 -2.8476746 -10.81404475 -3.05261906 -9.375 -3.25 C-8.17423828 -3.42402344 -8.17423828 -3.42402344 -6.94921875 -3.6015625 C-3.76112862 -3.6345997 -2.22851785 -2.14598015 0 0 Z " fill="#5C5C5C" transform="translate(225.6875,241.625)"/>
<path d="M0 0 C0 0.66 0 1.32 0 2 C-0.7425 1.9175 -1.485 1.835 -2.25 1.75 C-5.10560296 1.75477138 -5.10560296 1.75477138 -7.1875 3.75 C-8.82655897 5.78469389 -9.97487383 7.60803895 -11 10 C-11.31785906 6.50355037 -11.39644605 4.602598 -9.4375 1.625 C-6.18317497 -0.54455002 -3.82869586 -0.29451507 0 0 Z " fill="#F6F6F6" transform="translate(290,268)"/>
<path d="M0 0 C1.67542976 0.28604898 3.34385343 0.61781233 5 1 C5.33 2.65 5.66 4.3 6 6 C5.01 6 4.02 6 3 6 C3.33 5.01 3.66 4.02 4 3 C3.34 3 2.68 3 2 3 C1.34 4.32 0.68 5.64 0 7 C-0.33 7 -0.66 7 -1 7 C-1.04254356 5.00045254 -1.04080783 2.99958364 -1 1 C-0.67 0.67 -0.34 0.34 0 0 Z " fill="#B7B7B7" transform="translate(444,189)"/>
<path d="M0 0 C0.6875 1.625 0.6875 1.625 1 4 C-0.4375 7.25 -0.4375 7.25 -2 10 C-3.61949011 7.42786866 -4.04408751 6.32330841 -3.625 3.25 C-3.41875 2.5075 -3.2125 1.765 -3 1 C-2.01 0.67 -1.02 0.34 0 0 Z " fill="#5D5D5D" transform="translate(51,140)"/>
<path d="M0 0 C0.7425 1.0828125 0.7425 1.0828125 1.5 2.1875 C4.21657189 5.24364338 6.85890394 6.90818159 10.390625 8.88671875 C10.92171875 9.25410156 11.4528125 9.62148437 12 10 C12 10.66 12 11.32 12 12 C7.26915586 10.56641087 3.15975813 7.80627924 0 4 C0 2.68 0 1.36 0 0 Z " fill="#E9E9E9" transform="translate(137,238)"/>
<path d="M0 0 C0.66 0 1.32 0 2 0 C2 2.64 2 5.28 2 8 C2.66 8.33 3.32 8.66 4 9 C3.67 9.66 3.34 10.32 3 11 C2.01 10.67 1.02 10.34 0 10 C0 6.7 0 3.4 0 0 Z " fill="#1E1E1E" transform="translate(328,265)"/>
<path d="M0 0 C0.33 0.66 0.66 1.32 1 2 C-2.06093224 5.93548431 -4.49115974 8.68116787 -9 11 C-7.59155282 7.78475695 -5.89655214 5.67816132 -3.375 3.25 C-2.74335937 2.63640625 -2.11171875 2.0228125 -1.4609375 1.390625 C-0.73777344 0.70226562 -0.73777344 0.70226562 0 0 Z " fill="#111111" transform="translate(110,234)"/>
<path d="M0 0 C4.72463088 0.46319911 8.17057052 1.09891706 12 4 C12 4.66 12 5.32 12 6 C10.68 6 9.36 6 8 6 C8 5.34 8 4.68 8 4 C7.236875 3.71125 6.47375 3.4225 5.6875 3.125 C3 2 3 2 0 0 Z " fill="#FB9654" transform="translate(274,189)"/>
<path d="M0 0 C4.29 1.32 8.58 2.64 13 4 C9 6 9 6 7 6 C7 5.34 7 4.68 7 4 C4.36 3.67 1.72 3.34 -1 3 C-0.67 2.01 -0.34 1.02 0 0 Z " fill="#4D4D4D" transform="translate(65,382)"/>
<path d="M0 0 C1.32 0.33 2.64 0.66 4 1 C2.02 2.98 0.04 4.96 -2 7 C-2.99 6.67 -3.98 6.34 -5 6 C-3.35 4.02 -1.7 2.04 0 0 Z " fill="#3E3E3E" transform="translate(338,265)"/>
<path d="M0 0 C0.99 0.495 0.99 0.495 2 1 C2 1.99 2 2.98 2 4 C3.32 4.33 4.64 4.66 6 5 C6 5.66 6 6.32 6 7 C5.01 7 4.02 7 3 7 C2.67 7.66 2.34 8.32 2 9 C0.50178941 5.62902617 0 3.79557881 0 0 Z " fill="#666666" transform="translate(44,358)"/>
<path d="M0 0 C3.88862987 1.26117725 5.89375599 2.45264167 8 6 C8 6.66 8 7.32 8 8 C7.34 8 6.68 8 6 8 C4.64613064 6.34997172 3.31321858 4.6825613 2 3 C1.34 2.67 0.68 2.34 0 2 C0 1.34 0 0.68 0 0 Z " fill="#E5E5E5" transform="translate(290,264)"/>
<path d="M0 0 C0.65234375 1.734375 0.65234375 1.734375 1 4 C0.00390625 6.140625 0.00390625 6.140625 -1.4375 8.25 C-1.91058594 8.95640625 -2.38367188 9.6628125 -2.87109375 10.390625 C-3.24363281 10.92171875 -3.61617188 11.4528125 -4 12 C-4.58203125 10.08984375 -4.58203125 10.08984375 -5 8 C-3.6875 6.5625 -3.6875 6.5625 -2 5 C-0.80972016 2.40084462 -0.80972016 2.40084462 0 0 Z " fill="#F88E4A" transform="translate(296,226)"/>
<path d="M0 0 C0.6875 1.75 0.6875 1.75 1 4 C-0.0625 6.25 -0.0625 6.25 -2 8 C-5.1875 8.25 -5.1875 8.25 -8 8 C-7.13375 7.690625 -7.13375 7.690625 -6.25 7.375 C-3.18589456 5.50249112 -1.84460032 3.03041481 0 0 Z " fill="#F7F7F7" transform="translate(293,275)"/>
<path d="M0 0 C4.2742558 1.5830577 6.26531794 4.50568404 9 8 C5.08158173 6.69386058 2.67359191 5.16870152 0 2 C0 1.34 0 0.68 0 0 Z " fill="#EDEDED" transform="translate(144,230)"/>
<path d="M0 0 C0.33 3.63 0.66 7.26 1 11 C-1.95183101 8.04816899 -2.08663988 5.04488053 -3 1 C-1 0 -1 0 0 0 Z " fill="#5A5A5A" transform="translate(465,145)"/>
<path d="M0 0 C2.79872437 2.52788007 4.45773019 4.20411134 5 8 C3.68 8.33 2.36 8.66 1 9 C1.020625 8.071875 1.04125 7.14375 1.0625 6.1875 C1.15769604 2.97713989 1.15769604 2.97713989 0 0 Z " fill="#717171" transform="translate(460,137)"/>
<path d="M0 0 C0.33 1.32 0.66 2.64 1 4 C-1 5 -1 5 -4.125 4.0625 C-5.07375 3.711875 -6.0225 3.36125 -7 3 C-4.66785852 1.79371992 -2.50357861 0.8345262 0 0 Z " fill="#5C5C5C" transform="translate(442,123)"/>
<path d="M0 0 C0 0.99 0 1.98 0 3 C-0.66 3.66 -1.32 4.32 -2 5 C-4.625 4.625 -4.625 4.625 -7 4 C-4.77810176 1.77810176 -2.91517292 1.07401108 0 0 Z " fill="#502101" transform="translate(446,382)"/>
<path d="M0 0 C0.66 0.33 1.32 0.66 2 1 C1.6875 3.375 1.6875 3.375 1 6 C0.01 6.66 -0.98 7.32 -2 8 C-2.66 7.67 -3.32 7.34 -4 7 C-4 6.34 -4 5.68 -4 5 C-2.68 4.67 -1.36 4.34 0 4 C0 2.68 0 1.36 0 0 Z " fill="#858585" transform="translate(449,191)"/>
</svg>
