<?xml version="1.0" encoding="UTF-8"?>
<svg version="1.1" xmlns="http://www.w3.org/2000/svg" width="512" height="512">
<path d="M0 0 C1.33333374 -0.00021904 1.33333374 -0.00021904 2.69360352 -0.0004425 C5.59906552 0.00024795 8.50446146 0.00799931 11.40991211 0.01586914 C13.43729111 0.01773641 15.46467056 0.01915885 17.49205017 0.02015686 C22.80367296 0.02395775 28.11526799 0.03376708 33.42687988 0.04486084 C38.85676702 0.05512739 44.28665867 0.05966568 49.71655273 0.06469727 C60.35263257 0.07539171 70.9886919 0.09243869 81.62475586 0.11352539 C81.67056405 37.74530282 81.70579068 75.37707603 81.72688652 113.00887571 C81.72938784 117.45472904 81.73197649 121.90058231 81.73461914 126.34643555 C81.73514376 127.23150041 81.73566838 128.11656527 81.7362089 129.02845028 C81.74490428 143.34694141 81.76066947 157.66541643 81.77906145 171.98389801 C81.79778464 186.68315626 81.8088777 201.38240609 81.81293285 216.08167577 C81.81567289 225.14709494 81.82431764 234.21246857 81.84058879 243.27787372 C81.85118554 249.49989979 81.85435041 255.72190242 81.85175861 261.94393685 C81.8504815 265.53017656 81.85239711 269.11633685 81.86316681 272.70256233 C81.87478535 276.60013798 81.87071054 280.49761162 81.86526489 284.39520264 C81.87109058 285.51586018 81.87691626 286.63651773 81.88291848 287.7911346 C81.80831964 307.61987393 75.43239175 324.37988796 61.83569336 338.99243164 C43.71284895 356.37883538 23.93508034 359.60059972 0.01147461 359.40649414 C-1.821978 359.402073 -3.65543443 359.39901882 -5.4888916 359.39733887 C-12.22190089 359.38172943 -18.95482867 359.33984601 -25.68774414 359.30102539 C-40.76461914 359.23915039 -55.84149414 359.17727539 -71.37524414 359.11352539 C-71.37524414 311.26352539 -71.37524414 263.41352539 -71.37524414 214.11352539 C-67.74524414 216.42352539 -64.11524414 218.73352539 -60.37524414 221.11352539 C-46.25846064 227.80994834 -31.4984293 227.4372693 -16.19946289 227.52758789 C-14.17779276 227.54633325 -12.15613018 227.56590907 -10.13447571 227.58627319 C-4.85585005 227.637245 0.42280089 227.67705608 5.70153809 227.7144165 C11.10504222 227.75467727 16.50844443 227.80566805 21.91186523 227.85571289 C32.48275681 227.95205743 43.05370641 228.03659277 53.62475586 228.11352539 C53.62475586 222.83352539 53.62475586 217.55352539 53.62475586 212.11352539 C52.38983398 212.37907227 51.15491211 212.64461914 49.88256836 212.91821289 C34.79504944 216.09579725 20.06030169 218.23456828 4.62475586 218.42602539 C3.35257202 218.4526123 3.35257202 218.4526123 2.0546875 218.47973633 C-9.16351457 218.46655008 -19.23943323 214.62608406 -27.60571289 207.10961914 C-37.25151165 196.99329361 -39.88555579 185.99426897 -39.65258789 172.45336914 C-39.17637269 161.51463497 -33.52610971 151.80115652 -25.68774414 144.36352539 C-13.42594472 134.20442375 0.5199089 134.22083536 15.62475586 135.11352539 C28.05942943 136.4045193 40.38703604 138.58864268 52.62475586 141.11352539 C52.95475586 135.50352539 53.28475586 129.89352539 53.62475586 124.11352539 C41.96696988 124.19929568 30.30932482 124.29318364 18.65172195 124.40105247 C13.23764824 124.45083138 7.82359232 124.49716199 2.40942383 124.53540039 C-2.82319914 124.572487 -8.05566623 124.61890803 -13.2881546 124.6715889 C-15.27662652 124.6900094 -17.2651317 124.70516202 -19.25365448 124.71686935 C-37.57615589 124.8285261 -53.33090478 125.96108805 -68.73071289 136.97680664 C-70.37524414 138.11352539 -70.37524414 138.11352539 -71.37524414 138.11352539 C-71.46852283 127.69846233 -71.53929964 117.28350102 -71.58249283 106.86810303 C-71.60323864 102.03016247 -71.63131403 97.19251073 -71.67700195 92.35473633 C-71.72092947 87.67329123 -71.74447862 82.99212137 -71.75475311 78.31048584 C-71.76206134 76.53737056 -71.77632845 74.76426785 -71.79816437 72.99127197 C-72.03042039 53.32462553 -68.81636157 35.08900108 -54.65258789 20.35961914 C-53.90106445 19.6184082 -53.14954102 18.87719727 -52.37524414 18.11352539 C-51.7371582 17.46512695 -51.09907227 16.81672852 -50.44165039 16.14868164 C-36.95269646 3.33277323 -17.95217787 -0.07884951 0 0 Z " fill="#730A1E" transform="translate(250.375244140625,75.886474609375)"/>
<path d="M0 0 C0.88874313 -0.00014603 1.77748627 -0.00029205 2.69316101 -0.0004425 C5.60406005 0.00024908 8.51489352 0.00800588 11.42578125 0.01586914 C13.45458949 0.017736 15.48339818 0.01915864 17.51220703 0.02015686 C22.83206443 0.02396092 28.15189419 0.03377304 33.47174072 0.04486084 C38.90824001 0.05512049 44.3447438 0.05966421 49.78125 0.06469727 C60.43360584 0.07539732 71.08594124 0.09244821 81.73828125 0.11352539 C81.80699138 38.38226597 81.85983238 76.65099724 81.89147724 114.91978706 C81.89522923 119.44074682 81.89911221 123.96170645 81.90307617 128.48266602 C81.9038631 129.38268395 81.90465003 130.28270189 81.90546081 131.20999309 C81.91850439 145.77098933 81.94215246 160.33194994 81.96973964 174.89292505 C81.997823 189.84078481 82.01446371 204.78862594 82.02054673 219.73651099 C82.0246571 228.95550156 82.03762578 238.17439138 82.06203065 247.39335093 C82.07792403 253.72050701 82.08267347 260.04761123 82.07878538 266.37478581 C82.07686943 270.02182135 82.07974615 273.6686812 82.09589767 277.31568527 C82.11332079 281.27898189 82.10721466 285.2420527 82.0990448 289.2053833 C82.10778332 290.34549559 82.11652185 291.48560788 82.12552518 292.66026902 C82.03113633 309.66151018 75.98725076 323.49845712 64.73828125 336.11352539 C64.11050781 336.82379883 63.48273438 337.53407227 62.8359375 338.26586914 C51.5547369 350.28530782 34.59479237 358.71719022 18.03845215 359.37289429 C12.36006977 359.49817385 6.68300602 359.45194305 1.00390625 359.40649414 C-0.85042042 359.40207424 -2.70475085 359.39901929 -4.55908203 359.39733887 C-11.37668529 359.38171508 -18.19420803 359.33983149 -25.01171875 359.30102539 C-40.27421875 359.23915039 -55.53671875 359.17727539 -71.26171875 359.11352539 C-71.26171875 313.90352539 -71.26171875 268.69352539 -71.26171875 222.11352539 C-67.24204679 223.72139417 -63.63503646 225.47077451 -59.82421875 227.48852539 C-37.94160453 238.72609572 -13.32092561 238.43323647 9.84863281 231.48022461 C25.79378965 226.26031672 39.77688677 217.23004003 48.4765625 202.73852539 C51.11726063 197.2445652 51.99045228 192.04132313 52.05712891 185.98486328 C52.06717453 185.31084473 52.07722015 184.63682617 52.08757019 183.94238281 C52.11817374 181.74032352 52.13537279 179.53838448 52.15234375 177.33618164 C52.17107385 175.79917889 52.19064862 174.26218622 52.21102905 172.72520447 C52.26216188 168.6992286 52.30188788 164.67321947 52.33917236 160.64709473 C52.38640371 155.80606139 52.44792009 150.96519068 52.50701904 146.12429047 C52.59500132 138.78743511 52.66492973 131.45060728 52.73828125 124.11352539 C35.57828125 124.11352539 18.41828125 124.11352539 0.73828125 124.11352539 C0.77308594 128.7502832 0.80789062 133.38704102 0.84375 138.16430664 C0.85909938 141.12200172 0.87354265 144.07964689 0.88476562 147.03735352 C0.90261941 151.72015732 0.92361751 156.40278324 0.96459961 161.08544922 C0.99747169 164.86560692 1.01519216 168.64557354 1.02291298 172.42586327 C1.02840701 173.85979401 1.03913379 175.29371566 1.05547142 176.72756386 C1.18284972 188.3824801 0.57397229 198.94064533 -7.25 208.10961914 C-14.76491343 215.59534844 -23.53192679 219.12101085 -34.07421875 219.55102539 C-45.36017768 219.21737879 -55.91406428 215.29376919 -64.0390625 207.38305664 C-65.58557583 205.67017023 -66.96861507 204.02575144 -68.26171875 202.11352539 C-68.77497208 201.36030502 -69.2882254 200.60708466 -69.81703186 199.83103943 C-72.01022127 194.187455 -71.68699662 188.73070211 -71.66577148 182.72705078 C-71.6714792 181.36135297 -71.67844502 179.99565994 -71.68656921 178.62997437 C-71.70448525 174.9289583 -71.70333357 171.2281796 -71.69762683 167.52713323 C-71.69452841 164.42653921 -71.70063566 161.32599035 -71.70666558 158.22540277 C-71.72070815 150.89795147 -71.71915571 143.57061672 -71.70776367 136.24316406 C-71.69632144 128.717845 -71.71029269 121.19288395 -71.73716015 113.66761214 C-71.75943322 107.18320862 -71.76592745 100.69891648 -71.76008373 94.21447748 C-71.75673581 90.35246785 -71.75898137 86.4906868 -71.77633476 82.62870979 C-71.79198473 78.98662093 -71.78765256 75.34505345 -71.76902962 71.70298386 C-71.76367828 69.75572101 -71.77772532 67.80843374 -71.79272461 65.86122131 C-71.64805439 48.23234416 -65.92117632 32.17841558 -53.56640625 19.32446289 C-38.7269633 5.0886583 -20.20193809 -0.08834288 0 0 Z " fill="#0F549D" transform="translate(79.26171875,75.886474609375)"/>
<path d="M0 0 C0.86938202 -0.00014603 1.73876404 -0.00029205 2.63449097 -0.0004425 C5.47502235 0.00024773 8.3154861 0.00799798 11.15600586 0.01586914 C13.13854435 0.01773649 15.12108331 0.01915889 17.10362244 0.02015686 C22.29687801 0.0239571 27.49010518 0.03376587 32.68334961 0.04486084 C37.99259049 0.05512879 43.30183601 0.05966597 48.61108398 0.06469727 C59.01018494 0.07539058 69.4092649 0.09243676 79.80834961 0.11352539 C79.92291758 38.58596533 80.01096064 77.05837946 80.06367626 115.53095562 C80.06992942 120.07809178 80.07640107 124.62522761 80.08300781 129.17236328 C80.08497514 130.53018163 80.08497514 130.53018163 80.08698221 131.91543066 C80.10870945 146.55203198 80.14811612 161.18853461 80.19411359 175.82507748 C80.240953 190.8554387 80.2686608 205.8857484 80.27879208 220.9161796 C80.28563576 230.18283884 80.30721182 239.44921909 80.34793194 248.71579241 C80.37446284 255.07943268 80.38232732 261.44292976 80.3758565 267.80662126 C80.37266958 271.47237795 80.37738239 275.13764882 80.40437698 278.80331802 C80.57761497 303.56068056 77.75435011 320.89833489 59.80834961 339.11352539 C47.40412419 351.54022223 31.86811027 359.20705199 14.16484261 359.23795414 C13.31517355 359.23435603 12.46550449 359.23075792 11.59008789 359.22705078 C10.66753141 359.22717132 9.74497494 359.22729185 8.7944622 359.22741604 C5.8225039 359.22667254 2.85060912 359.21906999 -0.12133789 359.21118164 C-1.96191376 359.20971048 -3.80249004 359.20869084 -5.64306641 359.20812988 C-12.45093413 359.2028972 -19.25879289 359.18893594 -26.06665039 359.17602539 C-41.28790039 359.15540039 -56.50915039 359.13477539 -72.19165039 359.11352539 C-72.19165039 315.88352539 -72.19165039 272.65352539 -72.19165039 228.11352539 C-22.37915039 227.73852539 -22.37915039 227.73852539 -6.70410156 227.63549805 C-2.02999508 227.59554798 -2.02999508 227.59554798 2.64408875 227.55307007 C4.71107854 227.53549121 6.77810225 227.52164 8.84513855 227.51083374 C11.99293177 227.49363033 15.14041144 227.46425387 18.28808594 227.43237305 C19.64802406 227.42911483 19.64802406 227.42911483 21.03543568 227.42579079 C31.62497061 227.28898683 41.415482 226.00928689 49.80834961 219.11352539 C54.73762523 213.22105798 56.2562076 207.42829701 56.14428711 199.84008789 C55.35400702 193.42595416 52.2700809 187.93184594 47.37084961 183.73852539 C41.85460446 179.997257 35.20906126 178.64178519 28.80834961 177.11352539 C28.80834961 176.78352539 28.80834961 176.45352539 28.80834961 176.11352539 C30.10772461 175.90727539 31.40709961 175.70102539 32.74584961 175.48852539 C39.8765655 173.87148116 45.67513185 170.3238836 49.74584961 164.17602539 C53.61494452 157.09384128 54.47523956 150.96642916 52.80834961 143.11352539 C50.44876897 135.61680061 45.09284877 130.41252494 38.24584961 126.73852539 C31.77033994 125.0781383 25.38882859 124.94981768 18.7421875 124.90820312 C17.75605469 124.89830353 16.76992188 124.88840393 15.75390625 124.87820435 C12.5129634 124.84676122 9.27200592 124.82190021 6.03100586 124.79711914 C3.7765618 124.77653476 1.52212148 124.7555379 -0.73231506 124.73414612 C-6.65220102 124.67907875 -12.57212093 124.62960209 -18.49206543 124.58129883 C-24.53844201 124.53097155 -30.5847696 124.47534419 -36.63110352 124.42016602 C-48.48457723 124.31277212 -60.33809358 124.2112858 -72.19165039 124.11352539 C-72.23832236 116.25427228 -72.27369449 108.39505262 -72.29527473 100.53569508 C-72.30564057 96.88491171 -72.31966526 93.23422428 -72.3425293 89.58349609 C-72.36451827 86.04972602 -72.37627289 82.51604727 -72.38140488 78.98221397 C-72.38681104 77.00119892 -72.40238045 75.02021978 -72.41824341 73.03926086 C-72.42072908 52.63050856 -67.99268271 33.53615838 -53.59399414 18.39477539 C-38.78200163 4.32940364 -19.81756455 -0.0890778 0 0 Z " fill="#329947" transform="translate(424.191650390625,75.886474609375)"/>
<path d="M0 0 C0 98.01 0 196.02 0 297 C-0.33 297 -0.66 297 -1 297 C-1.09385986 296.30108643 -1.18771973 295.60217285 -1.28442383 294.88208008 C-4.27876634 272.82842749 -7.72977112 250.84958221 -11.25 228.875 C-11.36793159 228.13882698 -11.48586319 227.40265396 -11.60736847 226.64417267 C-12.68828364 219.89814438 -13.77027752 213.15228923 -14.85302734 206.40655518 C-17.32431758 191.00437542 -19.75875681 175.59643794 -22.1875 160.1875 C-22.5777878 157.71272602 -22.9680869 155.23795383 -23.35839844 152.76318359 C-24.23949865 147.17554489 -25.1200416 141.58781863 -26 136 C-26.33 138.31 -26.66 140.62 -27 143 C-27.66 142.67 -28.32 142.34 -29 142 C-28.67 136.06 -28.34 130.12 -28 124 C-39.65778598 124.08577029 -51.31543104 124.17965825 -62.97303391 124.28752708 C-68.38710762 124.33730599 -73.80116354 124.3836366 -79.21533203 124.421875 C-84.447955 124.45896161 -89.68042209 124.50538263 -94.91291046 124.55806351 C-96.90138238 124.57648401 -98.88988756 124.59163663 -100.87841034 124.60334396 C-119.20091175 124.71500071 -134.95566064 125.84756266 -150.35546875 136.86328125 C-152 138 -152 138 -153 138 C-153.09327869 127.58493694 -153.1640555 117.16997563 -153.20724869 106.75457764 C-153.2279945 101.91663708 -153.25606989 97.07898534 -153.30175781 92.24121094 C-153.34568533 87.55976584 -153.36923448 82.87859597 -153.37950897 78.19696045 C-153.3868172 76.42384517 -153.40108431 74.65074246 -153.42292023 72.87774658 C-153.65517625 53.21110014 -150.44111742 34.97547569 -136.27734375 20.24609375 C-135.52582031 19.50488281 -134.77429688 18.76367188 -134 18 C-133.36191406 17.35160156 -132.72382813 16.70320313 -132.06640625 16.03515625 C-100.95494591 -13.52396511 -26.01907747 0 0 0 Z " fill="#B41F36" transform="translate(332,76)"/>
<path d="M0 0 C1.68390183 3.01762561 2.43303609 5.66047969 2.97045898 9.06640625 C3.21791367 10.60254074 3.21791367 10.60254074 3.47036743 12.16970825 C3.64385712 13.28932953 3.8173468 14.40895081 3.99609375 15.5625 C4.18537445 16.74842743 4.37465515 17.93435486 4.56967163 19.15621948 C4.98150042 21.74189109 5.39092392 24.32781061 5.79629517 26.91448975 C6.44397662 31.04704548 7.10046365 35.1781713 7.75854492 39.30908203 C8.45294178 43.67028738 9.14679356 48.03157515 9.83766174 52.39334106 C11.51358612 62.97146302 13.21387408 73.54546574 14.9296875 84.1171875 C15.05062586 84.86261055 15.17156422 85.6080336 15.29616737 86.37604523 C16.24835977 92.24472143 17.20141571 98.11325734 18.15473557 103.98175049 C19.6687662 113.30303636 21.17559171 122.62544073 22.67085266 131.94976044 C23.01334354 134.08311616 23.35702947 136.21627732 23.70080566 138.34942627 C24.28860772 142.00021354 24.87128111 145.65179025 25.45062828 149.30392838 C25.66996107 150.68231254 25.89076623 152.0604634 26.11319923 153.43835068 C29.1160169 172.06012991 29.9010699 187.395021 18.8125 203.75 C6.81653979 220.04864345 -9.74531217 231.77062811 -30 235 C-37.22873121 235.52076089 -44.49254279 235.35092395 -51.734375 235.29296875 C-53.58870167 235.28854885 -55.4430321 235.2854939 -57.29736328 235.28381348 C-64.11496654 235.26818969 -70.93248928 235.2263061 -77.75 235.1875 C-93.0125 235.125625 -108.275 235.06375 -124 235 C-124 189.79 -124 144.58 -124 98 C-119.98032804 99.60786878 -116.37331771 101.35724912 -112.5625 103.375 C-90.67988578 114.61257033 -66.05920686 114.31971108 -42.88964844 107.36669922 C-26.9444916 102.14679133 -12.96139448 93.11651464 -4.26171875 78.625 C-1.62102062 73.13103981 -0.74782897 67.92779774 -0.68115234 61.87133789 C-0.67110672 61.19731934 -0.6610611 60.52330078 -0.65071106 59.82885742 C-0.62010751 57.62679813 -0.60290846 55.42485908 -0.5859375 53.22265625 C-0.5672074 51.6856535 -0.54763263 50.14866083 -0.5272522 48.61167908 C-0.47611937 44.58570321 -0.43639337 40.55969408 -0.39910889 36.53356934 C-0.35895042 32.41747943 -0.30791236 28.30152566 -0.2578125 24.18554688 C-0.16127668 16.12379123 -0.07680114 8.0619677 0 0 Z " fill="#02375E" transform="translate(132,200)"/>
<path d="M0 0 C0.66 0 1.32 0 2 0 C5.16312923 17.33617335 8.28537901 34.67863966 11.22265625 52.0546875 C11.40953003 53.16016434 11.59640381 54.26564117 11.78894043 55.40461731 C12.74466421 61.06706544 13.69530493 66.730338 14.64208984 72.39428711 C16.35558562 82.60380485 18.10816958 92.79550832 20.12890625 102.94921875 C29.65659228 150.9589548 29.65659228 150.9589548 20 168 C19.52691406 168.91007813 19.05382812 169.82015625 18.56640625 170.7578125 C9.24607755 187.07419841 -6.4838973 198.88017279 -24.31640625 204.34375 C-30.35628378 205.82075062 -36.03558167 206.13970729 -42.21826172 206.11352539 C-43.1408182 206.11364593 -44.06337467 206.11376646 -45.01388741 206.11389065 C-47.98584571 206.11314715 -50.95774048 206.1055446 -53.9296875 206.09765625 C-55.77026337 206.09618509 -57.61083965 206.09516545 -59.45141602 206.09460449 C-66.25928374 206.0893718 -73.0671425 206.07541055 -79.875 206.0625 C-95.09625 206.041875 -110.3175 206.02125 -126 206 C-126 162.77 -126 119.54 -126 75 C-76.1875 74.625 -76.1875 74.625 -60.51245117 74.52197266 C-55.83834469 74.48202259 -55.83834469 74.48202259 -51.16426086 74.43954468 C-49.09727107 74.42196582 -47.03024736 74.40811461 -44.96321106 74.39730835 C-41.81541784 74.38010494 -38.66793817 74.35072848 -35.52026367 74.31884766 C-34.16032555 74.31558944 -34.16032555 74.31558944 -32.77291393 74.3122654 C-22.183379 74.17546144 -12.39286761 72.8957615 -4 66 C0.92927562 60.10753259 2.44785799 54.31477162 2.3359375 46.7265625 C1.54565741 40.31242877 -1.53826871 34.81832055 -6.4375 30.625 C-11.95374515 26.88373161 -18.59928835 25.5282598 -25 24 C-25 23.67 -25 23.34 -25 23 C-23.700625 22.79375 -22.40125 22.5875 -21.0625 22.375 C-13.93178411 20.75795577 -8.13321776 17.21035821 -4.0625 11.0625 C-2.06321884 7.48447613 -0.91340496 3.98576708 0 0 Z " fill="#146743" transform="translate(478,229)"/>
<path d="M0 0 C0 99.66 0 199.32 0 302 C-0.33 302 -0.66 302 -1 302 C-1 203 -1 104 -1 2 C-13.59140908 7.39631818 -26.14206273 12.80543987 -38.61660767 18.45504761 C-42.94533065 20.41500903 -47.27749887 22.36733243 -51.609375 24.3203125 C-52.92486076 24.91358589 -52.92486076 24.91358589 -54.266922 25.5188446 C-62.77030246 29.35168422 -71.28793549 33.15204102 -79.8125 36.9375 C-80.52629822 37.2544986 -81.24009644 37.57149719 -81.9755249 37.89810181 C-96.89218059 44.52034592 -111.82123797 51.1146569 -126.7512207 57.70678711 C-127.63347321 58.09634079 -128.51572571 58.48589447 -129.42471313 58.88725281 C-131.06420834 59.61109385 -132.70375085 60.33482775 -134.34335327 61.0584259 C-135.08880402 61.3875145 -135.83425476 61.71660309 -136.60229492 62.05566406 C-137.32138031 62.37216919 -138.0404657 62.68867432 -138.78134155 63.01477051 C-140.35484258 63.7135079 -141.92413076 64.42176737 -143.49038696 65.13659668 C-144.2983371 65.50369751 -145.10628723 65.87079834 -145.9387207 66.24902344 C-146.6694429 66.58432068 -147.4001651 66.91961792 -148.1530304 67.26507568 C-150 68 -150 68 -152 68 C-152 110.24 -152 152.48 -152 196 C-152.33 196 -152.66 196 -153 196 C-153.09375058 177.8749861 -153.16412889 159.75003577 -153.20724869 141.6248312 C-153.22780876 133.20756831 -153.25580272 124.79045673 -153.30175781 116.37329102 C-153.34182769 109.03051759 -153.36748036 101.68785384 -153.37635398 94.3449741 C-153.38153492 90.46270314 -153.39357221 86.5807457 -153.42292023 82.69857597 C-153.45040939 79.03200877 -153.45837881 75.36587922 -153.45243073 71.69921875 C-153.45402726 69.73753727 -153.47537242 67.7759016 -153.49768066 65.81434631 C-153.4172327 48.15513478 -147.67886397 32.08508069 -135.3046875 19.2109375 C-101.02079009 -13.67836069 -38.85734105 0 0 0 Z " fill="#1174CE" transform="translate(161,76)"/>
<path d="M0 0 C0 98.01 0 196.02 0 297 C-0.33 297 -0.66 297 -1 297 C-1 199.32 -1 101.64 -1 1 C-7.27 3.97 -13.54 6.94 -20 10 C-24.83764906 12.17705558 -29.67459464 14.34834623 -34.52905273 16.48657227 C-38.40082178 18.1923228 -42.26863321 19.90701048 -46.13671875 21.62109375 C-46.94221161 21.97787201 -47.74770447 22.33465027 -48.5776062 22.70223999 C-57.73587192 26.76269201 -66.86773921 30.88148597 -76 35 C-92.56744929 42.46902276 -109.15786295 49.88538053 -125.77728271 57.23809814 C-129.51273534 58.89154715 -133.24202709 60.55774256 -136.96582031 62.23730469 C-137.79111237 62.6081015 -138.61640442 62.97889832 -139.46670532 63.3609314 C-141.06928355 64.0812373 -142.67055637 64.80445632 -144.27035522 65.53091431 C-149.77529418 68 -149.77529418 68 -152 68 C-151.67 90.77 -151.34 113.54 -151 137 C-151.66 137.33 -152.32 137.66 -153 138 C-153.09327869 127.58493694 -153.1640555 117.16997563 -153.20724869 106.75457764 C-153.2279945 101.91663708 -153.25606989 97.07898534 -153.30175781 92.24121094 C-153.34568533 87.55976584 -153.36923448 82.87859597 -153.37950897 78.19696045 C-153.3868172 76.42384517 -153.40108431 74.65074246 -153.42292023 72.87774658 C-153.65517625 53.21110014 -150.44111742 34.97547569 -136.27734375 20.24609375 C-135.52582031 19.50488281 -134.77429688 18.76367188 -134 18 C-133.36191406 17.35160156 -132.72382813 16.70320313 -132.06640625 16.03515625 C-100.95494591 -13.52396511 -26.01907747 0 0 0 Z " fill="#E3123A" transform="translate(332,76)"/>
<path d="M0 0 C0 100.32 0 200.64 0 304 C-0.33 304 -0.66 304 -1 304 C-1 204.34 -1 104.68 -1 2 C-30.99962241 15.11351179 -30.99962241 15.11351179 -60.87057495 28.50631714 C-65.13497169 30.45026554 -69.40375812 32.3845493 -73.671875 34.3203125 C-74.5308287 34.71010788 -75.38978241 35.09990326 -76.27476501 35.50151062 C-89.31580642 41.41615843 -102.39218088 47.25218295 -115.47007751 53.08477783 C-119.74642133 54.99233895 -124.02025492 56.90535681 -128.29151917 58.82426453 C-130.24008252 59.69930456 -132.1893465 60.57276091 -134.13891602 61.44555664 C-136.48049312 62.49404999 -138.82090074 63.54516057 -141.15991211 64.59936523 C-142.17448486 65.05255127 -143.18905762 65.5057373 -144.234375 65.97265625 C-145.11319336 66.36718994 -145.99201172 66.76172363 -146.89746094 67.16821289 C-149 68 -149 68 -151 68 C-152.14023358 50.36438722 -147.36198128 34.36545692 -135.75 20.75 C-102.70423934 -14.00028408 -37.99396435 0 0 0 Z " fill="#1FCC3B" transform="translate(504,76)"/>
<path d="M0 0 C6.12098295 -0.11515227 12.23816955 -0.21458042 18.359375 -0.2746582 C20.43893202 -0.29971505 22.51840174 -0.33377021 24.59765625 -0.37719727 C27.59657394 -0.43823845 30.59432178 -0.46629842 33.59375 -0.48828125 C34.51490601 -0.51408768 35.43606201 -0.5398941 36.38513184 -0.56648254 C42.7835695 -0.56922749 47.08045123 0.82811048 52 5 C56.45662234 10.59934601 57.59221613 14.89340641 57 22 C55.01966378 28.16767366 51.34556934 32.41561592 46 36 C43.21938025 36.92687325 41.57948141 37.12193396 38.7121582 37.11352539 C37.85149246 37.11344986 36.99082672 37.11337433 36.1040802 37.11329651 C35.17899155 37.10813522 34.25390289 37.10297394 33.30078125 37.09765625 C32.35059616 37.0962413 31.40041107 37.09482635 30.4214325 37.09336853 C27.38508971 37.08776875 24.34882052 37.07521632 21.3125 37.0625 C19.25455836 37.05748497 17.19661556 37.05292207 15.13867188 37.04882812 C10.09239671 37.03865008 5.0462808 37.01907456 0 37 C0 24.79 0 12.58 0 0 Z " fill="#146844" transform="translate(378,256)"/>
<path d="M0 0 C5.97859688 -0.11516989 11.95330404 -0.21459124 17.93212891 -0.2746582 C19.96318647 -0.29971104 21.9941547 -0.3337632 24.02490234 -0.37719727 C26.95432648 -0.43825687 29.88255279 -0.46630227 32.8125 -0.48828125 C34.16142334 -0.52699089 34.16142334 -0.52699089 35.53759766 -0.56648254 C41.86748731 -0.56926128 46.13554311 0.87607762 51 5 C55.54857756 10.83150969 56.82200669 15.75459817 56 23 C54.35841962 28.54775055 51.53874798 31.90015761 46.78125 35.08984375 C43.51592264 36.75831146 40.41486108 37.12473723 36.78222656 37.11352539 C35.96167786 37.11344986 35.14112915 37.11337433 34.29571533 37.11329651 C33.41953552 37.10813522 32.54335571 37.10297394 31.640625 37.09765625 C30.28405792 37.09553383 30.28405792 37.09553383 28.90008545 37.09336853 C26.01668973 37.08777911 23.13337218 37.07522853 20.25 37.0625 C18.29296987 37.05748363 16.33593853 37.05292096 14.37890625 37.04882812 C9.58588329 37.0386648 4.79302896 37.01908728 0 37 C0 24.79 0 12.58 0 0 Z " fill="#146844" transform="translate(378,211)"/>
<path d="M0 0 C29.7 0 59.4 0 90 0 C90 99.66 90 199.32 90 302 C89.67 302 89.34 302 89 302 C89 203 89 104 89 2 C87.35 2.66 85.7 3.32 84 4 C83.01 3.67 82.02 3.34 81 3 C78.54276583 2.89078831 76.11235846 2.83555367 73.65454102 2.82641602 C72.90950317 2.819729 72.16446533 2.81304199 71.39685059 2.80615234 C69.77957858 2.79210881 68.16228683 2.78021253 66.54498482 2.77020454 C63.98539676 2.75378753 61.42595513 2.73055 58.86643982 2.70530701 C51.58933816 2.63454604 44.31217728 2.57438502 37.03491211 2.52319336 C32.58340847 2.49140127 28.13207433 2.45012728 23.68070793 2.40299797 C21.98427312 2.38698182 20.28779928 2.37465846 18.5913105 2.36609077 C16.21898304 2.35393592 13.84705418 2.3297863 11.47485352 2.30297852 C10.42348457 2.3020948 10.42348457 2.3020948 9.35087585 2.30119324 C5.43142456 2.24250698 3.63147686 1.81573843 0 0 Z " fill="#1071D3" transform="translate(71,76)"/>
<path d="M0 0 C5.625 2.25 5.625 2.25 8 5 C5.69 4.67 3.38 4.34 1 4 C1 47.56 1 91.12 1 136 C31.69 136 62.38 136 94 136 C94 136.33 94 136.66 94 137 C62.98 137 31.96 137 0 137 C0 91.79 0 46.58 0 0 Z " fill="#05518F" transform="translate(8,298)"/>
<path d="M0 0 C29.7 0 59.4 0 90 0 C86.37542083 2.71843438 85.19115285 3.41789544 81 4 C81 3.67 81 3.34 81 3 C80.04422058 2.99191315 79.08844116 2.98382629 78.10369873 2.97549438 C69.09854596 2.8980263 60.09354416 2.8102853 51.08858871 2.71247292 C46.458992 2.6625165 41.82941803 2.61618637 37.19970703 2.578125 C32.73219468 2.54126397 28.26487293 2.49490173 23.7975235 2.44193649 C22.09271842 2.4233969 20.38787249 2.40828732 18.68300629 2.39665604 C16.29595909 2.3797861 13.90934797 2.35074957 11.52246094 2.31884766 C10.81683517 2.31668747 10.11120941 2.31452728 9.38420105 2.31230164 C5.45852591 2.24522943 3.63446345 1.81723173 0 0 Z " fill="#1D84E2" transform="translate(71,76)"/>
<path d="M0 0 C0 0.66 0 1.32 0 2 C-0.61875 2.0825 -1.2375 2.165 -1.875 2.25 C-4.1463095 2.77298167 -4.1463095 2.77298167 -4.875 4.78125 C-6.23941137 7.47217243 -7.96163152 9.1564176 -10.125 11.25 C-10.84945313 11.95640625 -11.57390625 12.6628125 -12.3203125 13.390625 C-12.87460937 13.92171875 -13.42890625 14.4528125 -14 15 C-14.66 14.67 -15.32 14.34 -16 14 C-4.30964467 0 -4.30964467 0 0 0 Z " fill="#2487E2" transform="translate(36,88)"/>
<path d="M0 0 C0.33 0.99 0.66 1.98 1 3 C-0.59792764 4.65189143 -2.20355876 6.2963339 -3.8125 7.9375 C-4.70582031 8.85402344 -5.59914062 9.77054688 -6.51953125 10.71484375 C-9 13 -9 13 -12 14 C-10.41332422 10.09714233 -7.86649519 7.66479018 -4.875 4.75 C-3.96492187 3.85796875 -3.05484375 2.9659375 -2.1171875 2.046875 C-1.41851562 1.37140625 -0.71984375 0.6959375 0 0 Z " fill="#EF2A4E" transform="translate(203,89)"/>
<path d="M0 0 C0.66 0 1.32 0 2 0 C2 3.3 2 6.6 2 10 C2.66 10.33 3.32 10.66 4 11 C2.02 11.99 2.02 11.99 0 13 C0 8.71 0 4.42 0 0 Z " fill="#1C83E1" transform="translate(8,132)"/>
<path d="M0 0 C0.66 0 1.32 0 2 0 C0.71480435 2.86697492 -0.57129254 4.97607712 -3 7 C-3.66 7 -4.32 7 -5 7 C-5 7.66 -5 8.32 -5 9 C-5.66 8.67 -6.32 8.34 -7 8 C-5.88200014 6.66079162 -4.75538103 5.32877444 -3.625 4 C-2.68527344 2.88625 -2.68527344 2.88625 -1.7265625 1.75 C-1.15679687 1.1725 -0.58703125 0.595 0 0 Z " fill="#33DF51" transform="translate(373,92)"/>
<path d="M0 0 C3.37503669 1.1858237 5.64722731 2.27573689 8 5 C5.69 4.67 3.38 4.34 1 4 C0.67 2.68 0.34 1.36 0 0 Z " fill="#2065A2" transform="translate(8,298)"/>
</svg>
