<?xml version="1.0" encoding="UTF-8"?>
<svg version="1.1" xmlns="http://www.w3.org/2000/svg" width="856" height="512">
<path d="M0 0 C0.98584076 0.00054382 1.97168152 0.00108765 2.98739624 0.00164795 C63.25794958 0.15394939 120.14212436 21.53400286 166.1875 60.375 C167.85053487 61.71286045 169.51621778 63.04745667 171.1875 64.375 C175.12676736 63.03895478 177.48287299 61.40148623 180.4375 58.5 C191.68541177 48.10445599 204.89825618 39.90031703 218.1875 32.375 C218.81495117 32.01341797 219.44240234 31.65183594 220.08886719 31.27929688 C246.17900848 16.34430433 275.5168611 6.86353618 305.1875 2.375 C306.31212646 2.19767334 307.43675293 2.02034668 308.59545898 1.83764648 C320.14920808 0.18627099 331.59229412 0.01721419 343.25 0.0625 C344.24705963 0.06465515 345.24411926 0.0668103 346.27139282 0.06903076 C360.76698723 0.11934098 374.94234479 0.45358451 389.1875 3.375 C390.72446533 3.68099121 390.72446533 3.68099121 392.29248047 3.99316406 C413.84182886 8.37770496 434.39939691 14.7528612 454.1875 24.375 C455.52965576 25.02662109 455.52965576 25.02662109 456.89892578 25.69140625 C482.04673485 38.0438105 503.95129404 54.06255808 524.1875 73.375 C525.06019531 74.20644531 525.93289063 75.03789063 526.83203125 75.89453125 C532.77702788 81.6934143 538.02802017 87.87613052 543.1875 94.375 C544.13689453 95.50615234 544.13689453 95.50615234 545.10546875 96.66015625 C556.20479042 110.00222746 565.20855337 125.00455626 573.1875 140.375 C573.5376416 141.04789063 573.8877832 141.72078125 574.24853516 142.4140625 C587.6526791 168.5684897 595.55085997 197.2818798 599.1875 226.375 C599.2817627 227.06207031 599.37602539 227.74914062 599.47314453 228.45703125 C600.55750376 237.42675766 600.43136401 246.47873602 600.4375 255.5 C600.43851212 256.83658157 600.43851212 256.83658157 600.43954468 258.20016479 C600.42242601 272.45713868 599.76421305 286.32206251 597.1875 300.375 C597.02652832 301.29345703 596.86555664 302.21191406 596.69970703 303.15820312 C592.4944085 326.53982454 584.68640777 349.0913117 574.1875 370.375 C573.83220215 371.10332031 573.4769043 371.83164062 573.11083984 372.58203125 C565.01845309 389.01101944 554.74987525 404.19216968 543.1875 418.375 C542.73971191 418.92575195 542.29192383 419.47650391 541.83056641 420.04394531 C530.87681953 433.40774494 518.88500625 445.80666543 505.1875 456.375 C504.2078125 457.16003906 503.228125 457.94507813 502.21875 458.75390625 C470.2893367 484.18010833 432.68081414 500.40342895 392.875 508.625 C392.14837158 508.77622314 391.42174316 508.92744629 390.6730957 509.08325195 C375.28897233 512.07428088 360.00950649 512.78260105 344.375 512.75 C343.38915924 512.74945618 342.40331848 512.74891235 341.38760376 512.74835205 C325.01809326 512.70698691 309.25710158 511.7324816 293.1875 508.375 C292.17075195 508.16601074 291.15400391 507.95702148 290.10644531 507.74169922 C248.49145101 498.89801609 210.61358668 479.72761733 178.1875 452.375 C176.52446513 451.03713955 174.85878222 449.70254333 173.1875 448.375 C169.24755829 450.06629205 166.11685438 452.70343339 162.8125 455.375 C151.14390104 464.65172746 139.14960794 473.0025363 126.1875 480.375 C125.55569824 480.73948242 124.92389648 481.10396484 124.27294922 481.47949219 C98.1872492 496.41007977 68.85191333 505.88740561 39.1875 510.375 C38.06287354 510.55232666 36.93824707 510.72965332 35.77954102 510.91235352 C24.22579192 512.56372901 12.78270588 512.73278581 1.125 512.6875 C0.12794037 512.68534485 -0.86911926 512.6831897 -1.89639282 512.68096924 C-16.39198723 512.63065902 -30.56734479 512.29641549 -44.8125 509.375 C-45.83714355 509.17100586 -46.86178711 508.96701172 -47.91748047 508.75683594 C-70.30280669 504.2022027 -91.27746855 497.37164154 -111.8125 487.375 C-113.10438232 486.74851562 -113.10438232 486.74851562 -114.42236328 486.109375 C-139.31571167 473.89945195 -160.84957307 457.50527096 -180.8125 438.375 C-181.63363281 437.59511719 -182.45476562 436.81523437 -183.30078125 436.01171875 C-188.44998713 431.00480526 -193.07199333 425.68277352 -197.50683594 420.03564453 C-198.43243306 418.85839853 -199.36331762 417.68530101 -200.29785156 416.51513672 C-208.70927952 405.96586894 -216.16215643 395.11641221 -222.8125 383.375 C-223.27398437 382.56047363 -223.73546875 381.74594727 -224.2109375 380.90673828 C-245.5421077 342.77432525 -256.31599056 300.36439406 -256.125 256.75 C-256.12317719 255.87892609 -256.12135437 255.00785217 -256.11947632 254.11038208 C-256.07002148 240.01285486 -255.36003903 226.26882755 -252.8125 212.375 C-252.65152832 211.45654297 -252.49055664 210.53808594 -252.32470703 209.59179688 C-248.1194085 186.21017546 -240.31140777 163.6586883 -229.8125 142.375 C-229.45720215 141.64667969 -229.1019043 140.91835937 -228.73583984 140.16796875 C-220.64429833 123.74069654 -210.37837416 108.55322658 -198.8125 94.375 C-198.35939453 93.81893066 -197.90628906 93.26286133 -197.43945312 92.68994141 C-186.7356543 79.66258131 -175.12288136 67.7541478 -161.8125 57.375 C-160.7458603 56.50839698 -159.68082866 55.63981197 -158.6171875 54.76953125 C-126.65706844 28.80395657 -88.64521558 12.41667169 -48.5 4.125 C-47.41005737 3.89816528 -47.41005737 3.89816528 -46.2980957 3.66674805 C-30.91397233 0.67571912 -15.63450649 -0.03260105 0 0 Z " fill="#007CD7" transform="translate(255.8125,-0.375)"/>
<path d="M0 0 C0.99705963 0.00215515 1.99411926 0.0043103 3.02139282 0.00653076 C17.51698723 0.05684098 31.69234479 0.39108451 45.9375 3.3125 C47.47446533 3.61849121 47.47446533 3.61849121 49.04248047 3.93066406 C70.59182886 8.31520496 91.14939691 14.6903612 110.9375 24.3125 C112.27965576 24.96412109 112.27965576 24.96412109 113.64892578 25.62890625 C138.79673485 37.9813105 160.70129404 54.00005808 180.9375 73.3125 C181.81019531 74.14394531 182.68289063 74.97539063 183.58203125 75.83203125 C189.52702788 81.6309143 194.77802017 87.81363052 199.9375 94.3125 C200.88689453 95.44365234 200.88689453 95.44365234 201.85546875 96.59765625 C212.95479042 109.93972746 221.95855337 124.94205626 229.9375 140.3125 C230.2876416 140.98539063 230.6377832 141.65828125 230.99853516 142.3515625 C244.4026791 168.5059897 252.30085997 197.2193798 255.9375 226.3125 C256.0317627 226.99957031 256.12602539 227.68664062 256.22314453 228.39453125 C257.30750376 237.36425766 257.18136401 246.41623602 257.1875 255.4375 C257.18817474 256.32855438 257.18884949 257.21960876 257.18954468 258.13766479 C257.17242601 272.39463868 256.51421305 286.25956251 253.9375 300.3125 C253.77652832 301.23095703 253.61555664 302.14941406 253.44970703 303.09570312 C249.2444085 326.47732454 241.43640777 349.0288117 230.9375 370.3125 C230.40455322 371.40498047 230.40455322 371.40498047 229.86083984 372.51953125 C221.76845309 388.94851944 211.49987525 404.12966968 199.9375 418.3125 C199.48971191 418.86325195 199.04192383 419.41400391 198.58056641 419.98144531 C187.62681953 433.34524494 175.63500625 445.74416543 161.9375 456.3125 C160.46796875 457.49005859 160.46796875 457.49005859 158.96875 458.69140625 C127.0393367 484.11760833 89.43081414 500.34092895 49.625 508.5625 C48.89837158 508.71372314 48.17174316 508.86494629 47.4230957 509.02075195 C32.03897233 512.01178088 16.75950649 512.72010105 1.125 512.6875 C0.13915924 512.68695618 -0.84668152 512.68641235 -1.86239624 512.68585205 C-18.23190674 512.64448691 -33.99289842 511.6699816 -50.0625 508.3125 C-51.58762207 507.99901611 -51.58762207 507.99901611 -53.14355469 507.67919922 C-94.64368637 498.85992577 -132.80512304 479.75367137 -165.0625 452.3125 C-166.2907469 451.2905602 -167.51974274 450.26951875 -168.75 449.25 C-169.513125 448.610625 -170.27625 447.97125 -171.0625 447.3125 C-169.71134957 444.20217846 -168.32932549 442.47619875 -165.6875 440.375 C-161.71764174 437.02543209 -158.19866724 433.37850376 -154.6875 429.5625 C-154.16365723 428.99539307 -153.63981445 428.42828613 -153.10009766 427.84399414 C-150.88229118 425.41553579 -148.8902848 423.05417719 -147.0625 420.3125 C-147.66003586 420.33772232 -148.25757172 420.36294464 -148.87321472 420.38893127 C-155.15273508 420.63677817 -161.42660944 420.76182467 -167.71069336 420.8190918 C-170.04764577 420.85600717 -172.38433969 420.92313221 -174.71948242 421.0222168 C-193.47490373 421.787826 -193.47490373 421.787826 -199.35797119 417.72869873 C-203.97185471 413.23431753 -207.01694118 407.92935801 -210.0625 402.3125 C-211.16379859 400.45281107 -212.27340828 398.59801834 -213.39135742 396.74829102 C-213.90075363 395.90162369 -214.41014984 395.05495636 -214.9349823 394.18263245 C-215.30706314 393.56548874 -215.67914398 392.94834503 -216.0625 392.3125 C-214.95717926 392.33772232 -213.85185852 392.36294464 -212.71304321 392.38893127 C-202.26777327 392.61607624 -191.82465899 392.7527474 -181.37699318 392.80215549 C-176.00577722 392.83043008 -170.63878375 392.88991884 -165.26904297 393.0222168 C-160.0806306 393.14887462 -154.89752483 393.19160946 -149.70765305 393.17759514 C-147.73387904 393.18673945 -145.76000139 393.22550921 -143.78743362 393.29510689 C-133.36243441 393.94207202 -133.36243441 393.94207202 -124.29259491 389.71479416 C-120.57849886 385.03062858 -118.36892489 379.78983936 -116.0625 374.3125 C-114.4125 371.0125 -112.7625 367.7125 -111.0625 364.3125 C-150.9925 364.3125 -190.9225 364.3125 -232.0625 364.3125 C-242.0625 339.3125 -242.0625 339.3125 -242.0625 337.3125 C-171.7725 336.8175 -171.7725 336.8175 -100.0625 336.3125 C-98.4125 331.0325 -96.7625 325.7525 -95.0625 320.3125 C-92.5875 318.3325 -92.5875 318.3325 -90.0625 316.3125 C-89.4025 315.6525 -88.7425 314.9925 -88.0625 314.3125 C-86.0625 312.3125 -86.0625 312.3125 -83.625 310.6875 C-77.90258875 305.38380177 -75.37451449 297.94471511 -74.859375 290.296875 C-74.72791423 281.22608197 -75.39523229 272.99412252 -81.80859375 266.06640625 C-87.25480681 261.82836524 -93.82963651 259.19343313 -100.0625 256.3125 C-102.02510723 255.38398044 -103.98429185 254.44813165 -105.9375 253.5 C-106.69804687 253.14292969 -107.45859375 252.78585938 -108.2421875 252.41796875 C-110.0625 251.3125 -110.0625 251.3125 -112.0625 248.3125 C-111.84027778 242.09027778 -111.84027778 242.09027778 -109.1875 239.4375 C-105.67603686 237.5784901 -102.92986618 237.18460483 -99.01953125 237.1796875 C-98.02759766 237.17839844 -97.03566406 237.17710937 -96.01367188 237.17578125 C-94.4600293 237.18158203 -94.4600293 237.18158203 -92.875 237.1875 C-91.85857422 237.18363281 -90.84214844 237.17976562 -89.79492188 237.17578125 C-88.79654297 237.17707031 -87.79816406 237.17835938 -86.76953125 237.1796875 C-85.8669458 237.18081543 -84.96436035 237.18194336 -84.03442383 237.18310547 C-80.36127109 237.34303079 -76.71074118 237.85646985 -73.0625 238.3125 C-71.7425 230.7225 -70.4225 223.1325 -69.0625 215.3125 C-71.69737162 214.43420946 -73.77702023 214.05264897 -76.51171875 213.77734375 C-77.78305664 213.64682617 -77.78305664 213.64682617 -79.08007812 213.51367188 C-80.40168945 213.3831543 -80.40168945 213.3831543 -81.75 213.25 C-82.64267578 213.15912109 -83.53535156 213.06824219 -84.45507812 212.97460938 C-86.65724468 212.75085983 -88.85983415 212.53127973 -91.0625 212.3125 C-91.3925 209.0125 -91.7225 205.7125 -92.0625 202.3125 C-143.8725 202.3125 -195.6825 202.3125 -249.0625 202.3125 C-247.93638629 193.30359029 -247.93638629 193.30359029 -246.90625 189.62890625 C-246.68839844 188.84708984 -246.47054688 188.06527344 -246.24609375 187.25976562 C-246.02050781 186.47279297 -245.79492188 185.68582031 -245.5625 184.875 C-245.33691406 184.06095703 -245.11132812 183.24691406 -244.87890625 182.40820312 C-243.19899644 176.44899644 -243.19899644 176.44899644 -242.0625 175.3125 C-240.22755514 175.21603972 -238.38885413 175.19062656 -236.55137634 175.19224548 C-234.75709953 175.19018349 -234.75709953 175.19018349 -232.92657471 175.18807983 C-231.58898901 175.19161943 -230.25140356 175.19525425 -228.91381836 175.19897461 C-227.51467389 175.19925648 -226.11552927 175.19909875 -224.71638489 175.1985321 C-220.90663541 175.19824412 -217.09691714 175.20414102 -213.28717494 175.21110606 C-209.30998691 175.21733941 -205.33279824 175.21794338 -201.35560608 175.21913147 C-193.81911461 175.22224484 -186.28263757 175.23045831 -178.74615246 175.24048096 C-170.16830172 175.25164192 -161.5904503 175.2571525 -153.0125941 175.26217639 C-135.36255454 175.27264092 -117.71252843 175.29024047 -100.0625 175.3125 C-100.36542969 174.6011792 -100.66835938 173.8898584 -100.98046875 173.15698242 C-102.34669338 169.94031163 -103.70468296 166.72022826 -105.0625 163.5 C-105.53945313 162.38044922 -106.01640625 161.26089844 -106.5078125 160.10742188 C-106.95898438 159.03427734 -107.41015625 157.96113281 -107.875 156.85546875 C-108.29394531 155.86571045 -108.71289062 154.87595215 -109.14453125 153.85620117 C-110.0625 151.3125 -110.0625 151.3125 -110.0625 148.3125 C-149.9925 148.3125 -189.9225 148.3125 -231.0625 148.3125 C-229.69052318 144.19656953 -228.5610881 141.10338548 -226.53125 137.421875 C-226.05042969 136.54789063 -225.56960938 135.67390625 -225.07421875 134.7734375 C-224.57535156 133.87882813 -224.07648438 132.98421875 -223.5625 132.0625 C-223.06363281 131.15242187 -222.56476563 130.24234375 -222.05078125 129.3046875 C-218.32833264 122.57833264 -218.32833264 122.57833264 -216.0625 120.3125 C-213.23273633 120.09477448 -210.49795897 120.00106858 -207.66552734 119.99365234 C-206.79716751 119.98360672 -205.92880768 119.9735611 -205.03413391 119.96321106 C-202.15557536 119.93224858 -199.27711035 119.91530778 -196.3984375 119.8984375 C-194.4058857 119.87973635 -192.4133419 119.86016374 -190.42080688 119.8397522 C-185.16996978 119.78831372 -179.91910696 119.74875083 -174.66815186 119.71160889 C-169.31255676 119.67164251 -163.95706968 119.62051666 -158.6015625 119.5703125 C-148.08861742 119.47341457 -137.57561151 119.38905433 -127.0625 119.3125 C-129.75185643 115.34898194 -132.45433531 111.39681276 -135.19468689 107.46836853 C-136.84468761 105.10159073 -138.41642826 102.74029815 -139.93531799 100.28468323 C-142.15469149 96.89707353 -143.66890068 94.73713395 -147.62496948 93.53170776 C-150.75748682 93.1740048 -153.75061883 93.14308165 -156.90234375 93.21484375 C-158.02443741 93.20538223 -159.14653107 93.19592072 -160.30262756 93.18617249 C-163.86977415 93.16565245 -167.43311061 93.20693848 -171 93.25 C-173.42513883 93.24692426 -175.85027613 93.23980741 -178.27539062 93.22851562 C-184.20520872 93.20970493 -190.13311261 93.24156824 -196.0625 93.3125 C-193.76274977 89.75808269 -191.46399446 86.45497429 -188.56640625 83.3671875 C-187.92509766 82.68269531 -187.28378906 81.99820313 -186.62304688 81.29296875 C-185.96369141 80.59816406 -185.30433594 79.90335937 -184.625 79.1875 C-183.96951172 78.48496094 -183.31402344 77.78242187 -182.63867188 77.05859375 C-179.29311569 73.50834455 -175.95691636 70.27197525 -172.0625 67.3125 C-171.340625 66.590625 -170.61875 65.86875 -169.875 65.125 C-156.61775973 51.86775973 -141.33464299 41.52694714 -125.0625 32.3125 C-124.43504883 31.95091797 -123.80759766 31.58933594 -123.16113281 31.21679688 C-97.07099152 16.28180433 -67.7331389 6.80103618 -38.0625 2.3125 C-36.93787354 2.13517334 -35.81324707 1.95784668 -34.65454102 1.77514648 C-23.10079192 0.12377099 -11.65770588 -0.04528581 0 0 Z " fill="#E02D01" transform="translate(599.0625,-0.31250000000000006)"/>
<path d="M0 0 C16.5 0 33 0 50 0 C50.64929435 10.38870965 51.22016458 20.72826057 51.53515625 31.125 C51.57835291 32.4921943 51.62176881 33.85938168 51.66539001 35.2265625 C51.77768865 38.76413567 51.88708087 42.30179245 51.99578857 45.83947754 C52.1080063 49.47377139 52.22308217 53.10797473 52.33789062 56.7421875 C52.56133178 63.82804074 52.7816911 70.91398662 53 78 C64.42852361 52.04041189 75.76526707 26.04415362 87 0 C104.16 0 121.32 0 139 0 C137.8749726 11.25027399 137.8749726 11.25027399 137.01330566 15.66882324 C136.81985062 16.67254974 136.62639557 17.67627625 136.42707825 18.7104187 C136.21717758 19.774711 136.00727692 20.8390033 135.79101562 21.93554688 C135.56814377 23.08471588 135.34527191 24.23388489 135.11564636 25.4178772 C134.3836692 29.18572457 133.64513076 32.95225087 132.90625 36.71875 C132.39409425 39.34519474 131.88224142 41.97169694 131.37072754 44.5982666 C130.30126178 50.08599005 129.22818826 55.57299828 128.15283203 61.05957031 C126.90940696 67.40383576 125.67133335 73.7491275 124.43616152 80.09500456 C123.24559295 86.21126457 122.05169647 92.32687005 120.85612488 98.44215393 C120.34818339 101.04163954 119.84103109 103.64127949 119.33467102 106.24107361 C118.62901441 109.86116167 117.9195523 113.4804826 117.20898438 117.09960938 C116.99908371 118.18009552 116.78918304 119.26058167 116.57292175 120.37380981 C116.37946671 121.35497772 116.18601166 122.33614563 115.98669434 123.3470459 C115.73561039 124.63005711 115.73561039 124.63005711 115.47945404 125.93898773 C115 128 115 128 114 130 C103.44 130 92.88 130 82 130 C82.51498047 127.25905029 83.02996094 124.51810059 83.56054688 121.6940918 C85.25936374 112.65007682 86.95520586 103.60550593 88.64957428 94.56065655 C89.67721959 89.07540471 90.70587414 83.59034611 91.73681641 78.10571289 C92.73121038 72.81531456 93.7229778 67.52443008 94.71290588 62.23319435 C95.09153734 60.21195657 95.4711239 58.19089746 95.85166931 56.17001915 C96.38344049 53.34517342 96.91184923 50.51971838 97.43945312 47.6940918 C97.59841568 46.85396042 97.75737823 46.01382904 97.92115784 45.14823914 C98.49577551 42.05577778 99 39.15293356 99 36 C98.6095752 36.90613037 98.21915039 37.81226074 97.81689453 38.74584961 C87.976092 61.57723523 78.03688151 84.3638863 68.02423096 107.1204071 C64.67154782 114.74202118 61.33486201 122.37057193 58 130 C48.43 130 38.86 130 29 130 C27.92572083 125.70288332 27.65441544 121.59085575 27.42749023 117.19238281 C27.37857635 116.30422379 27.32966248 115.41606476 27.27926636 114.50099182 C27.11868663 111.5685571 26.9636179 108.63585823 26.80859375 105.703125 C26.69826094 103.66858102 26.58758439 101.63405566 26.47657776 99.59954834 C26.1854565 94.24694632 25.89900836 88.89410403 25.61352539 83.54119873 C25.32133853 78.07809459 25.02474283 72.61523003 24.72851562 67.15234375 C24.14802312 56.43512599 23.5724661 45.71764928 23 35 C22.77671524 36.17541855 22.55343048 37.3508371 22.32337952 38.56187439 C20.22334062 49.61416528 18.11923128 60.66567438 16.01108646 71.71642208 C14.92728209 77.39836676 13.84493698 83.08058147 12.76586914 88.76342773 C11.72535596 94.24294035 10.68108511 99.72172436 9.63415337 105.20001411 C9.23447895 107.29503186 8.83618223 109.39031291 8.43925667 111.4858532 C7.88505563 114.4104577 7.32605754 117.33410571 6.76586914 120.25756836 C6.60115112 121.1329425 6.43643311 122.00831665 6.26672363 122.91021729 C5.11405216 128.88594784 5.11405216 128.88594784 4 130 C1.85441173 130.08775605 -0.29404421 130.10695219 -2.44140625 130.09765625 C-3.74658203 130.09443359 -5.05175781 130.09121094 -6.39648438 130.08789062 C-7.7851569 130.07953401 -9.17382877 130.07106905 -10.5625 130.0625 C-11.95507656 130.05748666 -13.34765481 130.05292347 -14.74023438 130.04882812 C-18.1601987 130.03699434 -21.58007844 130.0205088 -25 130 C-22.33346591 115.85507938 -19.66457451 101.71060523 -16.9930687 87.56662273 C-15.75227733 80.99717312 -14.51225833 74.42757971 -13.27392578 67.85766602 C-12.07614861 61.50306869 -10.87639202 55.14884785 -9.67533112 48.79487038 C-9.22019943 46.38525178 -8.76575009 43.97550418 -8.31203461 41.56561852 C-7.67050904 38.15886734 -7.02643249 34.75260681 -6.38183594 31.34643555 C-6.19985153 30.37681381 -6.01786713 29.40719208 -5.83036804 28.40818787 C-4.02681202 18.9042656 -1.99439619 9.4733819 0 0 Z " fill="#FDFEFE" transform="translate(110,190)"/>
<path d="M0 0 C8.82598891 7.08753655 13.69518239 17.40910703 15.6875 28.40625 C17.28583028 45.86237909 15.11204801 64.7011329 4.4375 79.15625 C-5.86651228 91.4102689 -17.58707004 97.62995538 -33.3125 100.40625 C-34.42431641 100.60347656 -34.42431641 100.60347656 -35.55859375 100.8046875 C-50.10897868 102.9711432 -67.30136594 101.31670553 -79.5625 92.65625 C-86.08760504 87.33454548 -91.22238632 81.27459502 -94.3125 73.40625 C-94.6115625 72.67664063 -94.910625 71.94703125 -95.21875 71.1953125 C-100.84711241 54.67502655 -97.67435015 35.75337904 -90.75 20.21875 C-85.1657219 9.79570195 -76.93432157 1.62981028 -66.3125 -3.59375 C-65.631875 -3.96886719 -64.95125 -4.34398437 -64.25 -4.73046875 C-44.32729241 -14.88048455 -18.11424816 -12.484144 0 0 Z " fill="#FEFDFE" transform="translate(757.3125,221.59375)"/>
<path d="M0 0 C0.73992187 0.2784375 1.47984375 0.556875 2.2421875 0.84375 C9.42740544 3.98897748 14.42594088 8.86555748 17.4375 16.125 C21.00156277 27.83105105 18.48541156 39.82142335 16.375 51.58203125 C16.10500259 53.13270257 15.83597732 54.68354343 15.56787109 56.23454285 C14.86730213 60.27209034 14.15375042 64.3072325 13.43725586 68.34197998 C12.70535899 72.47723814 11.98605979 76.61468557 11.265625 80.75195312 C9.85590932 88.83681064 8.43127696 96.91893164 7 105 C-1.91 105 -10.82 105 -20 105 C-20 101.7 -20 98.4 -20 95 C-21.4540625 96.36125 -21.4540625 96.36125 -22.9375 97.75 C-31.46402445 104.9949827 -42.61900982 107.58258378 -53.68359375 107.24609375 C-63.54189347 106.19875331 -70.83817937 102.83671046 -77.3125 95.3125 C-82.33914913 85.44537394 -82.94505429 76.03645186 -80.34765625 65.3046875 C-77.36598851 56.53830954 -70.56708741 48.65312186 -62.49609375 44.08984375 C-49.85254851 38.56942259 -37.72036284 36.82588253 -24 36.9375 C-22.40865234 36.94426758 -22.40865234 36.94426758 -20.78515625 36.95117188 C-18.19004402 36.96286157 -15.59505291 36.97924724 -13 37 C-12.75056641 35.09347656 -12.75056641 35.09347656 -12.49609375 33.1484375 C-12.35578735 32.07601807 -12.35578735 32.07601807 -12.21264648 30.98193359 C-11.86928616 27.85470794 -11.86928616 27.85470794 -13 25 C-28.75435918 17.6991994 -49.73803581 22.95776407 -66 26 C-65.35916562 22.37409764 -64.71148784 18.74945113 -64.0625 15.125 C-63.88009766 14.09246094 -63.69769531 13.05992187 -63.50976562 11.99609375 C-63.33251953 11.00996094 -63.15527344 10.02382812 -62.97265625 9.0078125 C-62.81031494 8.09660645 -62.64797363 7.18540039 -62.48071289 6.24658203 C-62 4 -62 4 -61 2 C-58.32866947 1.20993015 -55.71386887 0.5413473 -53 -0.0625 C-52.26910156 -0.23587891 -51.53820312 -0.40925781 -50.78515625 -0.58789062 C-35.03444876 -4.20031124 -15.27614203 -5.848292 0 0 Z " fill="#FDFDFE" transform="translate(321,215)"/>
<path d="M0 0 C0.8667334 -0.01023193 1.7334668 -0.02046387 2.62646484 -0.03100586 C13.78737002 0.12044692 24.02056317 3.73505629 32.35546875 11.2890625 C41.62294633 21.20862272 42.89179873 32.06062199 42.46630859 45.08007812 C41.40512132 61.34487868 41.40512132 61.34487868 38.3125 64.4375 C36.34880847 64.5315067 34.38170801 64.55493381 32.41577148 64.55102539 C31.15453964 64.55094986 29.8933078 64.55087433 28.59385681 64.55079651 C27.20710206 64.5456891 25.82034771 64.54047309 24.43359375 64.53515625 C23.02254791 64.53329201 21.61150143 64.53186814 20.20045471 64.53086853 C16.48009465 64.52704379 12.7597734 64.5172139 9.03942871 64.50616455 C5.24569219 64.49594948 1.45194942 64.49137071 -2.34179688 64.48632812 C-9.79038231 64.47559158 -17.23893572 64.4585157 -24.6875 64.4375 C-24.42806118 66.36521704 -24.1512726 68.29060438 -23.8671875 70.21484375 C-23.63878174 71.8234729 -23.63878174 71.8234729 -23.40576172 73.46459961 C-22.4809425 77.29244586 -21.10475741 79.09488582 -17.921875 81.32421875 C-1.03484088 89.73821302 19.24431938 84.81321836 36.3125 79.4375 C35.61957783 83.73584553 34.87714445 88.02415403 34.125 92.3125 C33.92841797 93.53582031 33.73183594 94.75914062 33.52929688 96.01953125 C33.31982422 97.18613281 33.11035156 98.35273438 32.89453125 99.5546875 C32.71124268 100.63347168 32.5279541 101.71225586 32.33911133 102.82373047 C31.3125 105.4375 31.3125 105.4375 28.99609375 106.75195312 C7.03173488 112.36293563 -17.35433987 113.36491539 -37.6875 102.3203125 C-47.1576539 96.37680445 -52.00100159 87.83334339 -55.06347656 77.25415039 C-56.16377445 72.28774322 -56.21797149 67.38248699 -56.1875 62.3125 C-56.18250488 61.21663574 -56.17750977 60.12077148 -56.17236328 58.99169922 C-55.97418336 49.69911126 -54.39583895 41.92635018 -50.6875 33.4375 C-50.03587891 31.93896484 -50.03587891 31.93896484 -49.37109375 30.41015625 C-42.77220828 17.00558264 -31.76246549 7.18398717 -17.8125 2 C-11.87325487 0.34981453 -6.12580932 0.05551279 0 0 Z " fill="#FDFEFE" transform="translate(401.6875,211.5625)"/>
<path d="M0 0 C-0.64083438 3.62590236 -1.28851216 7.25054887 -1.9375 10.875 C-2.11990234 11.90753906 -2.30230469 12.94007813 -2.49023438 14.00390625 C-2.66748047 14.99003906 -2.84472656 15.97617188 -3.02734375 16.9921875 C-3.27085571 18.35899658 -3.27085571 18.35899658 -3.51928711 19.75341797 C-4 22 -4 22 -5 24 C-5.90766113 23.98428955 -6.81532227 23.9685791 -7.75048828 23.95239258 C-11.13873072 23.9010687 -14.52655619 23.86355584 -17.91503906 23.83520508 C-19.37767075 23.82017804 -20.84025782 23.79975045 -22.30273438 23.77368164 C-24.4128728 23.73702733 -26.52241226 23.72021324 -28.6328125 23.70703125 C-30.53377686 23.68346558 -30.53377686 23.68346558 -32.47314453 23.65942383 C-36.35375091 24.0341605 -38.73946134 24.88049737 -42 27 C-43.3309316 30.39969811 -43.3309316 30.39969811 -43 34 C-39.76629077 38.38366466 -35.1231572 39.87929781 -30.25 41.875 C-19.62739119 46.42754663 -11.33165506 51.06748796 -6.6875 62.125 C-4.75228835 73.03255655 -5.29060637 83.85104326 -11.5625 93.25 C-18.8253009 102.14872883 -30.01181055 105.62241838 -41 107 C-46.14338996 107.21480431 -51.29013195 107.19277815 -56.4375 107.1875 C-57.15188232 107.1882251 -57.86626465 107.1889502 -58.60229492 107.18969727 C-68.85253322 107.18854361 -78.89209179 106.86198309 -89 105 C-88.42029353 96.50430168 -86.76198299 88.31124051 -85 80 C-84.01644531 80.2165625 -83.03289062 80.433125 -82.01953125 80.65625 C-73.62417596 82.38536911 -65.4542058 83.32036988 -56.875 83.375 C-55.99948486 83.38853516 -55.12396973 83.40207031 -54.22192383 83.41601562 C-48.89111086 83.37915607 -43.02120634 83.02120634 -39 79 C-38.49624166 74.93351976 -38.49624166 74.93351976 -39 71 C-42.90416488 67.00306288 -47.74656551 65.2218048 -52.8125 63.125 C-63.40050133 58.56188156 -71.68070476 53.90308391 -76.3125 42.875 C-78.08213461 32.90069586 -77.881864 23.45899037 -72.59375 14.66015625 C-66.00969736 5.3275722 -56.91598472 0.97247081 -45.87890625 -1.3125 C-30.99136338 -3.78587012 -14.79772123 -2.73489237 0 0 Z " fill="#FDFEFE" transform="translate(531,214)"/>
<path d="M0 0 C10.56 0 21.12 0 32 0 C30.68 7.59 29.36 15.18 28 23 C33.28 23.33 38.56 23.66 44 24 C43.35807989 27.95900494 42.71165424 31.91718073 42.0625 35.875 C41.88009766 37.00292969 41.69769531 38.13085938 41.50976562 39.29296875 C41.33251953 40.36933594 41.15527344 41.44570312 40.97265625 42.5546875 C40.81031494 43.54968262 40.64797363 44.54467773 40.48071289 45.56982422 C40 48 40 48 39 50 C33.72 50 28.44 50 23 50 C22.67386719 51.835625 22.34773437 53.67125 22.01171875 55.5625 C21.57034268 58.04167204 21.12893431 60.52083833 20.6875 63 C20.4603833 64.2789917 20.2332666 65.5579834 19.99926758 66.87573242 C18.04846127 77.82535236 18.04846127 77.82535236 17 83.17578125 C16.85989502 83.89314453 16.71979004 84.61050781 16.57543945 85.34960938 C16.21609953 87.1677925 15.84863383 88.98436457 15.48046875 90.80078125 C14.34857441 97.38319759 14.34857441 97.38319759 16.546875 103.421875 C19.9089492 105.58473802 22.28804416 105.39673911 26.25 105.25 C27.51328125 105.21390625 28.7765625 105.1778125 30.078125 105.140625 C31.04234375 105.09421875 32.0065625 105.0478125 33 105 C32.52087184 113.24430867 31.02214499 121.00044527 29 129 C0.80933277 135.07963042 0.80933277 135.07963042 -10.77734375 127.8984375 C-15.09460818 124.62618329 -17.13208256 120.84045706 -18.6875 115.75 C-19.5751715 107.93849082 -18.81426913 100.52711837 -17.36352539 92.84033203 C-17.18956741 91.87969345 -17.01560944 90.91905487 -16.83638 89.92930603 C-16.26521179 86.78720575 -15.68160135 83.64756105 -15.09765625 80.5078125 C-14.69575447 78.31221697 -14.29459733 76.11648501 -13.89414978 73.92062378 C-12.84203981 68.16356945 -11.7791515 62.40855513 -10.71417236 56.65386963 C-9.84520491 51.9483258 -8.98382813 47.24140769 -8.12285709 42.53439522 C-6.34509473 32.81591622 -4.56250399 23.09830964 -2.76586914 13.38330078 C-2.60115112 12.48766922 -2.43643311 11.59203766 -2.26672363 10.66926575 C-2.1138942 9.84521744 -1.96106476 9.02116913 -1.80360413 8.17214966 C-1.67178773 7.45876497 -1.53997133 6.74538029 -1.4041605 6.01037788 C-0.99865862 3.9933277 -0.49899447 1.99597789 0 0 Z " fill="#FEFEFE" transform="translate(551,190)"/>
<path d="M0 0 C-1.9826089 7.06512428 -4.407044 13.83726835 -7.1875 20.625 C-7.55552734 21.53378906 -7.92355469 22.44257813 -8.30273438 23.37890625 C-9.19783479 25.58759559 -10.0969535 27.79455048 -11 30 C-11.86882812 29.96519531 -12.73765625 29.93039063 -13.6328125 29.89453125 C-22.39872141 29.38281529 -22.39872141 29.38281529 -30 33 C-34.73585879 38.53982421 -36.8717912 45.15860907 -38.91796875 52.0234375 C-39.17781052 52.89357986 -39.43765228 53.76372223 -39.70536804 54.66023254 C-42.56747638 64.5416372 -44.46341651 74.57705677 -46.3125 84.6875 C-46.82910422 87.46801081 -47.34878286 90.24789364 -47.87260437 93.02705383 C-48.19342806 94.73335459 -48.50971092 96.44051702 -48.82087708 98.14860535 C-49.88912305 103.88912305 -49.88912305 103.88912305 -51 105 C-53.29151417 105.08790975 -55.58572524 105.10694038 -57.87890625 105.09765625 C-58.90889992 105.09553383 -58.90889992 105.09553383 -59.95970154 105.09336853 C-62.16067801 105.08775479 -64.36155409 105.07520007 -66.5625 105.0625 C-68.05143083 105.05748676 -69.54036324 105.05292355 -71.02929688 105.04882812 C-74.68623075 105.03778093 -78.34310558 105.02050713 -82 105 C-81.4339072 94.07765001 -79.19905397 83.3838368 -77.21875 72.65234375 C-76.84109159 70.58783564 -76.46377783 68.52326445 -76.08679199 66.45863342 C-75.29969819 62.15390068 -74.50928195 57.84979604 -73.71630859 53.54614258 C-72.6986547 48.02223255 -71.68813175 42.49704715 -70.67989349 36.97141171 C-69.90332976 32.71862081 -69.12368881 28.46639882 -68.34303284 24.21435738 C-67.96903582 22.17587583 -67.59585435 20.13724448 -67.22349548 18.09846306 C-66.70477014 15.26160606 -66.18206603 12.42551174 -65.65820312 9.58959961 C-65.50440689 8.74445297 -65.35061066 7.89930634 -65.19215393 7.02854919 C-64.11439896 1.22879791 -64.11439896 1.22879791 -63 -1 C-53.43 -1 -43.86 -1 -34 -1 C-34.66 3.62 -35.32 8.24 -36 13 C-34.494375 11.4325 -32.98875 9.865 -31.4375 8.25 C-23.10553851 -0.08196149 -11.65553768 -6.21628676 0 0 Z " fill="#FEFEFE" transform="translate(673,215)"/>
<path d="M0 0 C1 2 1 2 0.44140625 3.70703125 C0.15136719 4.40183594 -0.13867188 5.09664062 -0.4375 5.8125 C-2.97487098 13.06213136 -3.25956665 21.26817342 -0.6875 28.5625 C0.69128025 31.37112643 2.05056862 33.5864183 4 36 C4 36.66 4 37.32 4 38 C4.56976563 38.27328125 5.13953125 38.5465625 5.7265625 38.828125 C8.03691407 40.01902787 10.1810806 41.35727301 12.375 42.75 C17.64831213 45.96734817 23.16789372 48.25879643 28.8984375 50.5078125 C32.03297217 52.01586318 33.86384335 53.27189633 36 56 C36.78185511 58.76075736 36.66907763 61.21503583 36 64 C32.68469931 67.59157575 29.63360984 68.80205187 24.85620117 69.16113281 C-1.71310724 69.64344638 -1.71310724 69.64344638 -11 65 C-11.18175781 66.45019531 -11.18175781 66.45019531 -11.3671875 67.9296875 C-12.32270192 75.35329954 -13.38214931 82.68524956 -15 90 C-5.01371067 90.91978981 4.98977425 91.15967776 15.01318359 91.23217773 C16.4012602 91.24389214 17.78930438 91.26082675 19.17724609 91.28344727 C31.05091464 91.46552356 41.77209723 89.88244732 53 86 C51.71937515 87.7074998 50.38232443 89.37373596 49 91 C48.34 91 47.68 91 47 91 C47 91.66 47 92.32 47 93 C26.2485966 101.15122592 -1.3367769 104.22107437 -23 97 C-22.48758893 90.97099313 -21.930215 84.97995357 -21 79 C-21.66 79.99 -22.32 80.98 -23 82 C-22.37679879 75.56025419 -21.35991738 69.32427599 -20 63 C-21.18142578 63.39832031 -21.18142578 63.39832031 -22.38671875 63.8046875 C-37.76245694 68.79042982 -55.46026188 72.3531408 -71 66 C-75.1189877 63.26907242 -78.41394684 60.75815947 -80 56 C-80 53.03 -80 50.06 -80 47 C-59.21 46.67 -38.42 46.34 -17 46 C-14.47699277 33.2355061 -14.47699277 33.2355061 -13.3125 20.5 C-13.27833984 19.76136719 -13.24417969 19.02273437 -13.20898438 18.26171875 C-13.1292808 16.50824015 -13.0629587 14.75415964 -13 13 C-12.67 13 -12.34 13 -12 13 C-11.67 19.6 -11.34 26.2 -11 33 C-11.061875 30.710625 -11.12375 28.42125 -11.1875 26.0625 C-11.24678156 15.2558208 -9.10512809 9.5162161 -1.64453125 1.65234375 C-0.83048828 0.83443359 -0.83048828 0.83443359 0 0 Z " fill="#0178D0" transform="translate(457,229)"/>
<path d="M0 0 C4.19826665 3.19068266 6.46295531 6.38886593 8.125 11.375 C9.29701101 25.23867785 9.15020596 37.65638747 0 48.75 C-4.86561093 53.75120992 -10.13221276 57.96191853 -17.296875 58.5859375 C-22.38371413 58.26160883 -26.00793152 56.79240936 -29.875 53.375 C-35.93857735 45.0181466 -35.74616796 35.29148637 -34.875 25.375 C-32.64511442 15.19508756 -27.39703446 6.41392419 -18.875 0.375 C-13.38168515 -2.89129532 -5.66359252 -2.9294444 0 0 Z " fill="#DC2C02" transform="translate(730.875,238.625)"/>
<path d="M0 0 C0.66 0.33 1.32 0.66 2 1 C1.61328125 1.52207031 1.2265625 2.04414063 0.828125 2.58203125 C-9.61798699 17.34621428 -12.1649191 35.48127701 -9.6953125 53.18408203 C-7.42811882 64.88731268 -1.69992212 74.10342417 8 81 C16.60518432 86.1658511 25.07491589 88.29704295 35 89 C36.06927734 89.08121094 36.06927734 89.08121094 37.16015625 89.1640625 C49.257737 89.62057498 61.81897466 87.18335807 72.71484375 81.98828125 C75 81 75 81 78 81 C60.44482297 94.68420956 42.92898641 98.56538388 21 97 C8.09890687 95.22386231 -3.41121387 89.31402938 -11.56640625 79.0234375 C-20.26889222 65.98269732 -20.8734964 48.4484964 -18.60302734 33.36230469 C-17.67440123 28.82215229 -16.43217031 24.40520244 -15 20 C-16.89575251 19.97278824 -18.79161979 19.95350864 -20.6875 19.9375 C-22.27111328 19.92009766 -22.27111328 19.92009766 -23.88671875 19.90234375 C-26.72410262 19.99134575 -29.2438919 20.35060162 -32 21 C-30.64844718 16.57673622 -28.80109562 14.59587018 -25 12 C-21.89936477 10.96645492 -19.68555932 10.86635004 -16.4375 10.875 C-15.46683594 10.87242187 -14.49617187 10.86984375 -13.49609375 10.8671875 C-11 11 -11 11 -9 12 C-8.61714844 11.14148438 -8.61714844 11.14148438 -8.2265625 10.265625 C-6.86912841 7.75826267 -5.28025896 5.8669544 -3.375 3.75 C-2.74335937 3.04359375 -2.11171875 2.3371875 -1.4609375 1.609375 C-0.97882812 1.07828125 -0.49671875 0.5471875 0 0 Z " fill="#032E88" transform="translate(671,233)"/>
<path d="M0 0 C0 4.68893118 -2.69728484 8.44300277 -4.89257812 12.4921875 C-9.94607085 22.17263962 -11.54345347 31.51602069 -11.4375 42.375 C-11.42920166 43.47263672 -11.42090332 44.57027344 -11.41235352 45.70117188 C-11.1308024 59.2076098 -8.17179309 69.13419917 1.7734375 78.70703125 C14.60596756 89.4008063 32.94165937 91.21911485 49 90 C53.68302334 89.44646715 58.34275857 88.75568469 62.99389648 87.97973633 C63.84669189 87.84075928 64.6994873 87.70178223 65.578125 87.55859375 C66.33512695 87.42767334 67.09212891 87.29675293 67.87207031 87.16186523 C70.15022822 86.98857259 71.82957897 87.32643166 74 88 C73 89 73 89 69.9375 89.0625 C68.968125 89.041875 67.99875 89.02125 67 89 C66.67 90.65 66.34 92.3 66 94 C64.16830682 94.48539869 62.33453941 94.96297186 60.5 95.4375 C59.4790625 95.70433594 58.458125 95.97117187 57.40625 96.24609375 C38.8228678 100.35915885 14.59420144 100.85065319 -2.046875 90.40234375 C-12.60270016 82.82326128 -18.12209559 73.79831759 -20.57421875 61.00390625 C-21.30149309 55.55447038 -21.10482218 50.0481062 -21.0625 44.5625 C-21.05798828 43.44939453 -21.05347656 42.33628906 -21.04882812 41.18945312 C-21.03711193 38.45957899 -21.02070699 35.72981826 -21 33 C-20.01 32.505 -20.01 32.505 -19 32 C-18.18658679 30.04604001 -17.44929272 28.06014621 -16.75 26.0625 C-12.87774537 15.73272454 -7.58610345 7.97118484 0 0 Z " fill="#02318D" transform="translate(358,231)"/>
<path d="M0 0 C2.31 0 4.62 0 7 0 C4.45112241 15.70190974 1.79098538 31.37554113 -1.11328125 47.015625 C-1.37796652 48.44526311 -1.64260467 49.87490994 -1.90719604 51.30456543 C-2.98140493 57.10260313 -4.05803819 62.90015765 -5.14770508 68.6953125 C-5.82901499 72.3205975 -6.50152356 75.94742423 -7.16850853 79.57537079 C-7.41920395 80.92976974 -7.67308349 82.28358403 -7.93047523 83.63672638 C-10.99160302 99.59009214 -10.99160302 99.59009214 -7 115 C-3.0452692 119.91669234 1.81105107 122.79293549 8 124 C15.40022163 124.33682401 22.66626647 123.99440455 30 123 C29.67 124.98 29.34 126.96 29 129 C21.76164582 131.42723254 14.83775589 132.32167463 7.25 132.375 C6.45875732 132.38853516 5.66751465 132.40207031 4.85229492 132.41601562 C-1.55437257 132.36782003 -7.18812574 131.29750702 -12.2421875 127.16796875 C-12.78101563 126.51441406 -13.31984375 125.86085938 -13.875 125.1875 C-14.42929687 124.54167969 -14.98359375 123.89585937 -15.5546875 123.23046875 C-23.59650197 110.81999291 -17.62605108 92.78451838 -15.09765625 79.43359375 C-14.6955102 77.26475311 -14.29435809 75.09572797 -13.89414978 72.92652893 C-12.84448647 67.25286992 -11.78076286 61.5819356 -10.71417236 55.91143799 C-9.62905777 50.12690421 -8.55866011 44.33964858 -7.48632812 38.55273438 C-5.9197814 30.11515615 -4.34995412 21.67820138 -2.76586914 13.24389648 C-2.60115112 12.3623288 -2.43643311 11.48076111 -2.26672363 10.57247925 C-2.1138942 9.76118057 -1.96106476 8.9498819 -1.80360413 8.11399841 C-1.67178773 7.41188453 -1.53997133 6.70977064 -1.4041605 5.98638058 C-0.99458408 3.97338165 -0.51325425 1.98885792 0 0 Z " fill="#052E86" transform="translate(543,197)"/>
<path d="M0 0 C0.66 0 1.32 0 2 0 C0.32797762 13.62228855 -2.41149258 27.05469616 -5.0078125 40.5234375 C-5.49848657 43.08170154 -5.98886885 45.64002156 -6.47897339 48.19839478 C-7.63083117 54.20852644 -8.78601795 60.21801301 -9.94245517 66.227265 C-11.26070088 73.07822549 -12.57515309 79.92991213 -13.88931489 86.78165698 C-16.58870893 100.8552404 -19.29327541 114.92782464 -22 129 C-14.74 129.33 -7.48 129.66 0 130 C-0.66 132.31 -1.32 134.62 -2 137 C-11.57 137 -21.14 137 -31 137 C-29.74605376 128.22237632 -28.44182924 119.56085762 -26.76928711 110.86987305 C-26.5560228 109.74777435 -26.34275848 108.62567566 -26.12303162 107.46957397 C-25.42775474 103.81632009 -24.72776075 100.16399034 -24.02734375 96.51171875 C-23.53917988 93.95582824 -23.05119139 91.39990422 -22.56336975 88.84394836 C-21.54595382 83.51737539 -20.52619109 78.19125951 -19.50463867 72.86547852 C-18.32327107 66.70624038 -17.14718099 60.54601094 -15.97365373 54.38527459 C-14.84093157 48.43973506 -13.70387284 42.49503443 -12.56500435 36.55066872 C-12.08177238 34.02579111 -11.59973973 31.50068367 -11.11890984 28.97534752 C-10.45011225 25.46550316 -9.776391 21.95664006 -9.10131836 18.44799805 C-8.90233948 17.39825302 -8.7033606 16.348508 -8.49835205 15.26695251 C-8.31475632 14.31818237 -8.13116058 13.36941223 -7.94200134 12.39189148 C-7.78328521 11.56294719 -7.62456907 10.7340029 -7.46104336 9.87993908 C-7 8 -7 8 -6 7 C-4.00041636 6.95919217 -1.99954746 6.95745644 0 7 C0 4.69 0 2.38 0 0 Z " fill="#012F8A" transform="translate(108,190)"/>
<path d="M0 0 C0.33 0.66 0.66 1.32 1 2 C0.2578125 3.92578125 0.2578125 3.92578125 -0.875 6.3125 C-4.96247022 16.25963033 -4.57785597 25.00276149 -1.30078125 35.125 C1.79514309 41.9676436 6.37635722 44.9952349 13 48 C23.20631986 51.77867567 33.80340503 50.11787162 44 47 C49.11610424 44.54587922 53.47059939 41.39705046 58 38 C57.67 41.63 57.34 45.26 57 49 C63.27 49 69.54 49 76 49 C76 51.31 76 53.62 76 56 C67.09 56 58.18 56 49 56 C49 53.03 49 50.06 49 47 C48.29875 47.47050781 47.5975 47.94101562 46.875 48.42578125 C34.44983719 56.57979434 21.91700131 60.37734334 6.92578125 57.38671875 C-0.86704402 54.91953418 -6.41725926 50.69722253 -10.37890625 43.4921875 C-14.13099521 34.52377974 -14.39125796 25.24943299 -11.25 16.0625 C-8.56941589 9.58207034 -5.10110492 4.81771021 0 0 Z " fill="#012F8D" transform="translate(244,271)"/>
<path d="M0 0 C1.98 0 3.96 0 6 0 C5.42902422 10.51617096 3.33220797 20.77573651 1.40234375 31.10546875 C1.04461474 33.04022839 0.68732716 34.97506969 0.33045959 36.9099884 C-0.60385371 41.96921548 -1.54410803 47.02732027 -2.48565674 52.08520508 C-3.44784515 57.25990752 -4.40433776 62.43566233 -5.36132812 67.61132812 C-7.23535211 77.74191808 -9.11618788 87.8712256 -11 98 C-3.08 98 4.84 98 13 98 C12.67 100.31 12.34 102.62 12 105 C1.44 105 -9.12 105 -20 105 C-15.48453732 79.66323719 -10.92039507 54.336471 -6.16595459 29.04330444 C-5.72179099 26.68006995 -5.27863586 24.31664569 -4.83648682 21.95303345 C-4.21713223 18.64515532 -3.59365313 15.33808383 -2.96875 12.03125 C-2.78371918 11.04086227 -2.59868835 10.05047455 -2.40805054 9.03007507 C-2.23665558 8.12876358 -2.06526062 7.22745209 -1.88867188 6.29882812 C-1.7403894 5.51254028 -1.59210693 4.72625244 -1.43933105 3.9161377 C-1 2 -1 2 0 0 Z " fill="#042D85" transform="translate(602,222)"/>
<path d="M0 0 C0.33 0 0.66 0 1 0 C0.44753391 10.31340082 -1.63825622 20.33439098 -3.59765625 30.44921875 C-3.95541498 32.31670906 -4.312702 34.18428979 -4.66954041 36.05195618 C-5.60355376 40.93372052 -6.54391193 45.81424113 -7.48565674 50.69451904 C-8.4480951 55.68818003 -9.40444494 60.6830065 -10.36132812 65.67773438 C-12.23497351 75.45296684 -14.11589481 85.22677819 -16 95 C-7.75 95.33 0.5 95.66 9 96 C8.34 98.31 7.68 100.62 7 103 C-3.56 103 -14.12 103 -25 103 C-22.71560536 90.00750546 -20.40184121 77.02663948 -17.921875 64.0703125 C-17.74297729 63.13551056 -17.56407959 62.20070862 -17.37976074 61.23757935 C-16.48420867 56.56457658 -15.58418876 51.89246984 -14.6796875 47.22119141 C-14.34372001 45.47559171 -14.00778125 43.72998648 -13.671875 41.984375 C-13.51789246 41.19572052 -13.36390991 40.40706604 -13.20526123 39.59451294 C-12.51659505 36.00666322 -11.9243287 32.46420694 -11.55200195 28.82910156 C-11.00595534 25.04131075 -10.06893859 22.22110585 -8.49609375 18.75 C-8.00302734 17.64785156 -7.50996094 16.54570312 -7.00195312 15.41015625 C-6.48568359 14.28480469 -5.96941406 13.15945312 -5.4375 12 C-4.91736328 10.84371094 -4.39722656 9.68742188 -3.86132812 8.49609375 C-2.58372959 5.65959057 -1.29645024 2.82792389 0 0 Z " fill="#012F89" transform="translate(209,224)"/>
<path d="M0 0 C1 2 1 2 0.44140625 3.70703125 C0.15136719 4.40183594 -0.13867188 5.09664062 -0.4375 5.8125 C-2.97487098 13.06213136 -3.25956665 21.26817342 -0.6875 28.5625 C0.69128025 31.37112643 2.05056862 33.5864183 4 36 C4 36.66 4 37.32 4 38 C4.56976563 38.27328125 5.13953125 38.5465625 5.7265625 38.828125 C8.03691407 40.01902787 10.1810806 41.35727301 12.375 42.75 C17.64831213 45.96734817 23.16789372 48.25879643 28.8984375 50.5078125 C32.03297217 52.01586318 33.86384335 53.27189633 36 56 C36.78169491 58.7601917 36.67310172 61.21632507 36 64 C33.6875 66.5 33.6875 66.5 31 68 C30.01 68 29.02 68 28 68 C27.8453125 66.67935547 27.8453125 66.67935547 27.6875 65.33203125 C25.01287068 60.05087661 20.28136989 58.9188573 15 56.6875 C4.90054903 52.13176518 -4.03351064 47.96603803 -9.625 37.875 C-12.61902617 29.78687244 -12.33557044 19.10633892 -9.19921875 11.07421875 C-6.76762802 6.86843803 -3.41047462 3.4266764 0 0 Z " fill="#012F8C" transform="translate(457,229)"/>
<path d="M0 0 C0.33 0 0.66 0 1 0 C1.65315429 12.31731381 2.30517951 24.63468681 2.95575714 36.95213699 C3.25787082 42.67140876 3.56037566 48.39065928 3.86376953 54.10986328 C4.15646125 59.62759405 4.44813189 65.14537793 4.73908997 70.66320038 C4.85036232 72.76997559 4.96200468 74.87673129 5.07402039 76.9834671 C5.23066046 79.93065929 5.38599347 82.87791764 5.54101562 85.82519531 C5.58776932 86.69913437 5.63452301 87.57307343 5.68269348 88.47349548 C5.72476425 89.27833878 5.76683502 90.08318207 5.81018066 90.91241455 C5.84705238 91.60929005 5.8839241 92.30616554 5.92191315 93.02415848 C6.00058182 95.01472179 6 97.00788277 6 99 C13.59 99 21.18 99 29 99 C28.34 101.31 27.68 103.62 27 106 C17.76 106 8.52 106 -1 106 C-1.54735747 96.41165065 -2.08780707 86.82297827 -2.61641788 77.23357677 C-2.86219497 72.77989668 -3.1108854 68.32642076 -3.36645508 63.87329102 C-3.61340988 59.56833228 -3.85242287 55.26299666 -4.08614922 50.95730019 C-4.17626081 49.32228383 -4.26913702 47.68741721 -4.36494637 46.05272484 C-4.98718319 35.39719235 -5.2156225 25.06863717 -3.02734375 14.55078125 C-2.85009766 13.68388672 -2.67285156 12.81699219 -2.49023438 11.92382812 C-2.21663086 10.6312207 -2.21663086 10.6312207 -1.9375 9.3125 C-1.75123047 8.40822266 -1.56496094 7.50394531 -1.37304688 6.57226562 C-0.92074302 4.38033155 -0.463036 2.18968725 0 0 Z " fill="#02308B" transform="translate(133,221)"/>
<path d="M0 0 C0.48352876 7.73646011 -1.32357772 13.26794592 -6.25 19.3125 C-10.86623192 24.21784875 -15.36485961 26.09894369 -22.0625 26.5 C-25.42082799 26.37201494 -27.78189647 25.99421736 -30.5625 24.0625 C-33.73682065 20.07425097 -34.50256012 17.05159566 -34 12 C-32.67849925 7.61502025 -30.53525518 5.39608883 -26.875 2.6875 C-19.82178712 -0.80909277 -7.31281514 -3.65640757 0 0 Z " fill="#017AD2" transform="translate(304,273)"/>
<path d="M0 0 C0.33 0 0.66 0 1 0 C1.16335585 5.23419357 0.60552037 9.86306192 -0.5 14.9375 C-0.71462891 15.96327148 -0.71462891 15.96327148 -0.93359375 17.00976562 C-1.28283771 18.67449514 -1.64052946 20.33744875 -2 22 C-0.96101563 21.79503906 0.07796875 21.59007812 1.1484375 21.37890625 C38.24543166 14.16362111 38.24543166 14.16362111 49.625 21.75 C51.37093546 24.60698531 51.86339642 26.65321219 52 30 C51.34 31.65 50.68 33.3 50 35 C42.41 34.67 34.82 34.34 27 34 C27 33.67 27 33.34 27 33 C31.95 32.67 36.9 32.34 42 32 C36.99634467 26.99634467 31.56456396 26.74489094 24.77929688 26.671875 C23.90337891 26.67703125 23.02746094 26.6821875 22.125 26.6875 C20.75311523 26.68943359 20.75311523 26.68943359 19.35351562 26.69140625 C11.86886392 26.79528761 4.77836879 27.80146254 -2.53125 29.34375 C-6 30 -6 30 -11 30 C-9.68 22.41 -8.36 14.82 -7 7 C-5.02 6.34 -3.04 5.68 -1 5 C-0.67 3.35 -0.34 1.7 0 0 Z " fill="#04328B" transform="translate(258,218)"/>
<path d="M0 0 C2.97 0.495 2.97 0.495 6 1 C5.85764543 2.72945653 5.71095618 4.45855654 5.5625 6.1875 C5.48128906 7.15042969 5.40007812 8.11335938 5.31640625 9.10546875 C5.02333849 11.78649602 4.57296246 14.3662986 4 17 C13.98628933 17.91978981 23.98977425 18.15967776 34.01318359 18.23217773 C35.4012602 18.24389214 36.78930438 18.26082675 38.17724609 18.28344727 C50.05091464 18.46552356 60.77209723 16.88244732 72 13 C70.71937515 14.7074998 69.38232443 16.37373596 68 18 C67.34 18 66.68 18 66 18 C66 18.66 66 19.32 66 20 C45.2485966 28.15122592 17.6632231 31.22107437 -4 24 C-3.52087184 15.75569133 -2.02214499 7.99955473 0 0 Z " fill="#02318C" transform="translate(438,302)"/>
<path d="M0 0 C2.69113748 1.7342886 4.17850534 3.53924239 5.95703125 6.20703125 C5.95703125 10.16703125 5.95703125 14.12703125 5.95703125 18.20703125 C-5.59296875 18.20703125 -17.14296875 18.20703125 -29.04296875 18.20703125 C-25.64296875 8.00703125 -25.64296875 8.00703125 -22.66796875 4.76953125 C-22.10335938 4.13144531 -21.53875 3.49335938 -20.95703125 2.8359375 C-15.49774951 -1.81002267 -6.61933613 -2.56926431 0 0 Z " fill="#047CD3" transform="translate(409.04296875,236.79296875)"/>
<path d="M0 0 C4.19826665 3.19068266 6.46295531 6.38886593 8.125 11.375 C9.12447142 23.19771298 9.71051337 35.93562246 2.30078125 45.8046875 C0.64272986 47.74860982 -1.05136081 49.58721888 -2.875 51.375 C-3.205 50.715 -3.535 50.055 -3.875 49.375 C-3.13737207 47.4638731 -2.39762467 45.55352314 -1.64453125 43.6484375 C-0.38767306 39.93528286 -0.1021116 36.26929604 0.125 32.375 C0.18945312 31.65441406 0.25390625 30.93382812 0.3203125 30.19140625 C0.66470641 23.75124021 -0.89452196 18.08447825 -3.875 12.375 C-7.83212226 8.41787774 -11.90798417 7.63557989 -17.328125 7.2578125 C-21.31078764 7.44106385 -24.27302905 8.70742085 -27.875 10.375 C-25.55588797 5.0970209 -21.44742134 1.90454782 -16.5625 -1 C-10.96608835 -2.30149108 -5.22279863 -2.70144757 0 0 Z " fill="#032E88" transform="translate(730.875,238.625)"/>
<path d="M0 0 C1.02351563 -0.00128906 2.04703125 -0.00257813 3.1015625 -0.00390625 C4.16890625 -0.00003906 5.23625 0.00382813 6.3359375 0.0078125 C7.41101563 0.00394531 8.48609375 0.00007812 9.59375 -0.00390625 C10.6146875 -0.00261719 11.635625 -0.00132812 12.6875 0 C13.62674316 0.00112793 14.56598633 0.00225586 15.53369141 0.00341797 C17.7109375 0.1328125 17.7109375 0.1328125 18.7109375 1.1328125 C18.53458298 3.82364122 18.09257829 6.46132696 17.7109375 9.1328125 C14.7409375 8.6378125 14.7409375 8.6378125 11.7109375 8.1328125 C11.7109375 13.4128125 11.7109375 18.6928125 11.7109375 24.1328125 C7.26128285 22.64959428 2.97619767 21.10510151 -1.3515625 19.3203125 C-2.53878906 18.83949219 -3.72601563 18.35867187 -4.94921875 17.86328125 C-8.50645698 16.02017419 -10.75482981 14.22648901 -13.2890625 11.1328125 C-13.3515625 7.5078125 -13.3515625 7.5078125 -12.2890625 4.1328125 C-8.65309462 0.49684462 -4.97440936 0.00595942 0 0 Z " fill="#0178D0" transform="translate(500.2890625,236.8671875)"/>
<path d="M0 0 C1.4540625 0.0309375 1.4540625 0.0309375 2.9375 0.0625 C1.03647078 6.06180067 -1.14404615 11.83931961 -3.6875 17.59375 C-4.03128189 18.38007309 -4.37506378 19.16639618 -4.72926331 19.97654724 C-5.83660809 22.50685381 -6.94945639 25.03469581 -8.0625 27.5625 C-8.82707528 29.30657574 -9.59131476 31.05079872 -10.35522461 32.79516602 C-12.23873861 37.09351844 -14.12678059 41.38986165 -16.01678467 45.68536377 C-17.2795334 48.55586368 -18.54042701 51.42717572 -19.80117798 54.29855347 C-22.54880901 60.55591517 -25.30223718 66.81070051 -28.0625 73.0625 C-28.3925 73.0625 -28.7225 73.0625 -29.0625 73.0625 C-29.0625 61.5125 -29.0625 49.9625 -29.0625 38.0625 C-28.7325 38.0625 -28.4025 38.0625 -28.0625 38.0625 C-27.7325 43.3425 -27.4025 48.6225 -27.0625 54.0625 C-26.24007812 52.16371094 -25.41765625 50.26492187 -24.5703125 48.30859375 C-22.85191019 44.34126069 -21.13307997 40.37411399 -19.41308594 36.4074707 C-18.81444979 35.02685691 -18.215817 33.64624167 -17.6171875 32.265625 C-17.31756104 31.57462204 -17.01793457 30.88361908 -16.70922852 30.17167664 C-14.80449308 25.77774262 -12.90476211 21.38167768 -11.0078125 16.984375 C-10.10939153 14.90624285 -9.21095503 12.82811742 -8.3125 10.75 C-7.89500488 9.77925537 -7.47750977 8.80851074 -7.04736328 7.80834961 C-6.66563965 6.92671143 -6.28391602 6.04507324 -5.890625 5.13671875 C-5.5596582 4.36932373 -5.22869141 3.60192871 -4.88769531 2.8112793 C-3.51273534 -0.10257819 -3.47821643 0.07098401 0 0 Z " fill="#023187" transform="translate(191.0625,196.9375)"/>
<path d="M0 0 C18.81 0 37.62 0 57 0 C56.34 2.31 55.68 4.62 55 7 C27.775 7.495 27.775 7.495 0 8 C0 5.36 0 2.72 0 0 Z " fill="#002B83" transform="translate(377,276)"/>
<path d="M0 0 C2.68093838 1.74294257 4.17237673 3.54567448 5.94921875 6.2109375 C6.14453125 9.12890625 6.14453125 9.12890625 6.07421875 12.3984375 C6.05617188 13.48511719 6.038125 14.57179687 6.01953125 15.69140625 C5.99632812 16.52285156 5.973125 17.35429687 5.94921875 18.2109375 C3.96921875 18.2109375 1.98921875 18.2109375 -0.05078125 18.2109375 C-0.36208984 17.39689453 -0.36208984 17.39689453 -0.6796875 16.56640625 C-2.41495169 12.53681786 -3.47051937 10.56802174 -7.30078125 8.2109375 C-13.68245136 6.5091588 -18.81917295 6.71829418 -25.05078125 9.2109375 C-23.49067547 4.99865189 -20.56624195 2.86546905 -17.05078125 0.2109375 C-11.83824969 -1.52657302 -5.20402633 -2.00231108 0 0 Z " fill="#022F88" transform="translate(409.05078125,236.7890625)"/>
<path d="M0 0 C0.44950807 7.19212905 -1.03377807 12.8811596 -5.6875 18.5 C-6.450625 19.325 -7.21375 20.15 -8 21 C-9.49341969 18.01316063 -8.40648676 16.04839022 -7.5625 12.875 C-7.27503906 11.77929688 -6.98757813 10.68359375 -6.69140625 9.5546875 C-6.46324219 8.71164062 -6.23507812 7.86859375 -6 7 C-19.81223802 7.28053169 -19.81223802 7.28053169 -33 11 C-32.1338402 7.21055086 -30.62670748 5.43059217 -27.5 3.3125 C-20.43415186 -0.73604002 -7.62987095 -3.81493548 0 0 Z " fill="#043089" transform="translate(304,273)"/>
<path d="M0 0 C1.02351563 -0.00128906 2.04703125 -0.00257813 3.1015625 -0.00390625 C4.16890625 -0.00003906 5.23625 0.00382813 6.3359375 0.0078125 C7.41101563 0.00394531 8.48609375 0.00007812 9.59375 -0.00390625 C10.6146875 -0.00261719 11.635625 -0.00132812 12.6875 0 C13.62674316 0.00112793 14.56598633 0.00225586 15.53369141 0.00341797 C17.7109375 0.1328125 17.7109375 0.1328125 18.7109375 1.1328125 C18.53458298 3.82364122 18.09257829 6.46132696 17.7109375 9.1328125 C16.79054688 9.060625 15.87015625 8.9884375 14.921875 8.9140625 C1.81981058 7.84047047 1.81981058 7.84047047 -11.2890625 8.1328125 C-11.9490625 8.7928125 -12.6090625 9.4528125 -13.2890625 10.1328125 C-12.79959735 4.62632952 -12.79959735 4.62632952 -10.4140625 2.3203125 C-6.83702515 0.32137986 -4.02477602 0.00482174 0 0 Z " fill="#042F85" transform="translate(500.2890625,236.8671875)"/>
<path d="M0 0 C2.375 1.625 2.375 1.625 4 4 C4.56416593 7.9491615 4.65243688 10.0464384 2.375 13.375 C-0.56278062 15.38506043 -2.4396496 15.92733979 -6 16 C-10.56521739 13.86956522 -10.56521739 13.86956522 -12 11 C-12.45723173 4.8273717 -12.45723173 4.8273717 -10.6875 1.625 C-7.30165512 -1.63544322 -4.27527223 -1.1342559 0 0 Z " fill="#AF2809" transform="translate(780,304)"/>
<path d="M0 0 C3.41639845 1.9739191 4.72268412 3.18538459 6 6.9375 C6 10.5835398 5.16463754 12.11381662 3 15 C1 17 1 17 -2.875 17.375 C-5.84068565 17.28349972 -6.86650384 17.08557446 -9.4375 15.4375 C-11.53567796 12.16434238 -12 9.88582276 -12 6 C-8.68791982 0.74635558 -6.16206486 -0.60412401 0 0 Z M-7.875 4.6875 C-9.18683432 6.95544331 -9.18683432 6.95544331 -9 9.5625 C-7.69121219 12.75267028 -6.03871965 13.51959812 -3 15 C0.86279128 13.11860534 0.86279128 13.11860534 3.0625 9.5625 C3.23413684 6.87862088 3.23413684 6.87862088 1.375 4.6875 C-0.87812571 2.84095841 -0.87812571 2.84095841 -3.5625 2.5 C-6.10359947 2.80705644 -6.10359947 2.80705644 -7.875 4.6875 Z " fill="#F45436" transform="translate(833,390)"/>
<path d="M0 0 C0 4.10752763 -1.93223782 6.9604659 -3.8125 10.5 C-9.91305832 22.42043243 -11.68485883 33.80217157 -13 47 C-13.33 47 -13.66 47 -14 47 C-14.13711613 39.97660718 -14.02354874 32.96265875 -13 26 C-12.67 25.67 -12.34 25.34 -12 25 C-11.8386942 21.93518979 -12.01849759 19.94450722 -13 17 C-9.87855668 10.61866225 -4.77669919 5.18653433 0 0 Z " fill="#052A72" transform="translate(358,231)"/>
<path d="M0 0 C2.375 1.625 2.375 1.625 4 4 C4.56416593 7.9491615 4.65243688 10.0464384 2.375 13.375 C-0.56278062 15.38506043 -2.4396496 15.92733979 -6 16 C-10.56521739 13.86956522 -10.56521739 13.86956522 -12 11 C-12.45723173 4.8273717 -12.45723173 4.8273717 -10.6875 1.625 C-7.30165512 -1.63544322 -4.27527223 -1.1342559 0 0 Z M-8.25 2.0625 C-10.33343223 4.00652406 -10.33343223 4.00652406 -10.5 7.5 C-10.31084119 10.96784402 -10.31084119 10.96784402 -8.375 13 C-5.16403572 14.35198496 -3.30053834 14.00451167 0 13 C2.36139302 10.10538099 2.36139302 10.10538099 1.8125 6.4375 C1.35160238 2.74174248 1.35160238 2.74174248 -2 1 C-5.81187651 0.71532913 -5.81187651 0.71532913 -8.25 2.0625 Z " fill="#FEF9F8" transform="translate(780,304)"/>
<path d="M0 0 C0.33 0 0.66 0 1 0 C0.49451662 8.54092606 -1.06734291 16.67377292 -3 25 C-3.33 25 -3.66 25 -4 25 C-4 22.36 -4 19.72 -4 17 C-4.66 17 -5.32 17 -6 17 C-6.28875 18.11375 -6.5775 19.2275 -6.875 20.375 C-8 24 -8 24 -10 26 C-9.385789 22.38549563 -8.39633734 19.27609839 -6.93359375 15.91796875 C-6.53076172 14.98662109 -6.12792969 14.05527344 -5.71289062 13.09570312 C-5.29201172 12.13599609 -4.87113281 11.17628906 -4.4375 10.1875 C-4.01275391 9.20845703 -3.58800781 8.22941406 -3.15039062 7.22070312 C-2.10460494 4.81187093 -1.05435216 2.40509197 0 0 Z " fill="#072766" transform="translate(209,224)"/>
<path d="M0 0 C0.2475 1.11375 0.495 2.2275 0.75 3.375 C1.65642183 6.95693939 1.65642183 6.95693939 3.8125 8.625 C6.98891729 9.16952868 8.41466992 7.76891006 11 6 C11.66 6 12.32 6 13 6 C12.42655063 8.86724686 12.1385485 9.8614515 10 12 C3.04932735 12.67264574 3.04932735 12.67264574 -0.4375 10.4375 C-2.43656214 7.31896306 -2.71860476 4.65813817 -3 1 C-1 0 -1 0 0 0 Z " fill="#F15133" transform="translate(824,395)"/>
<path d="M0 0 C2.97 0 5.94 0 9 0 C8.67 2.31 8.34 4.62 8 7 C5.03 7 2.06 7 -1 7 C-0.67 4.69 -0.34 2.38 0 0 Z " fill="#032365" transform="translate(574,240)"/>
<path d="M0 0 C0.33 0 0.66 0 1 0 C1 6.27 1 12.54 1 19 C0.34 18.34 -0.32 17.68 -1 17 C-1.12117187 17.92683594 -1.24234375 18.85367188 -1.3671875 19.80859375 C-1.61855469 21.60490234 -1.61855469 21.60490234 -1.875 23.4375 C-2.03742188 24.63246094 -2.19984375 25.82742187 -2.3671875 27.05859375 C-2.68042969 28.51458984 -2.68042969 28.51458984 -3 30 C-3.66 30.33 -4.32 30.66 -5 31 C-4.51739376 20.47918394 -2.17218433 10.27221291 0 0 Z " fill="#0E2B62" transform="translate(133,221)"/>
<path d="M0 0 C0.33 0 0.66 0 1 0 C0.67 3.63 0.34 7.26 0 11 C0.66 11 1.32 11 2 11 C1.31583566 15.17576168 -0.01365009 18.88080407 -1.5625 22.8125 C-2.01753906 23.97394531 -2.47257813 25.13539063 -2.94140625 26.33203125 C-3.29074219 27.21246094 -3.64007813 28.09289062 -4 29 C-5.23322843 25.41651556 -4.7721117 22.81302176 -4.00390625 19.140625 C-3.77509766 18.02558594 -3.54628906 16.91054688 -3.31054688 15.76171875 C-3.06369141 14.60285156 -2.81683594 13.44398438 -2.5625 12.25 C-2.19801758 10.48849609 -2.19801758 10.48849609 -1.82617188 8.69140625 C-1.22519202 5.79256223 -0.61619498 2.8956412 0 0 Z " fill="#0470BF" transform="translate(234,268)"/>
<path d="M0 0 C0.66 0.33 1.32 0.66 2 1 C0.29908111 2.30141481 -1.41110541 3.59072165 -3.125 4.875 C-4.07632813 5.59429687 -5.02765625 6.31359375 -6.0078125 7.0546875 C-8.97248274 8.98211019 -11.61122655 10.04470778 -15 11 C-15 10.34 -15 9.68 -15 9 C-16.98 9 -18.96 9 -21 9 C-16.31349768 6.46294611 -11.23870518 4.94784396 -6.21484375 3.21875 C-2.91487689 2.10483524 -2.91487689 2.10483524 0 0 Z " fill="#092465" transform="translate(747,313)"/>
<path d="M0 0 C0.66 0.33 1.32 0.66 2 1 C-3.31345336 7.29872948 -8.84519771 13.50906121 -15 19 C-15.66 19 -16.32 19 -17 19 C-15.60652624 15.84795019 -13.97514921 13.73828227 -11.5234375 11.328125 C-10.51796875 10.33232422 -10.51796875 10.33232422 -9.4921875 9.31640625 C-8.79351562 8.63449219 -8.09484375 7.95257813 -7.375 7.25 C-6.66859375 6.55261719 -5.9621875 5.85523437 -5.234375 5.13671875 C-3.49401297 3.41987512 -1.74915019 1.70788168 0 0 Z " fill="#1396EB" transform="translate(83,66)"/>
<path d="M0 0 C0.99 0 1.98 0 3 0 C4.20220203 3.53094302 3.79532349 6.12898982 3.0625 9.75 C2.86785156 10.73484375 2.67320312 11.7196875 2.47265625 12.734375 C2.31667969 13.48203125 2.16070313 14.2296875 2 15 C1.34 15 0.68 15 0 15 C0 14.34 0 13.68 0 13 C-0.66 13 -1.32 13 -2 13 C-1.34 8.71 -0.68 4.42 0 0 Z " fill="#D22E09" transform="translate(583,300)"/>
<path d="M0 0 C0.33 0 0.66 0 1 0 C2.81305261 21.81378535 2.81305261 21.81378535 -1 30 C-3.53241503 26.20137745 -2.95521938 25.03319515 -2.1875 20.625 C-1.07856714 13.75677067 -0.43808517 6.94019132 0 0 Z " fill="#066BB6" transform="translate(340,237)"/>
<path d="M0 0 C7.59 0 15.18 0 23 0 C22.34 1.32 21.68 2.64 21 4 C21 3.34 21 2.68 21 2 C14.4 2 7.8 2 1 2 C0.67 1.34 0.34 0.68 0 0 Z " fill="#002267" transform="translate(139,320)"/>
<path d="M0 0 C1 2 1 2 0.29296875 4.2421875 C-0.07183594 5.11101562 -0.43664062 5.97984375 -0.8125 6.875 C-1.16957031 7.73867188 -1.52664062 8.60234375 -1.89453125 9.4921875 C-2.86758977 11.6996206 -3.89750962 13.85488298 -5 16 C-5.33 14.02 -5.66 12.04 -6 10 C-6.99 10.495 -6.99 10.495 -8 11 C-6.52670958 5.99081256 -3.72484762 3.48192278 0 0 Z " fill="#04286E" transform="translate(244,271)"/>
<path d="M0 0 C1.98 0 3.96 0 6 0 C6 2.64 6 5.28 6 8 C4 8 2 8 0 8 C0 5.36 0 2.72 0 0 Z " fill="#F75230" transform="translate(827,395)"/>
<path d="M0 0 C1.875 0.3125 1.875 0.3125 4 1 C6.48038907 4.7205836 6.46337203 6.59796571 6 11 C3.78136971 13.90717073 2.48055071 14.83981643 -1 16 C-1 15.01 -1 14.02 -1 13 C-0.01 12.67 0.98 12.34 2 12 C2.76522801 8.64541845 2.76522801 8.64541845 3 5 C1.66621425 3.1645201 1.66621425 3.1645201 0 2 C0 1.34 0 0.68 0 0 Z " fill="#FDF1F0" transform="translate(778,304)"/>
<path d="M0 0 C0.33 0 0.66 0 1 0 C0.88529863 1.75070517 0.75780972 3.50057536 0.625 5.25 C0.55539063 6.22453125 0.48578125 7.1990625 0.4140625 8.203125 C0.01534751 10.89633189 -0.63507063 12.66963279 -2 15 C-2.99 14.67 -3.98 14.34 -5 14 C-3.45730076 9.27934033 -1.92205381 4.58335908 0 0 Z " fill="#092356" transform="translate(209,224)"/>
<path d="M0 0 C0.66 0.33 1.32 0.66 2 1 C1.06398754 2.41764994 0.1261208 3.83407568 -0.8125 5.25 C-1.33457031 6.03890625 -1.85664062 6.8278125 -2.39453125 7.640625 C-3.87134122 9.81092481 -5.40689873 11.91413768 -7 14 C-7.66 12.68 -8.32 11.36 -9 10 C-6.03 6.7 -3.06 3.4 0 0 Z " fill="#0D225A" transform="translate(671,233)"/>
<path d="M0 0 C8.09860351 -0.39541102 14.1410977 -0.46311745 20.4375 5.1875 C20.953125 5.785625 21.46875 6.38375 22 7 C21.21625 6.731875 20.4325 6.46375 19.625 6.1875 C9.96455627 2.97966091 9.96455627 2.97966091 0 1 C0 0.67 0 0.34 0 0 Z " fill="#0767AC" transform="translate(406,211)"/>
<path d="M0 0 C1.65 0 3.3 0 5 0 C6 3 6 3 6 7 C4 7 2 7 0 7 C0 4.69 0 2.38 0 0 Z " fill="#DAC5C1" transform="translate(773,308)"/>
<path d="M0 0 C0.66 0.33 1.32 0.66 2 1 C0.88340838 4.14041394 0.04378688 6.43796091 -2.98046875 8.06640625 C-4.95932768 8.79140412 -6.97867741 9.40354415 -9 10 C-7.61811547 6.78956118 -6.07578097 4.95063635 -3.375 2.75 C-2.74335937 2.22921875 -2.11171875 1.7084375 -1.4609375 1.171875 C-0.73777344 0.59179688 -0.73777344 0.59179688 0 0 Z " fill="#092566" transform="translate(712,239)"/>
<path d="M0 0 C0.66 0.33 1.32 0.66 2 1 C-0.04490065 3.26597099 -1.3237738 4.6441803 -4 6 C-7.75547372 6.14424316 -11.30801081 5.66350695 -15 5 C-15 4.67 -15 4.34 -15 4 C-14.08476562 3.79503906 -13.16953125 3.59007812 -12.2265625 3.37890625 C-11.03804688 3.10949219 -9.84953125 2.84007812 -8.625 2.5625 C-6.84996094 2.16224609 -6.84996094 2.16224609 -5.0390625 1.75390625 C-2.10505419 1.14365305 -2.10505419 1.14365305 0 0 Z " fill="#052565" transform="translate(290,317)"/>
<path d="M0 0 C2.31 0 4.62 0 7 0 C7 1.65 7 3.3 7 5 C4.69 4.67 2.38 4.34 0 4 C0 2.68 0 1.36 0 0 Z " fill="#003093" transform="translate(575,242)"/>
<path d="M0 0 C0.33 0 0.66 0 1 0 C1.05402274 2.10388569 1.09280256 4.20816714 1.125 6.3125 C1.14820313 7.48425781 1.17140625 8.65601563 1.1953125 9.86328125 C0.94574001 13.87141547 -0.79981862 15.69972794 -3 19 C-2.48446121 12.50149789 -1.53332291 6.33773468 0 0 Z " fill="#096AB0" transform="translate(335,276)"/>
<path d="M0 0 C0.66 0.33 1.32 0.66 2 1 C1.67 7.6 1.34 14.2 1 21 C0.67 21 0.34 21 0 21 C-0.1963696 18.62543835 -0.38231294 16.25079981 -0.5625 13.875 C-0.61857422 13.20984375 -0.67464844 12.5446875 -0.73242188 11.859375 C-1.03625857 7.7271959 -0.85227531 4.05304259 0 0 Z " fill="#0A7CCF" transform="translate(336,268)"/>
<path d="M0 0 C0.66 1.32 1.32 2.64 2 4 C2.66 4.33 3.32 4.66 4 5 C2.43039961 8.66240092 1.06096354 9.93903646 -2 13 C-1.34 8.71 -0.68 4.42 0 0 Z " fill="#B42809" transform="translate(638,217)"/>
<path d="M0 0 C0 0.66 0 1.32 0 2 C-1.65 2.33 -3.3 2.66 -5 3 C-5 3.66 -5 4.32 -5 5 C-4.01 5.33 -3.02 5.66 -2 6 C-4.64 6.99 -7.28 7.98 -10 9 C-8.9789114 5.32408105 -8.08564783 4.0660202 -5 1.6875 C-2 0 -2 0 0 0 Z " fill="#05296A" transform="translate(281,275)"/>
<path d="M0 0 C-4.23000664 4.68322164 -8.60569379 4.60633357 -14.55078125 4.921875 C-15.76314453 4.96054687 -15.76314453 4.96054687 -17 5 C-13.86875441 3.36017707 -10.6857317 2.04844701 -7.375 0.8125 C-6.41335938 0.44769531 -5.45171875 0.08289063 -4.4609375 -0.29296875 C-2 -1 -2 -1 0 0 Z " fill="#0B2358" transform="translate(510,316)"/>
<path d="M0 0 C0.33 0 0.66 0 1 0 C1 1.98 1 3.96 1 6 C1.99 5.67 2.98 5.34 4 5 C3.01 7.97 2.02 10.94 1 14 C0.67 14 0.34 14 0 14 C0 9.38 0 4.76 0 0 Z " fill="#10295B" transform="translate(162,256)"/>
<path d="M0 0 C0.99 0 1.98 0 3 0 C1.6062718 4.43458973 -0.60582235 6.87378374 -4 10 C-3.34 8.02 -2.68 6.04 -2 4 C-1.34 4 -0.68 4 0 4 C-0.33 3.01 -0.66 2.02 -1 1 C-0.67 0.67 -0.34 0.34 0 0 Z " fill="#022363" transform="translate(299,284)"/>
<path d="M0 0 C0.33 0 0.66 0 1 0 C0.67 3.96 0.34 7.92 0 12 C-0.66 12 -1.32 12 -2 12 C-2 12.99 -2 13.98 -2 15 C-2.66 14.67 -3.32 14.34 -4 14 C-2.68 9.38 -1.36 4.76 0 0 Z " fill="#0273C7" transform="translate(436,303)"/>
<path d="M0 0 C1.34374179 4.03122538 0.4530301 6.05606115 -1 10 C-3.125 12.4375 -3.125 12.4375 -5 14 C-3.45730076 9.27934033 -1.92205381 4.58335908 0 0 Z " fill="#BB2A09" transform="translate(668,228)"/>
<path d="M0 0 C1 2 1 2 0.44140625 3.9453125 C0.15136719 4.66460937 -0.13867188 5.38390625 -0.4375 6.125 C-0.72496094 6.84945312 -1.01242187 7.57390625 -1.30859375 8.3203125 C-1.53675781 8.87460938 -1.76492188 9.42890625 -2 10 C-2.66 9.01 -3.32 8.02 -4 7 C-4.99 7.495 -4.99 7.495 -6 8 C-4.55746343 4.63408134 -2.66735273 2.48952921 0 0 Z " fill="#002367" transform="translate(457,229)"/>
<path d="M0 0 C-0.875 3.875 -0.875 3.875 -2 5 C-4.33297433 5.04092937 -6.66705225 5.04241723 -9 5 C-6.47717345 2.47717345 -3.69610207 0 0 0 Z " fill="#F14523" transform="translate(837,401)"/>
<path d="M0 0 C0.33 0 0.66 0 1 0 C2.55577239 5.65735415 1.24281523 8.79666866 -1 14 C-2.13732426 10.59598052 -1.83989957 8.22543336 -1.0625 4.75 C-0.86785156 3.85796875 -0.67320312 2.9659375 -0.47265625 2.046875 C-0.31667969 1.37140625 -0.16070312 0.6959375 0 0 Z " fill="#0868AE" transform="translate(231,283)"/>
<path d="M0 0 C0.33 0.99 0.66 1.98 1 3 C1.66 3 2.32 3 3 3 C1.46126823 6.71860179 0.52488612 7.35633541 -3 10 C-2.01 6.7 -1.02 3.4 0 0 Z " fill="#102157" transform="translate(730,280)"/>
<path d="M0 0 C1 3 1 3 0 6 C-3.0625 7.1875 -3.0625 7.1875 -6 8 C-4.55746343 4.63408134 -2.66735273 2.48952921 0 0 Z " fill="#062967" transform="translate(390,238)"/>
<path d="M0 0 C2.00720923 0.28674418 4.0085944 0.61866701 6 1 C5.401875 1.268125 4.80375 1.53625 4.1875 1.8125 C2.02775192 2.98493467 0.64209744 4.19369282 -1 6 C-1.66 5.67 -2.32 5.34 -3 5 C-1.125 1.125 -1.125 1.125 0 0 Z " fill="#F35E41" transform="translate(825,391)"/>
<path d="M0 0 C0.33 0.99 0.66 1.98 1 3 C-2.75 6 -2.75 6 -5 6 C-5.33 6.99 -5.66 7.98 -6 9 C-6.99 8.34 -7.98 7.68 -9 7 C-8.43410156 6.57847656 -7.86820312 6.15695312 -7.28515625 5.72265625 C-6.55167969 5.17480469 -5.81820313 4.62695312 -5.0625 4.0625 C-4.33160156 3.51722656 -3.60070312 2.97195313 -2.84765625 2.41015625 C-1.0865547 1.13092062 -1.0865547 1.13092062 0 0 Z " fill="#052054" transform="translate(301,309)"/>
<path d="M0 0 C0.66 0.33 1.32 0.66 2 1 C1.67 4.96 1.34 8.92 1 13 C0.67 13 0.34 13 0 13 C-1.28571429 4.57142857 -1.28571429 4.57142857 0 0 Z " fill="#0A72C1" transform="translate(127,251)"/>
<path d="M0 0 C2.875 -0.125 2.875 -0.125 6 0 C6.66 0.66 7.32 1.32 8 2 C7.67 2.66 7.34 3.32 7 4 C4.69 3.34 2.38 2.68 0 2 C0 1.34 0 0.68 0 0 Z " fill="#F14B2E" transform="translate(827,390)"/>
<path d="M0 0 C1.10844919 3.32534757 0.84454356 5.62182575 0 9 C-0.99 8.67 -1.98 8.34 -3 8 C-1.125 1.125 -1.125 1.125 0 0 Z " fill="#026BB9" transform="translate(197,253)"/>
<path d="M0 0 C2 1.375 2 1.375 4 3 C4 3.66 4 4.32 4 5 C5.32 5.66 6.64 6.32 8 7 C7.01 7.33 6.02 7.66 5 8 C5 7.34 5 6.68 5 6 C4.360625 5.7525 3.72125 5.505 3.0625 5.25 C1 4 1 4 0.25 1.875 C0.1675 1.25625 0.085 0.6375 0 0 Z " fill="#102E6B" transform="translate(457,262)"/>
<path d="M0 0 C0 3.99904969 -1.72586967 5.80200422 -4 9 C-4.8125 7.3125 -4.8125 7.3125 -5 5 C-2.5625 2.25 -2.5625 2.25 0 0 Z " fill="#052A62" transform="translate(358,231)"/>
<path d="M0 0 C1.32 0.33 2.64 0.66 4 1 C3.34 1 2.68 1 2 1 C2.33 1.99 2.66 2.98 3 4 C2.67 4.99 2.34 5.98 2 7 C1.34 7 0.68 7 0 7 C0 4.69 0 2.38 0 0 Z " fill="#FFFEFE" transform="translate(773,308)"/>
</svg>
