<?xml version="1.0" encoding="UTF-8"?>
<svg version="1.1" xmlns="http://www.w3.org/2000/svg" width="85" height="50">
<path d="M0 0 C28.05 0 56.1 0 85 0 C85 16.5 85 33 85 50 C56.95 50 28.9 50 0 50 C0 33.5 0 17 0 0 Z " fill="#FDFCFB" transform="translate(0,0)"/>
<path d="M0 0 C0.9384375 -0.00515625 1.876875 -0.0103125 2.84375 -0.015625 C5.56025505 0.25602551 7.1291244 0.97138368 9.5 2.25 C11.80797001 1.91059264 13.41510461 1.29244769 15.5 0.25 C26.16530262 -0.5616956 26.16530262 -0.5616956 30.5 2.25 C38.32242991 10.19018692 38.32242991 10.19018692 38.8125 15.875 C38.74267735 20.67530703 37.20669458 24.32092722 34.5 28.25 C29.6098063 32.78237465 26.25676771 34.56642713 19.6953125 34.4609375 C17.5 34.25 17.5 34.25 15 33.125 C11.57134983 31.92497244 9.28804663 32.84529297 5.8359375 33.72265625 C1.07329927 34.79783378 -3.02099336 34.77200234 -7.6875 33.125 C-11.92051121 30.30299253 -14.85909664 27.17271008 -16.5 22.25 C-17.16176455 17.1739651 -17.67766201 12.31737919 -15.078125 7.75390625 C-10.58283933 2.51901161 -7.02710869 -0.03861049 0 0 Z " fill="#F69F1C" transform="translate(31.5,8.75)"/>
<path d="M0 0 C3.1875 1.5 3.1875 1.5 5 3 C4.360625 3.928125 3.72125 4.85625 3.0625 5.8125 C-0.35506131 11.09418566 -0.71921505 15.84464 0 22 C1.0939222 24.57477759 2.4596304 26.64130905 4 29 C4 29.99 4 30.98 4 32 C-1.99507862 34.39803145 -7.08290713 35.02956219 -13.1875 32.875 C-17.42051121 30.05299253 -20.35909664 26.92271008 -22 22 C-22.66176455 16.9239651 -23.17766201 12.06737919 -20.578125 7.50390625 C-14.48577753 0.40918538 -9.22675532 -0.9417842 0 0 Z " fill="#E9041D" transform="translate(37,9)"/>
<path d="M0 0 C28.05 0 56.1 0 85 0 C85 16.5 85 33 85 50 C56.95 50 28.9 50 0 50 C0 33.5 0 17 0 0 Z M2.06417847 2.77171326 C0.9406186 5.1243389 0.62051991 6.57955069 0.61181641 9.17016602 C0.60235992 9.98103165 0.59290344 10.79189728 0.5831604 11.62733459 C0.58923309 12.49410324 0.59530579 13.36087189 0.6015625 14.25390625 C0.59869232 15.15116928 0.59582214 16.04843231 0.59286499 16.97288513 C0.5908263 18.8666141 0.59634254 20.76036422 0.60888672 22.65405273 C0.62496207 25.55565307 0.60902191 28.45586446 0.58984375 31.35742188 C0.59182585 33.19791974 0.59566883 35.03841675 0.6015625 36.87890625 C0.59548981 37.74769913 0.58941711 38.616492 0.5831604 39.51161194 C0.59261688 40.31932541 0.60207336 41.12703888 0.61181641 41.95922852 C0.61420319 42.66886246 0.61658997 43.3784964 0.61904907 44.1096344 C0.89831321 46.05793247 0.89831321 46.05793247 2.06417847 47.72828674 C5.00329004 49.65909859 7.96007107 49.41750163 11.36132812 49.38818359 C12.10797226 49.39344055 12.85461639 49.39869751 13.62388611 49.40411377 C16.09321988 49.41732325 18.56190961 49.40857267 21.03125 49.3984375 C22.7461357 49.40045797 24.46102056 49.40336918 26.17590332 49.40713501 C29.77050962 49.41155964 33.36489233 49.40512294 36.95947266 49.39111328 C41.56995694 49.37402121 46.17991733 49.38386167 50.79038239 49.40183067 C54.33168494 49.41266483 57.87286303 49.40922389 61.41416931 49.4014473 C63.11425335 49.39944426 64.81434865 49.40190818 66.51441956 49.40888596 C68.88947535 49.41649452 71.2636796 49.40490539 73.63867188 49.38818359 C74.34317978 49.39425629 75.04768768 49.40032898 75.77354431 49.40658569 C78.58483804 49.36986675 80.55222403 49.29416071 82.93582153 47.72828674 C84.22183416 45.63972863 84.37995687 44.40518743 84.38818359 41.95922852 C84.40236832 40.74765831 84.40236832 40.74765831 84.4168396 39.51161194 C84.41076691 38.64281906 84.40469421 37.77402618 84.3984375 36.87890625 C84.40130768 35.98259995 84.40417786 35.08629364 84.40713501 34.16282654 C84.40917635 32.26731739 84.40364159 30.37178721 84.39111328 28.47631836 C84.37507925 25.57683063 84.39094974 22.67874082 84.41015625 19.77929688 C84.40817346 17.93749692 84.40432905 16.09569784 84.3984375 14.25390625 C84.40451019 13.3871376 84.41058289 12.52036896 84.4168396 11.62733459 C84.40738312 10.81646896 84.39792664 10.00560333 84.38818359 9.17016602 C84.38460342 8.10452171 84.38460342 8.10452171 84.38095093 7.01734924 C83.84681035 4.18877472 83.13664899 2.95551567 81 1 C78.40727766 0.59650231 76.23323222 0.45260254 73.63867188 0.48242188 C72.89202774 0.4754126 72.14538361 0.46840332 71.37611389 0.46118164 C68.90661491 0.44356782 66.43826074 0.45523551 63.96875 0.46875 C62.25386332 0.46605604 60.53897813 0.46217442 58.82409668 0.45715332 C55.22942568 0.45125371 51.63515216 0.45983585 48.04052734 0.47851562 C43.42990228 0.50130575 38.8202085 0.4881851 34.20961761 0.46422577 C30.66828376 0.4497801 27.12717116 0.45436805 23.58583069 0.46473694 C21.88574616 0.46740765 20.18564162 0.46412238 18.48558044 0.45481873 C16.1102875 0.44467295 13.73650814 0.46012438 11.36132812 0.48242188 C10.30456627 0.47027649 10.30456627 0.47027649 9.22645569 0.45788574 C6.09577468 0.51240645 4.41691807 0.61842595 2.06417847 2.77171326 Z " fill="#C4C5C1" transform="translate(0,0)"/>
<path d="M0 0 C1.984375 0.15625 1.984375 0.15625 4 1 C7.63416077 5.39688587 8.4356683 10.37684271 8.3359375 15.921875 C7.95899441 18.25366248 7.15359937 19.95120752 6 22 C5.34 22 4.68 22 4 22 C3.34 23.32 2.68 24.64 2 26 C-0.89573124 25.00147198 -1.97265909 24.03905844 -3.75 21.5 C-5.84546152 15.63270774 -5.90802748 10.31134267 -3.625 4.5 C-2 2 -2 2 0 0 Z " fill="#FD5F03" transform="translate(41,13)"/>
<path d="M0 0 C1.32 0 2.64 0 4 0 C4 16.5 4 33 4 50 C2.68 50 1.36 50 0 50 C0.32466248 49.42535507 0.64932495 48.85071014 0.98382568 48.25865173 C2.04819577 45.89287522 2.25298428 44.43127348 2.25878906 41.86157227 C2.26509338 41.05716202 2.27139771 40.25275177 2.27789307 39.42396545 C2.2738446 38.56347092 2.26979614 37.70297638 2.265625 36.81640625 C2.26753845 35.92388657 2.2694519 35.03136688 2.27142334 34.11180115 C2.27278272 32.22646808 2.2691035 30.34112557 2.26074219 28.45581055 C2.25005177 25.57644508 2.26063931 22.6977053 2.2734375 19.81835938 C2.27211561 17.98437363 2.26955262 16.15038827 2.265625 14.31640625 C2.26967346 13.45793594 2.27372192 12.59946564 2.27789307 11.71498108 C2.24391012 7.36187917 2.03248351 3.96354468 0 0 Z " fill="#A6A7A6" transform="translate(81,0)"/>
<path d="M0 0 C1.32 0 2.64 0 4 0 C3.67547852 0.63284912 3.35095703 1.26569824 3.01660156 1.91772461 C1.63733829 6.09956869 1.71374149 9.94110074 1.734375 14.31640625 C1.73246155 15.20988266 1.7305481 16.10335907 1.72857666 17.02391052 C1.72721905 18.90746341 1.73088583 20.79102578 1.73925781 22.67456055 C1.74997597 25.55604042 1.73934169 28.43689865 1.7265625 31.31835938 C1.72788392 33.15104304 1.73044596 34.98372632 1.734375 36.81640625 C1.73032654 37.67690079 1.72627808 38.53739532 1.72210693 39.42396545 C1.72841125 40.2283757 1.73471558 41.03278595 1.74121094 41.86157227 C1.74280212 42.56596939 1.74439331 43.27036652 1.74603271 43.99610901 C2.04177744 46.32963867 2.84970066 47.96399729 4 50 C2.68 50 1.36 50 0 50 C0 33.5 0 17 0 0 Z " fill="#A6A8A4" transform="translate(0,0)"/>
<path d="M0 0 C-3.05320495 3.05320495 -5.88405341 3.07249688 -10.0625 3.1875 C-14 3 -14 3 -17 1 C-15.4840625 1.061875 -15.4840625 1.061875 -13.9375 1.125 C-8.96742812 0.96721994 -4.71290141 -1.57096714 0 0 Z " fill="#EA1732" transform="translate(41,40)"/>
<path d="M0 0 C-0.33 0.33 -0.66 0.66 -1 1 C0.98 1 2.96 1 5 1 C5 1.66 5 2.32 5 3 C6.65 3 8.3 3 10 3 C10 3.33 10 3.66 10 4 C3.54107286 4.40368295 -1.06108578 3.5915262 -7 1 C-3.375 -1.125 -3.375 -1.125 0 0 Z " fill="#F5A439" transform="translate(48,39)"/>
<path d="M0 0 C0.99 0.66 1.98 1.32 3 2 C1.35 3.65 -0.3 5.3 -2 7 C-2.33 5.35 -2.66 3.7 -3 2 C-2.01 1.34 -1.02 0.68 0 0 Z " fill="#FBEEED" transform="translate(17,12)"/>
</svg>
