<?xml version="1.0" encoding="UTF-8"?>
<svg version="1.1" xmlns="http://www.w3.org/2000/svg" width="512" height="512">
<path d="M0 0 C0.83672745 -0.0033284 1.6734549 -0.0066568 2.53553772 -0.01008606 C4.31348114 -0.01515749 6.09143412 -0.01749432 7.86938477 -0.01733398 C10.55566808 -0.01949743 13.24152504 -0.03758598 15.92773438 -0.05664062 C41.55229294 -0.14461335 41.55229294 -0.14461335 50.66015625 8.16796875 C55.65468126 14.57368919 56.26154771 21.32840147 55.66015625 29.16796875 C53.75340173 40.07572625 50.47538852 49.11219221 41.66015625 56.16796875 C33.13843293 61.64987894 24.05083435 62.48145133 14.16015625 62.79296875 C12.64035156 62.85097656 12.64035156 62.85097656 11.08984375 62.91015625 C8.61345341 63.00360494 6.13705474 63.08936748 3.66015625 63.16796875 C3.54945801 63.9043457 3.43875977 64.64072266 3.32470703 65.39941406 C2.81850467 68.74003357 2.30194939 72.07897196 1.78515625 75.41796875 C1.61113281 76.57683594 1.43710937 77.73570312 1.2578125 78.9296875 C0.99677734 80.60224609 0.99677734 80.60224609 0.73046875 82.30859375 C0.57336426 83.33500977 0.41625977 84.36142578 0.25439453 85.41894531 C-0.33984375 88.16796875 -0.33984375 88.16796875 -2.33984375 92.16796875 C-9.59984375 92.16796875 -16.85984375 92.16796875 -24.33984375 92.16796875 C-24.33984375 86.23111936 -24.20817357 81.01829762 -23.27001953 75.26489258 C-23.15618927 74.53194473 -23.04235901 73.79899689 -22.92507935 73.0438385 C-22.55192333 70.6530963 -22.16885381 68.2640711 -21.78515625 65.875 C-21.52044692 64.19837032 -21.25620306 62.5216671 -20.99240112 60.84489441 C-20.44024574 57.34518255 -19.88330435 53.84627717 -19.32275391 50.34790039 C-18.60615142 45.87387482 -17.90033403 41.3982291 -17.19792366 36.92195606 C-16.65444688 33.46488651 -16.10590659 30.00863543 -15.55578232 26.55261803 C-15.29364418 24.90268905 -15.03291716 23.2525352 -14.77365494 21.60215187 C-14.41029239 19.29488433 -14.04026979 16.98878019 -13.66845703 14.68286133 C-13.51092957 13.67044373 -13.51092957 13.67044373 -13.35021973 12.63757324 C-12.69987711 8.65775303 -11.84568742 4.91511273 -10.33984375 1.16796875 C-7.10330813 -0.45029906 -3.55611 0.00489618 0 0 Z M10.66015625 20.16796875 C8.96623555 23.98284898 8.14222813 27.54373441 7.53515625 31.66796875 C7.36757813 32.77140625 7.2 33.87484375 7.02734375 35.01171875 C6.70620388 37.77215506 6.58769727 40.39382502 6.66015625 43.16796875 C13.7275607 43.51874066 19.26663421 43.36472977 25.66015625 40.16796875 C28.87330647 36.85116852 29.59088117 33.88381127 30.03515625 29.29296875 C29.94315088 26.17628669 29.58433901 25.02799846 28.03515625 22.16796875 C22.58596213 18.93881668 16.84120521 19.79158553 10.66015625 20.16796875 Z " fill="#1A9DD8" transform="translate(303.33984375,198.83203125)"/>
<path d="M0 0 C1.21237083 0.00607269 1.21237083 0.00607269 2.44923401 0.01226807 C3.70432518 0.00939789 3.70432518 0.00939789 4.98477173 0.00646973 C6.76272379 0.00510632 8.54068574 0.00881356 10.31861877 0.01715088 C13.00497197 0.02772802 15.69063777 0.01732422 18.37696838 0.00445557 C43.18953936 -0.01824975 43.18953936 -0.01824975 52.10939026 7.27789307 C56.97356629 12.27007373 58.21694623 17.06845516 58.42189026 23.90289307 C58.19566809 35.29883507 55.2261757 44.50510949 47.67189026 53.02789307 C35.60937924 63.61936615 21.36579868 62.9124822 6.10939026 63.27789307 C5.99869202 64.0497998 5.88799377 64.82170654 5.77394104 65.61700439 C5.2686156 69.10932377 4.75164778 72.59982192 4.23439026 76.09039307 C4.06036682 77.30533447 3.88634338 78.52027588 3.70704651 79.77203369 C3.53302307 80.9354126 3.35899963 82.0987915 3.17970276 83.29742432 C3.02259827 84.37097168 2.86549377 85.44451904 2.70362854 86.55059814 C2.10939026 89.27789307 2.10939026 89.27789307 0.10939026 92.27789307 C-2.13719177 92.61846924 -2.13719177 92.61846924 -4.89842224 92.57086182 C-5.88455505 92.56119385 -6.87068787 92.55152588 -7.88670349 92.54156494 C-8.91924255 92.51642822 -9.95178162 92.4912915 -11.01560974 92.46539307 C-12.5760199 92.44509033 -12.5760199 92.44509033 -14.16795349 92.42437744 C-16.74268601 92.38894534 -19.31639304 92.33954527 -21.89060974 92.27789307 C-21.99299688 86.8982923 -21.68319952 81.80568596 -20.82078552 76.48834229 C-20.70695526 75.75554047 -20.593125 75.02273865 -20.47584534 74.26773071 C-20.10196813 71.8716775 -19.71923808 69.47714044 -19.33592224 67.08258057 C-19.07128055 65.40451092 -18.80703534 63.7263787 -18.54316711 62.04818726 C-17.99055859 58.54257521 -17.43363192 55.03768494 -16.8735199 51.53326416 C-16.15745353 47.05127947 -15.45150537 42.56777185 -14.74868965 38.08369255 C-14.20515187 34.6223424 -13.65661725 31.16179855 -13.10654831 27.70148087 C-12.84436601 26.04876742 -12.58363894 24.39582242 -12.32442093 22.74264145 C-11.96103278 20.43048145 -11.59100588 18.11947781 -11.21922302 15.80865479 C-11.11420471 15.13213867 -11.0091864 14.45562256 -10.90098572 13.75860596 C-8.66975755 0.07334989 -8.66975755 0.07334989 0 0 Z M13.10939026 20.27789307 C11.22713491 25.22869915 10.52445696 29.92929708 9.98439026 35.15289307 C9.89802307 35.93664307 9.81165588 36.72039307 9.72267151 37.52789307 C9.51237536 39.44392466 9.31006282 41.36082967 9.10939026 43.27789307 C18.30764492 43.63401687 18.30764492 43.63401687 27.10939026 41.27789307 C30.78750145 37.40619708 32.28069552 34.68328738 32.48439026 29.40289307 C32.53337463 28.53922119 32.58235901 27.67554932 32.63282776 26.78570557 C32.28901723 24.0907774 32.28901723 24.0907774 30.04298401 21.97320557 C26.36936206 19.85023363 24.0095966 19.87040872 19.79689026 20.02789307 C18.54263245 20.06398682 17.28837463 20.10008057 15.99610901 20.13726807 C15.04349182 20.18367432 14.09087463 20.23008057 13.10939026 20.27789307 Z " fill="#253C83" transform="translate(66.89060974121094,198.72210693359375)"/>
<path d="M0 0 C1.78125 1.60546875 1.78125 1.60546875 3 3 C3.66 1.68 4.32 0.36 5 -1 C8.31248187 -1.02888146 11.62493167 -1.04675799 14.9375 -1.0625 C15.88302734 -1.07087891 16.82855469 -1.07925781 17.80273438 -1.08789062 C19.15141602 -1.09272461 19.15141602 -1.09272461 20.52734375 -1.09765625 C21.77632446 -1.10551147 21.77632446 -1.10551147 23.05053711 -1.11352539 C25 -1 25 -1 26 0 C25.99875979 10.9014256 23.76473584 21.88752033 22.04370117 32.61474609 C21.55819615 35.6519236 21.08634986 38.69102978 20.61523438 41.73046875 C20.3081088 43.66679645 20.0001952 45.60299936 19.69140625 47.5390625 C19.55174942 48.44524323 19.41209259 49.35142395 19.26820374 50.2850647 C19.06305397 51.54315445 19.06305397 51.54315445 18.85375977 52.82666016 C18.73686295 53.56244293 18.61996613 54.29822571 18.49952698 55.05630493 C18 57 18 57 16 60 C13.93701172 60.34057617 13.93701172 60.34057617 11.4296875 60.29296875 C10.53378906 60.28330078 9.63789063 60.27363281 8.71484375 60.26367188 C7.30912109 60.2259668 7.30912109 60.2259668 5.875 60.1875 C4.93011719 60.17396484 3.98523438 60.16042969 3.01171875 60.14648438 C0.67391221 60.11106306 -1.66276237 60.06167271 -4 60 C-4.66 58.68 -5.32 57.36 -6 56 C-6.67546875 56.34933594 -7.3509375 56.69867188 -8.046875 57.05859375 C-8.93890625 57.51363281 -9.8309375 57.96867187 -10.75 58.4375 C-11.63171875 58.88996094 -12.5134375 59.34242188 -13.421875 59.80859375 C-20.84664505 63.23973749 -29.03284165 62.91626889 -36.75 60.5 C-43.1287872 57.90292235 -46.93580587 53.9730188 -50.08984375 47.90234375 C-53.76901351 38.56030441 -52.86464846 28.11473693 -49 19 C-44.32167876 9.30815071 -38.12080659 2.90820021 -28.17578125 -1.2734375 C-19.0225285 -4.32999946 -8.81698745 -3.99725364 0 0 Z M-26.38671875 21.5390625 C-29.15603235 25.63959 -29.65454348 29.74017217 -29.4609375 34.625 C-28.69138391 38.59015749 -26.96990006 40.30636972 -24 43 C-18.8328841 44.72237197 -13.89400242 44.65561622 -8.75 42.875 C-3.58720777 39.35491439 -0.25799021 35.16415202 1 29 C0.89113847 22.90375405 -0.83448256 20.16551744 -5 16 C-13.34909493 13.21696836 -20.4622179 14.963701 -26.38671875 21.5390625 Z " fill="#263C84" transform="translate(171,231)"/>
<path d="M0 0 C0 -1.32 0 -2.64 0 -4 C3.47914941 -4.02887814 6.95826831 -4.04675687 10.4375 -4.0625 C11.92733398 -4.07506836 11.92733398 -4.07506836 13.44726562 -4.08789062 C14.39150391 -4.09111328 15.33574219 -4.09433594 16.30859375 -4.09765625 C17.62041626 -4.10551147 17.62041626 -4.10551147 18.95874023 -4.11352539 C21 -4 21 -4 22 -3 C21.77247684 4.29252325 20.55636144 11.57679456 19.44140625 18.77734375 C19.29219223 19.75111465 19.14297821 20.72488556 18.98924255 21.72816467 C18.67586355 23.76444838 18.36066522 25.80045289 18.04370117 27.83618164 C17.56011879 30.95284676 17.08748211 34.0710529 16.61523438 37.18945312 C16.30795589 39.17718613 16.00003616 41.16482013 15.69140625 43.15234375 C15.55174942 44.08151108 15.41209259 45.01067841 15.26820374 45.96800232 C15.13143723 46.83312943 14.99467072 47.69825653 14.85375977 48.58959961 C14.67841454 49.72563881 14.67841454 49.72563881 14.49952698 50.8846283 C14 53 14 53 12 57 C5.4 57 -1.2 57 -8 57 C-8.66 55.68 -9.32 54.36 -10 53 C-10.67546875 53.34933594 -11.3509375 53.69867188 -12.046875 54.05859375 C-12.93890625 54.51363281 -13.8309375 54.96867187 -14.75 55.4375 C-15.63171875 55.88996094 -16.5134375 56.34242188 -17.421875 56.80859375 C-24.34791495 60.00926373 -32.38776822 60.00322271 -39.6875 57.9375 C-46.40808819 55.33598199 -51.4281721 50.99073286 -54.5 44.4375 C-58.04950024 33.99499707 -56.72580598 22.82800359 -52 13 C-46.74181132 4.36059632 -39.48897055 -1.59829358 -30 -5 C-19.27587171 -7.51814507 -9.18126848 -6.21956897 0 0 Z M-30.3125 18.375 C-33.4570796 23.26656826 -34.51426227 27.39091582 -33.6171875 33.1015625 C-32.58917176 36.26368686 -30.53129251 37.96261823 -28 40 C-24.24607275 41.87696362 -20.08772931 41.51993048 -16 41 C-10.92929599 39.07692688 -7.02712959 35.92811707 -4.625 31.02734375 C-3.38636946 27.00953593 -3.29986192 23.13081465 -4 19 C-6.13796042 15.33492499 -8.1484334 13.62543178 -12 12 C-19.67778066 10.77950252 -24.88813581 12.80403137 -30.3125 18.375 Z " fill="#1B9DD9" transform="translate(409,234)"/>
<path d="M0 0 C0.87454834 0.00523682 1.74909668 0.01047363 2.65014648 0.01586914 C3.59438477 0.0190918 4.53862305 0.02231445 5.51147461 0.02563477 C6.50469727 0.03401367 7.49791992 0.04239258 8.52124023 0.05102539 C9.51833008 0.05553711 10.51541992 0.06004883 11.54272461 0.06469727 C14.01478872 0.07652532 16.48673541 0.0930069 18.95874023 0.11352539 C21.79069929 6.25669812 23.72046243 12.57414011 25.64624023 19.05102539 C25.96657227 20.11643555 26.2869043 21.1818457 26.61694336 22.27954102 C27.40119147 24.88979964 28.18168247 27.50111904 28.95874023 30.11352539 C29.61874023 30.11352539 30.27874023 30.11352539 30.95874023 30.11352539 C32.39379585 28.20910732 33.69821398 26.31407259 34.98608398 24.31274414 C35.57045982 23.42447685 35.57045982 23.42447685 36.16664124 22.51826477 C37.41644697 20.61675218 38.65688764 18.70936444 39.89624023 16.80102539 C41.13314524 14.90418117 42.37204401 13.00872233 43.61512756 11.11592102 C44.38921583 9.93647914 45.15958933 8.75458867 45.92576599 7.56999207 C49.74741242 1.73167238 49.74741242 1.73167238 51.95874023 0.11352539 C54.22705078 -0.22705078 54.22705078 -0.22705078 56.84545898 -0.17944336 C58.25214844 -0.16494141 58.25214844 -0.16494141 59.68725586 -0.15014648 C60.6637207 -0.12500977 61.64018555 -0.09987305 62.64624023 -0.07397461 C63.63430664 -0.06043945 64.62237305 -0.0469043 65.64038086 -0.03295898 C68.08038254 0.00240336 70.51928742 0.05175506 72.95874023 0.11352539 C74.0949707 3.83764648 74.0949707 3.83764648 72.86889648 6.32055664 C72.25916992 7.18036133 71.64944336 8.04016602 71.02124023 8.92602539 C70.28647461 9.97918945 69.55170898 11.03235352 68.79467773 12.11743164 C68.35736328 12.73247559 67.92004883 13.34751953 67.46948242 13.98120117 C65.71267791 16.46082796 63.97959679 18.95621128 62.24780273 21.45336914 C59.47323715 25.45324196 56.69308868 29.44912619 53.90795898 33.44165039 C50.73990812 37.98655887 47.59093346 42.54386092 44.45874023 47.11352539 C43.14504508 49.02479318 41.83075352 50.93564975 40.51635742 52.84643555 C39.34890569 54.54564507 38.18317534 56.24603749 37.01831055 57.94702148 C34.8786157 61.06860401 32.73165337 64.18509349 30.58374023 67.30102539 C29.90504883 68.29424805 29.22635742 69.2874707 28.52709961 70.31079102 C21.28710532 80.78613529 21.28710532 80.78613529 17.95874023 83.11352539 C14.65645537 83.67868403 11.48335132 83.58777947 8.14624023 83.42602539 C7.26258789 83.4034668 6.37893555 83.3809082 5.46850586 83.35766602 C3.29785113 83.29899967 1.12807333 83.20932518 -1.04125977 83.11352539 C-2.10498047 81.25976562 -2.10498047 81.25976562 -3.04125977 79.11352539 C-2.02172852 76.77368164 -2.02172852 76.77368164 -0.22875977 74.17602539 C0.41448242 73.20793945 1.05772461 72.23985352 1.72045898 71.24243164 C3.28344235 69.05752819 4.85636532 66.97456055 6.54077148 64.89086914 C6.96318115 64.34487061 7.38559082 63.79887207 7.82080078 63.23632812 C9.02907734 61.68376398 10.27826666 60.16330161 11.52905273 58.64477539 C13.74778375 53.16463101 11.88751757 49.52734014 9.95874023 44.11352539 C9.4630691 42.65940414 8.96939615 41.20460083 8.47729492 39.74926758 C6.47258293 33.86005835 4.41774355 27.98851814 2.34814453 22.12182617 C1.4576595 19.59272509 0.57674931 17.06044725 -0.30297852 14.52758789 C-0.57792648 13.7566983 -0.85287445 12.98580872 -1.13615417 12.19155884 C-2.44292047 8.41129781 -3.50715012 5.17460934 -3.04125977 1.11352539 C-2.04125977 0.11352539 -2.04125977 0.11352539 0 0 Z " fill="#263D84" transform="translate(207.041259765625,229.886474609375)"/>
<path d="M0 0 C2.95839355 -0.02689449 5.91654427 -0.04678741 8.875 -0.0625 C9.71675781 -0.07087891 10.55851562 -0.07925781 11.42578125 -0.08789062 C12.23144531 -0.09111328 13.03710938 -0.09433594 13.8671875 -0.09765625 C14.98262939 -0.10551147 14.98262939 -0.10551147 16.12060547 -0.11352539 C18 0 18 0 20 1 C20.11660219 6.58989631 19.73788395 11.80103725 18.83837891 17.31201172 C18.71479507 18.10000656 18.59121124 18.8880014 18.46388245 19.69987488 C18.05778652 22.2775312 17.64259543 24.85361779 17.2265625 27.4296875 C16.93958102 29.22945303 16.65291393 31.02926872 16.36654663 32.82913208 C15.76710071 36.58696753 15.16297088 40.34401319 14.55566406 44.10058594 C13.77686743 48.92115836 13.01124618 53.74371897 12.24923134 58.56696892 C11.66134068 62.27725764 11.06586193 65.98629785 10.46812057 69.69501114 C10.18253118 71.47366369 9.89948473 73.25272644 9.61900711 75.03219223 C9.22729006 77.51091602 8.82524154 79.98774468 8.42041016 82.46435547 C8.30604111 83.20200638 8.19167206 83.93965729 8.07383728 84.69966125 C7.22843828 89.77156172 7.22843828 89.77156172 5 92 C3.04467773 92.24291992 3.04467773 92.24291992 0.68359375 92.23046875 C-0.16267578 92.22853516 -1.00894531 92.22660156 -1.88085938 92.22460938 C-2.76580078 92.21236328 -3.65074219 92.20011719 -4.5625 92.1875 C-5.45130859 92.18685547 -6.34011719 92.18621094 -7.25585938 92.18554688 C-13.85978903 92.14021097 -13.85978903 92.14021097 -15 91 C-14.8591999 81.4610057 -12.83200058 71.85038344 -11.34765625 62.44140625 C-11.084716 60.76279005 -10.82189564 59.08415507 -10.55918884 57.40550232 C-10.01112669 53.90966454 -9.46020001 50.41429219 -8.9074707 46.91918945 C-8.19997088 42.44258378 -7.50193998 37.96455703 -6.80626774 33.4861002 C-6.26780669 30.02900487 -5.72327082 26.57288681 -5.17700005 23.11701775 C-4.91691612 21.46554897 -4.65897848 19.81374067 -4.40324593 18.16159248 C-4.04608422 15.85870926 -3.68048963 13.55731694 -3.31274414 11.25610352 C-3.20929688 10.57710999 -3.10584961 9.89811646 -2.99926758 9.19854736 C-2.44816247 5.80875306 -1.76098988 2.96677281 0 0 Z " fill="#1B9ED9" transform="translate(447,199)"/>
<path d="M0 0 C0.83672745 -0.0033284 1.6734549 -0.0066568 2.53553772 -0.01008606 C4.31348114 -0.01515749 6.09143412 -0.01749432 7.86938477 -0.01733398 C10.55566808 -0.01949743 13.24152504 -0.03758598 15.92773438 -0.05664062 C34.73210005 -0.11997565 34.73210005 -0.11997565 41.66015625 2.16796875 C42.32015625 2.82796875 42.98015625 3.48796875 43.66015625 4.16796875 C42.95157471 4.09650635 42.24299316 4.02504395 41.51293945 3.95141602 C31.28247926 3.0331847 21.11073027 3.05432226 10.84765625 3.10546875 C9.07617315 3.11049723 7.30468866 3.11505773 5.53320312 3.11914062 C1.24215238 3.13003155 -3.04882981 3.14722071 -7.33984375 3.16796875 C-9.15675093 6.59487552 -9.87917806 9.56930847 -10.46484375 13.41796875 C-10.63242187 14.495625 -10.8 15.57328125 -10.97265625 16.68359375 C-11.09382813 17.5034375 -11.215 18.32328125 -11.33984375 19.16796875 C-11.99984375 19.16796875 -12.65984375 19.16796875 -13.33984375 19.16796875 C-12.52555804 5.92511161 -12.52555804 5.92511161 -10.33984375 1.16796875 C-7.10330813 -0.45029906 -3.55611 0.00489618 0 0 Z " fill="#2FACE4" transform="translate(303.33984375,198.83203125)"/>
<path d="M0 0 C0.33 0 0.66 0 1 0 C1 4.62 1 9.24 1 14 C7.27 14 13.54 14 20 14 C20.33 11.36 20.66 8.72 21 6 C21.66 6 22.32 6 23 6 C22.85950482 7.47968324 22.71245174 8.95874516 22.5625 10.4375 C22.48128906 11.26121094 22.40007812 12.08492188 22.31640625 12.93359375 C22 15 22 15 21 16 C19.36527118 16.08700342 17.72685945 16.10701063 16.08984375 16.09765625 C15.10048828 16.09443359 14.11113281 16.09121094 13.09179688 16.08789062 C12.05087891 16.07951172 11.00996094 16.07113281 9.9375 16.0625 C8.89271484 16.05798828 7.84792969 16.05347656 6.77148438 16.04882812 C4.1809334 16.03699913 1.59049441 16.02051689 -1 16 C-1.01362539 14.58466267 -1.02325431 13.16928658 -1.03125 11.75390625 C-1.03705078 10.9657251 -1.04285156 10.17754395 -1.04882812 9.36547852 C-0.98288988 6.17110016 -0.53571494 3.14732526 0 0 Z " fill="#32ADE5" transform="translate(280,275)"/>
<path d="M0 0 C2.95839355 -0.02689449 5.91654427 -0.04678741 8.875 -0.0625 C9.71675781 -0.07087891 10.55851562 -0.07925781 11.42578125 -0.08789062 C12.23144531 -0.09111328 13.03710938 -0.09433594 13.8671875 -0.09765625 C14.98262939 -0.10551147 14.98262939 -0.10551147 16.12060547 -0.11352539 C18 0 18 0 20 1 C20 3.64 20 6.28 20 9 C19.67 9 19.34 9 19 9 C18.67 7.02 18.34 5.04 18 3 C12.39 2.67 6.78 2.34 1 2 C0.34 6.62 -0.32 11.24 -1 16 C-1.66 16 -2.32 16 -3 16 C-2.88544319 14.08268082 -2.75793742 12.1661325 -2.625 10.25 C-2.55539062 9.18265625 -2.48578125 8.1153125 -2.4140625 7.015625 C-2.0271777 4.19793568 -1.44313834 2.4169634 0 0 Z " fill="#33AEE5" transform="translate(447,199)"/>
<path d="M0 0 C0.66 0 1.32 0 2 0 C2.17700355 4.60209225 2.10814567 6.78370866 0 11 C-6.6 11 -13.2 11 -20 11 C-20.33 9.35 -20.66 7.7 -21 6 C-20.34 6 -19.68 6 -19 6 C-19 6.99 -19 7.98 -19 9 C-13.06 9 -7.12 9 -1 9 C-0.67 6.03 -0.34 3.06 0 0 Z " fill="#2FACE5" transform="translate(421,280)"/>
<path d="M0 0 C3.47914941 -0.02887814 6.95826831 -0.04675687 10.4375 -0.0625 C11.92733398 -0.07506836 11.92733398 -0.07506836 13.44726562 -0.08789062 C14.39150391 -0.09111328 15.33574219 -0.09433594 16.30859375 -0.09765625 C17.62041626 -0.10551147 17.62041626 -0.10551147 18.95874023 -0.11352539 C21 0 21 0 22 1 C21.91015699 2.85772162 21.75388139 4.71247985 21.5625 6.5625 C21.46066406 7.57441406 21.35882813 8.58632812 21.25390625 9.62890625 C21.17011719 10.41136719 21.08632813 11.19382813 21 12 C20.67 12 20.34 12 20 12 C20 8.7 20 5.4 20 2 C14.06 2 8.12 2 2 2 C2 2.66 2 3.32 2 4 C1.34 4 0.68 4 0 4 C0 2.68 0 1.36 0 0 Z " fill="#33AEE5" transform="translate(409,230)"/>
<path d="M0 0 C0.86931152 0.01047363 1.73862305 0.02094727 2.63427734 0.03173828 C3.57529297 0.03818359 4.51630859 0.04462891 5.48583984 0.05126953 C6.47068359 0.06802734 7.45552734 0.08478516 8.47021484 0.10205078 C9.46279297 0.11107422 10.45537109 0.12009766 11.47802734 0.12939453 C13.93399618 0.15300962 16.38948653 0.18594279 18.84521484 0.22705078 C18.84521484 0.55705078 18.84521484 0.88705078 18.84521484 1.22705078 C18.01328613 1.24106934 18.01328613 1.24106934 17.16455078 1.25537109 C14.64055004 1.309208 12.11837671 1.39282332 9.59521484 1.47705078 C8.72251953 1.49123047 7.84982422 1.50541016 6.95068359 1.52001953 C1.72630384 1.64088261 1.72630384 1.64088261 -2.63916016 4.27392578 C-3.13931641 4.91845703 -3.63947266 5.56298828 -4.15478516 6.22705078 C-4.81478516 6.22705078 -5.47478516 6.22705078 -6.15478516 6.22705078 C-3.41684426 0.36003458 -3.41684426 0.36003458 0 0 Z " fill="#2D499F" transform="translate(261.15478515625,229.77294921875)"/>
<path d="M0 0 C-1.28519565 2.86697492 -2.57129254 4.97607712 -5 7 C-5.66 7 -6.32 7 -7 7 C-3.86206897 0 -3.86206897 0 0 0 Z " fill="#2B4798" transform="translate(134,236)"/>
</svg>
