<?xml version="1.0" encoding="UTF-8"?>
<svg version="1.1" xmlns="http://www.w3.org/2000/svg" width="900" height="900">
<path d="M0 0 C2.18382797 -0.00461293 4.36765283 -0.01096847 6.55147123 -0.01890898 C12.53270925 -0.03557138 18.51369122 -0.02736981 24.49493003 -0.0149641 C30.95310414 -0.00590337 37.41123462 -0.01988844 43.86940002 -0.03088379 C55.78289814 -0.04841114 67.6963154 -0.04619371 79.60981824 -0.03523792 C90.61667282 -0.02516588 101.62349759 -0.02255345 112.63035583 -0.02732849 C113.36116691 -0.02763403 114.09197798 -0.02793957 114.84493485 -0.02825437 C117.81171933 -0.02949978 120.77850379 -0.03077338 123.74528824 -0.03209343 C151.56198655 -0.04432265 179.37863308 -0.03324635 207.1953234 -0.01170584 C231.89542075 0.00727584 256.5954356 0.0055773 281.29553223 -0.0135498 C309.06215381 -0.0349798 336.82872966 -0.04345527 364.59535837 -0.03110075 C367.55666001 -0.02981793 370.51796165 -0.02856656 373.47926331 -0.02732849 C374.20838283 -0.02701218 374.93750235 -0.02669587 375.68871641 -0.02636998 C386.68721979 -0.02182482 397.68569005 -0.02713236 408.68418884 -0.0372467 C421.19308687 -0.04869285 433.70188426 -0.04542073 446.21077096 -0.02412373 C452.59198683 -0.01361717 458.97303536 -0.00948504 465.35424995 -0.02272034 C471.19815171 -0.0346578 477.04173134 -0.02805883 482.88560396 -0.00681013 C484.99715087 -0.00234988 487.1087251 -0.00459729 489.22025436 -0.01431328 C502.40442415 -0.07031518 514.77997028 -0.00664693 525.55480957 8.63293457 C529.0198854 11.40064184 529.0198854 11.40064184 532.82824707 13.62512207 C533.3980127 13.9164502 533.96777832 14.20777832 534.55480957 14.50793457 C535.17980957 16.50793457 535.17980957 16.50793457 535.55480957 18.50793457 C537.41078265 20.45398312 537.41078265 20.45398312 539.11730957 21.69543457 C541.26779428 24.40691529 541.19838071 27.12186043 541.55480957 30.50793457 C541.72456875 31.11380539 541.89432793 31.71967622 542.06923133 32.34390676 C542.70183294 35.16315889 542.68928414 37.80474958 542.69906139 40.69487953 C542.70912316 42.6121348 542.70912316 42.6121348 542.71938819 44.56812251 C542.72184629 45.98951682 542.72420885 47.4109113 542.72648621 48.83230591 C542.7324834 50.33988659 542.7389086 51.84746562 542.74572593 53.35504282 C542.76320753 57.50371171 542.77448209 61.65237801 542.78473628 65.80107021 C542.79684238 70.27280369 542.81460441 74.74451524 542.831604 79.2162323 C542.86393638 87.97812014 542.89075575 96.74001655 542.91540679 105.50192906 C542.93545257 112.61995717 542.95704885 119.73797886 542.97974586 126.85599899 C543.04385907 147.02042154 543.10379213 167.18485034 543.15842798 187.34930082 C543.16137502 188.43676714 543.16432205 189.52423347 543.1673584 190.64465332 C543.17030813 191.73344109 543.17325787 192.82222885 543.17629699 193.94401018 C543.22440239 211.60575326 543.28248003 229.26744774 543.34505608 246.92914493 C543.40913698 265.04788084 543.46578347 283.16662672 543.51462394 301.28541028 C543.54221677 311.46437031 543.57293377 321.64329927 543.61163902 331.82222366 C543.64452166 340.48512436 543.67054039 349.14801128 543.68749531 357.8109584 C543.69635332 362.23445282 543.7085087 366.65787546 543.72930336 371.08133125 C543.74823225 375.12508224 543.75802781 379.1687452 543.76032684 383.21253888 C543.76280613 384.68082679 543.76872451 386.14911345 543.77829989 387.61737223 C543.79075351 389.60243573 543.78982057 391.58757009 543.78808117 393.57267189 C543.7913363 394.67852752 543.79459143 395.78438316 543.7979452 396.92374957 C543.55480957 399.50793457 543.55480957 399.50793457 541.55480957 401.50793457 C540.85543425 402.82440576 540.18751824 404.15815608 539.55480957 405.50793457 C539.22480957 406.16793457 538.89480957 406.82793457 538.55480957 407.50793457 C538.46199707 408.43605957 538.46199707 408.43605957 538.36730957 409.38293457 C537.33266349 412.08893201 535.76577559 412.85378286 533.34777832 414.31262207 C531.29410974 415.68173445 529.60520168 417.2582517 527.80480957 418.94543457 C517.21995946 428.34074914 505.55644129 429.81702965 491.89353943 429.7484436 C490.01377949 429.75100688 490.01377949 429.75100688 488.0960446 429.75362194 C484.63885175 429.75807018 481.18178404 429.75012677 477.72460711 429.74006581 C473.98853427 429.73139701 470.25246801 429.73435389 466.51638794 429.73587036 C460.0504026 429.73691705 453.58445775 429.73066309 447.11848259 429.71939468 C437.76987187 429.70311328 428.42128065 429.69792898 419.07265729 429.6954187 C403.90369241 429.69104574 388.73474908 429.67774746 373.5657959 429.65881348 C358.83402616 429.64044435 344.10226228 429.6262929 329.3704834 429.61779785 C328.00747969 429.61700968 328.00747969 429.61700968 326.61694055 429.61620559 C322.05823456 429.61359544 317.49952854 429.61106804 312.94082248 429.60858178 C275.14546963 429.5878617 237.35014128 429.55264703 199.55480957 429.50793457 C199.52951132 423.13587285 199.51196461 416.76382403 199.49987793 410.39172363 C199.49484066 408.2227734 199.48801066 406.05382657 199.47937012 403.8848877 C199.46727806 400.77224894 199.46157529 397.65965498 199.45715332 394.54699707 C199.45199203 393.57299957 199.44683075 392.59900208 199.44151306 391.5954895 C199.44139977 390.24431534 199.44139977 390.24431534 199.44128418 388.86584473 C199.43906357 388.07086578 199.43684296 387.27588684 199.43455505 386.45681763 C199.55480957 384.50793457 199.55480957 384.50793457 200.55480957 382.50793457 C298.23480957 382.50793457 395.91480957 382.50793457 496.55480957 382.50793457 C496.55480957 313.86793457 496.55480957 245.22793457 496.55480957 174.50793457 C314.06480957 174.50793457 131.57480957 174.50793457 -56.44519043 174.50793457 C-57.70652525 171.98526493 -57.57103804 170.25740694 -57.57217407 167.43305969 C-57.5749939 166.35814774 -57.57781372 165.28323578 -57.58071899 164.17575073 C-57.57869476 162.99091095 -57.57667053 161.80607117 -57.57458496 160.58532715 C-57.57721344 158.7190844 -57.57721344 158.7190844 -57.57989502 156.81513977 C-57.5835521 153.39285141 -57.58267915 149.97062322 -57.57951593 146.54833817 C-57.57698391 142.95720733 -57.5793329 139.36607906 -57.5809021 135.77494812 C-57.58272438 129.7296401 -57.58031915 123.68434426 -57.57556152 117.63903809 C-57.57015075 110.68423689 -57.57185796 103.72946515 -57.57738793 96.7746647 C-57.58195581 90.78717577 -57.58255081 84.79969561 -57.57994926 78.81220549 C-57.57840243 75.24420707 -57.57814774 71.67622237 -57.58148575 68.10822487 C-57.61395504 27.3440426 -57.61395504 27.3440426 -52.44519043 20.50793457 C-51.78519043 20.50793457 -51.12519043 20.50793457 -50.44519043 20.50793457 C-49.23891035 18.17579309 -48.27971663 16.01151319 -47.44519043 13.50793457 C-46.1380377 12.79129382 -44.79883584 12.13232735 -43.44519043 11.50793457 C-41.15738593 9.82523778 -38.90608076 8.10253082 -36.66394043 6.35949707 C-24.90586597 -0.40424964 -13.14530771 -0.06048683 0 0 Z M-54.44519043 25.50793457 C-53.44519043 27.50793457 -53.44519043 27.50793457 -53.44519043 27.50793457 Z M539.55480957 25.50793457 C540.55480957 27.50793457 540.55480957 27.50793457 540.55480957 27.50793457 Z M-55.44519043 28.50793457 C-54.44519043 30.50793457 -54.44519043 30.50793457 -54.44519043 30.50793457 Z M-12.44519043 44.50793457 C-12.44519043 44.83793457 -12.44519043 45.16793457 -12.44519043 45.50793457 C156.18480957 45.50793457 324.81480957 45.50793457 498.55480957 45.50793457 C498.55480957 45.17793457 498.55480957 44.84793457 498.55480957 44.50793457 C329.92480957 44.50793457 161.29480957 44.50793457 -12.44519043 44.50793457 Z M-12.44519043 46.50793457 C-12.44519043 58.71793457 -12.44519043 70.92793457 -12.44519043 83.50793457 C-12.11519043 83.50793457 -11.78519043 83.50793457 -11.44519043 83.50793457 C-11.44519043 71.29793457 -11.44519043 59.08793457 -11.44519043 46.50793457 C-11.77519043 46.50793457 -12.10519043 46.50793457 -12.44519043 46.50793457 Z M-10.44519043 46.50793457 C-10.44519043 58.71793457 -10.44519043 70.92793457 -10.44519043 83.50793457 C156.86480957 83.50793457 324.17480957 83.50793457 496.55480957 83.50793457 C496.55480957 71.29793457 496.55480957 59.08793457 496.55480957 46.50793457 C329.24480957 46.50793457 161.93480957 46.50793457 -10.44519043 46.50793457 Z M497.55480957 46.50793457 C497.55480957 58.71793457 497.55480957 70.92793457 497.55480957 83.50793457 C497.88480957 83.50793457 498.21480957 83.50793457 498.55480957 83.50793457 C498.55480957 71.29793457 498.55480957 59.08793457 498.55480957 46.50793457 C498.22480957 46.50793457 497.89480957 46.50793457 497.55480957 46.50793457 Z M-12.44519043 84.50793457 C-12.44519043 84.83793457 -12.44519043 85.16793457 -12.44519043 85.50793457 C156.18480957 85.50793457 324.81480957 85.50793457 498.55480957 85.50793457 C498.55480957 85.17793457 498.55480957 84.84793457 498.55480957 84.50793457 C329.92480957 84.50793457 161.29480957 84.50793457 -12.44519043 84.50793457 Z M497.55480957 174.50793457 C497.55480957 243.14793457 497.55480957 311.78793457 497.55480957 382.50793457 C497.88480957 382.50793457 498.21480957 382.50793457 498.55480957 382.50793457 C498.55480957 313.86793457 498.55480957 245.22793457 498.55480957 174.50793457 C498.22480957 174.50793457 497.89480957 174.50793457 497.55480957 174.50793457 Z M541.55480957 395.50793457 C542.55480957 398.50793457 542.55480957 398.50793457 542.55480957 398.50793457 Z " fill="#4296E0" transform="translate(250.4451904296875,192.4920654296875)"/>
<path d="M0 0 C0.76290344 -0.00040283 1.52580688 -0.00080566 2.31182861 -0.0012207 C38.35680586 0.10770204 74.1944823 12.61922705 100.3828125 37.94140625 C102.14683628 39.5685044 102.14683628 39.5685044 104.3671875 39.96484375 C106.25 40.4375 106.25 40.4375 108.25 43.4375 C109.095625 44.076875 109.94125 44.71625 110.8125 45.375 C113.25 47.4375 113.25 47.4375 113.75 49.5 C114.08544839 51.7364159 114.08544839 51.7364159 116.75 52.9375 C119.25 54.4375 119.25 54.4375 120.0625 56.625 C120.124375 57.223125 120.18625 57.82125 120.25 58.4375 C120.91 58.4375 121.57 58.4375 122.25 58.4375 C122.353125 59.035625 122.45625 59.63375 122.5625 60.25 C123.34995328 62.75553315 124.25903861 63.76509243 126.25 65.4375 C126.91 65.7675 127.57 66.0975 128.25 66.4375 C128.59153937 68.10250443 128.92449498 69.76928677 129.25 71.4375 C129.91 72.0975 130.57 72.7575 131.25 73.4375 C134.85592184 77.62502214 137.82287275 81.69168195 138.6875 87.25 C139.61899478 92.52847041 141.74965737 97.52326975 145.0625 101.75 C145.454375 102.306875 145.84625 102.86375 146.25 103.4375 C146.07210938 103.97375 145.89421875 104.51 145.7109375 105.0625 C145.02196823 108.61244338 146.14380835 111.70391932 147.0625 115.125 C152.16127333 135.53983902 152.25177085 155.69101901 149.25 176.4375 C149.07082031 177.70722656 148.89164062 178.97695313 148.70703125 180.28515625 C147.81345634 186.35205958 146.63725216 191.53532946 144.25 197.1875 C142.56955379 201.33990695 141.63700605 204.98693047 141.25 209.4375 C140.26 209.4375 139.27 209.4375 138.25 209.4375 C138.91 209.7675 139.57 210.0975 140.25 210.4375 C139.7859375 211.30375 139.7859375 211.30375 139.3125 212.1875 C138.19292088 214.34091439 138.19292088 214.34091439 137.8125 216.4375 C137.11438408 218.91968993 135.80142476 220.38961932 134.25 222.4375 C133.97027344 223.17613281 133.69054687 223.91476562 133.40234375 224.67578125 C132.02833003 227.96875651 130.23511631 230.72442198 128.25 233.6875 C127.54875 234.74453125 126.8475 235.8015625 126.125 236.890625 C124.25 239.4375 124.25 239.4375 122.25 240.4375 C121.92 241.4275 121.59 242.4175 121.25 243.4375 C120.59 243.7675 119.93 244.0975 119.25 244.4375 C118.96125 245.076875 118.6725 245.71625 118.375 246.375 C117.25 248.4375 117.25 248.4375 115.3762207 249.37329102 C113.10570096 250.50972408 111.83084825 251.68087546 110.10546875 253.52734375 C109.51886475 254.14150146 108.93226074 254.75565918 108.32788086 255.38842773 C107.70405518 256.04399658 107.08022949 256.69956543 106.4375 257.375 C79.58965696 284.8342914 42.35231727 300.09656007 4.13964844 300.7890625 C-8.40715259 300.86346903 -20.55490412 300.51810411 -32.75 297.4375 C-33.93480957 297.13948486 -33.93480957 297.13948486 -35.14355469 296.83544922 C-59.28318534 290.55349855 -79.84370638 279.67504809 -98.75 263.4375 C-102.41634592 260.35263108 -102.41634592 260.35263108 -106.75 258.4375 C-107.08 257.7775 -107.41 257.1175 -107.75 256.4375 C-108.9875 255.509375 -108.9875 255.509375 -110.25 254.5625 C-112.75 252.4375 -112.75 252.4375 -113.25 250.375 C-113.58997427 248.13848641 -113.58997427 248.13848641 -116.25 246.875 C-117.075 246.400625 -117.9 245.92625 -118.75 245.4375 C-119.08 244.4475 -119.41 243.4575 -119.75 242.4375 C-120.41 242.1075 -121.07 241.7775 -121.75 241.4375 C-122.08 240.4475 -122.41 239.4575 -122.75 238.4375 C-123.74 237.509375 -123.74 237.509375 -124.75 236.5625 C-127.02060644 234.14998065 -127.39008575 232.67672825 -127.75 229.4375 C-128.41 229.4375 -129.07 229.4375 -129.75 229.4375 C-131.37157738 227.10242857 -132.5958028 225.0928381 -133.25 222.3125 C-133.87136737 219.98237238 -134.95595437 218.99753968 -136.75 217.4375 C-135.75 215.4375 -135.75 215.4375 -134.75 214.4375 C-135.74 214.4375 -136.73 214.4375 -137.75 214.4375 C-137.90275391 213.24253906 -137.90275391 213.24253906 -138.05859375 212.0234375 C-138.92178412 207.54655186 -140.33272076 203.36793659 -141.8125 199.0625 C-142.09416016 198.23105469 -142.37582031 197.39960937 -142.66601562 196.54296875 C-143.35657101 194.50641559 -144.05272179 192.47176119 -144.75 190.4375 C-145.41 190.4375 -146.07 190.4375 -146.75 190.4375 C-147.45173653 186.05164671 -147.85834375 181.87959357 -147.75 177.4375 C-148.41 177.1075 -149.07 176.7775 -149.75 176.4375 C-149.82555187 171.08881538 -149.87924485 165.74045775 -149.91479492 160.39135742 C-149.9296529 158.58108088 -149.94994494 156.77083876 -149.97631836 154.96069336 C-150.21090931 138.41513129 -148.92957123 122.467933 -143.625 106.6875 C-141.84712435 101.24112972 -140.46404863 96.14988902 -139.75 90.4375 C-138.75 88.1875 -138.75 88.1875 -137.75 86.4375 C-137.42 85.4475 -137.09 84.4575 -136.75 83.4375 C-135.43678142 81.7549387 -134.10386936 80.08752828 -132.75 78.4375 C-131.68394344 76.53001961 -131.68394344 76.53001961 -131.40234375 74.63671875 C-130.54417986 71.74362731 -129.05688434 69.70519375 -127.3125 67.25 C-126.38630859 65.92935547 -126.38630859 65.92935547 -125.44140625 64.58203125 C-123.75 62.4375 -123.75 62.4375 -121.75 61.4375 C-121.42 60.7775 -121.09 60.1175 -120.75 59.4375 C-120.09 58.7775 -119.43 58.1175 -118.75 57.4375 C-118.42 56.7775 -118.09 56.1175 -117.75 55.4375 C-117.09 54.7775 -116.43 54.1175 -115.75 53.4375 C-115.481875 52.798125 -115.21375 52.15875 -114.9375 51.5 C-113.75 49.4375 -113.75 49.4375 -111.625 48.1875 C-106.72331094 45.20386318 -101.59360816 40.96832447 -99.75 35.4375 C-98.90695313 35.23640625 -98.90695313 35.23640625 -98.046875 35.03125 C-94.68249557 34.16154647 -92.67299222 32.13559512 -90 29.9375 C-75.29420735 18.25831818 -58.01918305 10.3491431 -40.0625 5.125 C-39.23210205 4.88241455 -38.4017041 4.6398291 -37.54614258 4.38989258 C-25.14240926 0.9567489 -12.80905834 -0.00698022 0 0 Z M73.3796978 78.06170654 C72.61460962 78.82863831 71.84952145 79.59557007 71.06124878 80.38574219 C69.74451675 81.69835022 69.74451675 81.69835022 68.40118408 83.03747559 C67.42605504 84.01968365 66.45102165 85.00198667 65.47607422 85.984375 C64.45159113 87.00942189 63.42666813 88.03402926 62.40133667 89.05822754 C59.61192322 91.84706526 56.82873524 94.64204308 54.04658651 97.43812561 C51.14066869 100.35651421 48.22911668 103.26927041 45.31814575 106.18261719 C39.80347464 111.70351384 34.29392314 117.22949064 28.78617203 122.75728989 C22.51690186 129.0488857 16.24197714 135.33482881 9.96656013 141.62029266 C-2.94528249 154.5530616 -15.84997149 167.49294738 -28.75 180.4375 C-32.06992704 178.77753648 -34.41534405 175.87065103 -37 173.25 C-37.61391602 172.63229736 -38.22783203 172.01459473 -38.86035156 171.37817383 C-41.49267805 168.72945385 -44.11908804 166.07489393 -46.74609375 163.42089844 C-48.66204872 161.48692211 -50.58094113 159.55589559 -52.5 157.625 C-53.09586914 157.02083252 -53.69173828 156.41666504 -54.30566406 155.79418945 C-57.24052774 152.73999941 -57.24052774 152.73999941 -60.75 150.4375 C-61.73909356 149.36080101 -62.69353645 148.25192611 -63.625 147.125 C-67.62900503 142.12079334 -67.62900503 142.12079334 -72.75 138.4375 C-73.08 137.7775 -73.41 137.1175 -73.75 136.4375 C-77.94625909 138.07528045 -80.73676785 141.17073182 -83.828125 144.3203125 C-84.39956238 144.89457977 -84.97099976 145.46884705 -85.55975342 146.06051636 C-87.37792945 147.8898581 -89.18901492 149.72604193 -91 151.5625 C-92.23391329 152.80644774 -93.46828322 154.0499427 -94.703125 155.29296875 C-97.72406743 158.33592367 -100.73867092 161.38503254 -103.75 164.4375 C-102.44316301 167.32080643 -101.05277863 169.38314108 -98.8140564 171.61395264 C-98.21390213 172.21685623 -97.61374786 172.81975983 -96.9954071 173.44093323 C-96.33869522 174.09045456 -95.68198334 174.73997589 -95.00537109 175.40917969 C-94.31257553 176.1022673 -93.61977997 176.79535492 -92.9059906 177.50944519 C-90.61651526 179.79752799 -88.3200387 182.07844651 -86.0234375 184.359375 C-84.43402291 185.9450592 -82.84504952 187.53118574 -81.25650024 189.11773682 C-77.07532415 193.29127854 -72.88817654 197.45877917 -68.69976807 201.62506104 C-64.42643937 205.87792719 -60.15877027 210.13646419 -55.890625 214.39453125 C-47.51595419 222.74775559 -39.13496557 231.09461048 -30.75 239.4375 C-26.82429348 237.84571971 -24.18359082 235.14555719 -21.25775146 232.1857605 C-20.71530485 231.64502274 -20.17285824 231.10428498 -19.61397386 230.54716122 C-17.7974326 228.73391438 -15.98813228 226.91361144 -14.17871094 225.09326172 C-12.87807444 223.7920611 -11.57699743 222.49130068 -10.2755127 221.19094849 C-6.74244401 217.65845427 -3.21558124 214.11982188 0.31021595 210.58007193 C3.99553558 206.88226067 7.68650928 203.19010198 11.37689209 199.49734497 C18.36480194 192.50321575 25.34759734 185.50400331 32.32857871 178.50295937 C40.27620987 170.53298347 48.22951209 162.56867714 56.1833005 154.60484672 C72.54519401 138.22204084 88.8999374 121.83211256 105.25 105.4375 C104.30655048 104.32865585 103.36192201 103.22081475 102.41680908 102.11338806 C101.89089802 101.49634978 101.36498695 100.8793115 100.82313919 100.2435751 C97.25281127 96.14458603 93.35020359 92.35177219 89.5078125 88.51000977 C87.98407487 86.98405166 86.4685557 85.45021855 84.953125 83.91601562 C83.9848633 82.94482543 83.01613071 81.97410442 82.046875 81.00390625 C81.17385742 80.12677979 80.30083984 79.24965332 79.40136719 78.34594727 C76.69092656 75.9415539 76.12680468 75.67606588 73.3796978 78.06170654 Z M134.25 80.4375 C135.25 82.4375 135.25 82.4375 135.25 82.4375 Z M143.25 101.4375 C144.25 103.4375 144.25 103.4375 144.25 103.4375 Z M-146.75 183.4375 C-145.75 186.4375 -145.75 186.4375 -145.75 186.4375 Z " fill="#4398E4" transform="translate(257.75,406.5625)"/>
<path d="M0 0 C0.88558594 0.38542969 1.77117187 0.77085937 2.68359375 1.16796875 C8.48345311 3.89575648 13.76396475 7.31959841 19 11 C19.65742187 10.45472656 19.65742187 10.45472656 20.328125 9.8984375 C32.49374519 0.25495808 45.88314615 -4.60369914 61.375 -4.4375 C62.88489502 -4.42505249 62.88489502 -4.42505249 64.42529297 -4.41235352 C76.56326049 -4.13733587 85.64368058 -0.58649287 96.125 5.4140625 C98.90851335 7.05398995 98.90851335 7.05398995 101.75 7.9609375 C104.53951915 9.24915294 104.82919935 10.22758461 106 13 C107.10171971 14.43090825 108.25029427 15.82668139 109.4375 17.1875 C110.03433594 17.88230469 110.63117188 18.57710938 111.24609375 19.29296875 C112.99071085 21.23860337 112.99071085 21.23860337 116 22 C116.061875 22.721875 116.12375 23.44375 116.1875 24.1875 C116.78180205 27.19715398 116.78180205 27.19715398 119.4375 29.125 C122.60771 32.68182098 122.92104049 35.27058649 123.54296875 39.890625 C123.90787887 42.37326134 124.41416112 44.63110823 125.03515625 47.05078125 C126.38339568 52.98601293 126.29230131 58.87783677 126.25 64.9375 C126.25773438 66.07251953 126.26546875 67.20753906 126.2734375 68.37695312 C126.27085937 69.45783203 126.26828125 70.53871094 126.265625 71.65234375 C126.26336914 72.63195068 126.26111328 73.61155762 126.25878906 74.62084961 C126 77 126 77 124 79 C124.33 79.99 124.66 80.98 125 82 C124.34 82.66 123.68 83.32 123 84 C122.67 84.99 122.34 85.98 122 87 C121.3400321 88.66933058 120.67441131 90.3364521 120 92 C119.34 92 118.68 92 118 92 C117.8453125 93.1446875 117.8453125 93.1446875 117.6875 94.3125 C116.9309017 97.27011154 116.18227175 97.99230999 114 100 C113.7215625 100.63164062 113.443125 101.26328125 113.15625 101.9140625 C111.7522559 104.44694376 110.39503523 105.30850578 107.9375 106.8125 C104.68233153 108.86377283 101.74495538 111.01235527 98.8125 113.5 C84.99350616 124.41482701 67.95312787 126.33534911 51 125 C38.74412654 123.2933032 28.07049168 116.83354793 18 110 C17.10539063 110.60328125 16.21078125 111.2065625 15.2890625 111.828125 C-1.32838657 122.87644563 -18.19149824 128.07107203 -38.25 124.3125 C-46.2313491 122.34987317 -52.98875833 119.22363956 -60 115 C-62.35056501 113.75737228 -64.4633797 112.8455401 -67 112 C-67.28875 111.401875 -67.5775 110.80375 -67.875 110.1875 C-69.85095001 106.34537498 -73.4767288 104.34884747 -77 102 C-77.33 101.01 -77.66 100.02 -78 99 C-78.639375 98.443125 -79.27875 97.88625 -79.9375 97.3125 C-82.23552074 94.73593129 -82.7407118 92.68488648 -83.43359375 89.3515625 C-84.32440653 85.65315356 -85.73720443 82.16072354 -87.09765625 78.61328125 C-88.52593457 74.47683885 -89.12662435 70.6032094 -89.1328125 66.234375 C-89.13410156 65.34363281 -89.13539063 64.45289063 -89.13671875 63.53515625 C-89.13285156 62.61605469 -89.12898438 61.69695312 -89.125 60.75 C-89.12886719 59.84636719 -89.13273437 58.94273437 -89.13671875 58.01171875 C-89.1264594 50.88147379 -88.805037 43.92081118 -87 37 C-86.87625 36.319375 -86.7525 35.63875 -86.625 34.9375 C-85.87494577 32.6123319 -84.70771176 31.70771176 -83 30 C-82.855625 29.360625 -82.71125 28.72125 -82.5625 28.0625 C-81.79131459 25.23482017 -80.08064732 24.0175974 -78 22 C-77.67 21.29875 -77.34 20.5975 -77 19.875 C-76 18 -76 18 -74.12109375 17.078125 C-71.84722944 15.92234867 -70.73238918 14.77964814 -69.0625 12.875 C-52.01070486 -4.6149569 -22.25301102 -9.82974731 0 0 Z M-85 34 C-84 36 -84 36 -84 36 Z M-87 39 C-86 41 -86 41 -86 41 Z " fill="#4398E4" transform="translate(582,411)"/>
<path d="M0 0 C0.87801468 -0.00145344 1.75602936 -0.00290688 2.66065055 -0.00440437 C5.61137239 -0.00806226 8.5620425 -0.00457888 11.51276398 -0.0011425 C13.64618821 -0.0022944 15.77961225 -0.00388239 17.91303587 -0.00586975 C23.7825151 -0.0100536 29.65197813 -0.0079766 35.52145743 -0.00488353 C41.84872534 -0.00262583 48.17599041 -0.00611089 54.50325775 -0.00886345 C66.18423041 -0.01305867 77.86519648 -0.0126873 89.5461693 -0.00995198 C100.33678747 -0.00743753 111.12740375 -0.00677921 121.91802216 -0.00797462 C122.9912093 -0.0080892 122.9912093 -0.0080892 124.086077 -0.00820609 C126.99027343 -0.00851743 129.89446986 -0.00883583 132.79866628 -0.00916586 C160.04843514 -0.01222562 187.29820069 -0.00945018 214.54796904 -0.00406896 C238.76365278 0.00067673 262.97933126 0.0002521 287.19501495 -0.00452995 C314.39459263 -0.00988329 341.59416739 -0.01200864 368.79374552 -0.00891769 C371.69268449 -0.00859697 374.59162346 -0.00828413 377.49056244 -0.00797462 C378.2043677 -0.00789555 378.91817296 -0.00781647 379.65360868 -0.007735 C390.43807705 -0.00659699 401.22254333 -0.00792879 412.00701141 -0.01045418 C424.26805877 -0.013311 436.52909834 -0.01250737 448.79014528 -0.00717343 C455.04900743 -0.00454061 461.30785889 -0.00352431 467.56672096 -0.00682259 C473.29201147 -0.00979411 479.01728135 -0.00817834 484.74256998 -0.00284503 C486.81785358 -0.00172453 488.89313891 -0.00230397 490.9684214 -0.00472082 C493.78183417 -0.0077469 496.59517559 -0.00465724 499.40858459 0 C500.22055402 -0.00234117 501.03252345 -0.00468233 501.86909801 -0.00709444 C506.09255882 0.00694698 510.04349675 0.29014782 514.2042923 1.12584114 C514.2042923 1.45584114 514.2042923 1.78584114 514.2042923 2.12584114 C339.6342923 2.12584114 165.0642923 2.12584114 -14.7957077 2.12584114 C-14.7957077 1.79584114 -14.7957077 1.46584114 -14.7957077 1.12584114 C-9.80731171 0.12392476 -5.06104774 -0.01459261 0 0 Z " fill="#000000" transform="translate(243.79570770263672,189.87415885925293)"/>
<path d="M0 0 C0.33 0 0.66 0 1 0 C1 118.8 1 237.6 1 360 C0.67 360 0.34 360 0 360 C0 241.2 0 122.4 0 0 Z " fill="#000000" transform="translate(794,227)"/>
<path d="M0 0 C99.66 0 199.32 0 302 0 C302 0.33 302 0.66 302 1 C202.34 1 102.68 1 0 1 C0 0.67 0 0.34 0 0 Z " fill="#000000" transform="translate(451,623)"/>
<path d="M0 0 C0.33 0 0.66 0 1 0 C0.67 45.21 0.34 90.42 0 137 C-0.33 137 -0.66 137 -1 137 C-1.02337032 120.02334777 -1.0409995 103.04670057 -1.05181217 86.07003593 C-1.05696634 78.18731015 -1.0639923 70.30459437 -1.07543945 62.421875 C-1.08541313 55.55053263 -1.09185983 48.6791975 -1.09408849 41.8078481 C-1.09539103 38.17023835 -1.09844803 34.53264933 -1.10573006 30.89504623 C-1.11379724 26.8322025 -1.1139894 22.76939469 -1.11352539 18.70654297 C-1.11712067 17.50316788 -1.12071594 16.29979279 -1.12442017 15.05995178 C-1.1230455 13.94944962 -1.12167084 12.83894745 -1.12025452 11.6947937 C-1.12117631 10.73428541 -1.1220981 9.77377712 -1.12304783 8.78416252 C-0.99075589 5.79083659 -0.54821111 2.94326564 0 0 Z " fill="#000000" transform="translate(192,227)"/>
<path d="M0 0 C0 3 0 3 -1.28515625 4.54296875 C-1.87167969 5.08566406 -2.45820313 5.62835937 -3.0625 6.1875 C-6.44300049 9.40343252 -9.45134964 12.80326896 -12.421875 16.3984375 C-14 18 -14 18 -17 19 C-17.27714844 19.57363281 -17.55429688 20.14726563 -17.83984375 20.73828125 C-19.45448396 23.88601418 -21.94138998 25.89098187 -24.5625 28.1875 C-25.64344838 29.15455221 -26.72285744 30.12332759 -27.80078125 31.09375 C-28.33783691 31.57714844 -28.87489258 32.06054688 -29.42822266 32.55859375 C-33.07983351 35.90732169 -36.53701325 39.458309 -40 43 C-40 40 -40 40 -38.48144531 38.12068176 C-37.77084961 37.41674789 -37.06025391 36.71281403 -36.328125 35.98754883 C-35.52729492 35.18694534 -34.72646484 34.38634186 -33.90136719 33.56147766 C-33.02641602 32.70201035 -32.15146484 31.84254303 -31.25 30.95703125 C-30.3621582 30.0734343 -29.47431641 29.18983734 -28.55957031 28.27946472 C-26.19749372 25.93135977 -23.82914118 23.58996475 -21.45751953 21.25152588 C-19.03919125 18.86388241 -16.62933037 16.46772672 -14.21875 14.07226562 C-9.48695353 9.37360317 -4.74670259 4.68360083 0 0 Z " fill="#5F9BD0" transform="translate(272,602)"/>
<path d="M0 0 C0.66 0.33 1.32 0.66 2 1 C0.89591797 2.08667969 0.89591797 2.08667969 -0.23046875 3.1953125 C-6.21268411 8.9901917 -6.21268411 8.9901917 -11.6875 15.25 C-14.13585836 18.1615613 -16.77453043 20.46411209 -19.6640625 22.921875 C-24.31749391 27.06171699 -28.63367584 31.56143886 -33 36 C-33 33 -33 33 -31.74719238 31.38642883 C-31.16095093 30.80684921 -30.57470947 30.22726959 -29.97070312 29.63012695 C-29.31001831 28.96966873 -28.6493335 28.30921051 -27.96862793 27.6287384 C-27.24679321 26.92238754 -26.5249585 26.21603668 -25.78125 25.48828125 C-25.04878052 24.76005661 -24.31631104 24.03183197 -23.56164551 23.28153992 C-21.21469173 20.95141304 -18.85753427 18.63191672 -16.5 16.3125 C-14.9094745 14.73701608 -13.31962177 13.16085266 -11.73046875 11.58398438 C-7.82809217 7.7147303 -3.91728183 3.85415989 0 0 Z " fill="#669ECF" transform="translate(310,564)"/>
<path d="M0 0 C0.33 0 0.66 0 1 0 C1 14.19 1 28.38 1 43 C0.67 43 0.34 43 0 43 C0 28.81 0 14.62 0 0 Z " fill="#000000" transform="translate(448,578)"/>
<path d="M0 0 C10.23 0 20.46 0 31 0 C31 0.33 31 0.66 31 1 C20.43955831 2.10539203 10.56044169 2.10539203 0 1 C0 0.67 0 0.34 0 0 Z " fill="#000000" transform="translate(243,708)"/>
<path d="M0 0 C0 0.33 0 0.66 0 1 C-10.89 1 -21.78 1 -33 1 C-33 0.67 -33 0.34 -33 0 C-21.90953423 -1.31547495 -11.11155359 -0.72009071 0 0 Z " fill="#000000" transform="translate(275,405)"/>
<path d="M0 0 C0.33 0 0.66 0 1 0 C0.67 11.55 0.34 23.1 0 35 C-0.33 35 -0.66 35 -1 35 C-1.02485364 30.97982745 -1.04293238 26.95968512 -1.05493164 22.93945312 C-1.05993786 21.5738853 -1.06674482 20.20832276 -1.07543945 18.84277344 C-1.08766831 16.87176882 -1.09272866 14.9007239 -1.09765625 12.9296875 C-1.10289307 11.74616699 -1.10812988 10.56264648 -1.11352539 9.34326172 C-1.00470177 6.13846468 -0.60517483 3.14523388 0 0 Z " fill="#000000" transform="translate(107,536)"/>
<path d="M0 0 C3 1 3 1 3.875 2.6875 C4.431875 3.8321875 4.431875 3.8321875 5 5 C6.59716811 7.06722076 8.29136328 9.02157854 10 11 C7 11 7 11 4.3125 8.625 C2 6 2 6 2 4 C1.34 4 0.68 4 0 4 C0 2.68 0 1.36 0 0 Z " fill="#49769D" transform="translate(683,419)"/>
<path d="M0 0 C1.8038804 3.6077608 2.25438226 4.6704476 2.265625 8.40625 C2.26949219 9.64568359 2.26949219 9.64568359 2.2734375 10.91015625 C2.26570312 11.76480469 2.25796875 12.61945313 2.25 13.5 C2.25773438 14.35464844 2.26546875 15.20929688 2.2734375 16.08984375 C2.27085937 16.91613281 2.26828125 17.74242187 2.265625 18.59375 C2.26336914 19.34333984 2.26111328 20.09292969 2.25878906 20.86523438 C2 23 2 23 0 27 C0 18.09 0 9.18 0 0 Z " fill="#000000" transform="translate(708,458)"/>
<path d="M0 0 C8.25 0.33 16.5 0.66 25 1 C25 1.33 25 1.66 25 2 C21.58340509 2.05816623 18.16693795 2.09365195 14.75 2.125 C13.29787109 2.15013672 13.29787109 2.15013672 11.81640625 2.17578125 C10.41455078 2.18544922 10.41455078 2.18544922 8.984375 2.1953125 C8.12553711 2.20578613 7.26669922 2.21625977 6.38183594 2.22705078 C4 2 4 2 0 0 Z " fill="#000000" transform="translate(543,536)"/>
<path d="M0 0 C0 0.33 0 0.66 0 1 C-6.93 1 -13.86 1 -21 1 C-21 0.67 -21 0.34 -21 0 C-13.82242235 -1.01202288 -7.18808741 -0.88826175 0 0 Z " fill="#000000" transform="translate(568,405)"/>
<path d="M0 0 C0 0.33 0 0.66 0 1 C-6.93 1 -13.86 1 -21 1 C-21 0.67 -21 0.34 -21 0 C-13.80827843 -1.07875823 -7.21805755 -0.7938642 0 0 Z " fill="#000000" transform="translate(654,405)"/>
<path d="M0 0 C0.33 0 0.66 0 1 0 C1.24991456 6.65050424 0.73955334 12.56986533 -1 19 C-2.45839897 15.04294544 -1.67906093 11.30168612 -1.0625 7.25 C-0.96259766 6.55261719 -0.86269531 5.85523438 -0.75976562 5.13671875 C-0.51334127 3.42348274 -0.25759045 1.71159275 0 0 Z " fill="#000000" transform="translate(409,568)"/>
<path d="M0 0 C6.6 0 13.2 0 20 0 C20 0.33 20 0.66 20 1 C13.4 1 6.8 1 0 1 C0 0.67 0 0.34 0 0 Z " fill="#000000" transform="translate(633,537)"/>
<path d="M0 0 C0.33 0 0.66 0 1 0 C1 6.6 1 13.2 1 20 C0.67 20 0.34 20 0 20 C0 13.4 0 6.8 0 0 Z " fill="#000000" transform="translate(491,461)"/>
<path d="M0 0 C0.33 0.99 0.66 1.98 1 3 C-0.32 4.32 -1.64 5.64 -3 7 C-3.99 6.67 -4.98 6.34 -6 6 C-4.02 4.02 -2.04 2.04 0 0 Z " fill="#5797D0" transform="translate(299,575)"/>
<path d="M0 0 C5.63281599 -0.2396943 10.54538831 0.61470179 16 2 C16 2.33 16 2.66 16 3 C10.63108121 2.50130596 5.30764827 1.97772468 0 1 C0 0.67 0 0.34 0 0 Z " fill="#000000" transform="translate(277,406)"/>
<path d="M0 0 C0.33 0 0.66 0 1 0 C1 3.63 1 7.26 1 11 C0.67 11 0.34 11 0 11 C0 7.37 0 3.74 0 0 Z " fill="#000000" transform="translate(410,551)"/>
<path d="M0 0 C1.9955516 3.99110319 2.19546065 5.69986566 2 10 C1.67 10 1.34 10 1 10 C0.67 6.7 0.34 3.4 0 0 Z " fill="#000000" transform="translate(407,526)"/>
<path d="M0 0 C0.33 0 0.66 0 1 0 C1 2.97 1 5.94 1 9 C0.67 9 0.34 9 0 9 C0 6.03 0 3.06 0 0 Z " fill="#000000" transform="translate(409,536)"/>
<path d="M0 0 C2.31 0.33 4.62 0.66 7 1 C5.1875 1.625 5.1875 1.625 3 2 C2.01 1.34 1.02 0.68 0 0 Z " fill="#000000" transform="translate(294,409)"/>
<path d="M0 0 C2.31 0 4.62 0 7 0 C7 0.33 7 0.66 7 1 C4.69 1 2.38 1 0 1 C0 0.67 0 0.34 0 0 Z " fill="#000000" transform="translate(274,707)"/>
<path d="M0 0 C2.31 0 4.62 0 7 0 C7 0.33 7 0.66 7 1 C4.69 1 2.38 1 0 1 C0 0.67 0 0.34 0 0 Z " fill="#000000" transform="translate(236,707)"/>
<path d="M0 0 C2.97 0.495 2.97 0.495 6 1 C4.125 1.625 4.125 1.625 2 2 C1.34 1.34 0.68 0.68 0 0 Z " fill="#000000" transform="translate(214,702)"/>
<path d="M0 0 C0.33 0 0.66 0 1 0 C1 2.31 1 4.62 1 7 C0.67 7 0.34 7 0 7 C0 4.69 0 2.38 0 0 Z " fill="#000000" transform="translate(107,571)"/>
<path d="M0 0 C0.99 0.33 1.98 0.66 3 1 C1.02 1.33 -0.96 1.66 -3 2 C-2.01 1.34 -1.02 0.68 0 0 Z " fill="#000000" transform="translate(576,534)"/>
<path d="M0 0 C2.97 0.495 2.97 0.495 6 1 C4.125 1.625 4.125 1.625 2 2 C1.34 1.34 0.68 0.68 0 0 Z " fill="#000000" transform="translate(536,534)"/>
<path d="M0 0 C0.33 0.99 0.66 1.98 1 3 C0.34 3.99 -0.32 4.98 -1 6 C-0.67 4.02 -0.34 2.04 0 0 Z " fill="#000000" transform="translate(113,510)"/>
<path d="M0 0 C2.475 0.495 2.475 0.495 5 1 C4.01 1.33 3.02 1.66 2 2 C1.34 1.34 0.68 0.68 0 0 Z " fill="#000000" transform="translate(205,699)"/>
<path d="M0 0 C0.33 0.99 0.66 1.98 1 3 C0.34 3.66 -0.32 4.32 -1 5 C-0.67 3.35 -0.34 1.7 0 0 Z " fill="#000000" transform="translate(403,601)"/>
<path d="M0 0 C0.99 0.33 1.98 0.66 3 1 C1.35 1.33 -0.3 1.66 -2 2 C-1.34 1.34 -0.68 0.68 0 0 Z " fill="#000000" transform="translate(201,415)"/>
<path d="M0 0 C0.99 0.33 1.98 0.66 3 1 C1.35 1.33 -0.3 1.66 -2 2 C-1.34 1.34 -0.68 0.68 0 0 Z " fill="#000000" transform="translate(209,412)"/>
<path d="M0 0 C2.475 0.495 2.475 0.495 5 1 C4.01 1.33 3.02 1.66 2 2 C1.34 1.34 0.68 0.68 0 0 Z " fill="#000000" transform="translate(580,409)"/>
<path d="M0 0 C0.99 0.33 1.98 0.66 3 1 C1.35 1.33 -0.3 1.66 -2 2 C-1.34 1.34 -0.68 0.68 0 0 Z " fill="#000000" transform="translate(532,409)"/>
<path d="M0 0 C1.98 0 3.96 0 6 0 C6 0.33 6 0.66 6 1 C4.02 1 2.04 1 0 1 C0 0.67 0 0.34 0 0 Z " fill="#000000" transform="translate(233,406)"/>
<path d="M0 0 C2.475 0.495 2.475 0.495 5 1 C4.01 1.33 3.02 1.66 2 2 C1.34 1.34 0.68 0.68 0 0 Z " fill="#000000" transform="translate(763,193)"/>
<path d="M0 0 C0.99 0.33 1.98 0.66 3 1 C1.35 1.33 -0.3 1.66 -2 2 C-1.34 1.34 -0.68 0.68 0 0 Z " fill="#000000" transform="translate(221,193)"/>
<path d="M0 0 C1.65 0 3.3 0 5 0 C5 0.33 5 0.66 5 1 C3.35 1 1.7 1 0 1 C0 0.67 0 0.34 0 0 Z " fill="#000000" transform="translate(283,706)"/>
<path d="M0 0 C1.65 0 3.3 0 5 0 C5 0.33 5 0.66 5 1 C3.35 1 1.7 1 0 1 C0 0.67 0 0.34 0 0 Z " fill="#000000" transform="translate(229,706)"/>
<path d="M0 0 C0.66 0.33 1.32 0.66 2 1 C0.68 1.33 -0.64 1.66 -2 2 C-1.34 1.34 -0.68 0.68 0 0 Z " fill="#000000" transform="translate(329,690)"/>
<path d="M0 0 C1.65 0 3.3 0 5 0 C5 0.33 5 0.66 5 1 C3.35 1 1.7 1 0 1 C0 0.67 0 0.34 0 0 Z " fill="#000000" transform="translate(756,622)"/>
<path d="M0 0 C0.33 0 0.66 0 1 0 C1 1.65 1 3.3 1 5 C0.67 5 0.34 5 0 5 C0 3.35 0 1.7 0 0 Z " fill="#000000" transform="translate(109,585)"/>
<path d="M0 0 C0.99 0.99 1.98 1.98 3 3 C2.01 2.67 1.02 2.34 0 2 C0 1.34 0 0.68 0 0 Z " fill="#000000" transform="translate(223,584)"/>
<path d="M0 0 C0.99 0.99 1.98 1.98 3 3 C2.01 2.67 1.02 2.34 0 2 C0 1.34 0 0.68 0 0 Z " fill="#000000" transform="translate(220,581)"/>
<path d="M0 0 C0.99 0.99 1.98 1.98 3 3 C2.01 2.67 1.02 2.34 0 2 C0 1.34 0 0.68 0 0 Z " fill="#000000" transform="translate(217,578)"/>
<path d="M0 0 C0.99 0.99 1.98 1.98 3 3 C2.01 2.67 1.02 2.34 0 2 C0 1.34 0 0.68 0 0 Z " fill="#000000" transform="translate(214,575)"/>
<path d="M0 0 C0.99 0.99 1.98 1.98 3 3 C2.01 2.67 1.02 2.34 0 2 C0 1.34 0 0.68 0 0 Z " fill="#000000" transform="translate(211,572)"/>
<path d="M0 0 C0.99 0.99 1.98 1.98 3 3 C2.01 2.67 1.02 2.34 0 2 C0 1.34 0 0.68 0 0 Z " fill="#000000" transform="translate(205,566)"/>
<path d="M0 0 C0.99 0.99 1.98 1.98 3 3 C2.01 2.67 1.02 2.34 0 2 C0 1.34 0 0.68 0 0 Z " fill="#000000" transform="translate(202,563)"/>
<path d="M0 0 C0.99 0.99 1.98 1.98 3 3 C2.01 2.67 1.02 2.34 0 2 C0 1.34 0 0.68 0 0 Z " fill="#000000" transform="translate(199,560)"/>
<path d="M0 0 C0.99 0.99 1.98 1.98 3 3 C2.01 2.67 1.02 2.34 0 2 C0 1.34 0 0.68 0 0 Z " fill="#000000" transform="translate(193,554)"/>
<path d="M0 0 C0.99 0.99 1.98 1.98 3 3 C2.01 2.67 1.02 2.34 0 2 C0 1.34 0 0.68 0 0 Z " fill="#000000" transform="translate(190,551)"/>
<path d="M0 0 C0.99 0.99 1.98 1.98 3 3 C2.01 2.67 1.02 2.34 0 2 C0 1.34 0 0.68 0 0 Z " fill="#000000" transform="translate(187,548)"/>
<path d="M0 0 C1.98 0.99 1.98 0.99 4 2 C2.68 1.67 1.36 1.34 0 1 C0 0.67 0 0.34 0 0 Z " fill="#000000" transform="translate(615,531)"/>
<path d="M0 0 C0.33 0 0.66 0 1 0 C1 1.65 1 3.3 1 5 C0.67 5 0.34 5 0 5 C0 3.35 0 1.7 0 0 Z " fill="#000000" transform="translate(108,530)"/>
<path d="M0 0 C0.33 0 0.66 0 1 0 C1 1.65 1 3.3 1 5 C0.67 5 0.34 5 0 5 C0 3.35 0 1.7 0 0 Z " fill="#000000" transform="translate(109,524)"/>
<path d="M0 0 C0.66 1.32 1.32 2.64 2 4 C1.34 3.67 0.68 3.34 0 3 C0 2.01 0 1.02 0 0 Z " fill="#000000" transform="translate(496,496)"/>
<path d="M0 0 C0.99 0.33 1.98 0.66 3 1 C2.67 1.66 2.34 2.32 2 3 C1.34 2.01 0.68 1.02 0 0 Z " fill="#000000" transform="translate(371,456)"/>
<path d="M0 0 C1.32 0.33 2.64 0.66 4 1 C3.01 1.495 3.01 1.495 2 2 C1.34 1.34 0.68 0.68 0 0 Z " fill="#000000" transform="translate(672,412)"/>
<path d="M0 0 C1.65 0 3.3 0 5 0 C5 0.33 5 0.66 5 1 C3.35 1 1.7 1 0 1 C0 0.67 0 0.34 0 0 Z " fill="#000000" transform="translate(228,407)"/>
<path d="M0 0 C1.65 0 3.3 0 5 0 C5 0.33 5 0.66 5 1 C3.35 1 1.7 1 0 1 C0 0.67 0 0.34 0 0 Z " fill="#000000" transform="translate(655,406)"/>
<path d="M0 0 C4 1 4 1 4 1 Z " fill="#000000" transform="translate(288,705)"/>
<path d="M0 0 C4 1 4 1 4 1 Z " fill="#000000" transform="translate(225,705)"/>
<path d="M0 0 C4 1 4 1 4 1 Z " fill="#000000" transform="translate(221,704)"/>
<path d="M0 0 C0.99 0.33 1.98 0.66 3 1 C2.01 1 1.02 1 0 1 C0 0.67 0 0.34 0 0 Z " fill="#000000" transform="translate(179,686)"/>
<path d="M0 0 C0.66 0.33 1.32 0.66 2 1 C1.01 1 0.02 1 -1 1 C-0.67 0.67 -0.34 0.34 0 0 Z " fill="#000000" transform="translate(339,684)"/>
<path d="M0 0 C0.99 0.33 1.98 0.66 3 1 C2.01 1 1.02 1 0 1 C0 0.67 0 0.34 0 0 Z " fill="#000000" transform="translate(167,678)"/>
<path d="M0 0 C0.66 0.33 1.32 0.66 2 1 C1.01 1 0.02 1 -1 1 C-0.67 0.67 -0.34 0.34 0 0 Z " fill="#000000" transform="translate(349,677)"/>
<path d="M0 0 C0.99 0.33 1.98 0.66 3 1 C2.01 1 1.02 1 0 1 C0 0.67 0 0.34 0 0 Z " fill="#000000" transform="translate(162,674)"/>
<path d="M0 0 C0.99 0.33 1.98 0.66 3 1 C2.01 1 1.02 1 0 1 C0 0.67 0 0.34 0 0 Z " fill="#000000" transform="translate(154,667)"/>
<path d="M0 0 C1 4 1 4 1 4 Z " fill="#000000" transform="translate(406,589)"/>
<path d="M0 0 C4 1 4 1 4 1 Z " fill="#000000" transform="translate(653,536)"/>
<path d="M0 0 C4 1 4 1 4 1 Z " fill="#000000" transform="translate(629,536)"/>
<path d="M0 0 C4 1 4 1 4 1 Z " fill="#000000" transform="translate(568,536)"/>
<path d="M0 0 C4 1 4 1 4 1 Z " fill="#000000" transform="translate(624,535)"/>
<path d="M0 0 C0.99 0.33 1.98 0.66 3 1 C2.01 1 1.02 1 0 1 C0 0.67 0 0.34 0 0 Z " fill="#000000" transform="translate(522,527)"/>
<path d="M0 0 C0.99 0.33 1.98 0.66 3 1 C2.01 1 1.02 1 0 1 C0 0.67 0 0.34 0 0 Z " fill="#000000" transform="translate(519,525)"/>
<path d="M0 0 C1 4 1 4 1 4 Z " fill="#000000" transform="translate(406,521)"/>
<path d="M0 0 C1 4 1 4 1 4 Z " fill="#000000" transform="translate(110,520)"/>
<path d="M0 0 C0.66 0.33 1.32 0.66 2 1 C1.01 1 0.02 1 -1 1 C-0.67 0.67 -0.34 0.34 0 0 Z " fill="#000000" transform="translate(686,520)"/>
<path d="M0 0 C1 4 1 4 1 4 Z " fill="#000000" transform="translate(492,482)"/>
<path d="M0 0 C0.99 0.495 0.99 0.495 2 1 C1.67 1.66 1.34 2.32 1 3 C0.67 2.01 0.34 1.02 0 0 Z " fill="#000000" transform="translate(386,475)"/>
<path d="M0 0 C1 4 1 4 1 4 Z " fill="#000000" transform="translate(492,457)"/>
<path d="M0 0 C1 4 1 4 1 4 Z " fill="#000000" transform="translate(493,452)"/>
<path d="M0 0 C0.99 0.33 1.98 0.66 3 1 C2.01 1 1.02 1 0 1 C0 0.67 0 0.34 0 0 Z " fill="#000000" transform="translate(359,444)"/>
<path d="M0 0 C0.99 0.495 0.99 0.495 2 1 C1.67 1.66 1.34 2.32 1 3 C0.67 2.01 0.34 1.02 0 0 Z " fill="#000000" transform="translate(699,436)"/>
<path d="M0 0 C0.99 0.33 1.98 0.66 3 1 C2.01 1 1.02 1 0 1 C0 0.67 0 0.34 0 0 Z " fill="#000000" transform="translate(347,434)"/>
<path d="M0 0 C0.66 0.33 1.32 0.66 2 1 C1.01 1 0.02 1 -1 1 C-0.67 0.67 -0.34 0.34 0 0 Z " fill="#000000" transform="translate(169,433)"/>
<path d="M0 0 C0.99 0.33 1.98 0.66 3 1 C2.01 1 1.02 1 0 1 C0 0.67 0 0.34 0 0 Z " fill="#000000" transform="translate(337,427)"/>
<path d="M0 0 C0.99 0.33 1.98 0.66 3 1 C2.01 1 1.02 1 0 1 C0 0.67 0 0.34 0 0 Z " fill="#000000" transform="translate(332,424)"/>
<path d="M0 0 C0.99 0.33 1.98 0.66 3 1 C2.01 1 1.02 1 0 1 C0 0.67 0 0.34 0 0 Z " fill="#000000" transform="translate(596,418)"/>
<path d="M0 0 C0.66 0.33 1.32 0.66 2 1 C1.01 1 0.02 1 -1 1 C-0.67 0.67 -0.34 0.34 0 0 Z " fill="#000000" transform="translate(521,415)"/>
<path d="M0 0 C0.99 0.33 1.98 0.66 3 1 C2.01 1 1.02 1 0 1 C0 0.67 0 0.34 0 0 Z " fill="#000000" transform="translate(587,412)"/>
<path d="M0 0 C4 1 4 1 4 1 Z " fill="#000000" transform="translate(219,409)"/>
<path d="M0 0 C4 1 4 1 4 1 Z " fill="#000000" transform="translate(224,408)"/>
<path d="M0 0 C4 1 4 1 4 1 Z " fill="#000000" transform="translate(627,406)"/>
<path d="M0 0 C4 1 4 1 4 1 Z " fill="#000000" transform="translate(570,406)"/>
<path d="M0 0 C4 1 4 1 4 1 Z " fill="#000000" transform="translate(541,406)"/>
<path d="M0 0 C4 1 4 1 4 1 Z " fill="#000000" transform="translate(758,192)"/>
<path d="M0 0 C4 1 4 1 4 1 Z " fill="#000000" transform="translate(225,192)"/>
<path d="M0 0 C3 1 3 1 3 1 Z " fill="#000000" transform="translate(292,704)"/>
<path d="M0 0 C3 1 3 1 3 1 Z " fill="#000000" transform="translate(297,703)"/>
<path d="M0 0 C3 1 3 1 3 1 Z " fill="#000000" transform="translate(300,702)"/>
<path d="M0 0 C3 1 3 1 3 1 Z " fill="#000000" transform="translate(303,701)"/>
<path d="M0 0 C3 1 3 1 3 1 Z " fill="#000000" transform="translate(211,701)"/>
<path d="M0 0 C3 1 3 1 3 1 Z " fill="#000000" transform="translate(309,699)"/>
<path d="M0 0 C0.66 0.66 1.32 1.32 2 2 C1.34 2 0.68 2 0 2 C0 1.34 0 0.68 0 0 Z " fill="#000000" transform="translate(157,669)"/>
<path d="M0 0 C3 1 3 1 3 1 Z " fill="#000000" transform="translate(761,621)"/>
<path d="" fill="#000000" transform="translate(0,0)"/>
<path d="M0 0 C0.33 0.66 0.66 1.32 1 2 C0.34 1.67 -0.32 1.34 -1 1 C-0.67 0.67 -0.34 0.34 0 0 Z " fill="#000000" transform="translate(781,609)"/>
<path d="" fill="#000000" transform="translate(0,0)"/>
<path d="" fill="#000000" transform="translate(0,0)"/>
<path d="" fill="#000000" transform="translate(0,0)"/>
<path d="" fill="#000000" transform="translate(0,0)"/>
<path d="" fill="#000000" transform="translate(0,0)"/>
<path d="M0 0 C3 1 3 1 3 1 Z " fill="#000000" transform="translate(659,535)"/>
<path d="M0 0 C3 1 3 1 3 1 Z " fill="#000000" transform="translate(662,534)"/>
<path d="" fill="#000000" transform="translate(0,0)"/>
<path d="" fill="#000000" transform="translate(0,0)"/>
<path d="" fill="#000000" transform="translate(0,0)"/>
<path d="" fill="#000000" transform="translate(0,0)"/>
<path d="" fill="#000000" transform="translate(0,0)"/>
<path d="" fill="#000000" transform="translate(0,0)"/>
<path d="" fill="#000000" transform="translate(0,0)"/>
<path d="M0 0 C3 1 3 1 3 1 Z " fill="#000000" transform="translate(307,413)"/>
<path d="M0 0 C3 1 3 1 3 1 Z " fill="#000000" transform="translate(304,412)"/>
<path d="M0 0 C3 1 3 1 3 1 Z " fill="#000000" transform="translate(213,411)"/>
<path d="M0 0 C3 1 3 1 3 1 Z " fill="#000000" transform="translate(216,410)"/>
<path d="M0 0 C3 1 3 1 3 1 Z " fill="#000000" transform="translate(618,409)"/>
<path d="M0 0 C3 1 3 1 3 1 Z " fill="#000000" transform="translate(621,408)"/>
<path d="M0 0 C3 1 3 1 3 1 Z " fill="#000000" transform="translate(660,407)"/>
<path d="M0 0 C3 1 3 1 3 1 Z " fill="#000000" transform="translate(624,407)"/>
<path d="M0 0 C3 1 3 1 3 1 Z " fill="#000000" transform="translate(574,407)"/>
<path d="M0 0 C3 1 3 1 3 1 Z " fill="#000000" transform="translate(538,407)"/>
<path d="" fill="#000000" transform="translate(0,0)"/>
<path d="" fill="#000000" transform="translate(0,0)"/>
<path d="M0 0 C2 1 2 1 2 1 Z " fill="#000000" transform="translate(307,700)"/>
<path d="M0 0 C2 1 2 1 2 1 Z " fill="#000000" transform="translate(312,698)"/>
<path d="M0 0 C2 1 2 1 2 1 Z " fill="#000000" transform="translate(203,698)"/>
<path d="M0 0 C2 1 2 1 2 1 Z " fill="#000000" transform="translate(315,697)"/>
<path d="M0 0 C2 1 2 1 2 1 Z " fill="#000000" transform="translate(200,697)"/>
<path d="M0 0 C2 1 2 1 2 1 Z " fill="#000000" transform="translate(317,696)"/>
<path d="M0 0 C2 1 2 1 2 1 Z " fill="#000000" transform="translate(198,696)"/>
<path d="M0 0 C2 1 2 1 2 1 Z " fill="#000000" transform="translate(319,695)"/>
<path d="M0 0 C2 1 2 1 2 1 Z " fill="#000000" transform="translate(196,695)"/>
<path d="M0 0 C2 1 2 1 2 1 Z " fill="#000000" transform="translate(322,694)"/>
<path d="M0 0 C2 1 2 1 2 1 Z " fill="#000000" transform="translate(193,694)"/>
<path d="M0 0 C2 1 2 1 2 1 Z " fill="#000000" transform="translate(191,693)"/>
<path d="M0 0 C2 1 2 1 2 1 Z " fill="#000000" transform="translate(325,692)"/>
<path d="M0 0 C2 1 2 1 2 1 Z " fill="#000000" transform="translate(187,691)"/>
<path d="M0 0 C2 1 2 1 2 1 Z " fill="#000000" transform="translate(331,689)"/>
<path d="M0 0 C2 1 2 1 2 1 Z " fill="#000000" transform="translate(184,689)"/>
<path d="M0 0 C2 1 2 1 2 1 Z " fill="#000000" transform="translate(333,688)"/>
<path d="M0 0 C2 1 2 1 2 1 Z " fill="#000000" transform="translate(182,688)"/>
<path d="M0 0 C2 1 2 1 2 1 Z " fill="#000000" transform="translate(336,686)"/>
<path d="M0 0 C2 1 2 1 2 1 Z " fill="#000000" transform="translate(177,685)"/>
<path d="M0 0 C2 1 2 1 2 1 Z " fill="#000000" transform="translate(342,682)"/>
<path d="M0 0 C2 1 2 1 2 1 Z " fill="#000000" transform="translate(171,681)"/>
<path d="M0 0 C2 1 2 1 2 1 Z " fill="#000000" transform="translate(345,680)"/>
<path d="M0 0 C2 1 2 1 2 1 Z " fill="#000000" transform="translate(354,673)"/>
<path d="M0 0 C2 1 2 1 2 1 Z " fill="#000000" transform="translate(227,644)"/>
<path d="" fill="#000000" transform="translate(0,0)"/>
<path d="M0 0 C2 1 2 1 2 1 Z " fill="#000000" transform="translate(764,620)"/>
<path d="M0 0 C2 1 2 1 2 1 Z " fill="#000000" transform="translate(767,619)"/>
<path d="M0 0 C2 1 2 1 2 1 Z " fill="#000000" transform="translate(769,618)"/>
<path d="" fill="#000000" transform="translate(0,0)"/>
<path d="M0 0 C2 1 2 1 2 1 Z " fill="#000000" transform="translate(772,616)"/>
<path d="" fill="#000000" transform="translate(0,0)"/>
<path d="" fill="#000000" transform="translate(0,0)"/>
<path d="" fill="#000000" transform="translate(0,0)"/>
<path d="" fill="#000000" transform="translate(0,0)"/>
<path d="" fill="#000000" transform="translate(0,0)"/>
<path d="" fill="#000000" transform="translate(0,0)"/>
<path d="M0 0 C2 1 2 1 2 1 Z " fill="#000000" transform="translate(227,589)"/>
<path d="" fill="#000000" transform="translate(0,0)"/>
<path d="M0 0 C2 1 2 1 2 1 Z " fill="#000000" transform="translate(209,571)"/>
<path d="" fill="#000000" transform="translate(0,0)"/>
<path d="M0 0 C2 1 2 1 2 1 Z " fill="#000000" transform="translate(197,559)"/>
<path d="M0 0 C2 1 2 1 2 1 Z " fill="#000000" transform="translate(185,547)"/>
<path d="M0 0 C2 1 2 1 2 1 Z " fill="#000000" transform="translate(182,544)"/>
<path d="M0 0 C2 1 2 1 2 1 Z " fill="#000000" transform="translate(622,534)"/>
<path d="M0 0 C2 1 2 1 2 1 Z " fill="#000000" transform="translate(665,533)"/>
<path d="M0 0 C2 1 2 1 2 1 Z " fill="#000000" transform="translate(620,533)"/>
<path d="M0 0 C2 1 2 1 2 1 Z " fill="#000000" transform="translate(579,533)"/>
<path d="M0 0 C2 1 2 1 2 1 Z " fill="#000000" transform="translate(534,533)"/>
<path d="M0 0 C2 1 2 1 2 1 Z " fill="#000000" transform="translate(668,532)"/>
<path d="M0 0 C2 1 2 1 2 1 Z " fill="#000000" transform="translate(582,532)"/>
<path d="M0 0 C2 1 2 1 2 1 Z " fill="#000000" transform="translate(531,532)"/>
<path d="M0 0 C2 1 2 1 2 1 Z " fill="#000000" transform="translate(670,531)"/>
<path d="M0 0 C2 1 2 1 2 1 Z " fill="#000000" transform="translate(584,531)"/>
<path d="M0 0 C2 1 2 1 2 1 Z " fill="#000000" transform="translate(529,531)"/>
<path d="M0 0 C2 1 2 1 2 1 Z " fill="#000000" transform="translate(613,530)"/>
<path d="M0 0 C2 1 2 1 2 1 Z " fill="#000000" transform="translate(586,530)"/>
<path d="M0 0 C2 1 2 1 2 1 Z " fill="#000000" transform="translate(527,530)"/>
<path d="M0 0 C2 1 2 1 2 1 Z " fill="#000000" transform="translate(674,529)"/>
<path d="M0 0 C2 1 2 1 2 1 Z " fill="#000000" transform="translate(611,529)"/>
<path d="M0 0 C2 1 2 1 2 1 Z " fill="#000000" transform="translate(588,529)"/>
<path d="M0 0 C2 1 2 1 2 1 Z " fill="#000000" transform="translate(525,529)"/>
<path d="M0 0 C2 1 2 1 2 1 Z " fill="#000000" transform="translate(609,528)"/>
<path d="M0 0 C2 1 2 1 2 1 Z " fill="#000000" transform="translate(591,527)"/>
<path d="M0 0 C2 1 2 1 2 1 Z " fill="#000000" transform="translate(606,526)"/>
<path d="M0 0 C2 1 2 1 2 1 Z " fill="#000000" transform="translate(680,525)"/>
<path d="M0 0 C2 1 2 1 2 1 Z " fill="#000000" transform="translate(594,525)"/>
<path d="M0 0 C2 1 2 1 2 1 Z " fill="#000000" transform="translate(602,523)"/>
<path d="M0 0 C2 1 2 1 2 1 Z " fill="#000000" transform="translate(598,522)"/>
<path d="" fill="#000000" transform="translate(0,0)"/>
<path d="" fill="#000000" transform="translate(0,0)"/>
<path d="" fill="#000000" transform="translate(0,0)"/>
<path d="" fill="#000000" transform="translate(0,0)"/>
<path d="" fill="#000000" transform="translate(0,0)"/>
<path d="" fill="#000000" transform="translate(0,0)"/>
<path d="" fill="#000000" transform="translate(0,0)"/>
<path d="" fill="#000000" transform="translate(0,0)"/>
<path d="" fill="#000000" transform="translate(0,0)"/>
<path d="" fill="#000000" transform="translate(0,0)"/>
<path d="" fill="#000000" transform="translate(0,0)"/>
<path d="M0 0 C2 1 2 1 2 1 Z " fill="#000000" transform="translate(333,484)"/>
<path d="" fill="#000000" transform="translate(0,0)"/>
<path d="" fill="#000000" transform="translate(0,0)"/>
<path d="" fill="#000000" transform="translate(0,0)"/>
<path d="" fill="#000000" transform="translate(0,0)"/>
<path d="" fill="#000000" transform="translate(0,0)"/>
<path d="M0 0 C2 1 2 1 2 1 Z " fill="#000000" transform="translate(352,438)"/>
<path d="M0 0 C2 1 2 1 2 1 Z " fill="#000000" transform="translate(164,437)"/>
<path d="M0 0 C2 1 2 1 2 1 Z " fill="#000000" transform="translate(344,432)"/>
<path d="M0 0 C2 1 2 1 2 1 Z " fill="#000000" transform="translate(172,431)"/>
<path d="" fill="#000000" transform="translate(0,0)"/>
<path d="M0 0 C2 1 2 1 2 1 Z " fill="#000000" transform="translate(341,430)"/>
<path d="M0 0 C2 1 2 1 2 1 Z " fill="#000000" transform="translate(178,427)"/>
<path d="M0 0 C2 1 2 1 2 1 Z " fill="#000000" transform="translate(180,426)"/>
<path d="M0 0 C2 1 2 1 2 1 Z " fill="#000000" transform="translate(183,424)"/>
<path d="M0 0 C2 1 2 1 2 1 Z " fill="#000000" transform="translate(185,423)"/>
<path d="M0 0 C2 1 2 1 2 1 Z " fill="#000000" transform="translate(328,422)"/>
<path d="M0 0 C2 1 2 1 2 1 Z " fill="#000000" transform="translate(187,422)"/>
<path d="M0 0 C2 1 2 1 2 1 Z " fill="#000000" transform="translate(326,421)"/>
<path d="M0 0 C2 1 2 1 2 1 Z " fill="#000000" transform="translate(189,421)"/>
<path d="M0 0 C2 1 2 1 2 1 Z " fill="#000000" transform="translate(324,420)"/>
<path d="M0 0 C2 1 2 1 2 1 Z " fill="#000000" transform="translate(191,420)"/>
<path d="M0 0 C2 1 2 1 2 1 Z " fill="#000000" transform="translate(322,419)"/>
<path d="M0 0 C2 1 2 1 2 1 Z " fill="#000000" transform="translate(193,419)"/>
<path d="M0 0 C2 1 2 1 2 1 Z " fill="#000000" transform="translate(603,418)"/>
<path d="M0 0 C2 1 2 1 2 1 Z " fill="#000000" transform="translate(517,418)"/>
<path d="M0 0 C2 1 2 1 2 1 Z " fill="#000000" transform="translate(320,418)"/>
<path d="M0 0 C2 1 2 1 2 1 Z " fill="#000000" transform="translate(195,418)"/>
<path d="M0 0 C2 1 2 1 2 1 Z " fill="#000000" transform="translate(317,417)"/>
<path d="M0 0 C2 1 2 1 2 1 Z " fill="#000000" transform="translate(679,416)"/>
<path d="M0 0 C2 1 2 1 2 1 Z " fill="#000000" transform="translate(593,416)"/>
<path d="M0 0 C2 1 2 1 2 1 Z " fill="#000000" transform="translate(315,416)"/>
<path d="M0 0 C2 1 2 1 2 1 Z " fill="#000000" transform="translate(607,415)"/>
<path d="M0 0 C2 1 2 1 2 1 Z " fill="#000000" transform="translate(313,415)"/>
<path d="M0 0 C2 1 2 1 2 1 Z " fill="#000000" transform="translate(609,414)"/>
<path d="M0 0 C2 1 2 1 2 1 Z " fill="#000000" transform="translate(590,414)"/>
<path d="M0 0 C2 1 2 1 2 1 Z " fill="#000000" transform="translate(523,414)"/>
<path d="M0 0 C2 1 2 1 2 1 Z " fill="#000000" transform="translate(310,414)"/>
<path d="M0 0 C2 1 2 1 2 1 Z " fill="#000000" transform="translate(205,414)"/>
<path d="M0 0 C2 1 2 1 2 1 Z " fill="#000000" transform="translate(612,412)"/>
<path d="M0 0 C2 1 2 1 2 1 Z " fill="#000000" transform="translate(526,412)"/>
<path d="M0 0 C2 1 2 1 2 1 Z " fill="#000000" transform="translate(670,411)"/>
<path d="M0 0 C2 1 2 1 2 1 Z " fill="#000000" transform="translate(614,411)"/>
<path d="M0 0 C2 1 2 1 2 1 Z " fill="#000000" transform="translate(301,411)"/>
<path d="M0 0 C2 1 2 1 2 1 Z " fill="#000000" transform="translate(668,410)"/>
<path d="M0 0 C2 1 2 1 2 1 Z " fill="#000000" transform="translate(616,410)"/>
<path d="M0 0 C2 1 2 1 2 1 Z " fill="#000000" transform="translate(666,409)"/>
<path d="M0 0 C2 1 2 1 2 1 Z " fill="#000000" transform="translate(663,408)"/>
<path d="M0 0 C2 1 2 1 2 1 Z " fill="#000000" transform="translate(577,408)"/>
<path d="M0 0 C2 1 2 1 2 1 Z " fill="#000000" transform="translate(536,408)"/>
<path d="" fill="#000000" transform="translate(0,0)"/>
<path d="" fill="#000000" transform="translate(0,0)"/>
<path d="" fill="#000000" transform="translate(0,0)"/>
<path d="M0 0 C2 1 2 1 2 1 Z " fill="#000000" transform="translate(777,201)"/>
<path d="M0 0 C2 1 2 1 2 1 Z " fill="#000000" transform="translate(208,201)"/>
<path d="M0 0 C2 1 2 1 2 1 Z " fill="#000000" transform="translate(770,196)"/>
<path d="M0 0 C2 1 2 1 2 1 Z " fill="#000000" transform="translate(215,196)"/>
<path d="" fill="#000000" transform="translate(0,0)"/>
<path d="" fill="#000000" transform="translate(0,0)"/>
<path d="" fill="#000000" transform="translate(0,0)"/>
<path d="" fill="#000000" transform="translate(0,0)"/>
<path d="" fill="#000000" transform="translate(0,0)"/>
<path d="" fill="#000000" transform="translate(0,0)"/>
<path d="" fill="#000000" transform="translate(0,0)"/>
<path d="" fill="#000000" transform="translate(0,0)"/>
<path d="" fill="#000000" transform="translate(0,0)"/>
<path d="" fill="#000000" transform="translate(0,0)"/>
<path d="" fill="#000000" transform="translate(0,0)"/>
<path d="" fill="#000000" transform="translate(0,0)"/>
<path d="" fill="#000000" transform="translate(0,0)"/>
<path d="" fill="#000000" transform="translate(0,0)"/>
<path d="" fill="#000000" transform="translate(0,0)"/>
<path d="" fill="#000000" transform="translate(0,0)"/>
<path d="" fill="#000000" transform="translate(0,0)"/>
<path d="" fill="#000000" transform="translate(0,0)"/>
<path d="" fill="#000000" transform="translate(0,0)"/>
<path d="" fill="#000000" transform="translate(0,0)"/>
<path d="" fill="#000000" transform="translate(0,0)"/>
<path d="" fill="#000000" transform="translate(0,0)"/>
<path d="" fill="#000000" transform="translate(0,0)"/>
<path d="" fill="#000000" transform="translate(0,0)"/>
<path d="" fill="#000000" transform="translate(0,0)"/>
<path d="" fill="#000000" transform="translate(0,0)"/>
<path d="" fill="#000000" transform="translate(0,0)"/>
<path d="" fill="#000000" transform="translate(0,0)"/>
<path d="" fill="#000000" transform="translate(0,0)"/>
<path d="" fill="#000000" transform="translate(0,0)"/>
<path d="" fill="#000000" transform="translate(0,0)"/>
<path d="" fill="#000000" transform="translate(0,0)"/>
<path d="" fill="#000000" transform="translate(0,0)"/>
<path d="" fill="#000000" transform="translate(0,0)"/>
<path d="" fill="#000000" transform="translate(0,0)"/>
<path d="" fill="#000000" transform="translate(0,0)"/>
<path d="" fill="#000000" transform="translate(0,0)"/>
<path d="" fill="#000000" transform="translate(0,0)"/>
<path d="" fill="#000000" transform="translate(0,0)"/>
<path d="" fill="#000000" transform="translate(0,0)"/>
<path d="" fill="#000000" transform="translate(0,0)"/>
<path d="" fill="#000000" transform="translate(0,0)"/>
<path d="" fill="#000000" transform="translate(0,0)"/>
<path d="" fill="#000000" transform="translate(0,0)"/>
<path d="" fill="#000000" transform="translate(0,0)"/>
<path d="" fill="#000000" transform="translate(0,0)"/>
<path d="" fill="#000000" transform="translate(0,0)"/>
<path d="" fill="#000000" transform="translate(0,0)"/>
<path d="" fill="#000000" transform="translate(0,0)"/>
<path d="" fill="#000000" transform="translate(0,0)"/>
<path d="" fill="#000000" transform="translate(0,0)"/>
<path d="" fill="#000000" transform="translate(0,0)"/>
<path d="" fill="#000000" transform="translate(0,0)"/>
<path d="" fill="#000000" transform="translate(0,0)"/>
<path d="" fill="#000000" transform="translate(0,0)"/>
<path d="" fill="#000000" transform="translate(0,0)"/>
<path d="" fill="#000000" transform="translate(0,0)"/>
<path d="" fill="#000000" transform="translate(0,0)"/>
<path d="" fill="#000000" transform="translate(0,0)"/>
<path d="" fill="#000000" transform="translate(0,0)"/>
<path d="" fill="#000000" transform="translate(0,0)"/>
<path d="" fill="#000000" transform="translate(0,0)"/>
<path d="" fill="#000000" transform="translate(0,0)"/>
<path d="" fill="#000000" transform="translate(0,0)"/>
<path d="" fill="#000000" transform="translate(0,0)"/>
<path d="" fill="#000000" transform="translate(0,0)"/>
<path d="" fill="#000000" transform="translate(0,0)"/>
<path d="" fill="#000000" transform="translate(0,0)"/>
<path d="" fill="#000000" transform="translate(0,0)"/>
<path d="" fill="#000000" transform="translate(0,0)"/>
<path d="" fill="#000000" transform="translate(0,0)"/>
<path d="" fill="#000000" transform="translate(0,0)"/>
<path d="" fill="#000000" transform="translate(0,0)"/>
<path d="" fill="#000000" transform="translate(0,0)"/>
<path d="" fill="#000000" transform="translate(0,0)"/>
<path d="" fill="#000000" transform="translate(0,0)"/>
<path d="" fill="#000000" transform="translate(0,0)"/>
<path d="" fill="#000000" transform="translate(0,0)"/>
<path d="" fill="#000000" transform="translate(0,0)"/>
<path d="" fill="#000000" transform="translate(0,0)"/>
<path d="" fill="#000000" transform="translate(0,0)"/>
<path d="" fill="#000000" transform="translate(0,0)"/>
<path d="" fill="#000000" transform="translate(0,0)"/>
<path d="" fill="#000000" transform="translate(0,0)"/>
<path d="" fill="#000000" transform="translate(0,0)"/>
<path d="" fill="#000000" transform="translate(0,0)"/>
<path d="" fill="#000000" transform="translate(0,0)"/>
<path d="" fill="#000000" transform="translate(0,0)"/>
<path d="" fill="#000000" transform="translate(0,0)"/>
<path d="" fill="#000000" transform="translate(0,0)"/>
<path d="" fill="#000000" transform="translate(0,0)"/>
<path d="" fill="#000000" transform="translate(0,0)"/>
<path d="" fill="#000000" transform="translate(0,0)"/>
<path d="" fill="#000000" transform="translate(0,0)"/>
<path d="" fill="#000000" transform="translate(0,0)"/>
<path d="" fill="#000000" transform="translate(0,0)"/>
<path d="" fill="#000000" transform="translate(0,0)"/>
<path d="" fill="#000000" transform="translate(0,0)"/>
<path d="" fill="#000000" transform="translate(0,0)"/>
<path d="" fill="#000000" transform="translate(0,0)"/>
<path d="" fill="#000000" transform="translate(0,0)"/>
<path d="" fill="#000000" transform="translate(0,0)"/>
<path d="" fill="#000000" transform="translate(0,0)"/>
<path d="" fill="#000000" transform="translate(0,0)"/>
<path d="" fill="#000000" transform="translate(0,0)"/>
<path d="" fill="#000000" transform="translate(0,0)"/>
<path d="" fill="#000000" transform="translate(0,0)"/>
<path d="" fill="#000000" transform="translate(0,0)"/>
<path d="" fill="#000000" transform="translate(0,0)"/>
<path d="" fill="#000000" transform="translate(0,0)"/>
<path d="" fill="#000000" transform="translate(0,0)"/>
<path d="" fill="#000000" transform="translate(0,0)"/>
<path d="" fill="#000000" transform="translate(0,0)"/>
<path d="" fill="#000000" transform="translate(0,0)"/>
<path d="" fill="#000000" transform="translate(0,0)"/>
<path d="" fill="#000000" transform="translate(0,0)"/>
<path d="" fill="#000000" transform="translate(0,0)"/>
<path d="" fill="#000000" transform="translate(0,0)"/>
<path d="" fill="#000000" transform="translate(0,0)"/>
<path d="" fill="#000000" transform="translate(0,0)"/>
<path d="" fill="#000000" transform="translate(0,0)"/>
<path d="" fill="#000000" transform="translate(0,0)"/>
<path d="" fill="#000000" transform="translate(0,0)"/>
<path d="" fill="#000000" transform="translate(0,0)"/>
<path d="" fill="#000000" transform="translate(0,0)"/>
<path d="" fill="#000000" transform="translate(0,0)"/>
<path d="" fill="#000000" transform="translate(0,0)"/>
<path d="" fill="#000000" transform="translate(0,0)"/>
<path d="" fill="#000000" transform="translate(0,0)"/>
<path d="" fill="#000000" transform="translate(0,0)"/>
<path d="" fill="#000000" transform="translate(0,0)"/>
<path d="" fill="#000000" transform="translate(0,0)"/>
<path d="" fill="#000000" transform="translate(0,0)"/>
<path d="" fill="#000000" transform="translate(0,0)"/>
<path d="" fill="#000000" transform="translate(0,0)"/>
<path d="" fill="#000000" transform="translate(0,0)"/>
<path d="" fill="#000000" transform="translate(0,0)"/>
<path d="" fill="#000000" transform="translate(0,0)"/>
<path d="" fill="#000000" transform="translate(0,0)"/>
<path d="" fill="#000000" transform="translate(0,0)"/>
<path d="" fill="#000000" transform="translate(0,0)"/>
<path d="" fill="#000000" transform="translate(0,0)"/>
<path d="" fill="#000000" transform="translate(0,0)"/>
<path d="" fill="#000000" transform="translate(0,0)"/>
<path d="" fill="#000000" transform="translate(0,0)"/>
<path d="" fill="#000000" transform="translate(0,0)"/>
<path d="" fill="#000000" transform="translate(0,0)"/>
<path d="" fill="#000000" transform="translate(0,0)"/>
<path d="" fill="#000000" transform="translate(0,0)"/>
<path d="" fill="#000000" transform="translate(0,0)"/>
<path d="" fill="#000000" transform="translate(0,0)"/>
<path d="" fill="#000000" transform="translate(0,0)"/>
<path d="" fill="#000000" transform="translate(0,0)"/>
<path d="" fill="#000000" transform="translate(0,0)"/>
<path d="" fill="#000000" transform="translate(0,0)"/>
<path d="" fill="#000000" transform="translate(0,0)"/>
<path d="" fill="#000000" transform="translate(0,0)"/>
<path d="" fill="#000000" transform="translate(0,0)"/>
<path d="" fill="#000000" transform="translate(0,0)"/>
<path d="" fill="#000000" transform="translate(0,0)"/>
<path d="" fill="#000000" transform="translate(0,0)"/>
<path d="" fill="#000000" transform="translate(0,0)"/>
<path d="" fill="#000000" transform="translate(0,0)"/>
<path d="" fill="#000000" transform="translate(0,0)"/>
<path d="" fill="#000000" transform="translate(0,0)"/>
<path d="" fill="#000000" transform="translate(0,0)"/>
<path d="" fill="#000000" transform="translate(0,0)"/>
<path d="" fill="#000000" transform="translate(0,0)"/>
<path d="" fill="#000000" transform="translate(0,0)"/>
<path d="" fill="#000000" transform="translate(0,0)"/>
<path d="" fill="#000000" transform="translate(0,0)"/>
<path d="" fill="#000000" transform="translate(0,0)"/>
<path d="" fill="#000000" transform="translate(0,0)"/>
<path d="" fill="#000000" transform="translate(0,0)"/>
<path d="" fill="#000000" transform="translate(0,0)"/>
<path d="" fill="#000000" transform="translate(0,0)"/>
<path d="" fill="#000000" transform="translate(0,0)"/>
<path d="" fill="#000000" transform="translate(0,0)"/>
<path d="" fill="#000000" transform="translate(0,0)"/>
<path d="" fill="#000000" transform="translate(0,0)"/>
<path d="" fill="#000000" transform="translate(0,0)"/>
<path d="" fill="#000000" transform="translate(0,0)"/>
<path d="" fill="#000000" transform="translate(0,0)"/>
<path d="" fill="#000000" transform="translate(0,0)"/>
<path d="" fill="#000000" transform="translate(0,0)"/>
<path d="" fill="#000000" transform="translate(0,0)"/>
<path d="" fill="#000000" transform="translate(0,0)"/>
<path d="" fill="#000000" transform="translate(0,0)"/>
<path d="" fill="#000000" transform="translate(0,0)"/>
<path d="" fill="#000000" transform="translate(0,0)"/>
<path d="" fill="#000000" transform="translate(0,0)"/>
<path d="" fill="#000000" transform="translate(0,0)"/>
<path d="" fill="#000000" transform="translate(0,0)"/>
<path d="" fill="#000000" transform="translate(0,0)"/>
<path d="" fill="#000000" transform="translate(0,0)"/>
<path d="" fill="#000000" transform="translate(0,0)"/>
<path d="" fill="#000000" transform="translate(0,0)"/>
<path d="" fill="#000000" transform="translate(0,0)"/>
<path d="" fill="#000000" transform="translate(0,0)"/>
<path d="" fill="#000000" transform="translate(0,0)"/>
<path d="" fill="#000000" transform="translate(0,0)"/>
<path d="" fill="#000000" transform="translate(0,0)"/>
<path d="" fill="#000000" transform="translate(0,0)"/>
<path d="" fill="#000000" transform="translate(0,0)"/>
<path d="" fill="#000000" transform="translate(0,0)"/>
<path d="" fill="#000000" transform="translate(0,0)"/>
<path d="" fill="#000000" transform="translate(0,0)"/>
<path d="" fill="#000000" transform="translate(0,0)"/>
<path d="" fill="#000000" transform="translate(0,0)"/>
<path d="" fill="#000000" transform="translate(0,0)"/>
<path d="" fill="#000000" transform="translate(0,0)"/>
<path d="" fill="#000000" transform="translate(0,0)"/>
<path d="" fill="#000000" transform="translate(0,0)"/>
<path d="" fill="#000000" transform="translate(0,0)"/>
<path d="" fill="#000000" transform="translate(0,0)"/>
<path d="" fill="#000000" transform="translate(0,0)"/>
<path d="" fill="#000000" transform="translate(0,0)"/>
<path d="" fill="#000000" transform="translate(0,0)"/>
<path d="" fill="#000000" transform="translate(0,0)"/>
<path d="" fill="#000000" transform="translate(0,0)"/>
<path d="" fill="#000000" transform="translate(0,0)"/>
<path d="" fill="#000000" transform="translate(0,0)"/>
<path d="" fill="#000000" transform="translate(0,0)"/>
<path d="" fill="#000000" transform="translate(0,0)"/>
<path d="" fill="#000000" transform="translate(0,0)"/>
<path d="" fill="#000000" transform="translate(0,0)"/>
<path d="" fill="#000000" transform="translate(0,0)"/>
<path d="" fill="#000000" transform="translate(0,0)"/>
<path d="" fill="#000000" transform="translate(0,0)"/>
<path d="" fill="#000000" transform="translate(0,0)"/>
<path d="" fill="#000000" transform="translate(0,0)"/>
<path d="" fill="#000000" transform="translate(0,0)"/>
<path d="" fill="#000000" transform="translate(0,0)"/>
<path d="" fill="#000000" transform="translate(0,0)"/>
<path d="" fill="#000000" transform="translate(0,0)"/>
<path d="" fill="#000000" transform="translate(0,0)"/>
<path d="" fill="#000000" transform="translate(0,0)"/>
<path d="" fill="#000000" transform="translate(0,0)"/>
<path d="" fill="#000000" transform="translate(0,0)"/>
<path d="" fill="#000000" transform="translate(0,0)"/>
<path d="" fill="#000000" transform="translate(0,0)"/>
<path d="" fill="#000000" transform="translate(0,0)"/>
<path d="" fill="#000000" transform="translate(0,0)"/>
<path d="" fill="#000000" transform="translate(0,0)"/>
<path d="" fill="#000000" transform="translate(0,0)"/>
<path d="" fill="#000000" transform="translate(0,0)"/>
<path d="" fill="#000000" transform="translate(0,0)"/>
<path d="" fill="#000000" transform="translate(0,0)"/>
<path d="" fill="#000000" transform="translate(0,0)"/>
<path d="" fill="#000000" transform="translate(0,0)"/>
<path d="" fill="#000000" transform="translate(0,0)"/>
<path d="" fill="#000000" transform="translate(0,0)"/>
<path d="" fill="#000000" transform="translate(0,0)"/>
<path d="" fill="#000000" transform="translate(0,0)"/>
<path d="" fill="#000000" transform="translate(0,0)"/>
<path d="" fill="#000000" transform="translate(0,0)"/>
<path d="" fill="#000000" transform="translate(0,0)"/>
<path d="" fill="#000000" transform="translate(0,0)"/>
<path d="" fill="#000000" transform="translate(0,0)"/>
<path d="" fill="#000000" transform="translate(0,0)"/>
<path d="" fill="#000000" transform="translate(0,0)"/>
<path d="" fill="#000000" transform="translate(0,0)"/>
<path d="" fill="#000000" transform="translate(0,0)"/>
<path d="" fill="#000000" transform="translate(0,0)"/>
<path d="" fill="#000000" transform="translate(0,0)"/>
<path d="" fill="#000000" transform="translate(0,0)"/>
<path d="" fill="#000000" transform="translate(0,0)"/>
<path d="" fill="#000000" transform="translate(0,0)"/>
<path d="" fill="#000000" transform="translate(0,0)"/>
<path d="" fill="#000000" transform="translate(0,0)"/>
<path d="" fill="#000000" transform="translate(0,0)"/>
<path d="" fill="#000000" transform="translate(0,0)"/>
<path d="" fill="#000000" transform="translate(0,0)"/>
<path d="" fill="#000000" transform="translate(0,0)"/>
<path d="" fill="#000000" transform="translate(0,0)"/>
<path d="" fill="#000000" transform="translate(0,0)"/>
<path d="" fill="#000000" transform="translate(0,0)"/>
<path d="" fill="#000000" transform="translate(0,0)"/>
<path d="" fill="#000000" transform="translate(0,0)"/>
<path d="" fill="#000000" transform="translate(0,0)"/>
<path d="" fill="#000000" transform="translate(0,0)"/>
<path d="" fill="#000000" transform="translate(0,0)"/>
<path d="" fill="#000000" transform="translate(0,0)"/>
<path d="" fill="#000000" transform="translate(0,0)"/>
<path d="" fill="#000000" transform="translate(0,0)"/>
<path d="" fill="#000000" transform="translate(0,0)"/>
<path d="" fill="#000000" transform="translate(0,0)"/>
<path d="" fill="#000000" transform="translate(0,0)"/>
<path d="" fill="#000000" transform="translate(0,0)"/>
<path d="" fill="#000000" transform="translate(0,0)"/>
<path d="" fill="#000000" transform="translate(0,0)"/>
<path d="" fill="#000000" transform="translate(0,0)"/>
<path d="" fill="#000000" transform="translate(0,0)"/>
<path d="" fill="#000000" transform="translate(0,0)"/>
<path d="" fill="#000000" transform="translate(0,0)"/>
<path d="" fill="#000000" transform="translate(0,0)"/>
<path d="" fill="#000000" transform="translate(0,0)"/>
<path d="" fill="#000000" transform="translate(0,0)"/>
<path d="" fill="#000000" transform="translate(0,0)"/>
<path d="" fill="#000000" transform="translate(0,0)"/>
<path d="" fill="#000000" transform="translate(0,0)"/>
<path d="" fill="#000000" transform="translate(0,0)"/>
<path d="" fill="#000000" transform="translate(0,0)"/>
<path d="" fill="#000000" transform="translate(0,0)"/>
<path d="" fill="#000000" transform="translate(0,0)"/>
<path d="" fill="#000000" transform="translate(0,0)"/>
<path d="" fill="#000000" transform="translate(0,0)"/>
<path d="" fill="#000000" transform="translate(0,0)"/>
<path d="" fill="#000000" transform="translate(0,0)"/>
<path d="" fill="#000000" transform="translate(0,0)"/>
<path d="" fill="#000000" transform="translate(0,0)"/>
<path d="" fill="#000000" transform="translate(0,0)"/>
<path d="" fill="#000000" transform="translate(0,0)"/>
<path d="" fill="#000000" transform="translate(0,0)"/>
<path d="" fill="#000000" transform="translate(0,0)"/>
<path d="" fill="#000000" transform="translate(0,0)"/>
<path d="" fill="#000000" transform="translate(0,0)"/>
<path d="" fill="#000000" transform="translate(0,0)"/>
<path d="" fill="#000000" transform="translate(0,0)"/>
<path d="" fill="#000000" transform="translate(0,0)"/>
<path d="" fill="#000000" transform="translate(0,0)"/>
<path d="" fill="#000000" transform="translate(0,0)"/>
<path d="" fill="#000000" transform="translate(0,0)"/>
<path d="" fill="#000000" transform="translate(0,0)"/>
<path d="" fill="#000000" transform="translate(0,0)"/>
<path d="" fill="#000000" transform="translate(0,0)"/>
<path d="" fill="#000000" transform="translate(0,0)"/>
<path d="" fill="#000000" transform="translate(0,0)"/>
<path d="" fill="#000000" transform="translate(0,0)"/>
<path d="" fill="#000000" transform="translate(0,0)"/>
<path d="" fill="#000000" transform="translate(0,0)"/>
<path d="" fill="#000000" transform="translate(0,0)"/>
<path d="" fill="#000000" transform="translate(0,0)"/>
<path d="" fill="#000000" transform="translate(0,0)"/>
<path d="" fill="#000000" transform="translate(0,0)"/>
<path d="" fill="#000000" transform="translate(0,0)"/>
<path d="" fill="#000000" transform="translate(0,0)"/>
<path d="" fill="#000000" transform="translate(0,0)"/>
<path d="" fill="#000000" transform="translate(0,0)"/>
<path d="" fill="#000000" transform="translate(0,0)"/>
<path d="" fill="#000000" transform="translate(0,0)"/>
<path d="" fill="#000000" transform="translate(0,0)"/>
<path d="" fill="#000000" transform="translate(0,0)"/>
<path d="" fill="#000000" transform="translate(0,0)"/>
<path d="" fill="#000000" transform="translate(0,0)"/>
<path d="" fill="#000000" transform="translate(0,0)"/>
<path d="" fill="#000000" transform="translate(0,0)"/>
<path d="" fill="#000000" transform="translate(0,0)"/>
<path d="" fill="#000000" transform="translate(0,0)"/>
<path d="" fill="#000000" transform="translate(0,0)"/>
<path d="" fill="#000000" transform="translate(0,0)"/>
<path d="" fill="#000000" transform="translate(0,0)"/>
<path d="" fill="#000000" transform="translate(0,0)"/>
<path d="" fill="#000000" transform="translate(0,0)"/>
<path d="" fill="#000000" transform="translate(0,0)"/>
<path d="" fill="#000000" transform="translate(0,0)"/>
<path d="" fill="#000000" transform="translate(0,0)"/>
<path d="" fill="#000000" transform="translate(0,0)"/>
<path d="" fill="#000000" transform="translate(0,0)"/>
<path d="" fill="#000000" transform="translate(0,0)"/>
<path d="" fill="#000000" transform="translate(0,0)"/>
<path d="" fill="#000000" transform="translate(0,0)"/>
<path d="" fill="#000000" transform="translate(0,0)"/>
<path d="" fill="#000000" transform="translate(0,0)"/>
<path d="" fill="#000000" transform="translate(0,0)"/>
<path d="" fill="#000000" transform="translate(0,0)"/>
<path d="" fill="#000000" transform="translate(0,0)"/>
<path d="" fill="#000000" transform="translate(0,0)"/>
<path d="" fill="#000000" transform="translate(0,0)"/>
<path d="" fill="#000000" transform="translate(0,0)"/>
<path d="" fill="#000000" transform="translate(0,0)"/>
<path d="" fill="#000000" transform="translate(0,0)"/>
<path d="" fill="#000000" transform="translate(0,0)"/>
<path d="" fill="#000000" transform="translate(0,0)"/>
<path d="" fill="#000000" transform="translate(0,0)"/>
<path d="" fill="#000000" transform="translate(0,0)"/>
<path d="" fill="#000000" transform="translate(0,0)"/>
<path d="" fill="#000000" transform="translate(0,0)"/>
<path d="" fill="#000000" transform="translate(0,0)"/>
<path d="" fill="#000000" transform="translate(0,0)"/>
<path d="" fill="#000000" transform="translate(0,0)"/>
<path d="" fill="#000000" transform="translate(0,0)"/>
<path d="" fill="#000000" transform="translate(0,0)"/>
<path d="" fill="#000000" transform="translate(0,0)"/>
<path d="" fill="#000000" transform="translate(0,0)"/>
<path d="" fill="#000000" transform="translate(0,0)"/>
<path d="" fill="#000000" transform="translate(0,0)"/>
<path d="" fill="#000000" transform="translate(0,0)"/>
<path d="" fill="#000000" transform="translate(0,0)"/>
<path d="" fill="#000000" transform="translate(0,0)"/>
<path d="" fill="#000000" transform="translate(0,0)"/>
<path d="" fill="#000000" transform="translate(0,0)"/>
<path d="" fill="#000000" transform="translate(0,0)"/>
<path d="" fill="#000000" transform="translate(0,0)"/>
<path d="" fill="#000000" transform="translate(0,0)"/>
<path d="" fill="#000000" transform="translate(0,0)"/>
<path d="" fill="#000000" transform="translate(0,0)"/>
<path d="" fill="#000000" transform="translate(0,0)"/>
<path d="" fill="#000000" transform="translate(0,0)"/>
<path d="" fill="#000000" transform="translate(0,0)"/>
<path d="" fill="#000000" transform="translate(0,0)"/>
<path d="" fill="#000000" transform="translate(0,0)"/>
<path d="" fill="#000000" transform="translate(0,0)"/>
<path d="" fill="#000000" transform="translate(0,0)"/>
<path d="" fill="#000000" transform="translate(0,0)"/>
<path d="" fill="#000000" transform="translate(0,0)"/>
<path d="" fill="#000000" transform="translate(0,0)"/>
<path d="" fill="#000000" transform="translate(0,0)"/>
<path d="" fill="#000000" transform="translate(0,0)"/>
<path d="" fill="#000000" transform="translate(0,0)"/>
<path d="" fill="#000000" transform="translate(0,0)"/>
<path d="" fill="#000000" transform="translate(0,0)"/>
<path d="" fill="#000000" transform="translate(0,0)"/>
<path d="" fill="#000000" transform="translate(0,0)"/>
<path d="" fill="#000000" transform="translate(0,0)"/>
<path d="" fill="#000000" transform="translate(0,0)"/>
<path d="" fill="#000000" transform="translate(0,0)"/>
<path d="" fill="#000000" transform="translate(0,0)"/>
<path d="" fill="#000000" transform="translate(0,0)"/>
<path d="" fill="#000000" transform="translate(0,0)"/>
<path d="" fill="#000000" transform="translate(0,0)"/>
<path d="" fill="#000000" transform="translate(0,0)"/>
<path d="" fill="#000000" transform="translate(0,0)"/>
<path d="" fill="#000000" transform="translate(0,0)"/>
<path d="" fill="#000000" transform="translate(0,0)"/>
<path d="" fill="#000000" transform="translate(0,0)"/>
<path d="" fill="#000000" transform="translate(0,0)"/>
<path d="" fill="#000000" transform="translate(0,0)"/>
<path d="" fill="#000000" transform="translate(0,0)"/>
<path d="" fill="#000000" transform="translate(0,0)"/>
<path d="" fill="#000000" transform="translate(0,0)"/>
<path d="" fill="#000000" transform="translate(0,0)"/>
<path d="" fill="#000000" transform="translate(0,0)"/>
<path d="" fill="#000000" transform="translate(0,0)"/>
<path d="" fill="#000000" transform="translate(0,0)"/>
<path d="" fill="#000000" transform="translate(0,0)"/>
<path d="" fill="#000000" transform="translate(0,0)"/>
<path d="" fill="#000000" transform="translate(0,0)"/>
<path d="" fill="#000000" transform="translate(0,0)"/>
<path d="" fill="#000000" transform="translate(0,0)"/>
<path d="" fill="#000000" transform="translate(0,0)"/>
<path d="" fill="#000000" transform="translate(0,0)"/>
<path d="" fill="#000000" transform="translate(0,0)"/>
<path d="" fill="#000000" transform="translate(0,0)"/>
<path d="" fill="#000000" transform="translate(0,0)"/>
<path d="" fill="#000000" transform="translate(0,0)"/>
<path d="" fill="#000000" transform="translate(0,0)"/>
<path d="" fill="#000000" transform="translate(0,0)"/>
<path d="" fill="#000000" transform="translate(0,0)"/>
<path d="" fill="#000000" transform="translate(0,0)"/>
<path d="" fill="#000000" transform="translate(0,0)"/>
<path d="" fill="#000000" transform="translate(0,0)"/>
<path d="" fill="#000000" transform="translate(0,0)"/>
<path d="" fill="#000000" transform="translate(0,0)"/>
<path d="" fill="#000000" transform="translate(0,0)"/>
<path d="" fill="#000000" transform="translate(0,0)"/>
<path d="" fill="#000000" transform="translate(0,0)"/>
<path d="" fill="#000000" transform="translate(0,0)"/>
<path d="" fill="#000000" transform="translate(0,0)"/>
<path d="" fill="#000000" transform="translate(0,0)"/>
<path d="" fill="#000000" transform="translate(0,0)"/>
<path d="" fill="#000000" transform="translate(0,0)"/>
<path d="" fill="#000000" transform="translate(0,0)"/>
<path d="" fill="#000000" transform="translate(0,0)"/>
<path d="" fill="#000000" transform="translate(0,0)"/>
<path d="" fill="#000000" transform="translate(0,0)"/>
<path d="" fill="#000000" transform="translate(0,0)"/>
<path d="" fill="#000000" transform="translate(0,0)"/>
<path d="" fill="#000000" transform="translate(0,0)"/>
<path d="" fill="#000000" transform="translate(0,0)"/>
<path d="" fill="#000000" transform="translate(0,0)"/>
<path d="" fill="#000000" transform="translate(0,0)"/>
<path d="" fill="#000000" transform="translate(0,0)"/>
<path d="" fill="#000000" transform="translate(0,0)"/>
<path d="" fill="#000000" transform="translate(0,0)"/>
<path d="" fill="#000000" transform="translate(0,0)"/>
<path d="" fill="#000000" transform="translate(0,0)"/>
<path d="" fill="#000000" transform="translate(0,0)"/>
<path d="" fill="#000000" transform="translate(0,0)"/>
<path d="" fill="#000000" transform="translate(0,0)"/>
<path d="" fill="#000000" transform="translate(0,0)"/>
<path d="" fill="#000000" transform="translate(0,0)"/>
<path d="" fill="#000000" transform="translate(0,0)"/>
<path d="" fill="#000000" transform="translate(0,0)"/>
<path d="" fill="#000000" transform="translate(0,0)"/>
<path d="" fill="#000000" transform="translate(0,0)"/>
<path d="" fill="#000000" transform="translate(0,0)"/>
<path d="" fill="#000000" transform="translate(0,0)"/>
<path d="" fill="#000000" transform="translate(0,0)"/>
<path d="" fill="#000000" transform="translate(0,0)"/>
<path d="" fill="#000000" transform="translate(0,0)"/>
<path d="" fill="#000000" transform="translate(0,0)"/>
<path d="" fill="#000000" transform="translate(0,0)"/>
<path d="" fill="#000000" transform="translate(0,0)"/>
<path d="" fill="#000000" transform="translate(0,0)"/>
<path d="" fill="#000000" transform="translate(0,0)"/>
<path d="" fill="#000000" transform="translate(0,0)"/>
<path d="" fill="#000000" transform="translate(0,0)"/>
<path d="" fill="#000000" transform="translate(0,0)"/>
<path d="" fill="#000000" transform="translate(0,0)"/>
<path d="" fill="#000000" transform="translate(0,0)"/>
<path d="" fill="#000000" transform="translate(0,0)"/>
<path d="" fill="#000000" transform="translate(0,0)"/>
<path d="" fill="#000000" transform="translate(0,0)"/>
<path d="" fill="#000000" transform="translate(0,0)"/>
<path d="" fill="#000000" transform="translate(0,0)"/>
<path d="" fill="#000000" transform="translate(0,0)"/>
<path d="" fill="#000000" transform="translate(0,0)"/>
<path d="" fill="#000000" transform="translate(0,0)"/>
<path d="" fill="#000000" transform="translate(0,0)"/>
<path d="" fill="#000000" transform="translate(0,0)"/>
<path d="" fill="#000000" transform="translate(0,0)"/>
<path d="" fill="#000000" transform="translate(0,0)"/>
<path d="" fill="#000000" transform="translate(0,0)"/>
<path d="" fill="#000000" transform="translate(0,0)"/>
<path d="" fill="#000000" transform="translate(0,0)"/>
<path d="" fill="#000000" transform="translate(0,0)"/>
<path d="" fill="#000000" transform="translate(0,0)"/>
<path d="" fill="#000000" transform="translate(0,0)"/>
<path d="" fill="#000000" transform="translate(0,0)"/>
<path d="" fill="#000000" transform="translate(0,0)"/>
<path d="" fill="#000000" transform="translate(0,0)"/>
<path d="" fill="#000000" transform="translate(0,0)"/>
<path d="" fill="#000000" transform="translate(0,0)"/>
<path d="" fill="#000000" transform="translate(0,0)"/>
<path d="" fill="#000000" transform="translate(0,0)"/>
<path d="" fill="#000000" transform="translate(0,0)"/>
<path d="" fill="#000000" transform="translate(0,0)"/>
<path d="" fill="#000000" transform="translate(0,0)"/>
<path d="" fill="#000000" transform="translate(0,0)"/>
<path d="" fill="#000000" transform="translate(0,0)"/>
<path d="" fill="#000000" transform="translate(0,0)"/>
<path d="" fill="#000000" transform="translate(0,0)"/>
<path d="" fill="#000000" transform="translate(0,0)"/>
<path d="" fill="#000000" transform="translate(0,0)"/>
<path d="" fill="#000000" transform="translate(0,0)"/>
<path d="" fill="#000000" transform="translate(0,0)"/>
<path d="" fill="#000000" transform="translate(0,0)"/>
<path d="" fill="#000000" transform="translate(0,0)"/>
<path d="" fill="#000000" transform="translate(0,0)"/>
<path d="" fill="#000000" transform="translate(0,0)"/>
<path d="" fill="#000000" transform="translate(0,0)"/>
<path d="" fill="#000000" transform="translate(0,0)"/>
<path d="" fill="#000000" transform="translate(0,0)"/>
<path d="" fill="#000000" transform="translate(0,0)"/>
<path d="" fill="#000000" transform="translate(0,0)"/>
<path d="" fill="#000000" transform="translate(0,0)"/>
<path d="" fill="#000000" transform="translate(0,0)"/>
<path d="" fill="#000000" transform="translate(0,0)"/>
<path d="" fill="#000000" transform="translate(0,0)"/>
<path d="" fill="#000000" transform="translate(0,0)"/>
<path d="" fill="#000000" transform="translate(0,0)"/>
<path d="" fill="#000000" transform="translate(0,0)"/>
<path d="" fill="#000000" transform="translate(0,0)"/>
<path d="" fill="#000000" transform="translate(0,0)"/>
<path d="" fill="#000000" transform="translate(0,0)"/>
<path d="" fill="#000000" transform="translate(0,0)"/>
</svg>
