<?xml version="1.0" encoding="UTF-8"?>
<svg version="1.1" xmlns="http://www.w3.org/2000/svg" width="81" height="50">
<path d="M0 0 C26.73 0 53.46 0 81 0 C81 16.5 81 33 81 50 C54.27 50 27.54 50 0 50 C0 33.5 0 17 0 0 Z " fill="#FBFCFD" transform="translate(0,0)"/>
<path d="M0 0 C0.66 0 1.32 0 2 0 C3.2065625 1.2375 3.2065625 1.2375 4.4375 2.5 C6.76122416 5.34916193 6.76122416 5.34916193 10 5 C11.65 10.94 13.3 16.88 15 23 C22.24822148 24.49029034 22.24822148 24.49029034 26 23 C27.20882096 20.99983534 27.20882096 20.99983534 28 19 C28 20.65 28 22.3 28 24 C30.31 24 32.62 24 35 24 C35.33 23.34 35.66 22.68 36 22 C36.33 22.33 36.66 22.66 37 23 C38.91451817 23.09983684 40.83288619 23.12967589 42.75 23.125 C43.79671875 23.12757812 44.8434375 23.13015625 45.921875 23.1328125 C48.73223122 23.01155348 51.26639609 22.63784091 54 22 C54 22.66 54 23.32 54 24 C55.98 24 57.96 24 60 24 C60.33 22.68 60.66 21.36 61 20 C63.64 20 66.28 20 69 20 C69.495 21.98 69.495 21.98 70 24 C73.34252724 24.07427838 75.8035914 24.06546953 79 23 C79.08114106 24.77007714 79.13925505 26.54122098 79.1875 28.3125 C79.23970703 29.79169922 79.23970703 29.79169922 79.29296875 31.30078125 C79 34 79 34 77.91882324 35.6444397 C75.0037422 37.70381028 72.54369488 37.38159249 69.00585938 37.38818359 C67.9444146 37.39606903 67.9444146 37.39606903 66.86152649 37.40411377 C64.52204323 37.41731947 62.1832402 37.40857415 59.84375 37.3984375 C58.21854522 37.40045808 56.59334132 37.40336939 54.96813965 37.40713501 C51.56184254 37.41155912 48.15578141 37.40512466 44.74951172 37.39111328 C40.38115404 37.37402117 36.01334929 37.38386191 31.6450119 37.40183067 C28.2889997 37.41266627 24.9331188 37.40922324 21.57710266 37.4014473 C19.96633336 37.39944466 18.35555218 37.4019068 16.74479675 37.40888596 C14.49425639 37.41649698 12.24461402 37.40490228 9.99414062 37.38818359 C8.71301392 37.38579681 7.43188721 37.38341003 6.11193848 37.38095093 C3 37 3 37 1.08415222 35.6920929 C-0.76459955 32.80664962 -0.3634038 29.58217759 -0.29296875 26.26953125 C-0.28872391 25.51911057 -0.28447906 24.76868988 -0.28010559 23.99552917 C-0.2633245 21.60081974 -0.2256749 19.20695466 -0.1875 16.8125 C-0.17245235 15.1881632 -0.15876409 13.5638132 -0.14648438 11.93945312 C-0.11342305 7.95931052 -0.06164594 3.97979837 0 0 Z " fill="#FCFDFC" transform="translate(1,12)"/>
<path d="M0 0 C2.31 0 4.62 0 7 0 C8.99548103 7.62273755 10.69951304 15.22767795 12 23 C10.02 23 8.04 23 6 23 C6 21.68 6 20.36 6 19 C3.36 19 0.72 19 -2 19 C-2.33 20.32 -2.66 21.64 -3 23 C-4.98 23 -6.96 23 -9 23 C-6.54234965 15.08090444 -3.33181427 7.58014704 0 0 Z " fill="#1D3AC9" transform="translate(64,13)"/>
<path d="M0 0 C26.73 0 53.46 0 81 0 C81 16.5 81 33 81 50 C54.27 50 27.54 50 0 50 C0 33.5 0 17 0 0 Z M2.08712769 2.77171326 C0.93671749 5.12971022 0.62057063 6.56445616 0.61181641 9.17016602 C0.60235992 9.98103165 0.59290344 10.79189728 0.5831604 11.62733459 C0.58923309 12.49410324 0.59530579 13.36087189 0.6015625 14.25390625 C0.59869232 15.15116928 0.59582214 16.04843231 0.59286499 16.97288513 C0.5908263 18.8666141 0.59634254 20.76036422 0.60888672 22.65405273 C0.62496207 25.55565307 0.60902191 28.45586446 0.58984375 31.35742188 C0.59182585 33.19791974 0.59566883 35.03841675 0.6015625 36.87890625 C0.59548981 37.74769913 0.58941711 38.616492 0.5831604 39.51161194 C0.59261688 40.31932541 0.60207336 41.12703888 0.61181641 41.95922852 C0.61420319 42.66886246 0.61658997 43.3784964 0.61904907 44.1096344 C1.1456814 46.72290442 1.77034997 47.517687 4 49 C7.23165172 49.45859793 7.23165172 49.45859793 10.99414062 49.38818359 C12.0555854 49.39606903 12.0555854 49.39606903 13.13847351 49.40411377 C15.47795677 49.41731947 17.8167598 49.40857415 20.15625 49.3984375 C21.78145478 49.40045808 23.40665868 49.40336939 25.03186035 49.40713501 C28.43815746 49.41155912 31.84421859 49.40512466 35.25048828 49.39111328 C39.61884596 49.37402117 43.98665071 49.38386191 48.3549881 49.40183067 C51.7110003 49.41266627 55.0668812 49.40922324 58.42289734 49.4014473 C60.03366664 49.39944466 61.64444782 49.4019068 63.25520325 49.40888596 C65.50574361 49.41649698 67.75538598 49.40490228 70.00585938 49.38818359 C71.28698608 49.38579681 72.56811279 49.38341003 73.88806152 49.38095093 C76.94486071 49.24277132 76.94486071 49.24277132 78.91287231 47.72828674 C80.22762422 45.63812906 80.37990527 44.42052887 80.38818359 41.95922852 C80.40236832 40.74765831 80.40236832 40.74765831 80.4168396 39.51161194 C80.41076691 38.64281906 80.40469421 37.77402618 80.3984375 36.87890625 C80.40130768 35.98259995 80.40417786 35.08629364 80.40713501 34.16282654 C80.40917635 32.26731739 80.40364159 30.37178721 80.39111328 28.47631836 C80.37507925 25.57683063 80.39094974 22.67874082 80.41015625 19.77929688 C80.40817346 17.93749692 80.40432905 16.09569784 80.3984375 14.25390625 C80.40451019 13.3871376 80.41058289 12.52036896 80.4168396 11.62733459 C80.40738312 10.81646896 80.39792664 10.00560333 80.38818359 9.17016602 C80.38460342 8.10452171 80.38460342 8.10452171 80.38095093 7.01734924 C79.84991117 4.20519529 79.10976481 2.95407621 77 1 C73.77499445 0.38914014 73.77499445 0.38914014 70.00585938 0.48242188 C69.29822952 0.4754126 68.59059967 0.46840332 67.86152649 0.46118164 C65.52186875 0.44357273 63.18342008 0.45523343 60.84375 0.46875 C59.21854419 0.46605589 57.59333994 0.46217414 55.96813965 0.45715332 C52.56177425 0.45125439 49.15582836 0.45983352 45.74951172 0.47851562 C41.38100546 0.50130589 37.01348209 0.48818485 32.6450119 0.46422577 C29.28896668 0.44977816 25.93315487 0.4543689 22.57710266 0.46473694 C20.96633285 0.46740712 19.3555419 0.46412421 17.74479675 0.45481873 C15.49400633 0.44466957 13.244812 0.46012833 10.99414062 0.48242188 C9.07245056 0.48719543 9.07245056 0.48719543 7.11193848 0.49206543 C3.9566762 0.7129012 3.9566762 0.7129012 2.08712769 2.77171326 Z " fill="#C5C6C2" transform="translate(0,0)"/>
<path d="M0 0 C3.63 0 7.26 0 11 0 C12.33583899 4.84241633 13.25328119 8.93437617 13 14 C13.66 14 14.32 14 15 14 C15.0825 13.360625 15.165 12.72125 15.25 12.0625 C16.29520372 7.79458483 18.14091826 3.96892333 20 0 C21.98 0 23.96 0 26 0 C23.03 7.59 20.06 15.18 17 23 C15.02 23 13.04 23 11 23 C8.96281271 17.1485046 7.31904935 11.35229392 6.0390625 5.28515625 C5.1721703 2.74653793 5.1721703 2.74653793 2.3984375 1.68359375 C1.60695313 1.45800781 0.81546875 1.23242188 0 1 C0 0.67 0 0.34 0 0 Z " fill="#1F3CCB" transform="translate(5,13)"/>
<path d="M0 0 C1 1 1 1 1.0625 3.5625 C1.041875 4.366875 1.02125 5.17125 1 6 C-1.64 6 -4.28 6 -7 6 C-6.26600588 9.2942379 -6.26600588 9.2942379 -2.9375 10.8125 C0 13 0 13 0.6875 15.9375 C-0.26241478 20.16893858 -1.40354955 21.5544137 -5 24 C-8.380446 24.46049419 -11.61709585 24.43852461 -15 24 C-16 23 -16 23 -16.0625 20.4375 C-16.041875 19.633125 -16.02125 18.82875 -16 18 C-13.03 18 -10.06 18 -7 18 C-7.33 17.01 -7.66 16.02 -8 15 C-8.825 14.5875 -9.65 14.175 -10.5 13.75 C-13 12 -13 12 -14.0625 8.5625 C-14 5 -14 5 -12.25 2.625 C-8.24028001 -0.27090888 -4.82232811 -0.17860474 0 0 Z " fill="#1B39C8" transform="translate(55,12)"/>
<path d="M0 0 C1.98 0 3.96 0 6 0 C5.20736384 7.76783437 3.58110513 15.3629639 2 23 C0.02 23 -1.96 23 -4 23 C-3.32545897 15.1753241 -1.73123042 7.65443386 0 0 Z " fill="#2742C8" transform="translate(33,13)"/>
<path d="M0 0 C1.98 0 3.96 0 6 0 C6.14695312 0.81984375 6.29390625 1.6396875 6.4453125 2.484375 C7.49266506 8.54028808 7.49266506 8.54028808 10.53515625 13.6875 C12.31976619 14.89446475 12.31976619 14.89446475 15 16 C14.67 16.99 14.34 17.98 14 19 C7.25 19.125 7.25 19.125 5 18 C5.33 19.98 5.66 21.96 6 24 C4.33333333 24 2.66666667 24 1 24 C1.67454103 16.1753241 3.26876958 8.65443386 5 1 C3.35 1 1.7 1 0 1 C0 0.67 0 0.34 0 0 Z " fill="#EAEFF9" transform="translate(34,12)"/>
<path d="M0 0 C4.875 3.625 4.875 3.625 6 7 C5.19962568 9.47388426 4.34140592 11.75060173 3.3125 14.125 C2.92674805 15.09373047 2.92674805 15.09373047 2.53320312 16.08203125 C0.53039352 20.7765776 0.53039352 20.7765776 -2.20703125 21.9296875 C-2.79871094 21.95289062 -3.39039063 21.97609375 -4 22 C-3.67 21.46375 -3.34 20.9275 -3 20.375 C-1.66626719 17.20738457 -1.37429923 15.40659307 -2 12 C-4.12612117 9.96931569 -6.45897143 8.46498076 -9 7 C-8.67 6.01 -8.34 5.02 -8 4 C-5.36 4.33 -2.72 4.66 0 5 C0 3.35 0 1.7 0 0 Z " fill="#F2F5FA" transform="translate(56,13)"/>
<path d="M0 0 C0.99 0.33 1.98 0.66 3 1 C2.46798834 5.07875604 1.84499996 9.13750025 1.125 13.1875 C0.98320312 14.00605469 0.84140625 14.82460938 0.6953125 15.66796875 C-0.09759615 18.32733091 -1.15324225 19.94139473 -3 22 C-5.1875 22.75 -5.1875 22.75 -7 23 C-8.1916143 19.42515711 -7.74788456 18.71412118 -6.34765625 15.33203125 C-5.98349609 14.43935547 -5.61933594 13.54667969 -5.24414062 12.62695312 C-4.85419922 11.69818359 -4.46425781 10.76941406 -4.0625 9.8125 C-3.67642578 8.87212891 -3.29035156 7.93175781 -2.89257812 6.96289062 C-1.93678351 4.63830372 -0.97232993 2.31770801 0 0 Z " fill="#F2F5F9" transform="translate(30,14)"/>
<path d="M0 0 C1 1 1 1 1.0625 3.5625 C1.041875 4.366875 1.02125 5.17125 1 6 C-1.64 6 -4.28 6 -7 6 C-6.2236068 9.0745356 -6.2236068 9.0745356 -4 11 C-4.99 11.33 -5.98 11.66 -7 12 C-9 9 -9 9 -9 6 C-9.66 6 -10.32 6 -11 6 C-11 7.65 -11 9.3 -11 11 C-10.34 11.33 -9.68 11.66 -9 12 C-9.33 12.66 -9.66 13.32 -10 14 C-12.46694247 11.91851729 -13.85643482 10.71782589 -14.5 7.5 C-13.84421222 4.22106109 -12.58147134 3.06517707 -10 1 C-6.50615721 -0.16461426 -3.66344611 -0.13568319 0 0 Z " fill="#2641C7" transform="translate(55,12)"/>
<path d="M0 0 C2.31 0 4.62 0 7 0 C6.360625 0.268125 5.72125 0.53625 5.0625 0.8125 C2.66868314 1.88667752 2.66868314 1.88667752 2 5 C2.99 5 3.98 5 5 5 C5 8.3 5 11.6 5 15 C3.35 15 1.7 15 0 15 C0.33 13.68 0.66 12.36 1 11 C0.34 11 -0.32 11 -1 11 C-2.23076923 4.6 -2.23076923 4.6 -1.0625 1.5625 C-0.711875 1.046875 -0.36125 0.53125 0 0 Z " fill="#243ECC" transform="translate(64,13)"/>
<path d="M0 0 C1.65 0.33 3.3 0.66 5 1 C5.33951619 2.56116819 5.67132544 4.12401338 6 5.6875 C6.185625 6.55761719 6.37125 7.42773438 6.5625 8.32421875 C6.98972047 10.93712964 7.07616201 13.35813038 7 16 C5.35 15.67 3.7 15.34 2 15 C2 11.37 2 7.74 2 4 C1.01 4 0.02 4 -1 4 C-0.67 2.68 -0.34 1.36 0 0 Z " fill="#1133CB" transform="translate(67,14)"/>
<path d="M0 0 C1.32 0 2.64 0 4 0 C3.67547852 0.63284912 3.35095703 1.26569824 3.01660156 1.91772461 C1.63733829 6.09956869 1.71374149 9.94110074 1.734375 14.31640625 C1.73246155 15.20988266 1.7305481 16.10335907 1.72857666 17.02391052 C1.72721905 18.90746341 1.73088583 20.79102578 1.73925781 22.67456055 C1.74997597 25.55604042 1.73934169 28.43689865 1.7265625 31.31835938 C1.72788392 33.15104304 1.73044596 34.98372632 1.734375 36.81640625 C1.73032654 37.67690079 1.72627808 38.53739532 1.72210693 39.42396545 C1.72841125 40.2283757 1.73471558 41.03278595 1.74121094 41.86157227 C1.74280212 42.56596939 1.74439331 43.27036652 1.74603271 43.99610901 C2.04177744 46.32963867 2.84970066 47.96399729 4 50 C2.68 50 1.36 50 0 50 C0 33.5 0 17 0 0 Z " fill="#ABAFAA" transform="translate(0,0)"/>
<path d="M0 0 C0.66 0 1.32 0 2 0 C2 16.5 2 33 2 50 C0.68 50 -0.64 50 -2 50 C-1.67501022 49.42568237 -1.35002045 48.85136475 -1.0151825 48.25964355 C0.05199714 45.8842622 0.24811634 44.42532942 0.24291992 41.84570312 C0.24599655 41.03806519 0.24907318 40.23042725 0.25224304 39.39831543 C0.24505753 38.53468384 0.23787201 37.67105225 0.23046875 36.78125 C0.23001053 35.88635864 0.22955231 34.99146729 0.2290802 34.06945801 C0.22606305 32.17991813 0.21819281 30.29038062 0.20581055 28.40087891 C0.18756724 25.5106524 0.18530089 22.62074681 0.18554688 19.73046875 C0.18063077 17.8932264 0.17480204 16.05598622 0.16796875 14.21875 C0.16685593 13.35511841 0.1657431 12.49148682 0.16459656 11.60168457 C0.15502678 10.39022766 0.15502678 10.39022766 0.14526367 9.15429688 C0.14145187 8.44688354 0.13764008 7.73947021 0.13371277 7.01062012 C0.05944621 4.94748039 0.05944621 4.94748039 -0.57157898 2.80285645 C-0.71295792 2.20791382 -0.85433685 1.61297119 -1 1 C-0.67 0.67 -0.34 0.34 0 0 Z " fill="#ACADA8" transform="translate(79,0)"/>
<path d="M0 0 C1.31625194 2.63250388 0.74813658 3.80179056 0.0625 6.625 C-0.13214844 7.44226562 -0.32679687 8.25953125 -0.52734375 9.1015625 C-0.76130859 10.04128906 -0.76130859 10.04128906 -1 11 C-2.98 11 -4.96 11 -7 11 C-6.67 8.03 -6.34 5.06 -6 2 C-5.34 2.66 -4.68 3.32 -4 4 C-2.68 2.68 -1.36 1.36 0 0 Z " fill="#2742CB" transform="translate(36,25)"/>
<path d="M0 0 C3.63 0 7.26 0 11 0 C11 4.62 11 9.24 11 14 C10.34 13.67 9.68 13.34 9 13 C8.40644386 10.35139573 8.25790731 7.70802678 8 5 C7.34 5 6.68 5 6 5 C4.97803008 4.02246356 3.98020375 3.0194119 3 2 C2.01 1.34 1.02 0.68 0 0 Z " fill="#1636C6" transform="translate(5,13)"/>
<path d="M0 0 C1.98 0.99 3.96 1.98 6 3 C6 4.32 6 5.64 6 7 C3.69 7 1.38 7 -1 7 C-1.625 5.1875 -1.625 5.1875 -2 3 C-1.34 2.01 -0.68 1.02 0 0 Z " fill="#F2F7F9" transform="translate(42,24)"/>
<path d="M0 0 C0.99 0.33 1.98 0.66 3 1 C2.67 3.31 2.34 5.62 2 8 C1.34 8 0.68 8 0 8 C-1.37310707 9.29233607 -2.71034824 10.62437146 -4 12 C-3.52309796 10.37433394 -3.04340334 8.74948689 -2.5625 7.125 C-2.29566406 6.22007813 -2.02882813 5.31515625 -1.75390625 4.3828125 C-1 2 -1 2 0 0 Z " fill="#E1E6F5" transform="translate(30,14)"/>
<path d="M0 0 C3.3 0 6.6 0 10 0 C10 0.66 10 1.32 10 2 C4.82421875 5.22265625 4.82421875 5.22265625 3 6 C2.01 5.67 1.02 5.34 0 5 C0 3.35 0 1.7 0 0 Z " fill="#314BD0" transform="translate(39,30)"/>
<path d="M0 0 C0.66 0 1.32 0 2 0 C2.3125 3.25 2.3125 3.25 2 7 C-0.5 9.4375 -0.5 9.4375 -3 11 C-2.53199289 6.94393835 -2.12046792 3.53411321 0 0 Z " fill="#1133CA" transform="translate(34,19)"/>
<path d="M0 0 C2.64 0 5.28 0 8 0 C5.42595029 3.86107457 3.38979741 3.94319692 -1 5 C-0.67 3.35 -0.34 1.7 0 0 Z " fill="#D7DFF7" transform="translate(62,32)"/>
<path d="M0 0 C3.63 0 7.26 0 11 0 C11 0.33 11 0.66 11 1 C8.69 1.33 6.38 1.66 4 2 C4.99 2.99 5.98 3.98 7 5 C5.1875 5.6875 5.1875 5.6875 3 6 C1.25 4.75 1.25 4.75 0 3 C0 2.01 0 1.02 0 0 Z " fill="#C8D2F5" transform="translate(4,12)"/>
<path d="M0 0 C0.66 0.33 1.32 0.66 2 1 C1.47731534 3.76276177 0.89130413 6.3260876 0 9 C-0.66 9 -1.32 9 -2 9 C-2.33 6.36 -2.66 3.72 -3 1 C-2.01 0.67 -1.02 0.34 0 0 Z " fill="#DEE5F6" transform="translate(20,18)"/>
<path d="M0 0 C0.66 0 1.32 0 2 0 C2 6.27 2 12.54 2 19 C1.67 19 1.34 19 1 19 C0.93941406 18.03578125 0.87882812 17.0715625 0.81640625 16.078125 C0.73261719 14.81484375 0.64882812 13.5515625 0.5625 12.25 C0.48128906 10.99703125 0.40007812 9.7440625 0.31640625 8.453125 C0.10269402 5.15168952 0.10269402 5.15168952 -0.59765625 2.609375 C-0.73042969 2.07828125 -0.86320312 1.5471875 -1 1 C-0.67 0.67 -0.34 0.34 0 0 Z " fill="#B2B2B1" transform="translate(79,0)"/>
<path d="M0 0 C2.125 0.9375 2.125 0.9375 4 2 C3.34 2 2.68 2 2 2 C2 2.66 2 3.32 2 4 C1.34 4 0.68 4 0 4 C0.33 4.66 0.66 5.32 1 6 C3.52733235 6.65555119 3.52733235 6.65555119 6 7 C6 7.33 6 7.66 6 8 C4.02 8 2.04 8 0 8 C-0.66 5.69 -1.32 3.38 -2 1 C-1.34 0.67 -0.68 0.34 0 0 Z " fill="#233EC4" transform="translate(16,28)"/>
<path d="M0 0 C0.66 0 1.32 0 2 0 C2.28875 0.969375 2.5775 1.93875 2.875 2.9375 C3.64214682 6.10664203 3.64214682 6.10664203 6 7 C4.68 7.33 3.36 7.66 2 8 C2 7.34 2 6.68 2 6 C1.01 5.67 0.02 5.34 -1 5 C-0.67 3.35 -0.34 1.7 0 0 Z " fill="#1035CD" transform="translate(44,18)"/>
<path d="M0 0 C0.66 0 1.32 0 2 0 C2.33 1.98 2.66 3.96 3 6 C1.02 6 -0.96 6 -3 6 C-2.67 4.68 -2.34 3.36 -2 2 C-1.34 2 -0.68 2 0 2 C0 1.34 0 0.68 0 0 Z " fill="#3049C8" transform="translate(73,30)"/>
<path d="M0 0 C0.66 0.33 1.32 0.66 2 1 C2.625 4.0625 2.625 4.0625 3 7 C1.35 7 -0.3 7 -2 7 C-1.34 4.69 -0.68 2.38 0 0 Z " fill="#CFDBF6" transform="translate(66,21)"/>
<path d="M0 0 C2.33294775 -0.04241723 4.66702567 -0.04092937 7 0 C8 1 8 1 8.0625 3.5625 C8.041875 4.366875 8.02125 5.17125 8 6 C6.35 5.67 4.7 5.34 3 5 C3.66 4.01 4.32 3.02 5 2 C3.35 1.67 1.7 1.34 0 1 C0 0.67 0 0.34 0 0 Z " fill="#4359CF" transform="translate(48,12)"/>
<path d="M0 0 C0.33 1.32 0.66 2.64 1 4 C1.66 4 2.32 4 3 4 C3.33 5.65 3.66 7.3 4 9 C2.33333333 9 0.66666667 9 -1 9 C-0.67 6.03 -0.34 3.06 0 0 Z " fill="#DEE6F9" transform="translate(36,27)"/>
<path d="M0 0 C3.125 -0.1875 3.125 -0.1875 6 0 C6 0.99 6 1.98 6 3 C3.36 3 0.72 3 -2 3 C-1.34 2.01 -0.68 1.02 0 0 Z " fill="#1034CC" transform="translate(47,13)"/>
<path d="M0 0 C0.33 0 0.66 0 1 0 C1.66 3.96 2.32 7.92 3 12 C2.01 12 1.02 12 0 12 C0 8.04 0 4.08 0 0 Z " fill="#1F3BC8" transform="translate(71,15)"/>
<path d="M0 0 C1.60080151 4.00200378 0.29279692 7.04556236 -1 11 C-1.33 11 -1.66 11 -2 11 C-2.33 8.69 -2.66 6.38 -3 4 C-2.34 4 -1.68 4 -1 4 C-0.67 2.68 -0.34 1.36 0 0 Z " fill="#DFE8F2" transform="translate(76,19)"/>
<path d="M0 0 C1.65 0 3.3 0 5 0 C5 0.99 5 1.98 5 3 C4.01 3 3.02 3 2 3 C2 3.66 2 4.32 2 5 C1.34 5 0.68 5 0 5 C0 3.35 0 1.7 0 0 Z " fill="#1A3CCE" transform="translate(33,13)"/>
<path d="M0 0 C1.65 0 3.3 0 5 0 C4.01 0.33 3.02 0.66 2 1 C2 1.99 2 2.98 2 4 C2.66 4 3.32 4 4 4 C3.67 4.66 3.34 5.32 3 6 C1.68 5.01 0.36 4.02 -1 3 C-0.67 2.01 -0.34 1.02 0 0 Z " fill="#CDD9F6" transform="translate(48,17)"/>
</svg>
