<svg width="16" height="10" viewBox="0 0 16 10" fill="none" xmlns="http://www.w3.org/2000/svg">
<path d="M0.75 0.5H15.25C15.4489 0.5 15.6397 0.579018 15.7803 0.71967C15.921 0.860322 16 1.05109 16 1.25C16 1.44891 15.921 1.63968 15.7803 1.78033C15.6397 1.92098 15.4489 2 15.25 2H0.75C0.551088 2 0.360322 1.92098 0.21967 1.78033C0.0790176 1.63968 0 1.44891 0 1.25C0 1.05109 0.0790176 0.860322 0.21967 0.71967C0.360322 0.579018 0.551088 0.5 0.75 0.5ZM3 5.25C3 5.05109 3.07902 4.86032 3.21967 4.71967C3.36032 4.57902 3.55109 4.5 3.75 4.5H12.25C12.4489 4.5 12.6397 4.57902 12.7803 4.71967C12.921 4.86032 13 5.05109 13 5.25C13 5.44891 12.921 5.63968 12.7803 5.78033C12.6397 5.92098 12.4489 6 12.25 6H3.75C3.55109 6 3.36032 5.92098 3.21967 5.78033C3.07902 5.63968 3 5.44891 3 5.25ZM6 9.25C6 9.05109 6.07902 8.86032 6.21967 8.71967C6.36032 8.57902 6.55109 8.5 6.75 8.5H9.25C9.44891 8.5 9.63968 8.57902 9.78033 8.71967C9.92098 8.86032 10 9.05109 10 9.25C10 9.44891 9.92098 9.63968 9.78033 9.78033C9.63968 9.92098 9.44891 10 9.25 10H6.75C6.55109 10 6.36032 9.92098 6.21967 9.78033C6.07902 9.63968 6 9.44891 6 9.25Z" fill="black"/>
</svg>
